<svg width="554" height="577" viewBox="0 0 554 577" fill="none" xmlns="http://www.w3.org/2000/svg">
<ellipse cx="258" cy="382" rx="209" ry="195" fill="#FFA42C"/>
<path d="M324.505 314.097V441.054H341.593V325.276H409.942V441.054H427.029V187.139H409.942C404.279 187.139 395.588 221.59 395.588 256.207C395.588 282.3 398.197 304.662 401.906 314.097H324.505ZM409.942 314.097H409.775C409.831 313.955 409.886 313.805 409.942 313.657V314.097Z" fill="#3F3D56"/>
<path d="M387.826 124.3H387.826C373.801 124.3 362.43 139.042 362.43 157.226V180.329H368.513L372.034 171.769L371.154 180.329H410.248L413.449 172.547L412.649 180.329H417.051V162.189C417.051 141.264 403.967 124.3 387.826 124.3Z" fill="#2F2E41"/>
<path d="M358.727 275.245L343.134 282.986L288.949 334.447C286.956 337.308 285.735 340.794 285.44 344.466C285.05 350.386 268.678 381.354 274.525 385.452C280.373 389.551 301.423 401.847 302.593 393.65C303.762 385.453 309.999 350.386 309.999 350.386L362.236 295.738L358.727 275.245Z" fill="#2F2E41"/>
<path d="M297.525 386.819L290.898 409.589C290.898 409.589 297.915 418.242 294.406 425.528V450.575H288.949L287.389 437.369C287.389 437.369 281.173 450.408 278.034 450.575C271.452 450.925 258.418 453.66 258.028 449.561C257.639 445.463 267.898 441.467 267.898 441.467L278.813 406.401L283.491 384.997L297.525 386.819Z" fill="#2F2E41"/>
<path d="M399.269 269.324C399.269 269.324 402.777 309.4 392.642 316.686C382.506 323.973 337.677 347.198 337.677 347.198C337.677 347.198 356.778 368.147 352.88 373.156C348.981 378.166 331.439 391.828 329.1 389.096C326.762 386.363 300.643 353.574 303.762 343.1C306.881 332.625 350.151 298.47 350.151 298.47L355.219 277.066L356.778 259.761L373.151 247.465L399.269 269.324Z" fill="#2F2E41"/>
<path d="M381.409 176.018C390.384 176.018 397.66 167.518 397.66 157.033C397.66 146.548 390.384 138.048 381.409 138.048C372.434 138.048 365.158 146.548 365.158 157.033C365.158 167.518 372.434 176.018 381.409 176.018Z" fill="#FFB9B9"/>
<path d="M394.006 164.809C394.006 164.809 393.226 182.114 405.311 187.579C417.396 193.044 375.295 228.566 375.295 228.566V188.945C375.295 188.945 380.752 182.114 375.295 171.64L394.006 164.809Z" fill="#FFB9B9"/>
<path d="M419.929 246.099L416.811 263.859L407.455 324.884C407.455 324.884 415.251 350.842 404.726 350.386C394.201 349.931 399.269 322.151 399.269 322.151L404.726 271.601V252.019L419.929 246.099Z" fill="#FFB9B9"/>
<path d="M352.88 237.446L349.371 253.385L333.389 298.47C333.389 298.47 322.474 319.874 331.439 319.419C340.405 318.963 340.405 298.47 340.405 298.47L358.727 262.038V241.545L352.88 237.446Z" fill="#FFB9B9"/>
<path d="M350.151 370.424L363.015 384.542C363.015 384.542 371.981 382.265 375.49 394.561C378.998 406.856 381.337 414.598 381.337 414.598L376.659 417.786L370.812 408.223C370.812 408.223 367.303 425.528 363.795 426.894C360.286 428.26 342.744 437.369 344.304 426.894L352.88 412.321C352.88 412.321 354.049 395.927 350.541 394.561C347.032 393.194 337.677 379.532 337.677 379.532L350.151 370.424Z" fill="#2F2E41"/>
<path d="M399.887 283.442C399.887 283.442 363.243 267.958 360.904 269.324C359.163 270.223 357.309 270.785 355.414 270.989L355.447 264.77C355.447 264.77 367.531 259.761 374.158 262.949C380.785 266.137 401.056 280.254 401.056 280.254L399.887 283.442Z" fill="#3F3D56"/>
<path d="M377.633 219.458C377.633 219.458 388.159 205.34 391.277 196.687C393.25 191.442 396.872 187.281 401.395 185.065C401.395 185.065 424.802 191.222 424.412 202.152C424.023 213.082 409.599 229.932 409.599 229.932C409.599 229.932 411.548 290.501 401.023 289.59C398.753 286.425 397.15 282.681 396.345 278.66C395.176 272.284 358.922 265.453 358.922 265.453C358.922 265.453 355.803 271.829 355.414 269.097C355.024 266.364 358.532 199.42 358.532 199.42L377.122 185.065L377.633 219.458Z" fill="#D0CDE1"/>
<path d="M421.41 197.753L421.671 197.924C422.504 198.47 423.197 199.266 423.68 200.229C424.163 201.192 424.417 202.288 424.417 203.404L424.413 237.201C424.416 238.119 424.59 239.026 424.923 239.859C425.256 240.691 425.74 241.429 426.341 242.02C427.843 243.513 429.235 245.663 426.362 246.782C421.684 248.603 403.362 257.712 402.972 254.524C402.582 251.336 401.803 247.693 402.972 247.693C403.888 247.693 409.343 215.036 413.726 201.074C413.994 200.219 414.417 199.442 414.967 198.798C415.517 198.153 416.18 197.655 416.911 197.339C417.642 197.024 418.422 196.897 419.199 196.968C419.976 197.04 420.73 197.307 421.41 197.753Z" fill="#D0CDE1"/>
<path d="M363.795 197.826L358.337 199.648L352.1 231.07C352.1 231.07 344.693 232.892 347.032 236.08C349.371 239.268 359.117 247.465 359.117 247.465L363.795 197.826Z" fill="#D0CDE1"/>
<path d="M395.046 133.37C393.824 131.453 392.24 129.89 390.418 128.804C388.595 127.717 386.583 127.136 384.537 127.105H384.038C374.425 127.105 366.632 137.267 366.632 149.803V149.803H369.853L370.373 145.178L371.136 149.803H390.241L391.841 145.89L391.441 149.803H395.2C396.953 159.979 394.433 170.154 387.64 180.329H394.042L397.243 172.502L396.443 180.329H408.647L411.048 162.327C411.048 148.845 404.343 137.412 395.046 133.37Z" fill="#2F2E41"/>
<path d="M68.5561 343.43C72.6572 332.999 75.5413 308.274 75.5413 279.424C75.5413 241.149 65.9319 203.058 59.6713 203.058H40.7786V483.803H59.6713V355.79H135.242V483.803H154.135V343.43H68.5561ZM59.6713 342.944C59.7325 343.108 59.7934 343.274 59.8551 343.43H59.6713V342.944Z" fill="#3F3D56"/>
<path d="M147.303 292.214C147.303 292.214 170.056 303.235 162.842 309.718C155.627 316.201 140.644 301.938 141.199 299.993C141.754 298.048 138.979 293.51 138.979 293.51L147.303 292.214Z" fill="#9F616A"/>
<path d="M127.325 205.34L134.539 213.119L136.204 235.81L141.753 259.798C141.753 259.798 151.188 282.489 149.523 287.027C147.858 291.565 151.188 292.862 151.188 292.862L138.424 298.697C138.424 298.697 124.55 280.544 124.55 276.654C124.55 272.764 127.325 205.34 127.325 205.34Z" fill="#575A88"/>
<path opacity="0.1" d="M127.325 205.34L134.539 213.119L136.204 235.81L141.753 259.798C141.753 259.798 151.188 282.489 149.523 287.027C147.858 291.565 151.188 292.862 151.188 292.862L138.424 298.697C138.424 298.697 124.55 280.544 124.55 276.654C124.55 272.764 127.325 205.34 127.325 205.34Z" fill="black"/>
<path d="M195.584 438.733C195.584 438.733 192.809 453.644 192.254 454.941C191.699 456.237 202.798 460.775 202.798 460.775L216.117 449.754C216.117 449.754 210.568 435.491 210.568 432.898L195.584 438.733Z" fill="#575A88"/>
<path d="M122.885 293.51L126.77 298.697C126.77 298.697 207.238 310.366 208.903 328.519C210.568 346.672 222.222 432.25 215.562 434.843C208.903 437.436 191.699 447.161 191.699 441.974C191.699 436.788 180.6 365.473 182.82 352.507C182.82 352.507 86.8132 338.244 84.5933 322.036C82.3735 305.828 86.8132 298.697 86.8132 298.697L122.885 293.51Z" fill="#2F2E41"/>
<path opacity="0.1" d="M122.885 293.51L126.77 298.697C126.77 298.697 207.238 310.366 208.903 328.519C210.568 346.672 222.222 432.25 215.562 434.843C208.903 437.436 191.699 447.161 191.699 441.974C191.699 436.788 180.6 365.473 182.82 352.507C182.82 352.507 86.8132 338.244 84.5933 322.036C82.3735 305.828 86.8132 298.697 86.8132 298.697L122.885 293.51Z" fill="black"/>
<path d="M194.474 453.644C194.474 453.644 192.254 447.809 191.144 449.754C190.034 451.699 186.15 474.39 190.034 474.39C193.919 474.39 229.436 484.763 234.431 483.466C239.425 482.17 248.86 484.115 247.75 477.631C246.64 471.148 241.09 470.5 241.09 470.5C241.09 470.5 220.557 456.237 219.447 449.106C218.337 441.974 212.233 445.864 212.233 445.864V450.402C212.233 450.402 200.579 460.775 194.474 453.644Z" fill="#2F2E41"/>
<path d="M89.0329 156.068C89.0329 156.068 92.9176 178.11 84.5933 180.055C76.269 182 95.1374 194.967 95.1374 194.967L107.346 202.746L116.226 192.373C116.226 192.373 108.179 173.248 114.283 158.985C120.388 144.722 89.0329 156.068 89.0329 156.068Z" fill="#9F616A"/>
<path d="M116.226 192.373L107.346 202.746L95.1374 194.967C95.1374 194.967 76.269 182 84.5933 180.055C89.9486 178.804 90.2483 169.235 89.7877 162.57C89.6373 160.388 89.3854 158.218 89.0329 156.068C89.0329 156.068 120.388 144.722 114.283 158.985C113.356 161.188 112.712 163.538 112.374 165.961C110.504 178.778 116.226 192.373 116.226 192.373Z" fill="#9F616A"/>
<path d="M147.303 457.534V472.445H168.391L170.056 466.61L167.836 451.051L147.303 457.534Z" fill="#575A88"/>
<path d="M60.1754 306.477C60.1754 306.477 60.1754 344.727 73.4943 346.024C86.8132 347.32 134.539 354.452 134.539 354.452C134.539 354.452 137.314 417.987 142.309 438.733C147.303 459.479 142.863 460.775 147.303 462.072C151.743 463.369 170.611 458.83 170.056 454.292C169.501 449.754 167.281 335.002 167.281 335.002C167.281 335.002 172.276 310.366 105.682 298.697L60.1754 306.477Z" fill="#2F2E41"/>
<path d="M148.968 467.907C148.968 467.907 145.638 459.479 145.083 462.072C144.528 464.665 137.869 487.356 144.528 489.301C151.188 491.246 172.276 501.619 186.15 500.971C200.024 500.323 201.688 499.674 201.688 499.674C201.688 499.674 205.573 493.191 200.579 489.301C195.584 485.411 175.051 462.72 173.941 460.127C172.831 457.534 164.507 455.589 164.507 460.127C164.507 464.665 152.853 473.742 148.968 467.907Z" fill="#2F2E41"/>
<path opacity="0.1" d="M114.283 158.985C113.356 161.188 112.713 163.538 112.374 165.961C109.611 167.912 107.763 167.413 104.294 167.413C99.1498 167.413 97.0742 159.731 93.7501 155.744C93.4892 152.042 89.033 156.068 89.033 156.068C89.033 156.068 120.388 144.722 114.283 158.985Z" fill="black"/>
<path d="M102.907 167.089C113.021 167.089 121.22 157.51 121.22 145.695C121.22 133.879 113.021 124.3 102.907 124.3C92.7926 124.3 84.5934 133.879 84.5934 145.695C84.5934 157.51 92.7926 167.089 102.907 167.089Z" fill="#9F616A"/>
<path d="M134.539 213.119C134.539 213.119 131.764 236.459 130.099 244.887C128.435 253.315 126.215 292.214 125.105 297.4C123.995 302.587 117.336 303.883 104.017 301.938C103.181 301.815 102.34 301.742 101.497 301.718C93.295 301.413 83.9108 304.998 75.2257 307.812C70.2311 309.433 65.4641 310.794 61.2853 311.015C54.9588 311.352 53.1053 303.157 53.3217 294.288C53.527 286.035 55.5304 277.186 57.4006 274.061C60.7692 268.433 57.4561 217.91 58.6992 201.249V201.242C58.8878 198.701 59.182 196.95 59.6204 196.263C62.9501 191.077 84.5933 178.11 87.0185 178.635C89.438 179.16 110.121 194.318 110.121 194.318C115.116 194.318 114.955 187.991 114.955 187.991C114.955 187.991 118.445 195.615 125.105 197.56C131.764 199.505 134.539 213.119 134.539 213.119Z" fill="#575A88"/>
<path d="M97.442 297.168C97.442 297.168 133.19 298.498 126.928 303.46C120.665 308.421 92.9176 312.96 92.3627 306.477C91.8077 299.993 97.442 297.168 97.442 297.168Z" fill="#9F616A"/>
<path opacity="0.1" d="M101.497 301.718C101.614 304.207 95.8811 309.815 94.0275 313.608C93.0008 315.709 85.0539 312.94 75.2257 307.812C67.6837 303.857 60.3672 299.34 53.3217 294.288C53.527 286.035 55.5304 277.186 57.4006 274.061C60.7692 268.433 57.4561 217.91 58.6992 201.249V201.242C58.9956 201.066 59.3036 200.919 59.6204 200.801H66.2798C89.0329 213.119 62.9501 266.281 62.9501 266.281C62.9501 266.281 97.3572 299.345 100.687 300.642C100.905 300.69 101.104 300.822 101.25 301.017C101.397 301.212 101.484 301.459 101.497 301.718Z" fill="black"/>
<path d="M66.2798 196.911H59.6204C59.6204 196.911 53.5159 198.856 48.5213 211.823C43.5267 224.789 25.2133 264.984 41.3069 280.544C57.4006 296.103 91.8077 314.256 94.0275 309.718C96.2473 305.18 104.017 298.048 100.687 296.752C97.3572 295.455 62.9501 262.391 62.9501 262.391C62.9501 262.391 89.0329 209.229 66.2798 196.911Z" fill="#575A88"/>
<path d="M100.089 135.739C100.089 135.739 100.893 122.742 110.808 128.042C120.722 133.341 120.075 118.734 117.079 116.153C114.083 113.572 114.178 112.933 103.22 114.66C92.2617 116.387 70.9871 119.313 77.8661 145.053C84.7451 170.793 90.9752 164.172 90.9752 164.172C90.9752 164.172 85.5073 141.009 91.0476 145.422L96.588 149.835L99.5116 149.111L100.089 135.739Z" fill="#2F2E41"/>
<path d="M509.189 322.89C509.189 311.189 434.754 301.702 342.933 301.702C251.112 301.702 176.676 311.189 176.676 322.89C176.676 327.426 187.863 331.628 206.905 335.074V480.037H215.973V336.569C246.47 341.162 292.025 344.079 342.933 344.079C394.261 344.079 440.151 341.114 470.648 336.455V480.037H479.716V334.935C498.295 331.515 509.189 327.365 509.189 322.89Z" fill="#3F3D56"/>
<path d="M363.761 323.333C382.457 323.333 397.613 318.979 397.613 313.608C397.613 308.237 382.457 303.883 363.761 303.883C345.065 303.883 329.909 308.237 329.909 313.608C329.909 318.979 345.065 323.333 363.761 323.333Z" fill="#F2F2F2"/>
<path d="M363.761 321.579C379.086 321.579 391.509 318.01 391.509 313.608C391.509 309.206 379.086 305.637 363.761 305.637C348.437 305.637 336.014 309.206 336.014 313.608C336.014 318.01 348.437 321.579 363.761 321.579Z" fill="#D0CDE1"/>
<path d="M237.787 331.113C256.483 331.113 271.639 326.759 271.639 321.388C271.639 316.017 256.483 311.663 237.787 311.663C219.091 311.663 203.935 316.017 203.935 321.388C203.935 326.759 219.091 331.113 237.787 331.113Z" fill="#F2F2F2"/>
<path d="M237.787 329.359C253.112 329.359 265.535 325.79 265.535 321.388C265.535 316.986 253.112 313.417 237.787 313.417C222.462 313.417 210.039 316.986 210.039 321.388C210.039 325.79 222.462 329.359 237.787 329.359Z" fill="#D0CDE1"/>
<path d="M362.974 312.921C371.886 312.921 379.112 311.589 379.112 309.945C379.112 308.301 371.886 306.968 362.974 306.968C354.061 306.968 346.835 308.301 346.835 309.945C346.835 311.589 354.061 312.921 362.974 312.921Z" fill="#9F616A"/>
<path d="M354.374 308.828C357.188 308.828 359.47 307.384 359.47 305.603C359.47 303.822 357.188 302.378 354.374 302.378C351.559 302.378 349.277 303.822 349.277 305.603C349.277 307.384 351.559 308.828 354.374 308.828Z" fill="#D21717"/>
<path d="M352.463 308.828C355.277 308.828 357.559 307.384 357.559 305.603C357.559 303.822 355.277 302.378 352.463 302.378C349.648 302.378 347.366 303.822 347.366 305.603C347.366 307.384 349.648 308.828 352.463 308.828Z" fill="#D21717"/>
<path d="M374.759 309.572C377.573 309.572 379.855 308.129 379.855 306.347C379.855 304.566 377.573 303.123 374.759 303.123C371.944 303.123 369.662 304.566 369.662 306.347C369.662 308.129 371.944 309.572 374.759 309.572Z" fill="#D21717"/>
<path d="M363.08 308.828C365.894 308.828 368.176 307.384 368.176 305.603C368.176 303.822 365.894 302.378 363.08 302.378C360.265 302.378 357.983 303.822 357.983 305.603C357.983 307.384 360.265 308.828 363.08 308.828Z" fill="#D21717"/>
<path d="M371.786 308.828C374.6 308.828 376.882 307.384 376.882 305.603C376.882 303.822 374.6 302.378 371.786 302.378C368.971 302.378 366.69 303.822 366.69 305.603C366.69 307.384 368.971 308.828 371.786 308.828Z" fill="#D21717"/>
<path d="M378.369 303.619C369.158 307.27 358.824 307.27 347.366 303.619V303.116C347.364 299.32 348.611 295.668 350.85 292.916C353.088 290.165 356.146 288.523 359.392 288.332C362.123 288.171 364.86 288.175 367.591 288.344C370.51 288.543 373.254 290.04 375.259 292.528C377.263 295.016 378.376 298.307 378.369 301.723V303.619Z" fill="#3F3D56"/>
<path d="M373.847 317.289C367.04 318.092 360.181 318.092 353.375 317.289C351.76 317.104 350.262 316.225 349.171 314.822C348.08 313.418 347.475 311.592 347.472 309.697H379.749C379.746 311.592 379.141 313.418 378.05 314.822C376.96 316.225 375.461 317.104 373.847 317.289Z" fill="#3F3D56"/>
<path d="M358.621 292.952C357.88 293.312 357.087 293.498 356.285 293.498C355.483 293.498 354.689 293.312 353.949 292.952C354.689 292.591 355.483 292.406 356.285 292.406C357.087 292.406 357.88 292.591 358.621 292.952Z" fill="#D0CDE1"/>
<path d="M363.292 295.184C362.552 295.545 361.758 295.73 360.956 295.73C360.155 295.73 359.361 295.545 358.62 295.184C359.361 294.824 360.155 294.639 360.956 294.639C361.758 294.639 362.552 294.824 363.292 295.184Z" fill="#D0CDE1"/>
<path d="M363.717 291.215C362.977 291.576 362.183 291.761 361.381 291.761C360.579 291.761 359.785 291.576 359.045 291.215C359.785 290.855 360.579 290.67 361.381 290.67C362.183 290.67 362.977 290.855 363.717 291.215Z" fill="#D0CDE1"/>
<path d="M372.423 291.215C371.683 291.576 370.889 291.761 370.087 291.761C369.285 291.761 368.491 291.576 367.751 291.215C368.491 290.855 369.285 290.67 370.087 290.67C370.889 290.67 371.683 290.855 372.423 291.215Z" fill="#D0CDE1"/>
<path d="M370.087 293.448C369.347 293.808 368.553 293.994 367.751 293.994C366.95 293.994 366.156 293.808 365.416 293.448C366.156 293.088 366.95 292.902 367.751 292.902C368.553 292.902 369.347 293.088 370.087 293.448Z" fill="#D0CDE1"/>
<path d="M237.554 320.701C246.467 320.701 253.692 319.368 253.692 317.724C253.692 316.08 246.467 314.748 237.554 314.748C228.641 314.748 221.416 316.08 221.416 317.724C221.416 319.368 228.641 320.701 237.554 320.701Z" fill="#9F616A"/>
<path d="M228.954 316.608C231.769 316.608 234.05 315.164 234.05 313.383C234.05 311.602 231.769 310.158 228.954 310.158C226.139 310.158 223.858 311.602 223.858 313.383C223.858 315.164 226.139 316.608 228.954 316.608Z" fill="#D21717"/>
<path d="M227.043 316.608C229.858 316.608 232.139 315.164 232.139 313.383C232.139 311.602 229.858 310.158 227.043 310.158C224.228 310.158 221.947 311.602 221.947 313.383C221.947 315.164 224.228 316.608 227.043 316.608Z" fill="#D21717"/>
<path d="M249.339 317.352C252.154 317.352 254.436 315.908 254.436 314.127C254.436 312.346 252.154 310.902 249.339 310.902C246.525 310.902 244.243 312.346 244.243 314.127C244.243 315.908 246.525 317.352 249.339 317.352Z" fill="#D21717"/>
<path d="M237.66 316.608C240.475 316.608 242.757 315.164 242.757 313.383C242.757 311.602 240.475 310.158 237.66 310.158C234.846 310.158 232.564 311.602 232.564 313.383C232.564 315.164 234.846 316.608 237.66 316.608Z" fill="#D21717"/>
<path d="M246.366 316.608C249.181 316.608 251.463 315.164 251.463 313.383C251.463 311.602 249.181 310.158 246.366 310.158C243.552 310.158 241.27 311.602 241.27 313.383C241.27 315.164 243.552 316.608 246.366 316.608Z" fill="#D21717"/>
<path d="M252.949 311.398C243.739 315.05 233.404 315.05 221.947 311.398V310.896C221.945 307.1 223.192 303.448 225.43 300.696C227.669 297.944 230.727 296.303 233.972 296.112C236.704 295.951 239.44 295.955 242.171 296.124C245.091 296.323 247.835 297.82 249.839 300.308C251.844 302.796 252.956 306.086 252.949 309.503V311.398Z" fill="#3F3D56"/>
<path d="M248.427 325.069C241.62 325.872 234.762 325.872 227.955 325.069C226.34 324.884 224.842 324.004 223.752 322.601C222.661 321.198 222.055 319.372 222.053 317.476H254.329C254.327 319.372 253.721 321.198 252.631 322.601C251.54 324.004 250.042 324.884 248.427 325.069Z" fill="#3F3D56"/>
<path d="M233.201 300.732C232.461 301.092 231.667 301.277 230.865 301.277C230.063 301.277 229.27 301.092 228.529 300.732C229.27 300.371 230.063 300.186 230.865 300.186C231.667 300.186 232.461 300.371 233.201 300.732Z" fill="#D0CDE1"/>
<path d="M237.873 302.964C237.133 303.324 236.339 303.51 235.537 303.51C234.735 303.51 233.941 303.324 233.201 302.964C233.941 302.604 234.735 302.418 235.537 302.418C236.339 302.418 237.133 302.604 237.873 302.964Z" fill="#D0CDE1"/>
<path d="M238.297 298.995C237.557 299.355 236.763 299.541 235.962 299.541C235.16 299.541 234.366 299.355 233.626 298.995C234.366 298.635 235.16 298.449 235.962 298.449C236.763 298.449 237.557 298.635 238.297 298.995Z" fill="#D0CDE1"/>
<path d="M247.004 298.995C246.263 299.355 245.47 299.541 244.668 299.541C243.866 299.541 243.072 299.355 242.332 298.995C243.072 298.635 243.866 298.449 244.668 298.449C245.47 298.449 246.263 298.635 247.004 298.995Z" fill="#D0CDE1"/>
<path d="M244.668 301.228C243.928 301.588 243.134 301.774 242.332 301.774C241.53 301.774 240.736 301.588 239.996 301.228C240.736 300.868 241.53 300.682 242.332 300.682C243.134 300.682 243.928 300.868 244.668 301.228Z" fill="#D0CDE1"/>
<path d="M392.884 310.973L392.962 312.981L393.061 315.586C393.061 315.586 382.821 316.262 380.759 318.808C380.711 318.863 380.667 318.922 380.627 318.985L376.525 317.936L376.515 315.576C376.515 315.576 376.572 315.539 376.682 315.47C376.707 315.454 376.738 315.435 376.77 315.416C381.789 312.544 387.295 311.026 392.884 310.973Z" fill="#D21717"/>
<path opacity="0.1" d="M392.884 310.973L392.962 312.981C388.421 313.145 379.827 316.307 379.827 316.307L376.682 315.47C381.722 312.561 387.262 311.024 392.884 310.973Z" fill="black"/>
<path opacity="0.1" d="M376.77 315.416L379.827 316.307L380.759 318.808C380.711 318.863 380.667 318.922 380.627 318.985L376.525 317.936L376.515 315.576C376.515 315.576 376.572 315.539 376.682 315.47C376.707 315.455 376.738 315.435 376.77 315.416Z" fill="white"/>
<path d="M269.129 319.401L269.207 321.409L269.306 324.014C269.306 324.014 259.067 324.69 257.004 327.236C256.956 327.291 256.912 327.35 256.872 327.413L252.771 326.364L252.76 324.004C252.76 324.004 252.817 323.967 252.927 323.898C252.952 323.882 252.984 323.863 253.015 323.843C258.034 320.972 263.541 319.454 269.129 319.401Z" fill="#D21717"/>
<path opacity="0.1" d="M269.129 319.401L269.207 321.409C264.666 321.573 256.073 324.735 256.073 324.735L252.927 323.898C257.968 320.989 263.507 319.452 269.129 319.401Z" fill="black"/>
<path opacity="0.1" d="M253.015 323.844L256.073 324.735L257.004 327.236C256.956 327.291 256.912 327.35 256.872 327.413L252.771 326.364L252.76 324.004C252.76 324.004 252.817 323.967 252.927 323.898C252.952 323.882 252.984 323.863 253.015 323.844Z" fill="white"/>
<path d="M454.555 250.822C453.681 249.803 452.657 248.976 451.532 248.382V223.191C451.532 222.896 451.431 222.612 451.252 222.404C451.074 222.195 450.831 222.077 450.578 222.077H445.24C444.987 222.077 444.745 222.195 444.566 222.404C444.387 222.612 444.287 222.896 444.287 223.191V247.899C442.357 248.647 440.678 250.085 439.488 252.011C438.297 253.936 437.657 256.251 437.656 258.626V312.664C437.656 313.314 437.766 313.958 437.979 314.559C438.192 315.16 438.504 315.706 438.897 316.166C439.291 316.626 439.758 316.99 440.273 317.239C440.787 317.488 441.338 317.616 441.895 317.616H453.329C454.448 317.616 455.521 317.097 456.313 316.172C457.104 315.248 457.548 313.994 457.548 312.687V259.263C457.55 257.695 457.286 256.142 456.773 254.694C456.259 253.245 455.505 251.929 454.555 250.822Z" fill="#3F3D56"/>
<path d="M457.548 266.547H437.656V297.246H457.548V266.547Z" fill="#D21717"/>
<path d="M451.961 223.799H451.532V223.191C451.532 222.896 451.431 222.612 451.252 222.404C451.074 222.195 450.831 222.077 450.578 222.077H445.24C444.987 222.077 444.745 222.195 444.566 222.404C444.387 222.612 444.287 222.896 444.287 223.191V223.799H443.857V226.381H444.287V239.578H451.532V226.381H451.961V223.799Z" fill="#D21717"/>
<path d="M295.277 272.688C294.75 271.375 294.335 270.446 294.189 270.127C285.26 272.701 279.303 270.526 278.363 270.141C277.904 271.155 275.035 277.634 273.876 283.845C272.829 289.448 273.437 293.204 275.683 295.01L275.749 295.065L275.764 295.076C278.243 296.985 280.609 298.675 282.793 300.1C283.087 300.291 283.365 300.469 283.626 300.633L283.653 300.651L283.673 300.68C283.973 301.122 284.252 301.582 284.509 302.058C284.992 302.847 285.285 303.772 285.358 304.738V332.566L285.207 332.57C279.511 332.706 275.986 333.834 275.986 334.801C275.986 335.862 280.213 337.044 286.279 337.044C292.346 337.044 296.573 335.862 296.573 334.801C296.573 333.848 293.107 332.726 287.508 332.575L287.357 332.571L287.498 306.83C287.501 305.087 287.848 303.368 288.511 301.807C288.624 301.545 288.746 301.29 288.872 301.049C288.974 300.856 289.082 300.667 289.192 300.489L289.213 300.456L289.243 300.436C289.524 300.257 289.821 300.064 290.137 299.855L290.174 299.831C292.241 298.467 294.469 296.867 296.796 295.076C298.873 293.476 299.596 290.242 298.945 285.465C298.325 280.91 296.608 276.002 295.277 272.688Z" fill="#D0CDE1"/>
<path d="M295.81 294.493C293.371 296.371 291.357 297.78 289.817 298.795H289.816C287.569 298.615 285.312 298.689 283.077 299.016C281.499 297.986 279.369 296.51 276.748 294.493C276.723 294.473 276.699 294.454 276.674 294.433V294.431C274.27 292.5 274.211 288.409 274.993 284.226C276.982 283.968 280.153 284.081 284.415 285.859C289.46 287.965 294.743 286.774 297.804 285.691C298.306 289.382 298 292.806 295.81 294.493Z" fill="#D21717"/>
<path d="M281.307 282.713C281.688 282.713 281.997 282.351 281.997 281.906C281.997 281.46 281.688 281.099 281.307 281.099C280.925 281.099 280.616 281.46 280.616 281.906C280.616 282.351 280.925 282.713 281.307 282.713Z" fill="#D21717"/>
<path d="M279.373 290.135C279.754 290.135 280.063 289.774 280.063 289.329C280.063 288.883 279.754 288.522 279.373 288.522C278.991 288.522 278.682 288.883 278.682 289.329C278.682 289.774 278.991 290.135 279.373 290.135Z" fill="white"/>
<path d="M282.964 284.326C283.193 284.326 283.379 284.109 283.379 283.842C283.379 283.575 283.193 283.358 282.964 283.358C282.735 283.358 282.55 283.575 282.55 283.842C282.55 284.109 282.735 284.326 282.964 284.326Z" fill="#D21717"/>
<path d="M284.622 293.524C284.851 293.524 285.036 293.307 285.036 293.04C285.036 292.773 284.851 292.556 284.622 292.556C284.393 292.556 284.207 292.773 284.207 293.04C284.207 293.307 284.393 293.524 284.622 293.524Z" fill="white"/>
<path d="M281.721 294.008C281.95 294.008 282.135 293.792 282.135 293.524C282.135 293.257 281.95 293.04 281.721 293.04C281.492 293.04 281.307 293.257 281.307 293.524C281.307 293.792 281.492 294.008 281.721 294.008Z" fill="white"/>
<path d="M290.147 277.872C290.376 277.872 290.561 277.655 290.561 277.387C290.561 277.12 290.376 276.903 290.147 276.903C289.918 276.903 289.733 277.12 289.733 277.387C289.733 277.655 289.918 277.872 290.147 277.872Z" fill="#D21717"/>
<path d="M327.674 246.453C327.148 245.14 326.732 244.212 326.587 243.892C317.657 246.467 311.7 244.291 310.76 243.907C310.301 244.92 307.433 251.399 306.273 257.611C305.226 263.214 305.834 266.97 308.08 268.775L308.147 268.83L308.161 268.842C310.641 270.75 313.006 272.441 315.19 273.865C315.485 274.057 315.762 274.234 316.023 274.399L316.051 274.416L316.07 274.446C316.37 274.887 316.649 275.347 316.907 275.824C317.389 276.612 317.682 277.538 317.755 278.503V306.332L317.604 306.335C311.909 306.471 308.383 307.599 308.383 308.566C308.383 309.627 312.611 310.81 318.677 310.81C324.743 310.81 328.97 309.627 328.97 308.566C328.97 307.613 325.504 306.492 319.905 306.341L319.754 306.336L319.895 280.595C319.898 278.852 320.245 277.134 320.909 275.573C321.022 275.31 321.143 275.055 321.27 274.814C321.371 274.621 321.479 274.432 321.59 274.254L321.61 274.221L321.64 274.202C321.921 274.023 322.219 273.829 322.534 273.62L322.571 273.597C324.638 272.232 326.866 270.633 329.193 268.841C331.27 267.241 331.993 264.008 331.343 259.23C330.722 254.675 329.005 249.768 327.674 246.453Z" fill="#D0CDE1"/>
<path d="M328.208 268.258C325.768 270.136 323.754 271.545 322.214 272.56H322.213C319.966 272.381 317.71 272.455 315.475 272.781C313.896 271.752 311.766 270.275 309.146 268.258C309.121 268.239 309.096 268.219 309.071 268.198V268.197C306.668 266.265 306.608 262.174 307.39 257.992C309.379 257.733 312.551 257.846 316.812 259.625C321.858 261.731 327.14 260.54 330.201 259.457C330.704 263.147 330.397 266.572 328.208 268.258Z" fill="#D21717"/>
<path d="M313.704 256.478C314.085 256.478 314.395 256.117 314.395 255.671C314.395 255.226 314.085 254.864 313.704 254.864C313.323 254.864 313.013 255.226 313.013 255.671C313.013 256.117 313.323 256.478 313.704 256.478Z" fill="#D21717"/>
<path d="M311.77 263.901C312.152 263.901 312.461 263.54 312.461 263.094C312.461 262.649 312.152 262.287 311.77 262.287C311.389 262.287 311.079 262.649 311.079 263.094C311.079 263.54 311.389 263.901 311.77 263.901Z" fill="white"/>
<path d="M315.362 258.092C315.59 258.092 315.776 257.875 315.776 257.608C315.776 257.34 315.59 257.124 315.362 257.124C315.133 257.124 314.947 257.34 314.947 257.608C314.947 257.875 315.133 258.092 315.362 258.092Z" fill="#D21717"/>
<path d="M317.019 267.29C317.248 267.29 317.434 267.073 317.434 266.806C317.434 266.538 317.248 266.322 317.019 266.322C316.79 266.322 316.605 266.538 316.605 266.806C316.605 267.073 316.79 267.29 317.019 267.29Z" fill="white"/>
<path d="M314.118 267.774C314.347 267.774 314.533 267.557 314.533 267.29C314.533 267.022 314.347 266.806 314.118 266.806C313.89 266.806 313.704 267.022 313.704 267.29C313.704 267.557 313.89 267.774 314.118 267.774Z" fill="white"/>
<path d="M322.544 251.637C322.773 251.637 322.959 251.42 322.959 251.153C322.959 250.885 322.773 250.669 322.544 250.669C322.315 250.669 322.13 250.885 322.13 251.153C322.13 251.42 322.315 251.637 322.544 251.637Z" fill="#D21717"/>
</svg>
