<?xml version="1.0" encoding="utf-8"?>
<svg viewBox="13.45 15.605 377.003 462.784" xmlns="http://www.w3.org/2000/svg">
  <path d="M 198.973 308.524 L 216.873 311.89 C 222.234 312.695 227.712 312.512 232.996 311.351 C 238.28 310.19 243.266 308.075 247.67 305.126 C 252.073 302.177 255.807 298.451 258.659 294.162 C 261.511 289.873 263.425 285.105 264.292 280.129 C 265.161 275.153 264.966 270.066 263.717 265.159 C 262.468 260.253 260.189 255.623 257.012 251.534 C 253.834 247.445 249.819 243.977 245.197 241.329 C 240.575 238.68 235.437 236.903 230.074 236.099 L 212.209 232.75" fill="#1C7054"/>
  <path d="M 198.973 308.524 L 216.873 311.89 C 222.234 312.695 227.712 312.512 232.996 311.351 C 238.28 310.19 243.266 308.075 247.67 305.126 C 252.073 302.177 255.807 298.451 258.659 294.162 C 261.511 289.873 263.425 285.105 264.292 280.129 C 265.161 275.153 264.966 270.066 263.717 265.159 C 262.468 260.253 260.189 255.623 257.012 251.534 C 253.834 247.445 249.819 243.977 245.197 241.329 C 240.575 238.68 235.437 236.903 230.074 236.099 L 212.209 232.75" stroke="black" stroke-miterlimit="10"/>
  <path d="M 232.741 274.716 C 236.388 253.793 227.185 235.006 212.186 232.753 C 197.187 230.501 182.072 245.637 178.425 266.56 C 174.778 287.483 183.98 306.271 198.979 308.523 C 213.978 310.775 229.094 295.64 232.741 274.716 Z" fill="#C0D45C" stroke="black" stroke-miterlimit="10"/>
  <path d="M 212.852 271.362 C 213.966 264.976 211.157 259.241 206.58 258.554 C 202.002 257.866 197.389 262.487 196.276 268.873 C 195.163 275.26 197.971 280.994 202.549 281.681 C 207.126 282.369 211.739 277.749 212.852 271.362 Z" fill="black"/>
  <path d="M 228.484 275.656 C 228.876 274.231 227.139 272.59 224.605 271.99 C 222.071 271.391 219.7 272.06 219.308 273.485 C 218.917 274.911 220.654 276.552 223.188 277.151 C 225.722 277.751 228.093 277.082 228.484 275.656 Z" fill="black"/>
  <path d="M 221.328 291.091 C 222.268 289.907 221.323 287.78 219.218 286.34 C 217.113 284.9 214.645 284.693 213.705 285.877 C 212.765 287.061 213.709 289.188 215.814 290.628 C 217.919 292.068 220.388 292.275 221.328 291.091 Z" fill="black"/>
  <path d="M 204.41 300.878 C 205.993 300.821 207.195 298.809 207.093 296.383 C 206.991 293.958 205.625 292.038 204.042 292.095 C 202.458 292.153 201.257 294.165 201.359 296.59 C 201.461 299.016 202.827 300.936 204.41 300.878 Z" fill="black"/>
  <path d="M 192.318 291.648 C 194.547 290.378 195.682 288.332 194.853 287.079 C 194.024 285.825 191.545 285.839 189.317 287.108 C 187.088 288.378 185.953 290.423 186.782 291.677 C 187.611 292.93 190.09 292.917 192.318 291.648 Z" fill="black"/>
  <path d="M 186.765 277.529 C 189.364 277.254 191.325 275.847 191.146 274.386 C 190.966 272.925 188.715 271.962 186.117 272.237 C 183.519 272.511 181.558 273.918 181.737 275.38 C 181.916 276.841 184.167 277.803 186.765 277.529 Z" fill="black"/>
  <path d="M 193.679 261.794 C 194.345 260.459 192.962 258.55 190.59 257.529 C 188.217 256.508 185.754 256.763 185.088 258.097 C 184.421 259.431 185.804 261.341 188.177 262.361 C 190.549 263.382 193.013 263.128 193.679 261.794 Z" fill="black"/>
  <path d="M 201.933 251.149 C 203.145 250.202 202.763 247.929 201.08 246.072 C 199.396 244.215 197.048 243.477 195.836 244.424 C 194.623 245.371 195.006 247.644 196.689 249.501 C 198.373 251.358 200.721 252.096 201.933 251.149 Z" fill="black"/>
  <path d="M 216.943 247.056 C 217.864 244.784 217.407 242.523 215.924 242.005 C 214.441 241.488 212.493 242.91 211.572 245.181 C 210.652 247.453 211.108 249.715 212.591 250.232 C 214.074 250.75 216.023 249.328 216.943 247.056 Z" fill="black"/>
  <path d="M 224.238 260.835 C 226.725 260.085 228.343 258.343 227.854 256.944 C 227.364 255.545 224.95 255.02 222.464 255.77 C 219.977 256.521 218.358 258.263 218.848 259.662 C 219.338 261.06 221.751 261.586 224.238 260.835 Z" fill="black"/>
  <path d="M 183.466 158.968 L 237.221 193.85 C 242.522 197.172 246.523 201.998 248.627 207.606 C 248.668 207.781 248.749 207.946 248.864 208.09 C 248.979 208.233 249.126 208.352 249.295 208.439 L 271.473 217.572 C 284.586 222.963 287.174 224.989 298.439 233.272 L 300.076 234.481 C 300.988 235.17 302.082 235.621 303.244 235.788 L 303.86 235.87 C 304.903 236.018 305.894 236.395 306.748 236.97 C 307.602 237.545 308.296 238.301 308.772 239.176 C 309.247 240.05 309.49 241.018 309.481 241.997 C 309.472 242.977 309.21 243.94 308.718 244.807 L 306.958 247.976 C 306.555 248.693 306.004 249.328 305.337 249.846 C 304.669 250.364 303.898 250.755 303.068 250.997 C 302.237 251.238 301.363 251.325 300.497 251.252 C 299.63 251.18 298.787 250.949 298.016 250.574 C 297.359 250.227 296.765 249.786 296.256 249.267 C 295.454 248.445 294.426 247.84 293.282 247.519 L 292.454 247.29 L 290.694 246.784 L 289.392 246.392 C 277.071 242.83 273.849 241.915 262.232 235.315 L 241.216 223.323 L 241.075 223.241 C 240.763 223.132 240.419 223.132 240.107 223.241 C 233.73 224.844 226.977 224.611 220.746 222.571 L 159.633 201.332 C 158.3 200.866 157.088 200.143 156.076 199.211 C 155.065 198.28 154.277 197.16 153.765 195.925 C 153.253 194.691 153.028 193.37 153.105 192.049 C 153.182 190.729 153.56 189.438 154.212 188.262 L 168.839 162.448 C 169.495 161.273 170.41 160.24 171.526 159.417 C 172.642 158.593 173.932 157.997 175.313 157.669 C 176.694 157.34 178.134 157.286 179.539 157.51 C 180.944 157.734 182.282 158.231 183.466 158.968 Z" fill="#FFD9A1" stroke="black" stroke-miterlimit="10"/>
  <path d="M 168.311 194.062 L 200.574 206.087" stroke="black" stroke-miterlimit="10"/>
  <path d="M 181.459 170.862 L 210.414 188.72" stroke="black" stroke-miterlimit="10"/>
  <path d="M 174.506 182.364 L 205.309 196.627" stroke="black" stroke-miterlimit="10"/>
  <path d="M 301.977 235.854 L 294.866 248.418" stroke="black" stroke-miterlimit="10"/>
  <path d="M 244.384 224.924 L 260.824 213.324 L 249.401 208.211 L 240.776 223.437" fill="black"/>
  <path d="M 244.384 224.924 L 260.824 213.324 L 249.401 208.211 L 240.776 223.437" stroke="black" stroke-miterlimit="10"/>
  <path d="M 183.466 158.968 L 237.221 193.85 C 242.522 197.172 246.523 201.998 248.627 207.606 C 248.668 207.781 248.749 207.946 248.864 208.09 C 248.979 208.233 249.126 208.352 249.295 208.439 L 271.473 217.572 C 284.586 222.963 287.174 224.989 298.439 233.272 L 300.076 234.481 C 300.988 235.17 302.082 235.621 303.244 235.788 L 303.86 235.87 C 304.903 236.018 305.894 236.395 306.748 236.97 C 307.602 237.545 308.296 238.301 308.772 239.176 C 309.247 240.05 309.49 241.018 309.481 241.997 C 309.472 242.977 309.21 243.94 308.718 244.807 L 306.958 247.976 C 306.555 248.693 306.004 249.328 305.337 249.846 C 304.669 250.364 303.898 250.755 303.068 250.997 C 302.237 251.238 301.363 251.325 300.497 251.252 C 299.63 251.18 298.787 250.949 298.016 250.574 C 297.359 250.227 296.765 249.786 296.256 249.267 C 295.454 248.445 294.426 247.84 293.282 247.519 L 292.454 247.29 L 290.694 246.784 L 289.392 246.392 C 277.071 242.83 273.849 241.915 262.232 235.315 L 241.216 223.323 L 241.075 223.241 C 240.763 223.132 240.419 223.132 240.107 223.241 C 233.73 224.844 226.977 224.611 220.746 222.571 L 159.633 201.332 C 158.3 200.866 157.088 200.143 156.076 199.211 C 155.065 198.28 154.277 197.16 153.765 195.925 C 153.253 194.691 153.028 193.37 153.105 192.049 C 153.182 190.729 153.56 189.438 154.212 188.262 L 168.839 162.448 C 169.495 161.273 170.41 160.24 171.526 159.417 C 172.642 158.593 173.932 157.997 175.313 157.669 C 176.694 157.34 178.134 157.286 179.539 157.51 C 180.944 157.734 182.282 158.231 183.466 158.968 Z" fill="#F1F2EB" stroke="black" stroke-miterlimit="10"/>
  <path d="M 168.311 194.062 L 200.574 206.087" stroke="black" stroke-miterlimit="10"/>
  <path d="M 181.459 170.862 L 210.414 188.72" stroke="black" stroke-miterlimit="10"/>
  <path d="M 174.506 182.364 L 205.309 196.627" stroke="black" stroke-miterlimit="10"/>
  <path d="M 301.977 235.854 L 294.866 248.418" stroke="black" stroke-miterlimit="10"/>
  <path d="M 343.428 289.507 L 329.629 281.812 C 323.384 278.333 315.907 277.298 308.841 278.934 C 301.774 280.57 295.697 284.743 291.944 290.536 L 286.258 299.326 C 283.371 303.79 282.025 308.968 282.399 314.163 C 282.773 319.358 284.851 324.323 288.353 328.391 C 293.103 333.905 295.685 340.757 295.675 347.816 L 295.675 349.123 L 297.735 350.267 C 304.564 346.722 311.253 344.059 318.98 345.284 C 324.431 346.147 330.036 345.463 335.061 343.32 C 340.086 341.178 344.296 337.677 347.142 333.276 L 352.827 324.486 C 354.685 321.617 355.916 318.436 356.449 315.125 C 356.982 311.814 356.807 308.438 355.935 305.189 C 355.062 301.941 353.508 298.884 351.362 296.193 C 349.216 293.503 346.52 291.23 343.428 289.507 Z" fill="#DD0426" stroke="black" stroke-miterlimit="10"/>
  <path d="M 379.001 261.815 C 379.631 260.843 380.036 259.76 380.191 258.635 C 380.345 257.51 380.246 256.367 379.898 255.279 C 379.594 254.332 379.668 253.314 380.108 252.413 C 380.548 251.513 381.323 250.79 382.292 250.378 C 384.286 249.561 385.958 248.191 387.08 246.457 L 387.397 245.951 C 388.827 243.77 389.781 241.349 390.204 238.825 C 390.627 236.302 390.51 233.727 389.86 231.245 C 389.211 228.764 388.041 226.426 386.418 224.365 C 384.794 222.303 382.75 220.558 380.4 219.23 C 378.05 217.902 375.442 217.017 372.724 216.624 C 370.005 216.232 367.23 216.34 364.557 216.943 C 361.884 217.546 359.365 218.632 357.144 220.139 C 354.923 221.646 353.044 223.544 351.613 225.724 L 351.155 226.427 C 350.361 227.949 350.044 229.647 350.24 231.328 C 350.255 232.404 349.819 233.443 349.024 234.227 C 348.23 235.01 347.138 235.476 345.98 235.527 C 344.547 235.616 343.159 236.024 341.933 236.718 C 340.707 237.412 339.68 238.371 338.94 239.514 C 337.884 241.147 338.5 243.549 339.573 245.787 C 340.141 247.005 340.203 248.374 339.748 249.632 C 339.293 250.89 338.353 251.947 337.109 252.6 C 335.803 253.319 334.72 254.34 333.965 255.562 C 333.21 256.785 332.808 258.168 332.799 259.578 C 332.79 260.987 333.175 262.375 333.914 263.605 C 334.654 264.836 335.724 265.868 337.021 266.602 L 335.877 265.964 L 334.539 268.023 C 333.745 269.241 333.218 270.594 332.989 272.002 C 332.76 273.41 332.833 274.846 333.204 276.228 C 333.576 277.61 334.238 278.91 335.153 280.053 C 336.067 281.197 337.217 282.161 338.535 282.89 C 341.133 284.275 344.212 284.659 347.112 283.96 C 350.011 283.26 352.499 281.533 354.042 279.149 L 355.485 276.894 L 354.341 276.257 C 356.336 277.364 358.722 277.693 360.978 277.172 C 363.233 276.652 365.175 275.324 366.38 273.48 C 367.146 272.273 367.575 270.909 367.63 269.51 C 367.656 268.187 368.211 266.922 369.187 265.958 C 370.163 264.995 371.49 264.403 372.91 264.298 C 375.463 264.086 377.945 263.432 379.001 261.815 Z" fill="#C0D45C" stroke="black" stroke-miterlimit="10"/>
  <path d="M 374.512 228.29 L 332.357 293.445" stroke="black" stroke-miterlimit="10"/>
  <path d="M 328.96 288.51 C 328.96 288.51 331.547 295.764 339.204 293.591" stroke="black" stroke-miterlimit="10"/>
  <path d="M 328.96 288.51 C 328.96 288.51 331.547 295.764 339.204 293.591" stroke="black" stroke-miterlimit="10"/>
  <path d="M 346.667 271.274 L 362.649 269.444" stroke="black" stroke-miterlimit="10"/>
  <path d="M 349.694 266.16 L 343.921 252.208" stroke="black" stroke-miterlimit="10"/>
  <path d="M 361.91 247.274 L 356.136 233.322" stroke="black" stroke-miterlimit="10"/>
  <path d="M 355.133 258.188 L 377.1 252.763" stroke="black" stroke-miterlimit="10"/>
  <path d="M 309.211 83.946 C 309.815 83.012 310.204 81.973 310.352 80.893 C 310.5 79.813 310.406 78.716 310.073 77.672 C 309.772 76.768 309.837 75.793 310.255 74.929 C 310.673 74.066 311.415 73.374 312.344 72.983 C 314.247 72.208 315.841 70.9 316.903 69.242 L 317.202 68.768 C 319.951 64.578 320.795 59.546 319.547 54.778 C 318.3 50.011 315.063 45.898 310.548 43.346 C 306.034 40.794 300.613 40.011 295.477 41.169 C 290.34 42.327 285.91 45.332 283.161 49.522 L 282.721 50.192 C 281.969 51.632 281.67 53.241 281.858 54.832 C 281.902 55.864 281.508 56.872 280.761 57.638 C 280.014 58.405 278.974 58.869 277.863 58.933 C 276.498 59.013 275.174 59.4 274.006 60.061 C 272.838 60.721 271.86 61.634 271.156 62.723 C 270.153 64.357 270.734 66.562 271.755 68.686 C 272.31 69.852 272.376 71.169 271.94 72.378 C 271.503 73.587 270.596 74.601 269.396 75.221 C 268.157 75.91 267.131 76.886 266.418 78.053 C 265.706 79.219 265.331 80.538 265.331 81.879 C 265.331 83.22 265.706 84.538 266.418 85.705 C 267.131 86.872 268.157 87.847 269.396 88.537 L 268.305 87.932 L 267.038 89.893 C 266.279 91.051 265.776 92.338 265.556 93.679 C 265.337 95.019 265.406 96.387 265.759 97.703 C 266.113 99.018 266.744 100.256 267.616 101.344 C 268.488 102.432 269.584 103.349 270.84 104.041 C 273.312 105.355 276.24 105.718 278.997 105.052 C 281.754 104.387 284.121 102.745 285.59 100.479 L 286.962 98.339 L 285.871 97.735 C 287.769 98.789 290.04 99.101 292.186 98.602 C 294.331 98.102 296.175 96.832 297.312 95.072 C 298.061 93.939 298.473 92.642 298.509 91.314 C 298.555 90.074 299.086 88.893 300.003 87.99 C 300.92 87.088 302.16 86.527 303.49 86.413 C 305.849 86.102 308.208 85.481 309.211 83.946 Z" fill="#C0D45C" stroke="black" stroke-miterlimit="10"/>
  <path d="M 304.951 52.038 L 264.837 114.04" stroke="black" stroke-miterlimit="10"/>
  <path d="M 304.951 52.038 L 264.837 114.04" stroke="black" stroke-miterlimit="10"/>
  <path d="M 278.461 92.948 L 293.651 91.2" stroke="black" stroke-miterlimit="10"/>
  <path d="M 281.33 88.079 L 275.838 74.796" stroke="black" stroke-miterlimit="10"/>
  <path d="M 292.947 70.107 L 287.473 56.841" stroke="black" stroke-miterlimit="10"/>
  <path d="M 286.523 80.498 L 307.416 75.319" stroke="black" stroke-miterlimit="10"/>
  <path d="M 61.311 214.925 C 60.655 214.025 59.805 213.26 58.814 212.681 C 57.824 212.102 56.714 211.72 55.556 211.56 C 54.546 211.429 53.622 210.963 52.956 210.248 C 52.289 209.533 51.924 208.617 51.93 207.671 C 52.007 205.731 51.429 203.817 50.275 202.198 L 49.941 201.741 C 48.486 199.722 46.616 197.989 44.44 196.64 C 42.263 195.292 39.822 194.355 37.255 193.882 C 34.688 193.409 32.046 193.411 29.479 193.886 C 26.913 194.361 24.473 195.301 22.297 196.651 C 20.122 198.002 18.255 199.737 16.803 201.758 C 15.35 203.778 14.34 206.044 13.831 208.427 C 13.322 210.809 13.323 213.262 13.835 215.644 C 14.347 218.026 15.36 220.291 16.815 222.31 L 17.29 222.963 C 18.374 224.206 19.814 225.141 21.444 225.659 C 22.473 226.047 23.295 226.798 23.731 227.747 C 24.166 228.696 24.179 229.766 23.767 230.724 C 23.273 231.91 23.097 233.19 23.253 234.453 C 23.41 235.717 23.894 236.926 24.665 237.978 C 25.756 239.481 28.185 239.955 30.737 239.987 C 32.087 240.032 33.371 240.536 34.345 241.404 C 35.319 242.272 35.915 243.443 36.018 244.693 C 36.162 245.985 36.645 247.225 37.426 248.303 C 38.669 250.001 40.586 251.171 42.758 251.557 C 44.93 251.943 47.177 251.513 49.008 250.362 L 47.952 251.015 L 49.342 252.91 C 50.156 254.035 51.202 254.999 52.42 255.746 C 53.637 256.494 55.002 257.01 56.435 257.265 C 57.869 257.52 59.343 257.509 60.772 257.233 C 62.201 256.957 63.557 256.421 64.761 255.655 C 67.087 254.127 68.675 251.813 69.181 249.21 C 69.688 246.607 69.074 243.923 67.472 241.735 L 65.976 239.677 L 64.92 240.347 C 66.122 239.585 67.09 238.545 67.726 237.329 C 68.362 236.113 68.646 234.764 68.548 233.416 C 68.45 232.067 67.975 230.766 67.168 229.64 C 66.362 228.515 65.253 227.604 63.951 226.999 C 62.739 226.449 61.788 225.503 61.281 224.342 C 60.774 223.181 60.747 221.887 61.206 220.709 C 62.015 218.65 62.402 216.412 61.311 214.925 Z" fill="#C0D45C" stroke="black" stroke-miterlimit="10"/>
  <path d="M 28.344 205.09 L 72.066 264.951" stroke="black" stroke-miterlimit="10"/>
  <path d="M 28.344 205.09 L 72.066 264.951" stroke="black" stroke-miterlimit="10"/>
  <path d="M 57.175 244.611 L 61.875 231.067" stroke="black" stroke-miterlimit="10"/>
  <path d="M 53.637 240.134 L 38.341 239.17" stroke="black" stroke-miterlimit="10"/>
  <path d="M 40.964 222.8 L 25.686 221.836" stroke="black" stroke-miterlimit="10"/>
  <path d="M 48.392 232.586 L 52.141 212.818" stroke="black" stroke-miterlimit="10"/>
  <path d="M 318.688 124.798 L 284.561 132.193 L 287.834 145.207 L 321.961 137.812 L 318.688 124.798 Z" fill="#FF7342" stroke="black" stroke-miterlimit="10"/>
  <path d="M 321.957 137.817 L 287.83 145.212 L 289.394 151.432 L 323.521 144.038 L 321.957 137.817 Z" fill="#FF7342" stroke="black" stroke-miterlimit="10"/>
  <path d="M 344.449 205.106 L 300.586 214.615 C 299.317 214.891 298.002 214.932 296.715 214.736 C 295.429 214.54 294.197 214.11 293.09 213.471 C 291.984 212.832 291.023 211.996 290.265 211.012 C 289.506 210.028 288.964 208.915 288.67 207.737 L 287.332 202.443 L 289.409 151.42 L 323.222 144.085 L 350.258 187.69 L 351.859 194.029 C 352.157 195.208 352.202 196.43 351.99 197.625 C 351.779 198.82 351.316 199.965 350.628 200.993 C 349.94 202.022 349.04 202.915 347.979 203.621 C 346.919 204.326 345.72 204.831 344.449 205.106 Z" fill="#F1F2EB" stroke="black" stroke-miterlimit="10"/>
  <path d="M 297.664 149.493 L 303.719 198.522 L 307.398 213.095" stroke="black" stroke-miterlimit="10"/>
  <path d="M 316.744 145.359 L 338.658 190.958 L 342.319 205.515" stroke="black" stroke-miterlimit="10"/>
  <path d="M 306.166 147.777 L 322.06 209.665" stroke="black" stroke-miterlimit="10"/>
  <path d="M 350.416 188.295 L 287.226 202.002" stroke="black" stroke-miterlimit="10"/>
  <path d="M 320.722 133.547 L 287.033 140.85" stroke="black" stroke-miterlimit="10"/>
  <path d="M 303.719 198.522 L 307.398 213.095" stroke="black" stroke-miterlimit="10"/>
  <path d="M 338.658 190.958 L 342.319 205.515" stroke="black" stroke-miterlimit="10"/>
  <path d="M 320.722 133.547 L 287.033 140.85" stroke="black" stroke-miterlimit="10"/>
  <path d="M 145.499 155.717 L 199.571 133.678 L 192.742 119.709" fill="#DD0426"/>
  <path d="M 145.499 155.717 L 199.571 133.678 L 192.742 119.709" stroke="black" stroke-miterlimit="10"/>
  <path d="M 193.182 120.591 L 212.086 112.618 L 204.887 98.404" fill="#FF7342"/>
  <path d="M 193.182 120.591 L 212.086 112.618 L 204.887 98.404" stroke="black" stroke-miterlimit="10"/>
  <path d="M 220.482 75.336 L 214.567 63.246 L 179.84 92.441" fill="#DD0426"/>
  <path d="M 220.482 75.336 L 214.567 63.246 L 179.84 92.441" stroke="black" stroke-miterlimit="10"/>
  <path d="M 91.111 129.985 L 108.114 164.736 L 107.902 164.736 C 89.35 167.905 58.812 162.645 58.812 162.645 L 77.012 151.862 L 50.275 147.156 L 91.111 129.985 Z" fill="#FFD9A1" stroke="black" stroke-miterlimit="10"/>
  <path d="M 81.095 148.251 C 84.021 148.251 86.393 146.049 86.393 143.333 C 86.393 140.617 84.021 138.416 81.095 138.416 C 78.169 138.416 75.797 140.617 75.797 143.333 C 75.797 146.049 78.169 148.251 81.095 148.251 Z" fill="#FFD9A1" stroke="black" stroke-miterlimit="10"/>
  <path d="M 81.095 145.604 C 82.447 145.604 83.542 144.587 83.542 143.333 C 83.542 142.079 82.447 141.062 81.095 141.062 C 79.744 141.062 78.649 142.079 78.649 143.333 C 78.649 144.587 79.744 145.604 81.095 145.604 Z" fill="black" stroke="black" stroke-miterlimit="10"/>
  <path d="M 95.617 128.172 L 93.416 134.854" stroke="black" stroke-miterlimit="10"/>
  <path d="M 131.119 113.125 L 114.89 163.951" stroke="black" stroke-miterlimit="10"/>
  <path d="M 143.035 107.897 L 125.17 162.122" stroke="black" stroke-miterlimit="10"/>
  <path d="M 178.502 92.948 L 159.792 148.774" stroke="black" stroke-miterlimit="10"/>
  <path d="M 219.672 92 L 225.656 73.114" stroke="black" stroke-miterlimit="10"/>
  <path d="M 225.533 72.918 L 235.619 55.6 L 241.005 73.457 L 255.121 89.517 L 232.433 87.033 L 225.533 72.918 Z" fill="#DD0426" stroke="black" stroke-miterlimit="10"/>
  <path d="M 237.062 60.387 L 231.465 62.739" stroke="black" stroke-miterlimit="10"/>
  <path d="M 239.632 67.608 L 225.797 73.44" stroke="black" stroke-miterlimit="10"/>
  <path d="M 242.202 74.813 L 229.159 80.319" stroke="black" stroke-miterlimit="10"/>
  <path d="M 244.86 77.852 L 230.849 83.766" stroke="black" stroke-miterlimit="10"/>
  <path d="M 247.535 80.874 L 232.838 87.066" stroke="black" stroke-miterlimit="10"/>
  <path d="M 250.193 83.913 L 240.653 87.932" stroke="black" stroke-miterlimit="10"/>
  <path d="M 252.851 86.935 L 248.468 88.782" stroke="black" stroke-miterlimit="10"/>
  <path d="M 225.656 73.13 L 232.363 86.87 L 204.887 98.421 C 204.887 98.421 185.947 153.463 114.908 163.903 C 112.708 164.229 110.472 164.507 108.166 164.736 L 91.251 130.149 L 91.251 129.985 L 95.757 128.172 L 107.603 123.156 L 119.431 118.141 L 131.26 113.125 L 225.656 73.13 Z" fill="#FFA42C" stroke="black" stroke-miterlimit="10"/>
  <path d="M 81.095 148.251 C 84.021 148.251 86.393 146.049 86.393 143.333 C 86.393 140.617 84.021 138.416 81.095 138.416 C 78.169 138.416 75.797 140.617 75.797 143.333 C 75.797 146.049 78.169 148.251 81.095 148.251 Z" fill="#1C7054" stroke="black" stroke-miterlimit="10"/>
  <path d="M 81.095 145.604 C 82.447 145.604 83.542 144.587 83.542 143.333 C 83.542 142.079 82.447 141.062 81.095 141.062 C 79.744 141.062 78.649 142.079 78.649 143.333 C 78.649 144.587 79.744 145.604 81.095 145.604 Z" fill="black" stroke="black" stroke-miterlimit="10"/>
  <path d="M 95.617 128.172 L 93.416 134.854" stroke="black" stroke-miterlimit="10"/>
  <path d="M 107.462 123.156 L 99.7 147.532" stroke="black" stroke-miterlimit="10"/>
  <path d="M 119.291 118.14 L 105.421 159.23" stroke="black" stroke-miterlimit="10"/>
  <path d="M 131.119 113.125 L 114.89 163.951" stroke="black" stroke-miterlimit="10"/>
  <path d="M 143.035 107.897 L 125.17 162.122" stroke="black" stroke-miterlimit="10"/>
  <path d="M 154.793 103.11 L 136.963 158.805" stroke="black" stroke-miterlimit="10"/>
  <path d="M 178.502 92.948 L 159.792 148.774" stroke="black" stroke-miterlimit="10"/>
  <path d="M 202.158 82.982 L 186.088 127.731" stroke="black" stroke-miterlimit="10"/>
  <path d="M 213.987 77.999 L 207.668 97.261" stroke="black" stroke-miterlimit="10"/>
  <path d="M 219.584 92.229 L 225.656 73.114" stroke="black" stroke-miterlimit="10"/>
  <path d="M 185.402 87.801 L 178.203 73.097 L 124.342 116 L 179.84 92.441 L 185.402 87.801 Z" fill="#DD0426" stroke="black" stroke-miterlimit="10"/>
  <path d="M 237.062 60.387 L 231.465 62.739" stroke="black" stroke-miterlimit="10"/>
  <path d="M 238.171 64.063 L 228.261 68.245" stroke="black" stroke-miterlimit="10"/>
  <path d="M 239.28 67.739 L 225.797 73.44" stroke="black" stroke-miterlimit="10"/>
  <path d="M 240.389 71.431 L 227.469 76.871" stroke="black" stroke-miterlimit="10"/>
  <path d="M 242.202 74.813 L 229.159 80.319" stroke="black" stroke-miterlimit="10"/>
  <path d="M 244.86 77.852 L 230.849 83.766" stroke="black" stroke-miterlimit="10"/>
  <path d="M 247.535 80.874 L 232.838 87.066" stroke="black" stroke-miterlimit="10"/>
  <path d="M 250.193 83.913 L 240.653 87.932" stroke="black" stroke-miterlimit="10"/>
  <path d="M 252.851 86.935 L 248.468 88.782" stroke="black" stroke-miterlimit="10"/>
  <path d="M 185.261 346.64 C 191.589 346.64 196.72 341.878 196.72 336.004 C 196.72 330.13 191.589 325.368 185.261 325.368 C 178.933 325.368 173.802 330.13 173.802 336.004 C 173.802 341.878 178.933 346.64 185.261 346.64 Z" fill="#DD0426" stroke="black" stroke-miterlimit="10"/>
  <path d="M 72.136 338.635 C 75.237 338.635 77.751 336.301 77.751 333.423 C 77.751 330.544 75.237 328.211 72.136 328.211 C 69.035 328.211 66.521 330.544 66.521 333.423 C 66.521 336.301 69.035 338.635 72.136 338.635 Z" fill="#FFD9A1" stroke="black" stroke-miterlimit="10"/>
  <path d="M 86.64 230.217 C 93.833 230.217 99.665 224.805 99.665 218.127 C 99.665 211.45 93.833 206.038 86.64 206.038 C 79.446 206.038 73.615 211.45 73.615 218.127 C 73.615 224.805 79.446 230.217 86.64 230.217 Z" fill="#DD0426" stroke="black" stroke-miterlimit="10"/>
  <path d="M 108.237 233.599 C 111.338 233.599 113.852 231.266 113.852 228.388 C 113.852 225.509 111.338 223.176 108.237 223.176 C 105.136 223.176 102.622 225.509 102.622 228.388 C 102.622 231.266 105.136 233.599 108.237 233.599 Z" fill="#263B34" stroke="black" stroke-miterlimit="10"/>
  <path d="M 63.265 283.233 C 66.366 283.233 68.88 280.9 68.88 278.021 C 68.88 275.143 66.366 272.81 63.265 272.81 C 60.164 272.81 57.65 275.143 57.65 278.021 C 57.65 280.9 60.164 283.233 63.265 283.233 Z" fill="#FFC043" stroke="black" stroke-miterlimit="10"/>
  <path d="M 38.887 307.675 C 41.988 307.675 44.502 305.341 44.502 302.463 C 44.502 299.584 41.988 297.251 38.887 297.251 C 35.786 297.251 33.272 299.584 33.272 302.463 C 33.272 305.341 35.786 307.675 38.887 307.675 Z" fill="#FFD9A1" stroke="black" stroke-miterlimit="10"/>
  <path d="M 92.255 197.558 C 95.356 197.558 97.87 195.225 97.87 192.346 C 97.87 189.468 95.356 187.135 92.255 187.135 C 89.154 187.135 86.64 189.468 86.64 192.346 C 86.64 195.225 89.154 197.558 92.255 197.558 Z" fill="#FF7342" stroke="black" stroke-miterlimit="10"/>
  <path d="M 113.852 211.298 C 116.953 211.298 119.467 208.965 119.467 206.087 C 119.467 203.208 116.953 200.875 113.852 200.875 C 110.751 200.875 108.237 203.208 108.237 206.087 C 108.237 208.965 110.751 211.298 113.852 211.298 Z" fill="#FF7342" stroke="black" stroke-miterlimit="10"/>
  <path d="M 254.734 156.698 C 261.928 156.698 267.759 151.285 267.759 144.608 C 267.759 137.931 261.928 132.518 254.734 132.518 C 247.541 132.518 241.709 137.931 241.709 144.608 C 241.709 151.285 247.541 156.698 254.734 156.698 Z" fill="#FFD9A1" stroke="black" stroke-miterlimit="10"/>
  <path d="M 218.598 149.297 C 221.699 149.297 224.213 146.963 224.213 144.085 C 224.213 141.206 221.699 138.873 218.598 138.873 C 215.497 138.873 212.983 141.206 212.983 144.085 C 212.983 146.963 215.497 149.297 218.598 149.297 Z" fill="#FFC043" stroke="black" stroke-miterlimit="10"/>
  <path d="M 364.11 167.856 C 367.211 167.856 369.725 165.523 369.725 162.645 C 369.725 159.766 367.211 157.433 364.11 157.433 C 361.009 157.433 358.495 159.766 358.495 162.645 C 358.495 165.523 361.009 167.856 364.11 167.856 Z" fill="#DD0426" stroke="black" stroke-miterlimit="10"/>
  <path d="M 301.977 115.265 C 305.078 115.265 307.591 112.932 307.591 110.053 C 307.591 107.175 305.078 104.842 301.977 104.842 C 298.876 104.842 296.362 107.175 296.362 110.053 C 296.362 112.932 298.876 115.265 301.977 115.265 Z" fill="#263B34" stroke="black" stroke-miterlimit="10"/>
  <path d="M 249.119 183.442 C 252.22 183.442 254.734 181.109 254.734 178.231 C 254.734 175.352 252.22 173.019 249.119 173.019 C 246.018 173.019 243.504 175.352 243.504 178.231 C 243.504 181.109 246.018 183.442 249.119 183.442 Z" fill="#FFC043" stroke="black" stroke-miterlimit="10"/>
  <path d="M 233.947 169.359 C 237.048 169.359 239.562 167.026 239.562 164.148 C 239.562 161.269 237.048 158.936 233.947 158.936 C 230.846 158.936 228.332 161.269 228.332 164.148 C 228.332 167.026 230.846 169.359 233.947 169.359 Z" fill="#FFC043" stroke="black" stroke-miterlimit="10"/>
  <path d="M 121.72 63.703 C 129.72 63.703 136.206 57.047 136.206 48.836 C 136.206 40.625 129.72 33.968 121.72 33.968 C 113.719 33.968 107.234 40.625 107.234 48.836 C 107.234 57.047 113.719 63.703 121.72 63.703 Z" fill="#FF7342" stroke="black" stroke-miterlimit="10"/>
  <path d="M 133.143 87.72 C 136.244 87.72 138.758 85.386 138.758 82.508 C 138.758 79.63 136.244 77.296 133.143 77.296 C 130.042 77.296 127.528 79.63 127.528 82.508 C 127.528 85.386 130.042 87.72 133.143 87.72 Z" fill="#263B34" stroke="black" stroke-miterlimit="10"/>
  <path d="M 143.035 26.028 C 146.136 26.028 148.65 23.695 148.65 20.817 C 148.65 17.938 146.136 15.605 143.035 15.605 C 139.934 15.605 137.42 17.938 137.42 20.817 C 137.42 23.695 139.934 26.028 143.035 26.028 Z" fill="#263B34" stroke="black" stroke-miterlimit="10"/>
  <path d="M 152.645 60.795 C 157.73 60.795 161.851 56.969 161.851 52.25 C 161.851 47.531 157.73 43.706 152.645 43.706 C 147.561 43.706 143.44 47.531 143.44 52.25 C 143.44 56.969 147.561 60.795 152.645 60.795 Z" fill="#FF7342" stroke="black" stroke-miterlimit="10"/>
  <path d="M 259.205 346.885 C 266.953 346.885 273.233 341.055 273.233 333.864 C 273.233 326.672 266.953 320.843 259.205 320.843 C 251.457 320.843 245.177 326.672 245.177 333.864 C 245.177 341.055 251.457 346.885 259.205 346.885 Z" fill="#FFD9A1" stroke="black" stroke-miterlimit="10"/>
  <path d="M 161.675 221.771 C 164.776 221.771 167.29 219.437 167.29 216.559 C 167.29 213.681 164.776 211.347 161.675 211.347 C 158.574 211.347 156.06 213.681 156.06 216.559 C 156.06 219.437 158.574 221.771 161.675 221.771 Z" fill="#FFC043" stroke="black" stroke-miterlimit="10"/>
  <path d="M 150.199 277.548 L 150.304 277.335 C 151.557 275.186 152.34 272.829 152.61 270.398 C 152.88 267.967 152.631 265.511 151.877 263.17 C 151.123 260.828 149.88 258.648 148.218 256.753 C 146.556 254.858 144.507 253.286 142.19 252.126 C 139.873 250.965 137.333 250.238 134.713 249.989 C 132.094 249.74 129.447 249.972 126.924 250.673 C 124.402 251.374 122.053 252.53 120.012 254.075 C 117.971 255.619 116.279 257.522 115.031 259.674 L 114.309 260.9 C 111.535 265.642 107.001 269.288 101.548 271.16 C 93.627 273.944 87.052 279.287 83.031 286.207 C 73.808 302.071 83.894 315.517 101.003 324.078 C 118.111 332.639 135.748 333.096 145.006 317.216 C 149.192 310.016 150.305 301.616 148.122 293.69 C 146.607 288.258 147.348 282.496 150.199 277.548 Z" fill="#FFA42C" stroke="black" stroke-miterlimit="10"/>
  <path d="M 138.054 221.575 C 140.283 222.818 142.227 224.458 143.772 226.4 C 145.317 228.342 146.433 230.548 147.057 232.892 C 147.681 235.235 147.801 237.67 147.408 240.057 C 147.015 242.443 146.119 244.734 144.77 246.798 L 142.051 251 C 137.561 248.497 134.326 244.44 133.058 239.723 C 131.79 235.006 132.593 230.015 135.29 225.847 L 138.008 221.646 L 138.054 221.575 Z" fill="#C0D45C" stroke="black" stroke-miterlimit="10"/>
  <path d="M 133.741 253.858 C 133.741 253.858 134.463 261.7 144.443 261.57" stroke="black" stroke-miterlimit="10"/>
  <path d="M 167.29 242.046 C 150.656 235.854 137.103 259.544 137.103 259.544" stroke="black" stroke-miterlimit="10"/>
  <path d="M 133.741 253.858 C 133.741 253.858 134.463 261.7 144.443 261.57" stroke="black" stroke-miterlimit="10"/>
  <path d="M 166.691 97.931 L 147.523 154.884" stroke="black" stroke-miterlimit="10"/>
  <path d="M 190.33 87.965 L 173.274 139.657" stroke="black" stroke-miterlimit="10"/>
  <path d="M 150.032 453.801 L 150.032 478.389 L 268.754 478.389 L 268.754 454.422" fill="#FF7342"/>
  <path d="M 150.032 453.801 L 150.032 478.389 L 268.754 478.389 L 268.754 454.422" stroke="black" stroke-miterlimit="10"/>
  <path d="M 268.754 447.184 L 150.032 447.184 L 150.032 462.035 L 268.754 462.035 L 268.754 447.184 Z" fill="black" stroke="black" stroke-miterlimit="10"/>
  <path d="M 64.717 362.473 L 360.211 362.473 L 360.211 365.316 C 360.211 414.728 317.058 454.781 263.825 454.781 L 161.103 454.781 C 107.871 454.781 64.717 414.728 64.717 365.316 L 64.717 362.538 L 64.717 362.473 Z" fill="#FF7342" stroke="black" stroke-miterlimit="10"/>
  <path d="M 56.057 478.389 L 353.593 478.389" stroke="black" stroke-miterlimit="10"/>
  <path d="M 249.295 208.439 L 241.058 223.323" stroke="black" stroke-miterlimit="10"/>
  <path d="M 213.864 96.531 L 240.46 96.531 L 213.864 96.531 Z" fill="#D8D8D8"/>
  <path d="M 213.864 96.531 L 240.46 96.531" stroke="black"/>
</svg>