<svg width="664" height="606" viewBox="0 0 664 606" fill="none" xmlns="http://www.w3.org/2000/svg">
<ellipse cx="483" cy="344" rx="181" ry="170" fill="#D21717"/>
<path d="M223.721 395.504L241.622 398.87C246.982 399.674 252.461 399.491 257.745 398.331C263.029 397.17 268.015 395.055 272.419 392.106C276.822 389.156 280.556 385.431 283.408 381.142C286.26 376.853 288.174 372.085 289.041 367.109C289.91 362.132 289.715 357.045 288.466 352.139C287.217 347.232 284.938 342.602 281.76 338.513C278.583 334.424 274.568 330.957 269.946 328.308C265.324 325.66 260.185 323.883 254.823 323.079L236.958 319.73" fill="#1C7054"/>
<path d="M223.721 395.504L241.622 398.87C246.982 399.674 252.461 399.491 257.745 398.331C263.029 397.17 268.015 395.055 272.419 392.106C276.822 389.156 280.556 385.431 283.408 381.142C286.26 376.853 288.174 372.085 289.041 367.109V367.109C289.91 362.132 289.715 357.045 288.466 352.139C287.217 347.232 284.938 342.602 281.76 338.513C278.583 334.424 274.568 330.957 269.946 328.308C265.324 325.66 260.185 323.883 254.823 323.079L236.958 319.73" stroke="black" stroke-miterlimit="10"/>
<path d="M257.49 361.696C261.137 340.773 251.934 321.986 236.935 319.733C221.936 317.481 206.82 332.616 203.174 353.54C199.527 374.463 208.729 393.25 223.728 395.503C238.727 397.755 253.843 382.619 257.49 361.696Z" fill="#C0D45C" stroke="black" stroke-miterlimit="10"/>
<path d="M237.601 358.342C238.714 351.956 235.906 346.221 231.329 345.534C226.751 344.846 222.138 349.466 221.025 355.853C219.912 362.239 222.72 367.974 227.298 368.661C231.875 369.349 236.488 364.729 237.601 358.342Z" fill="black"/>
<path d="M253.233 362.636C253.624 361.211 251.888 359.57 249.354 358.97C246.82 358.371 244.448 359.04 244.057 360.465C243.666 361.89 245.402 363.532 247.936 364.131C250.47 364.731 252.842 364.061 253.233 362.636Z" fill="black"/>
<path d="M246.077 378.071C247.017 376.887 246.072 374.76 243.967 373.32C241.862 371.88 239.394 371.672 238.454 372.856C237.514 374.04 238.458 376.167 240.563 377.607C242.668 379.047 245.137 379.255 246.077 378.071Z" fill="black"/>
<path d="M229.159 387.858C230.742 387.801 231.943 385.788 231.842 383.363C231.74 380.938 230.374 379.018 228.791 379.075C227.207 379.132 226.006 381.145 226.108 383.57C226.21 385.996 227.576 387.915 229.159 387.858Z" fill="black"/>
<path d="M217.067 378.627C219.296 377.358 220.431 375.312 219.602 374.059C218.773 372.805 216.294 372.818 214.066 374.088C211.837 375.358 210.702 377.403 211.531 378.657C212.36 379.91 214.839 379.897 217.067 378.627Z" fill="black"/>
<path d="M211.514 364.509C214.112 364.234 216.074 362.827 215.894 361.366C215.715 359.905 213.464 358.942 210.866 359.217C208.267 359.491 206.306 360.898 206.485 362.359C206.665 363.821 208.916 364.783 211.514 364.509Z" fill="black"/>
<path d="M218.428 348.773C219.094 347.439 217.711 345.53 215.339 344.509C212.966 343.488 210.503 343.742 209.836 345.077C209.17 346.411 210.553 348.32 212.926 349.341C215.298 350.362 217.762 350.108 218.428 348.773Z" fill="black"/>
<path d="M226.682 338.129C227.894 337.182 227.512 334.909 225.829 333.052C224.145 331.194 221.797 330.456 220.585 331.403C219.372 332.35 219.754 334.624 221.438 336.481C223.122 338.338 225.469 339.076 226.682 338.129Z" fill="black"/>
<path d="M241.692 334.036C242.612 331.764 242.156 329.503 240.673 328.985C239.19 328.467 237.242 329.889 236.321 332.161C235.401 334.433 235.857 336.694 237.34 337.212C238.823 337.73 240.771 336.308 241.692 334.036Z" fill="black"/>
<path d="M248.987 347.815C251.473 347.065 253.092 345.322 252.602 343.924C252.112 342.525 249.699 342 247.213 342.75C244.726 343.5 243.107 345.243 243.597 346.641C244.087 348.04 246.5 348.566 248.987 347.815Z" fill="black"/>
<path d="M208.215 245.948L261.97 280.829C267.271 284.152 271.272 288.978 273.375 294.586C273.416 294.761 273.497 294.926 273.613 295.069C273.728 295.213 273.875 295.332 274.044 295.419L296.222 304.552C309.335 309.943 311.923 311.969 323.188 320.252L324.824 321.461C325.737 322.15 326.831 322.601 327.993 322.768L328.609 322.85C329.652 322.998 330.642 323.375 331.497 323.95C332.351 324.525 333.045 325.281 333.52 326.156C333.996 327.03 334.239 327.998 334.23 328.977C334.22 329.957 333.959 330.92 333.467 331.787L331.707 334.956C331.304 335.672 330.753 336.308 330.086 336.826C329.418 337.344 328.647 337.735 327.816 337.977C326.986 338.218 326.112 338.305 325.245 338.232C324.379 338.16 323.536 337.929 322.765 337.554C322.108 337.207 321.514 336.766 321.005 336.247C320.203 335.424 319.174 334.82 318.03 334.499L317.203 334.27L315.443 333.764L314.14 333.372C301.819 329.81 298.598 328.895 286.981 322.295L265.965 310.303L265.824 310.221C265.512 310.112 265.168 310.112 264.856 310.221C258.478 311.824 251.726 311.591 245.495 309.551L184.382 288.312C183.049 287.846 181.836 287.123 180.825 286.191C179.814 285.259 179.026 284.14 178.514 282.905C178.002 281.671 177.777 280.35 177.854 279.029C177.931 277.708 178.308 276.418 178.961 275.242L193.588 249.428C194.243 248.253 195.159 247.22 196.275 246.396C197.39 245.573 198.681 244.977 200.062 244.649C201.443 244.32 202.883 244.266 204.288 244.49C205.693 244.714 207.031 245.211 208.215 245.948Z" fill="#FFD9A1" stroke="black" stroke-miterlimit="10"/>
<path d="M193.06 281.042L225.323 293.066" stroke="black" stroke-miterlimit="10"/>
<path d="M206.208 257.842L235.162 275.699" stroke="black" stroke-miterlimit="10"/>
<path d="M199.255 269.344L230.058 283.607" stroke="black" stroke-miterlimit="10"/>
<path d="M326.725 322.834L319.614 335.397" stroke="black" stroke-miterlimit="10"/>
<path d="M269.133 311.904L285.573 300.304L274.15 295.19L265.525 310.417" fill="black"/>
<path d="M269.133 311.904L285.573 300.304L274.15 295.19L265.525 310.417" stroke="black" stroke-miterlimit="10"/>
<path d="M208.215 245.948L261.97 280.829C267.271 284.152 271.272 288.978 273.375 294.586C273.416 294.761 273.497 294.926 273.613 295.069C273.728 295.213 273.875 295.332 274.044 295.419L296.222 304.552C309.335 309.943 311.923 311.969 323.188 320.252L324.824 321.461C325.737 322.15 326.831 322.601 327.993 322.768L328.609 322.85C329.652 322.998 330.642 323.375 331.497 323.95C332.351 324.525 333.045 325.281 333.52 326.156C333.996 327.03 334.239 327.998 334.23 328.977C334.22 329.957 333.959 330.92 333.467 331.787L331.707 334.956C331.304 335.672 330.753 336.308 330.086 336.826C329.418 337.344 328.647 337.735 327.816 337.977C326.986 338.218 326.112 338.305 325.245 338.232C324.379 338.16 323.536 337.929 322.765 337.554C322.108 337.207 321.514 336.766 321.005 336.247C320.203 335.424 319.174 334.82 318.03 334.499L317.203 334.27L315.443 333.764L314.14 333.372C301.819 329.81 298.598 328.895 286.981 322.295L265.965 310.303L265.824 310.221C265.512 310.112 265.168 310.112 264.856 310.221C258.478 311.824 251.726 311.591 245.495 309.551L184.382 288.312C183.049 287.846 181.836 287.123 180.825 286.191C179.814 285.259 179.026 284.14 178.514 282.905C178.002 281.671 177.777 280.35 177.854 279.029C177.931 277.708 178.308 276.418 178.961 275.242L193.588 249.428C194.243 248.253 195.159 247.22 196.275 246.396C197.39 245.573 198.681 244.977 200.062 244.649C201.443 244.32 202.883 244.266 204.288 244.49C205.693 244.714 207.031 245.211 208.215 245.948Z" fill="#F1F2EB" stroke="black" stroke-miterlimit="10"/>
<path d="M193.06 281.042L225.323 293.066" stroke="black" stroke-miterlimit="10"/>
<path d="M206.208 257.842L235.162 275.699" stroke="black" stroke-miterlimit="10"/>
<path d="M199.255 269.344L230.058 283.607" stroke="black" stroke-miterlimit="10"/>
<path d="M326.725 322.834L319.614 335.397" stroke="black" stroke-miterlimit="10"/>
<path d="M368.177 376.487L354.377 368.792C348.133 365.313 340.656 364.278 333.59 365.914C326.523 367.55 320.446 371.723 316.693 377.516L311.007 386.306C308.12 390.77 306.774 395.948 307.148 401.143C307.522 406.338 309.6 411.303 313.102 415.371C317.851 420.885 320.434 427.737 320.424 434.796V436.103L322.483 437.247C329.313 433.702 336.001 431.039 343.729 432.264C349.18 433.127 354.784 432.443 359.809 430.3C364.834 428.158 369.045 424.657 371.891 420.256L377.576 411.466C379.434 408.597 380.665 405.415 381.198 402.104C381.731 398.793 381.556 395.417 380.683 392.169C379.811 388.921 378.257 385.864 376.111 383.173C373.965 380.482 371.269 378.21 368.177 376.487Z" fill="#DD0426" stroke="black" stroke-miterlimit="10"/>
<path d="M403.749 348.794C404.38 347.823 404.785 346.74 404.94 345.614C405.094 344.489 404.994 343.347 404.647 342.259C404.342 341.312 404.417 340.294 404.857 339.393C405.297 338.492 406.072 337.77 407.041 337.358C409.034 336.541 410.707 335.171 411.829 333.437L412.145 332.93C413.576 330.749 414.53 328.328 414.953 325.805C415.376 323.282 415.259 320.706 414.609 318.225C413.959 315.744 412.79 313.406 411.166 311.344C409.543 309.283 407.498 307.538 405.149 306.21C402.799 304.882 400.191 303.996 397.473 303.604C394.754 303.212 391.979 303.32 389.306 303.923C386.633 304.526 384.114 305.612 381.893 307.119C379.672 308.625 377.792 310.523 376.362 312.704L375.904 313.407C375.11 314.929 374.793 316.627 374.989 318.308C375.004 319.384 374.568 320.423 373.773 321.207C372.978 321.99 371.887 322.456 370.729 322.507C369.296 322.595 367.908 323.004 366.682 323.698C365.456 324.392 364.429 325.351 363.688 326.493C362.632 328.127 363.248 330.529 364.322 332.767C364.89 333.985 364.952 335.354 364.497 336.612C364.042 337.87 363.102 338.927 361.858 339.58C360.552 340.299 359.469 341.32 358.714 342.542C357.959 343.765 357.557 345.148 357.548 346.557C357.539 347.967 357.923 349.354 358.663 350.585C359.403 351.816 360.473 352.848 361.77 353.581L360.626 352.944L359.288 355.003C358.494 356.221 357.967 357.573 357.738 358.982C357.508 360.39 357.582 361.826 357.953 363.208C358.324 364.59 358.987 365.89 359.901 367.033C360.816 368.177 361.966 369.141 363.284 369.87C365.881 371.255 368.961 371.639 371.86 370.94C374.76 370.24 377.248 368.513 378.791 366.129L380.234 363.874L379.09 363.237C381.085 364.343 383.471 364.672 385.726 364.152C387.982 363.632 389.924 362.304 391.129 360.459C391.894 359.253 392.324 357.889 392.379 356.489C392.405 355.167 392.96 353.901 393.936 352.938C394.912 351.975 396.239 351.383 397.659 351.278C400.212 351.065 402.693 350.412 403.749 348.794Z" fill="#C0D45C" stroke="black" stroke-miterlimit="10"/>
<path d="M399.261 315.269L357.106 380.424" stroke="black" stroke-miterlimit="10"/>
<path d="M353.709 375.49C353.709 375.49 356.296 382.744 363.953 380.571" stroke="black" stroke-miterlimit="10"/>
<path d="M353.709 375.49C353.709 375.49 356.296 382.744 363.953 380.571" stroke="black" stroke-miterlimit="10"/>
<path d="M371.416 358.254L387.398 356.424" stroke="black" stroke-miterlimit="10"/>
<path d="M374.443 353.14L368.67 339.188" stroke="black" stroke-miterlimit="10"/>
<path d="M386.658 334.254L380.885 320.301" stroke="black" stroke-miterlimit="10"/>
<path d="M379.882 345.167L401.849 339.743" stroke="black" stroke-miterlimit="10"/>
<path d="M333.96 170.925C334.564 169.992 334.952 168.953 335.101 167.873C335.249 166.793 335.154 165.696 334.822 164.652C334.521 163.748 334.585 162.772 335.003 161.909C335.421 161.046 336.164 160.354 337.093 159.963C338.995 159.188 340.589 157.879 341.651 156.221L341.951 155.748C344.7 151.558 345.544 146.525 344.296 141.758C343.048 136.99 339.811 132.878 335.297 130.326C330.783 127.774 325.362 126.991 320.225 128.149C315.089 129.307 310.659 132.312 307.909 136.502L307.469 137.172C306.718 138.612 306.419 140.22 306.607 141.812C306.65 142.844 306.257 143.852 305.51 144.618C304.763 145.384 303.723 145.849 302.611 145.912C301.246 145.993 299.923 146.38 298.755 147.041C297.587 147.701 296.609 148.614 295.905 149.703C294.902 151.336 295.483 153.542 296.504 155.666C297.059 156.832 297.125 158.149 296.689 159.358C296.252 160.567 295.345 161.581 294.145 162.201C292.905 162.89 291.879 163.866 291.167 165.033C290.455 166.199 290.08 167.518 290.08 168.859C290.08 170.2 290.455 171.518 291.167 172.685C291.879 173.852 292.905 174.827 294.145 175.516L293.054 174.912L291.786 176.872C291.028 178.031 290.524 179.318 290.305 180.659C290.086 181.999 290.155 183.367 290.508 184.683C290.862 185.998 291.493 187.236 292.365 188.324C293.237 189.412 294.332 190.328 295.588 191.021C298.06 192.335 300.989 192.698 303.746 192.032C306.503 191.367 308.87 189.725 310.338 187.459L311.711 185.319L310.62 184.714C312.518 185.769 314.789 186.081 316.934 185.581C319.08 185.082 320.924 183.812 322.061 182.051C322.809 180.919 323.222 179.622 323.258 178.294C323.304 177.054 323.835 175.872 324.752 174.97C325.669 174.068 326.908 173.507 328.239 173.392C330.598 173.082 332.956 172.461 333.96 170.925Z" fill="#C0D45C" stroke="black" stroke-miterlimit="10"/>
<path d="M329.7 139.018L289.586 201.02" stroke="black" stroke-miterlimit="10"/>
<path d="M329.7 139.018L289.586 201.02" stroke="black" stroke-miterlimit="10"/>
<path d="M303.21 179.927L318.4 178.179" stroke="black" stroke-miterlimit="10"/>
<path d="M306.079 175.059L300.587 161.776" stroke="black" stroke-miterlimit="10"/>
<path d="M317.696 157.087L312.222 143.821" stroke="black" stroke-miterlimit="10"/>
<path d="M311.271 167.478L332.164 162.299" stroke="black" stroke-miterlimit="10"/>
<path d="M86.0601 301.905C85.4044 301.004 84.5541 300.24 83.5633 299.661C82.5725 299.082 81.4627 298.7 80.3044 298.54C79.2952 298.409 78.3713 297.943 77.7044 297.228C77.0376 296.513 76.673 295.597 76.6785 294.651C76.7562 292.711 76.1776 290.797 75.024 289.178L74.6895 288.721C73.2345 286.702 71.3652 284.969 69.1886 283.62C67.0119 282.272 64.5704 281.334 62.0035 280.862C59.4366 280.389 56.7945 280.391 54.2282 280.866C51.6619 281.341 49.2215 282.281 47.0464 283.631C44.8713 284.982 43.0041 286.717 41.5514 288.737C40.0987 290.758 39.089 293.024 38.5799 295.407C38.0707 297.789 38.0722 300.242 38.5841 302.624C39.0961 305.006 40.1085 307.271 41.5635 309.29L42.0388 309.943C43.1231 311.186 44.5627 312.121 46.1927 312.639C47.2221 313.027 48.0442 313.778 48.4795 314.727C48.9148 315.676 48.9279 316.746 48.5161 317.704C48.0222 318.89 47.8458 320.17 48.0022 321.433C48.1585 322.697 48.6429 323.906 49.4138 324.958C50.5051 326.461 52.9341 326.935 55.4863 326.967C56.8357 327.012 58.1202 327.516 59.0942 328.384C60.0683 329.252 60.6637 330.423 60.7668 331.672C60.9108 332.965 61.3943 334.205 62.1749 335.283C63.4174 336.981 65.3352 338.151 67.5068 338.537C69.6784 338.923 71.9263 338.493 73.7567 337.342L72.7006 337.995L74.0911 339.89C74.9051 341.015 75.951 341.979 77.1685 342.726C78.386 343.474 79.7508 343.99 81.1844 344.245C82.6179 344.5 84.0917 344.489 85.5207 344.213C86.9496 343.937 88.3055 343.4 89.51 342.635C91.8362 341.107 93.4235 338.793 93.9304 336.189C94.4373 333.586 93.8233 330.903 92.2206 328.715L90.7245 326.657L89.6684 327.327C90.8711 326.565 91.8385 325.524 92.475 324.309C93.1114 323.093 93.3947 321.744 93.2969 320.396C93.1991 319.047 92.7236 317.746 91.9173 316.62C91.1111 315.495 90.0022 314.584 88.7003 313.979C87.4878 313.429 86.5369 312.483 86.0301 311.322C85.5233 310.161 85.4964 308.867 85.9545 307.689C86.7642 305.63 87.1514 303.392 86.0601 301.905Z" fill="#C0D45C" stroke="black" stroke-miterlimit="10"/>
<path d="M53.0924 292.07L96.8145 351.931" stroke="black" stroke-miterlimit="10"/>
<path d="M53.0924 292.07L96.8145 351.931" stroke="black" stroke-miterlimit="10"/>
<path d="M81.9238 331.591L86.6234 318.047" stroke="black" stroke-miterlimit="10"/>
<path d="M78.3859 327.114L63.0901 326.15" stroke="black" stroke-miterlimit="10"/>
<path d="M65.7127 309.78L50.4346 308.816" stroke="black" stroke-miterlimit="10"/>
<path d="M73.1406 319.566L76.8897 299.797" stroke="black" stroke-miterlimit="10"/>
<path d="M343.437 211.778L309.31 219.173L312.583 232.187L346.71 224.792L343.437 211.778Z" fill="#FF7342" stroke="black" stroke-miterlimit="10"/>
<path d="M346.706 224.797L312.579 232.191L314.143 238.412L348.27 231.017L346.706 224.797Z" fill="#FF7342" stroke="black" stroke-miterlimit="10"/>
<path d="M369.198 292.086L325.335 301.595C324.066 301.871 322.75 301.912 321.464 301.716C320.178 301.519 318.946 301.089 317.839 300.45C316.732 299.812 315.772 298.976 315.014 297.992C314.255 297.008 313.713 295.895 313.419 294.716L312.081 289.423L314.158 238.4L347.97 231.065L375.006 274.67L376.608 281.009C376.906 282.188 376.95 283.41 376.739 284.605C376.528 285.8 376.065 286.945 375.377 287.973C374.688 289.002 373.788 289.895 372.728 290.6C371.668 291.306 370.468 291.811 369.198 292.086Z" fill="#F1F2EB" stroke="black" stroke-miterlimit="10"/>
<path d="M322.413 236.472L328.468 285.502L332.147 300.075" stroke="black" stroke-miterlimit="10"/>
<path d="M341.493 232.339L363.407 277.938L367.068 292.494" stroke="black" stroke-miterlimit="10"/>
<path d="M330.915 234.757L346.809 296.644" stroke="black" stroke-miterlimit="10"/>
<path d="M375.165 275.275L311.975 288.982" stroke="black" stroke-miterlimit="10"/>
<path d="M345.471 220.527L311.782 227.83" stroke="black" stroke-miterlimit="10"/>
<path d="M328.468 285.502L332.147 300.075" stroke="black" stroke-miterlimit="10"/>
<path d="M363.407 277.938L367.068 292.495" stroke="black" stroke-miterlimit="10"/>
<path d="M345.471 220.527L311.782 227.83" stroke="black" stroke-miterlimit="10"/>
<path d="M170.248 242.697L224.32 220.657L217.49 206.689" fill="#DD0426"/>
<path d="M170.248 242.697L224.32 220.657L217.49 206.689" stroke="black" stroke-miterlimit="10"/>
<path d="M217.931 207.571L236.835 199.598L229.636 185.384" fill="#FF7342"/>
<path d="M217.931 207.571L236.835 199.598L229.636 185.384" stroke="black" stroke-miterlimit="10"/>
<path d="M245.23 162.315L239.316 150.225L204.589 179.421" fill="#DD0426"/>
<path d="M245.23 162.315L239.316 150.225L204.589 179.421" stroke="black" stroke-miterlimit="10"/>
<path d="M115.859 216.965L132.862 251.716H132.651C114.099 254.885 83.5607 249.624 83.5607 249.624L101.761 238.841L75.0239 234.136L115.859 216.965Z" fill="#FFD9A1" stroke="black" stroke-miterlimit="10"/>
<path d="M105.844 235.231C108.77 235.231 111.142 233.029 111.142 230.313C111.142 227.597 108.77 225.395 105.844 225.395C102.918 225.395 100.546 227.597 100.546 230.313C100.546 233.029 102.918 235.231 105.844 235.231Z" fill="#FFD9A1" stroke="black" stroke-miterlimit="10"/>
<path d="M105.844 232.584C107.195 232.584 108.291 231.567 108.291 230.313C108.291 229.059 107.195 228.042 105.844 228.042C104.493 228.042 103.398 229.059 103.398 230.313C103.398 231.567 104.493 232.584 105.844 232.584Z" fill="black" stroke="black" stroke-miterlimit="10"/>
<path d="M120.365 215.152L118.165 221.834" stroke="black" stroke-miterlimit="10"/>
<path d="M155.868 200.105L139.639 250.931" stroke="black" stroke-miterlimit="10"/>
<path d="M167.784 194.877L149.918 249.101" stroke="black" stroke-miterlimit="10"/>
<path d="M203.251 179.927L184.54 235.754" stroke="black" stroke-miterlimit="10"/>
<path d="M244.421 178.98L250.405 160.094" stroke="black" stroke-miterlimit="10"/>
<path d="M250.282 159.897L260.368 142.579L265.754 160.437L279.87 176.497L257.182 174.013L250.282 159.897Z" fill="#DD0426" stroke="black" stroke-miterlimit="10"/>
<path d="M261.811 147.366L256.214 149.719" stroke="black" stroke-miterlimit="10"/>
<path d="M264.381 154.588L250.546 160.42" stroke="black" stroke-miterlimit="10"/>
<path d="M266.951 161.793L253.908 167.298" stroke="black" stroke-miterlimit="10"/>
<path d="M269.608 164.831L255.598 170.746" stroke="black" stroke-miterlimit="10"/>
<path d="M272.284 167.854L257.587 174.046" stroke="black" stroke-miterlimit="10"/>
<path d="M274.942 170.893L265.402 174.912" stroke="black" stroke-miterlimit="10"/>
<path d="M277.6 173.915L273.217 175.761" stroke="black" stroke-miterlimit="10"/>
<path d="M250.405 160.11L257.111 173.85L229.636 185.401C229.636 185.401 210.696 240.443 139.657 250.882C137.456 251.209 135.221 251.487 132.915 251.716L116 217.129V216.965L120.506 215.152L132.352 210.136L144.18 205.12L156.008 200.105L250.405 160.11Z" fill="#FFA42C" stroke="black" stroke-miterlimit="10"/>
<path d="M105.844 235.231C108.77 235.231 111.142 233.029 111.142 230.313C111.142 227.597 108.77 225.395 105.844 225.395C102.918 225.395 100.546 227.597 100.546 230.313C100.546 233.029 102.918 235.231 105.844 235.231Z" fill="#1C7054" stroke="black" stroke-miterlimit="10"/>
<path d="M105.844 232.584C107.195 232.584 108.291 231.567 108.291 230.313C108.291 229.059 107.195 228.042 105.844 228.042C104.493 228.042 103.398 229.059 103.398 230.313C103.398 231.567 104.493 232.584 105.844 232.584Z" fill="black" stroke="black" stroke-miterlimit="10"/>
<path d="M120.365 215.152L118.165 221.834" stroke="black" stroke-miterlimit="10"/>
<path d="M132.211 210.136L124.449 234.512" stroke="black" stroke-miterlimit="10"/>
<path d="M144.039 205.12L130.169 246.21" stroke="black" stroke-miterlimit="10"/>
<path d="M155.868 200.105L139.639 250.931" stroke="black" stroke-miterlimit="10"/>
<path d="M167.784 194.877L149.918 249.101" stroke="black" stroke-miterlimit="10"/>
<path d="M179.542 190.09L161.711 245.785" stroke="black" stroke-miterlimit="10"/>
<path d="M203.251 179.927L184.54 235.754" stroke="black" stroke-miterlimit="10"/>
<path d="M226.907 169.961L210.837 214.711" stroke="black" stroke-miterlimit="10"/>
<path d="M238.735 164.979L232.417 184.241" stroke="black" stroke-miterlimit="10"/>
<path d="M244.333 179.209L250.405 160.094" stroke="black" stroke-miterlimit="10"/>
<path d="M210.151 174.781L202.952 160.077L149.091 202.98L204.589 179.421L210.151 174.781Z" fill="#DD0426" stroke="black" stroke-miterlimit="10"/>
<path d="M261.811 147.366L256.214 149.719" stroke="black" stroke-miterlimit="10"/>
<path d="M262.92 151.042L253.01 155.225" stroke="black" stroke-miterlimit="10"/>
<path d="M264.029 154.718L250.546 160.42" stroke="black" stroke-miterlimit="10"/>
<path d="M265.138 158.411L252.218 163.851" stroke="black" stroke-miterlimit="10"/>
<path d="M266.951 161.793L253.908 167.298" stroke="black" stroke-miterlimit="10"/>
<path d="M269.608 164.831L255.598 170.746" stroke="black" stroke-miterlimit="10"/>
<path d="M272.284 167.854L257.587 174.046" stroke="black" stroke-miterlimit="10"/>
<path d="M274.942 170.893L265.402 174.912" stroke="black" stroke-miterlimit="10"/>
<path d="M277.6 173.915L273.217 175.761" stroke="black" stroke-miterlimit="10"/>
<path d="M210.01 433.62C216.338 433.62 221.468 428.858 221.468 422.984C221.468 417.11 216.338 412.348 210.01 412.348C203.681 412.348 198.551 417.11 198.551 422.984C198.551 428.858 203.681 433.62 210.01 433.62Z" fill="#DD0426" stroke="black" stroke-miterlimit="10"/>
<path d="M96.885 425.614C99.986 425.614 102.5 423.281 102.5 420.403C102.5 417.524 99.986 415.191 96.885 415.191C93.7839 415.191 91.2701 417.524 91.2701 420.403C91.2701 423.281 93.7839 425.614 96.885 425.614Z" fill="#FFD9A1" stroke="black" stroke-miterlimit="10"/>
<path d="M111.389 317.197C118.582 317.197 124.414 311.784 124.414 305.107C124.414 298.43 118.582 293.017 111.389 293.017C104.195 293.017 98.3635 298.43 98.3635 305.107C98.3635 311.784 104.195 317.197 111.389 317.197Z" fill="#DD0426" stroke="black" stroke-miterlimit="10"/>
<path d="M132.986 320.579C136.087 320.579 138.601 318.246 138.601 315.367C138.601 312.489 136.087 310.156 132.986 310.156C129.885 310.156 127.371 312.489 127.371 315.367C127.371 318.246 129.885 320.579 132.986 320.579Z" fill="#263B34" stroke="black" stroke-miterlimit="10"/>
<path d="M88.0139 370.213C91.1149 370.213 93.6287 367.88 93.6287 365.001C93.6287 362.123 91.1149 359.79 88.0139 359.79C84.9128 359.79 82.399 362.123 82.399 365.001C82.399 367.88 84.9128 370.213 88.0139 370.213Z" fill="#FFC043" stroke="black" stroke-miterlimit="10"/>
<path d="M63.6358 394.654C66.7368 394.654 69.2506 392.321 69.2506 389.443C69.2506 386.564 66.7368 384.231 63.6358 384.231C60.5347 384.231 58.0209 386.564 58.0209 389.443C58.0209 392.321 60.5347 394.654 63.6358 394.654Z" fill="#FFD9A1" stroke="black" stroke-miterlimit="10"/>
<path d="M117.004 284.538C120.105 284.538 122.618 282.205 122.618 279.326C122.618 276.448 120.105 274.115 117.004 274.115C113.903 274.115 111.389 276.448 111.389 279.326C111.389 282.205 113.903 284.538 117.004 284.538Z" fill="#FF7342" stroke="black" stroke-miterlimit="10"/>
<path d="M138.601 298.278C141.702 298.278 144.215 295.945 144.215 293.066C144.215 290.188 141.702 287.855 138.601 287.855C135.5 287.855 132.986 290.188 132.986 293.066C132.986 295.945 135.5 298.278 138.601 298.278Z" fill="#FF7342" stroke="black" stroke-miterlimit="10"/>
<path d="M279.483 243.677C286.677 243.677 292.508 238.265 292.508 231.587C292.508 224.91 286.677 219.498 279.483 219.498C272.289 219.498 266.458 224.91 266.458 231.587C266.458 238.265 272.289 243.677 279.483 243.677Z" fill="#FFD9A1" stroke="black" stroke-miterlimit="10"/>
<path d="M243.347 236.276C246.448 236.276 248.962 233.943 248.962 231.065C248.962 228.186 246.448 225.853 243.347 225.853C240.246 225.853 237.732 228.186 237.732 231.065C237.732 233.943 240.246 236.276 243.347 236.276Z" fill="#FFC043" stroke="black" stroke-miterlimit="10"/>
<path d="M388.859 254.836C391.96 254.836 394.474 252.503 394.474 249.624C394.474 246.746 391.96 244.413 388.859 244.413C385.758 244.413 383.244 246.746 383.244 249.624C383.244 252.503 385.758 254.836 388.859 254.836Z" fill="#DD0426" stroke="black" stroke-miterlimit="10"/>
<path d="M326.725 202.245C329.826 202.245 332.34 199.911 332.34 197.033C332.34 194.155 329.826 191.821 326.725 191.821C323.624 191.821 321.111 194.155 321.111 197.033C321.111 199.911 323.624 202.245 326.725 202.245Z" fill="#263B34" stroke="black" stroke-miterlimit="10"/>
<path d="M273.868 270.422C276.969 270.422 279.483 268.089 279.483 265.21C279.483 262.332 276.969 259.999 273.868 259.999C270.767 259.999 268.253 262.332 268.253 265.21C268.253 268.089 270.767 270.422 273.868 270.422Z" fill="#FFC043" stroke="black" stroke-miterlimit="10"/>
<path d="M258.696 256.339C261.797 256.339 264.31 254.006 264.31 251.127C264.31 248.249 261.797 245.916 258.696 245.916C255.595 245.916 253.081 248.249 253.081 251.127C253.081 254.006 255.595 256.339 258.696 256.339Z" fill="#FFC043" stroke="black" stroke-miterlimit="10"/>
<path d="M146.468 150.683C154.469 150.683 160.955 144.027 160.955 135.816C160.955 127.605 154.469 120.948 146.468 120.948C138.468 120.948 131.982 127.605 131.982 135.816C131.982 144.027 138.468 150.683 146.468 150.683Z" fill="#FF7342" stroke="black" stroke-miterlimit="10"/>
<path d="M157.892 174.699C160.993 174.699 163.507 172.366 163.507 169.488C163.507 166.609 160.993 164.276 157.892 164.276C154.791 164.276 152.277 166.609 152.277 169.488C152.277 172.366 154.791 174.699 157.892 174.699Z" fill="#263B34" stroke="black" stroke-miterlimit="10"/>
<path d="M167.784 113.008C170.885 113.008 173.399 110.675 173.399 107.796C173.399 104.918 170.885 102.585 167.784 102.585C164.683 102.585 162.169 104.918 162.169 107.796C162.169 110.675 164.683 113.008 167.784 113.008Z" fill="#263B34" stroke="black" stroke-miterlimit="10"/>
<path d="M177.394 147.775C182.478 147.775 186.6 143.949 186.6 139.23C186.6 134.511 182.478 130.686 177.394 130.686C172.31 130.686 168.189 134.511 168.189 139.23C168.189 143.949 172.31 147.775 177.394 147.775Z" fill="#FF7342" stroke="black" stroke-miterlimit="10"/>
<path d="M283.954 433.865C291.701 433.865 297.982 428.035 297.982 420.844C297.982 413.652 291.701 407.823 283.954 407.823C276.206 407.823 269.925 413.652 269.925 420.844C269.925 428.035 276.206 433.865 283.954 433.865Z" fill="#FFD9A1" stroke="black" stroke-miterlimit="10"/>
<path d="M186.424 308.751C189.525 308.751 192.039 306.417 192.039 303.539C192.039 300.66 189.525 298.327 186.424 298.327C183.323 298.327 180.809 300.66 180.809 303.539C180.809 306.417 183.323 308.751 186.424 308.751Z" fill="#FFC043" stroke="black" stroke-miterlimit="10"/>
<path d="M174.948 364.528L175.053 364.315C176.305 362.166 177.089 359.808 177.359 357.378C177.629 354.947 177.38 352.491 176.626 350.149C175.872 347.808 174.629 345.628 172.967 343.733C171.305 341.838 169.256 340.266 166.939 339.106C164.622 337.944 162.081 337.218 159.462 336.969C156.843 336.72 154.196 336.952 151.673 337.653C149.151 338.354 146.802 339.51 144.761 341.055C142.72 342.599 141.028 344.502 139.78 346.654L139.058 347.879C136.284 352.622 131.75 356.268 126.297 358.14C118.376 360.924 111.801 366.266 107.78 373.187C98.5571 389.051 108.643 402.497 125.751 411.058C142.86 419.618 160.497 420.076 169.755 404.196C173.941 396.995 175.053 388.596 172.871 380.669C171.356 375.237 172.097 369.475 174.948 364.528Z" fill="#FFA42C" stroke="black" stroke-miterlimit="10"/>
<path d="M162.803 308.555C165.032 309.798 166.975 311.438 168.52 313.38C170.066 315.322 171.182 317.528 171.806 319.871C172.43 322.215 172.549 324.65 172.157 327.037C171.764 329.423 170.868 331.714 169.519 333.778L166.8 337.98C162.31 335.476 159.075 331.42 157.807 326.703C156.539 321.986 157.342 316.995 160.038 312.827L162.757 308.625L162.803 308.555Z" fill="#C0D45C" stroke="black" stroke-miterlimit="10"/>
<path d="M158.49 340.838C158.49 340.838 159.212 348.68 169.192 348.549" stroke="black" stroke-miterlimit="10"/>
<path d="M192.039 329.026C175.405 322.834 161.852 346.523 161.852 346.523" stroke="black" stroke-miterlimit="10"/>
<path d="M158.49 340.838C158.49 340.838 159.212 348.68 169.192 348.549" stroke="black" stroke-miterlimit="10"/>
<path d="M191.44 184.91L172.272 241.864" stroke="black" stroke-miterlimit="10"/>
<path d="M215.079 174.944L198.023 226.637" stroke="black" stroke-miterlimit="10"/>
<path d="M174.781 540.781V565.369H293.503V541.402" fill="#FF7342"/>
<path d="M174.781 540.781V565.369H293.503V541.402" stroke="black" stroke-miterlimit="10"/>
<path d="M293.503 534.164H174.781V549.015H293.503V534.164Z" fill="black" stroke="black" stroke-miterlimit="10"/>
<path d="M89.466 449.453H384.96V452.296C384.96 501.707 341.806 541.761 288.574 541.761H185.852C132.62 541.761 89.466 501.707 89.466 452.296V449.518V449.453Z" fill="#FF7342" stroke="black" stroke-miterlimit="10"/>
<path d="M80.806 565.369H378.342" stroke="black" stroke-miterlimit="10"/>
<path d="M274.044 295.419L265.807 310.303" stroke="black" stroke-miterlimit="10"/>
</svg>
