<svg width="460" height="415" viewBox="0 0 460 415" fill="none" xmlns="http://www.w3.org/2000/svg">
<g clip-path="url(#clip0_9_222)">
<path d="M224.269 305.438C235.219 309.02 242.333 317.847 240.158 325.152C237.982 332.458 227.343 335.476 216.39 331.891C211.995 330.522 207.978 328.07 204.673 324.74L158.459 308.95L165.988 286.371L210.748 304.334C215.274 303.565 219.911 303.943 224.269 305.438L224.269 305.438Z" fill="#FFB6B6"/>
<path d="M125.266 139.768H125.266C114.246 138.4 104.1 146.208 102.047 157.641C94.7253 198.42 79.1742 286.602 81.2222 288.749C83.8883 291.544 183.425 322.292 183.425 322.292L194.978 296.203L129.213 262.66L143.636 165.127C145.467 152.746 137.134 141.242 125.266 139.768V139.768Z" fill="#E6E6E6"/>
<path d="M245.182 347.855C234.497 352.231 223.683 349.998 221.028 342.868C218.374 335.739 224.883 326.415 235.572 322.039C239.819 320.23 244.417 319.513 248.983 319.949L294.477 302.01L302.052 324.572L256.398 339.862C253.322 343.427 249.476 346.168 245.182 347.855H245.182Z" fill="#A0616A"/>
<path d="M310.79 154.203H310.79C321.697 152.062 332.32 159.137 335.101 170.4C345.021 210.571 366.189 297.458 364.283 299.744C361.802 302.721 264.462 340.411 264.462 340.411L251.262 315.196L314.729 277.095L294.087 180.799C291.466 168.574 299.043 156.51 310.79 154.203L310.79 154.203Z" fill="#E6E6E6"/>
<path d="M117.46 145.626L122.88 110.108L86.2919 94.4802L80.8714 148.468L117.46 145.626Z" fill="#FFB6B6"/>
<path d="M331.152 151.217L325.731 115.699L362.319 100.071L367.74 154.058L331.152 151.217Z" fill="#A0616A"/>
<path d="M108.214 121.526C128.82 121.526 145.525 104.012 145.525 82.4084C145.525 60.8043 128.82 43.2908 108.214 43.2908C87.6072 43.2908 70.9023 60.8043 70.9023 82.4084C70.9023 104.012 87.6072 121.526 108.214 121.526Z" fill="#FFB6B6"/>
<path d="M105.236 29.8175C106.316 30.4782 107.762 29.4785 108.108 28.2191C108.454 26.9598 108.051 25.6226 107.651 24.3808L105.638 18.1295C104.21 13.696 102.695 9.10749 99.6024 5.73297C94.9353 0.63969 87.5181 -0.656022 80.8411 0.282675C72.2666 1.48814 63.8065 6.35594 59.8196 14.4055C55.8327 22.455 57.53 33.687 64.7341 38.7091C54.4667 51.0469 50.8877 64.797 51.4528 81.1599C52.0179 97.5228 69.0261 112.582 80.1177 124.109C82.5947 122.535 84.8465 115.158 83.4844 112.478C82.1223 109.798 84.0739 106.693 82.387 104.224C80.7 101.756 79.2887 105.686 80.9942 103.232C82.0703 101.683 77.8701 98.1195 79.4697 97.1925C87.2069 92.7086 89.7803 82.5977 94.6397 74.8549C100.501 65.5158 110.533 59.1912 121.149 58.142C126.997 57.564 133.174 58.6108 137.968 62.1704C142.761 65.7299 145.864 72.0907 144.753 78.1378C147.632 75.0733 149.065 70.5823 148.524 66.3186C147.984 62.0549 145.482 58.1121 141.939 55.9423C144.093 48.4748 142.248 39.8849 137.249 34.1063C132.25 28.3277 111.97 29.3119 104.671 30.8327" fill="#2F2E41"/>
<path d="M104.102 58.3687C94.4358 59.4627 87.4562 68.2415 81.5625 76.3487C78.1656 81.0216 74.6073 86.1819 74.6925 92.0565C74.7788 97.9959 78.5665 103.09 80.3767 108.719C83.3355 117.919 80.4518 128.866 73.4084 135.17C80.3681 136.554 87.8916 131.083 89.0931 123.764C90.4917 115.244 84.3311 107.02 85.0607 98.4083C85.7035 90.8213 91.4064 84.9821 96.2547 79.3093C101.103 73.6364 105.656 66.1087 103.426 58.8596" fill="#2F2E41"/>
<path d="M121.687 139.671L79.4447 127.558L35.8976 146.193L17.2345 300.862L123.881 304.589V279.641C123.881 279.641 142.544 255.206 138.989 219.8L135.434 184.394L121.687 139.671H121.687Z" fill="#E6E6E6"/>
<path d="M141.211 202.563L57.6712 197.904L35.0089 265.456C35.0089 265.456 7.01426 305.986 2.57067 335.802C-1.87292 365.618 0.793234 407.546 0.793234 407.546H134.535L123.881 279.641C123.881 279.641 148.754 223.061 145.871 213.278C142.988 203.495 141.211 202.563 141.211 202.563V202.563Z" fill="#3F3D56"/>
<path d="M77.2229 128.024H56.7824V207.222H77.2229V128.024Z" fill="#3F3D56"/>
<path d="M140.322 145.727H119.881V210.949H140.322V145.727Z" fill="#3F3D56"/>
<path d="M325.147 147.124L367.389 135.012L410.936 153.647L429.599 308.316L322.953 312.043V287.095C322.953 287.095 312.044 261.589 322.509 227.72C332.729 194.643 311.4 191.848 311.4 191.848L325.147 147.124V147.124Z" fill="#E6E6E6"/>
<path d="M305.623 210.017L389.163 205.358L411.825 272.909C411.825 272.909 425.6 319.031 430.044 348.846C434.487 378.662 446.041 415 446.041 415H312.299L308.289 292.01L305.623 210.017L305.623 210.017Z" fill="#3F3D56"/>
<path d="M390.052 135.478H369.611V214.676H390.052V135.478Z" fill="#3F3D56"/>
<path d="M326.953 153.181H306.512V218.403H326.953V153.181Z" fill="#3F3D56"/>
<path d="M372.458 112.612C390.708 93.4793 390.708 62.4583 372.458 43.3252C354.209 24.1921 324.62 24.1921 306.371 43.3252C288.121 62.4584 288.121 93.4793 306.371 112.612C324.62 131.745 354.209 131.745 372.458 112.612Z" fill="#A0616A"/>
<path d="M385.38 104.547C385.38 104.547 362.771 76.1024 353.728 78.4727C344.684 80.8431 350.336 84.3986 350.336 84.3986L327.727 58.3248C327.727 58.3248 309.64 51.2137 292.683 73.732C292.683 73.732 282.509 54.7693 292.683 44.1027C302.857 33.4361 306.249 34.6213 308.51 28.6954C310.771 22.7696 326.597 18.0289 326.597 18.0289C326.597 18.0289 325.689 9.49933 330.665 13.7641C335.64 18.0289 348.067 18.0289 348.067 18.0289C348.067 18.0289 348.138 13.2882 353.194 18.0289C358.249 22.7696 363.902 20.3992 363.902 20.3992C363.902 20.3992 363.902 28.6021 367.858 28.6488C371.815 28.6954 378.598 22.7695 379.728 27.5102C380.858 32.2509 388.772 34.6213 389.902 48.8434C391.032 63.0655 385.38 104.547 385.38 104.547Z" fill="#2F2E41"/>
<path d="M212.064 177.672L248.245 249.381L243.286 252.131L207.105 180.422C206.58 179.381 206.959 178.089 207.952 177.539L209.314 176.783C210.307 176.233 211.539 176.631 212.064 177.672V177.672Z" fill="#3F3D56"/>
<path d="M272.341 276.482C263.136 273.993 253.507 278.399 248.888 287.11C243.104 298.017 236.496 306.965 238.709 285.639C241.144 262.162 228.007 243.2 238.332 237.474C248.656 231.749 259.316 249.15 276.096 264.905C291.648 279.507 282.68 279.276 272.341 276.482L272.341 276.482Z" fill="#3F3D56"/>
<path d="M219.062 192.179C229.496 187.184 240.413 188.779 243.444 195.742C246.475 202.704 240.473 212.396 230.034 217.391C225.89 219.446 221.337 220.432 216.756 220.264L172.289 240.843L163.523 218.76L208.29 200.817C211.171 197.077 214.864 194.115 219.062 192.179V192.179Z" fill="#FFB6B6"/>
<path d="M39.8708 138.08L39.8708 138.08C30.7937 144.772 28.2086 157.686 33.9579 167.637C54.4648 203.127 99.02 279.677 101.912 279.843C105.677 280.059 199.374 233.309 199.374 233.309L191.37 205.797L121.042 226.835L69.6943 144.111C63.1757 133.609 49.6471 130.873 39.8708 138.08V138.08V138.08Z" fill="#E6E6E6"/>
<path d="M223.508 302.306L343.702 235.649L358.457 264.892C371.184 290.118 361.983 321.431 337.922 334.775L304.918 353.078C280.858 366.422 250.99 356.775 238.263 331.55L223.508 302.306V302.306H223.508Z" fill="#DD0426"/>
<path d="M325.34 347.113C314.906 352.11 303.99 350.516 300.958 343.553C297.926 336.591 303.926 326.899 314.364 321.902C318.508 319.846 323.061 318.86 327.642 319.027L372.106 298.442L380.875 320.523L336.111 338.473C333.23 342.213 329.537 345.176 325.34 347.113H325.34Z" fill="#A0616A"/>
<path d="M415.772 150.018H415.772C426.792 148.649 436.938 156.458 438.991 167.89C446.313 208.669 461.864 296.851 459.816 298.998C457.15 301.793 357.613 332.541 357.613 332.541L346.06 306.452L411.825 272.909L397.402 175.376C395.571 162.995 403.904 151.491 415.772 150.018V150.018Z" fill="#E6E6E6"/>
</g>
<defs>
<clipPath id="clip0_9_222">
<rect width="460" height="415" fill="white"/>
</clipPath>
</defs>
</svg>
