<svg width="1244" height="678" viewBox="0 0 1244 678" fill="none" xmlns="http://www.w3.org/2000/svg">
<rect x="448" y="111" width="501" height="305" rx="40" fill="#FFD788"/>
<ellipse cx="552" cy="419" rx="181" ry="170" fill="#D21717"/>
<g clip-path="url(#clip0_50_388)">
<path d="M1000.27 568.438C1011.22 572.02 1018.33 580.847 1016.16 588.152C1013.98 595.458 1003.34 598.476 992.39 594.891C987.995 593.522 983.978 591.07 980.673 587.74L934.459 571.95L941.988 549.371L986.748 567.334C991.274 566.565 995.911 566.943 1000.27 568.438L1000.27 568.438V568.438Z" fill="#FFB6B6"/>
<path d="M901.266 402.768H901.266C890.246 401.4 880.1 409.208 878.047 420.641C870.725 461.42 855.174 549.602 857.222 551.749C859.888 554.544 959.425 585.292 959.425 585.292L970.978 559.203L905.213 525.66L919.636 428.127C921.467 415.746 913.134 404.242 901.266 402.768V402.768V402.768Z" fill="#E6E6E6"/>
<path d="M1021.18 610.855C1010.5 615.231 999.683 612.998 997.028 605.868C994.374 598.739 1000.88 589.415 1011.57 585.039C1015.82 583.23 1020.42 582.513 1024.98 582.949L1070.48 565.01L1078.05 587.572L1032.4 602.862C1029.32 606.427 1025.48 609.168 1021.18 610.855H1021.18V610.855Z" fill="#A0616A"/>
<path d="M1086.79 417.203H1086.79C1097.7 415.062 1108.32 422.137 1111.1 433.4C1121.02 473.571 1142.19 560.458 1140.28 562.744C1137.8 565.721 1040.46 603.411 1040.46 603.411L1027.26 578.196L1090.73 540.095L1070.09 443.799C1067.47 431.574 1075.04 419.51 1086.79 417.203L1086.79 417.203V417.203Z" fill="#E6E6E6"/>
<path d="M893.46 408.626L898.88 373.108L862.292 357.48L856.871 411.468L893.46 408.626Z" fill="#FFB6B6"/>
<path d="M1107.15 414.217L1101.73 378.699L1138.32 363.071L1143.74 417.058L1107.15 414.217Z" fill="#A0616A"/>
<path d="M884.214 384.526C904.82 384.526 921.525 367.012 921.525 345.408C921.525 323.804 904.82 306.291 884.214 306.291C863.607 306.291 846.902 323.804 846.902 345.408C846.902 367.012 863.607 384.526 884.214 384.526Z" fill="#FFB6B6"/>
<path d="M881.236 292.817C882.316 293.478 883.762 292.479 884.108 291.219C884.454 289.96 884.051 288.623 883.651 287.381L881.638 281.13C880.21 276.696 878.695 272.107 875.602 268.733C870.935 263.64 863.518 262.344 856.841 263.283C848.267 264.488 839.806 269.356 835.82 277.405C831.833 285.455 833.53 296.687 840.734 301.709C830.467 314.047 826.888 327.797 827.453 344.16C828.018 360.523 845.026 375.582 856.118 387.109C858.595 385.535 860.846 378.158 859.484 375.478C858.122 372.798 860.074 369.693 858.387 367.224C856.7 364.756 855.289 368.686 856.994 366.232C858.07 364.683 853.87 361.119 855.47 360.192C863.207 355.709 865.78 345.598 870.64 337.855C876.501 328.516 886.533 322.191 897.149 321.142C902.997 320.564 909.174 321.611 913.968 325.17C918.761 328.73 921.864 335.091 920.753 341.138C923.632 338.073 925.065 333.582 924.524 329.319C923.984 325.055 921.482 321.112 917.939 318.942C920.093 311.475 918.248 302.885 913.249 297.106C908.25 291.328 887.97 292.312 880.671 293.833" fill="#2F2E41"/>
<path d="M880.102 321.369C870.436 322.463 863.456 331.242 857.563 339.349C854.166 344.022 850.607 349.182 850.693 355.057C850.779 360.996 854.566 366.09 856.377 371.719C859.336 380.919 856.452 391.866 849.408 398.17C856.368 399.554 863.892 394.083 865.093 386.764C866.492 378.244 860.331 370.02 861.061 361.408C861.704 353.821 867.406 347.982 872.255 342.309C877.103 336.636 881.656 329.109 879.426 321.86" fill="#2F2E41"/>
<path d="M897.687 402.671L855.445 390.558L811.898 409.193L793.235 563.862L899.881 567.589V542.641C899.881 542.641 918.544 518.206 914.989 482.8L911.434 447.394L897.687 402.671H897.687Z" fill="#E6E6E6"/>
<path d="M917.211 465.563L833.671 460.904L811.009 528.456C811.009 528.456 783.014 568.986 778.571 598.802C774.127 628.618 776.793 670.546 776.793 670.546H910.535L899.881 542.641C899.881 542.641 924.754 486.061 921.871 476.278C918.988 466.495 917.211 465.563 917.211 465.563L917.211 465.563V465.563Z" fill="#3F3D56"/>
<path d="M853.223 391.024H832.782V470.222H853.223V391.024Z" fill="#3F3D56"/>
<path d="M916.322 408.727H895.881V473.949H916.322V408.727Z" fill="#3F3D56"/>
<path d="M1101.15 410.124L1143.39 398.012L1186.94 416.647L1205.6 571.316L1098.95 575.043V550.095C1098.95 550.095 1088.04 524.589 1098.51 490.72C1108.73 457.643 1087.4 454.848 1087.4 454.848L1101.15 410.124V410.124V410.124Z" fill="#E6E6E6"/>
<path d="M1081.62 473.017L1165.16 468.358L1187.83 535.909C1187.83 535.909 1201.6 582.031 1206.04 611.846C1210.49 641.662 1222.04 678 1222.04 678H1088.3L1084.29 555.01L1081.62 473.017L1081.62 473.017V473.017Z" fill="#3F3D56"/>
<path d="M1166.05 398.478H1145.61V477.676H1166.05V398.478Z" fill="#3F3D56"/>
<path d="M1102.95 416.181H1082.51V481.403H1102.95V416.181Z" fill="#3F3D56"/>
<path d="M1148.46 375.612C1166.71 356.479 1166.71 325.458 1148.46 306.325C1130.21 287.192 1100.62 287.192 1082.37 306.325C1064.12 325.458 1064.12 356.479 1082.37 375.612C1100.62 394.745 1130.21 394.745 1148.46 375.612Z" fill="#A0616A"/>
<path d="M1161.38 367.547C1161.38 367.547 1138.77 339.102 1129.73 341.473C1120.68 343.843 1126.34 347.399 1126.34 347.399L1103.73 321.325C1103.73 321.325 1085.64 314.214 1068.68 336.732C1068.68 336.732 1058.51 317.769 1068.68 307.103C1078.86 296.436 1082.25 297.621 1084.51 291.695C1086.77 285.77 1102.6 281.029 1102.6 281.029C1102.6 281.029 1101.69 272.499 1106.66 276.764C1111.64 281.029 1124.07 281.029 1124.07 281.029C1124.07 281.029 1124.14 276.288 1129.19 281.029C1134.25 285.77 1139.9 283.399 1139.9 283.399C1139.9 283.399 1139.9 291.602 1143.86 291.649C1147.81 291.695 1154.6 285.77 1155.73 290.51C1156.86 295.251 1164.77 297.621 1165.9 311.843C1167.03 326.065 1161.38 367.547 1161.38 367.547V367.547Z" fill="#2F2E41"/>
<path d="M988.064 440.672L1024.25 512.381L1019.29 515.131L983.105 443.422C982.58 442.381 982.959 441.089 983.952 440.539L985.314 439.783C986.307 439.233 987.539 439.631 988.064 440.672V440.672V440.672Z" fill="#3F3D56"/>
<path d="M1048.34 539.482C1039.14 536.993 1029.51 541.399 1024.89 550.11C1019.1 561.017 1012.5 569.965 1014.71 548.639C1017.14 525.162 1004.01 506.2 1014.33 500.474C1024.66 494.749 1035.32 512.15 1052.1 527.905C1067.65 542.507 1058.68 542.276 1048.34 539.482L1048.34 539.482V539.482Z" fill="#3F3D56"/>
<path d="M995.062 455.179C1005.5 450.184 1016.41 451.779 1019.44 458.742C1022.47 465.704 1016.47 475.396 1006.03 480.391C1001.89 482.446 997.337 483.432 992.756 483.264L948.289 503.843L939.523 481.76L984.29 463.817C987.171 460.077 990.864 457.115 995.062 455.179V455.179V455.179Z" fill="#FFB6B6"/>
<path d="M815.871 401.08L815.871 401.08C806.794 407.772 804.209 420.686 809.958 430.637C830.465 466.127 875.02 542.677 877.912 542.843C881.677 543.059 975.374 496.309 975.374 496.309L967.37 468.797L897.042 489.835L845.694 407.111C839.176 396.609 825.647 393.873 815.871 401.08V401.08V401.08Z" fill="#E6E6E6"/>
<path d="M999.508 565.306L1119.7 498.649L1134.46 527.892C1147.18 553.118 1137.98 584.431 1113.92 597.775L1080.92 616.078C1056.86 629.422 1026.99 619.775 1014.26 594.55L999.508 565.306V565.306H999.508V565.306Z" fill="#DD0426"/>
<path d="M1101.34 610.113C1090.91 615.11 1079.99 613.516 1076.96 606.553C1073.93 599.591 1079.93 589.899 1090.36 584.902C1094.51 582.846 1099.06 581.86 1103.64 582.027L1148.11 561.442L1156.88 583.523L1112.11 601.473C1109.23 605.213 1105.54 608.176 1101.34 610.113H1101.34V610.113Z" fill="#A0616A"/>
<path d="M1191.77 413.018H1191.77C1202.79 411.649 1212.94 419.458 1214.99 430.89C1222.31 471.669 1237.86 559.851 1235.82 561.998C1233.15 564.793 1133.61 595.541 1133.61 595.541L1122.06 569.452L1187.83 535.909L1173.4 438.376C1171.57 425.995 1179.9 414.491 1191.77 413.018V413.018V413.018Z" fill="#E6E6E6"/>
</g>
<path d="M497.855 455.599L429.53 407.273C452.573 384.826 473.532 352.862 493.576 316.722L561.9 365.048C534.599 396.054 511.471 426.484 497.855 455.599Z" fill="#6C63FF"/>
<path d="M497.873 404.148C509.011 404.148 518.039 395.119 518.039 383.982C518.039 372.845 509.011 363.816 497.873 363.816C486.736 363.816 477.708 372.845 477.708 383.982C477.708 395.119 486.736 404.148 497.873 404.148Z" fill="white"/>
<path d="M168.262 235.078H160.762C160.499 235.078 160.246 235.183 160.059 235.369C159.873 235.556 159.768 235.809 159.768 236.073V239.365C159.768 239.495 159.794 239.624 159.844 239.745C159.894 239.866 159.967 239.975 160.059 240.068C160.152 240.16 160.261 240.233 160.382 240.283C160.503 240.333 160.632 240.359 160.762 240.359H162.005V245.291H167.02V240.359H168.262C168.526 240.359 168.779 240.254 168.965 240.068C169.152 239.881 169.257 239.628 169.257 239.365V236.073C169.257 235.809 169.152 235.556 168.965 235.369C168.779 235.183 168.526 235.078 168.262 235.078V235.078Z" fill="#E6E6E6"/>
<path d="M175.774 265.206C171.181 258.485 168.833 250.483 169.066 242.345C169.071 242.158 169.01 241.974 168.894 241.826C168.778 241.678 168.615 241.575 168.432 241.534V240.111H160.511V241.514H160.402C160.295 241.514 160.189 241.535 160.091 241.576C159.992 241.617 159.903 241.677 159.827 241.753C159.752 241.828 159.692 241.918 159.651 242.017C159.611 242.115 159.59 242.221 159.59 242.328C159.59 242.348 159.591 242.367 159.592 242.387C160.323 250.69 158.083 258.984 153.271 265.79C152.992 266.186 152.85 266.663 152.865 267.147L153.731 293.939C153.752 294.536 154.003 295.103 154.431 295.52C154.86 295.937 155.433 296.172 156.031 296.177H173.947C174.551 296.172 175.13 295.931 175.56 295.506C175.99 295.08 176.237 294.504 176.248 293.899L176.581 267.887C176.591 266.932 176.31 265.997 175.774 265.206V265.206Z" fill="#6C63FF"/>
<path opacity="0.2" d="M166.699 236.151C166.699 236.72 166.473 237.265 166.071 237.668C165.668 238.07 165.123 238.296 164.554 238.296C163.985 238.296 163.439 238.07 163.037 237.668C162.634 237.265 162.408 236.72 162.408 236.151" fill="black"/>
<path d="M172.285 270.368H157.161V280.451H172.285V270.368Z" fill="white"/>
<path d="M405.602 339.742H391.563C391.069 339.742 390.596 339.938 390.247 340.287C389.898 340.636 389.702 341.109 389.702 341.603V347.765C389.702 348.259 389.898 348.733 390.247 349.082C390.596 349.431 391.069 349.627 391.563 349.627H393.89V358.86H403.276V349.627H405.602C406.096 349.627 406.569 349.431 406.919 349.082C407.268 348.733 407.464 348.259 407.464 347.765V341.603C407.464 341.109 407.268 340.636 406.919 340.287C406.569 339.938 406.096 339.742 405.602 339.742V339.742Z" fill="#E6E6E6"/>
<path d="M419.664 396.139C411.066 383.557 406.671 368.578 407.107 353.345C407.115 352.994 407.001 352.65 406.785 352.373C406.568 352.097 406.262 351.903 405.919 351.826V349.163H391.092V351.789H390.888C390.688 351.789 390.49 351.829 390.305 351.906C390.121 351.982 389.953 352.095 389.812 352.236C389.671 352.378 389.559 352.545 389.483 352.73C389.407 352.915 389.368 353.113 389.368 353.312C389.368 353.349 389.37 353.386 389.372 353.423C390.54 369.707 386.596 384.309 377.539 397.231C377.018 397.973 376.751 398.865 376.78 399.772L378.401 449.923C378.44 451.042 378.91 452.102 379.712 452.883C380.514 453.664 381.586 454.104 382.706 454.113H416.243C417.375 454.104 418.459 453.653 419.263 452.857C420.068 452.06 420.529 450.981 420.55 449.849L421.175 401.156C421.193 399.369 420.666 397.619 419.664 396.139V396.139Z" fill="#6C63FF"/>
<path opacity="0.2" d="M402.676 341.75C402.676 342.815 402.253 343.836 401.5 344.589C400.746 345.342 399.725 345.766 398.66 345.766C397.595 345.766 396.574 345.342 395.82 344.589C395.067 343.836 394.644 342.815 394.644 341.75" fill="black"/>
<path d="M414.355 412.797H385.164C384.732 412.797 384.305 412.891 383.912 413.071C383.519 413.252 383.17 413.515 382.889 413.843C382.608 414.171 382.401 414.556 382.282 414.971C382.163 415.387 382.136 415.823 382.201 416.25L386.613 444.923H411.943L417.301 416.347C417.382 415.914 417.367 415.469 417.256 415.042C417.146 414.616 416.943 414.219 416.661 413.881C416.38 413.542 416.028 413.269 415.629 413.082C415.231 412.895 414.796 412.797 414.355 412.797V412.797Z" fill="white"/>
<path d="M365.546 455.52H281.858C287.709 423.887 286.363 385.688 281.858 344.608H365.546C361.161 385.688 359.851 423.887 365.546 455.52Z" fill="#6C63FF"/>
<path d="M324.206 417.205C335.344 417.205 344.372 408.177 344.372 397.039C344.372 385.902 335.344 376.874 324.206 376.874C313.069 376.874 304.041 385.902 304.041 397.039C304.041 408.177 313.069 417.205 324.206 417.205Z" fill="white"/>
<path d="M23.243 106.466L42.03 104.758L53.986 75.724L32.637 63.768L23.243 106.466Z" fill="#FFB8B8"/>
<path d="M195.66 186.174C196.285 184.616 196.531 182.932 196.377 181.26C196.223 179.589 195.674 177.978 194.775 176.56C193.876 175.143 192.654 173.959 191.208 173.106C189.762 172.254 188.134 171.757 186.459 171.657L157.289 169.918L152.994 184.2L183.023 192.447C185.532 193.136 188.207 192.878 190.538 191.721C192.869 190.564 194.692 188.589 195.66 186.174V186.174Z" fill="#FFB8B8"/>
<path d="M164.339 192.687L164.018 165.887L99.2249 155.549L49.3095 98.3012C46.7125 95.3226 43.1239 93.3863 39.2086 92.8509C35.2933 92.3155 31.3166 93.2173 28.0153 95.3893C26.0164 96.7044 24.3307 98.4424 23.0775 100.481C21.8242 102.519 21.0339 104.807 20.7624 107.184C20.4909 109.562 20.7448 111.97 21.5063 114.238C22.2677 116.506 23.518 118.579 25.1689 120.311L66.3486 170.989L164.339 192.687Z" fill="#575A89"/>
<path d="M8.72552 494.167H25.8048L68.168 302.633L112.055 361.802L137.674 489.897H153.9L150.484 352.408L93.2682 205.526H36.9064C21.5042 233.401 9.42178 262.135 23.243 291.777L8.72552 494.167Z" fill="#2F2E41"/>
<path d="M127.204 505.8C127.016 506.405 126.958 507.042 127.035 507.671C127.111 508.299 127.321 508.904 127.65 509.445C127.979 509.986 128.419 510.451 128.942 510.808C129.464 511.166 130.057 511.408 130.68 511.519L172.473 518.935C174.125 519.237 175.83 518.925 177.267 518.057C178.704 517.189 179.773 515.825 180.274 514.222V514.222C180.761 512.691 180.693 511.037 180.082 509.551C179.471 508.065 178.355 506.842 176.932 506.096C167.742 501.378 159.834 494.502 153.884 486.058C149.29 490.335 144.156 489.933 138.705 486.781L132.922 487.504L127.204 505.8Z" fill="#2F2E41"/>
<path d="M0.817594 505.8C0.628752 506.405 0.570798 507.042 0.647611 507.671C0.724424 508.299 0.934227 508.904 1.26306 509.445C1.59189 509.986 2.03221 510.451 2.55469 510.808C3.07716 511.166 3.66981 511.408 4.29318 511.519L46.0864 518.935C47.7379 519.237 49.4428 518.925 50.8798 518.057C52.3167 517.189 53.3865 515.825 53.8872 514.222V514.222C54.3743 512.691 54.3063 511.037 53.6951 509.551C53.0838 508.065 51.9685 506.842 50.545 506.096C41.3555 501.378 33.4469 494.502 27.4967 486.058C22.9033 490.335 17.7694 489.933 12.3177 486.781L6.53521 487.504L0.817594 505.8Z" fill="#2F2E41"/>
<path d="M54.4127 86.3981C67.6184 86.3981 78.3237 75.6928 78.3237 62.4871C78.3237 49.2814 67.6184 38.576 54.4127 38.576C41.207 38.576 30.5016 49.2814 30.5016 62.4871C30.5016 75.6928 41.207 86.3981 54.4127 86.3981Z" fill="#FFB8B8"/>
<path d="M33.0635 211.931L95.403 210.223L77.0952 152.604C88.4726 134.364 77.0222 116.144 60.8174 97.9267L48.0079 89.3871L27.5127 87.6791C18.6391 97.1742 13.7837 109.735 13.9636 122.73C14.3694 150.556 19.2965 180.848 33.0635 211.931Z" fill="#575A89"/>
<path d="M176.291 250.716C177.479 249.529 178.367 248.077 178.883 246.48C179.399 244.883 179.528 243.186 179.259 241.529C178.991 239.872 178.333 238.303 177.339 236.95C176.345 235.598 175.043 234.501 173.542 233.75L147.409 220.675L137.841 232.116L162.205 251.511C164.241 253.132 166.802 253.947 169.4 253.8C171.998 253.653 174.451 252.555 176.291 250.716V250.716Z" fill="#FFB8B8"/>
<path d="M144.933 244.382L155.181 219.617L99.6789 184.623L76.3086 112.355C75.0927 108.595 72.5552 105.403 69.1662 103.371C65.7772 101.338 61.7664 100.603 57.8768 101.301V101.301C55.5217 101.724 53.2883 102.658 51.3343 104.039C49.3803 105.42 47.7534 107.213 46.5687 109.292C45.3839 111.371 44.6701 113.684 44.4778 116.069C44.2856 118.454 44.6194 120.852 45.4559 123.094L63.3793 185.885L144.933 244.382Z" fill="#575A89"/>
<path d="M15.1302 53.0935C15.1302 62.3974 21.1725 76.8059 28.7937 82.9823C33.9215 87.138 40.6983 86.963 43.3111 81.2744C45.9914 75.4388 55.2306 61.7221 71.492 53.0935C93.1696 41.591 63.8044 21.9119 43.3111 24.9126C27.9115 27.1675 15.1302 37.5296 15.1302 53.0935Z" fill="#2F2E41"/>
<path d="M29.6477 40.284C39.0803 40.284 46.727 32.6373 46.727 23.2047C46.727 13.772 39.0803 6.12537 29.6477 6.12537C20.215 6.12537 12.5684 13.772 12.5684 23.2047C12.5684 32.6373 20.215 40.284 29.6477 40.284Z" fill="#2F2E41"/>
<path d="M49.2889 17.2269C49.2872 12.9211 47.6582 8.77498 44.7284 5.6196C41.7986 2.46422 37.7844 0.532731 33.4905 0.21228C33.9149 0.1807 34.3391 0.147614 34.7715 0.147614C39.3012 0.147614 43.6454 1.94703 46.8484 5.15002C50.0514 8.35302 51.8508 12.6972 51.8508 17.2269C51.8508 21.7566 50.0514 26.1008 46.8484 29.3038C43.6454 32.5068 39.3012 34.3062 34.7715 34.3062C34.3391 34.3062 33.9149 34.2731 33.4905 34.2415C37.7844 33.9211 41.7985 31.9896 44.7284 28.8342C47.6582 25.6789 49.2872 21.5328 49.2889 17.2269Z" fill="#2F2E41"/>
<path d="M54.8397 71.0268C56.962 71.0268 58.6825 68.7327 58.6825 65.903C58.6825 63.0732 56.962 60.7792 54.8397 60.7792C52.7173 60.7792 50.9968 63.0732 50.9968 65.903C50.9968 68.7327 52.7173 71.0268 54.8397 71.0268Z" fill="#FFB8B8"/>
<path d="M538.751 462.845H272.879L216.578 196.694H168.529V184.752H226.258L282.559 450.902H538.751V462.845Z" fill="#3F3D56"/>
<path d="M311.841 511.468C325.975 511.468 337.432 500.01 337.432 485.877C337.432 471.743 325.975 460.285 311.841 460.285C297.707 460.285 286.25 471.743 286.25 485.877C286.25 500.01 297.707 511.468 311.841 511.468Z" fill="#3F3D56"/>
<path d="M502.923 511.468C517.057 511.468 528.515 500.01 528.515 485.877C528.515 471.743 517.057 460.285 502.923 460.285C488.79 460.285 477.332 471.743 477.332 485.877C477.332 500.01 488.79 511.468 502.923 511.468Z" fill="#3F3D56"/>
<path d="M533.904 457.221H275.225L229.584 231.669H576.735C578.507 231.669 580.257 232.053 581.866 232.794C583.475 233.535 584.904 234.616 586.055 235.963C587.207 237.309 588.053 238.888 588.535 240.593C589.018 242.297 589.126 244.086 588.851 245.836L546.018 446.861C545.576 449.753 544.109 452.39 541.886 454.292C539.662 456.194 536.829 457.233 533.904 457.221V457.221ZM278.034 453.809H533.904C536.015 453.818 538.06 453.067 539.664 451.695C541.269 450.322 542.327 448.419 542.646 446.331L585.479 245.306C585.677 244.043 585.6 242.752 585.252 241.522C584.904 240.291 584.293 239.151 583.462 238.18C582.631 237.208 581.6 236.428 580.438 235.893C579.277 235.358 578.014 235.081 576.735 235.081H233.726L278.034 453.809Z" fill="#3F3D56"/>
<path d="M325.513 456.499L295.623 233.653L298.989 233.097L328.879 455.943L325.513 456.499Z" fill="#3F3D56"/>
<path d="M491.712 454.788L488.343 454.242L517.36 233.102L520.729 233.648L491.712 454.788Z" fill="#3F3D56"/>
<path d="M412.527 233.375H409.115V456.221H412.527V233.375Z" fill="#3F3D56"/>
<path d="M247.014 293.088L247.005 296.501L577.3 297.3L577.308 293.888L247.014 293.088Z" fill="#3F3D56"/>
<path d="M554 398.494L263.829 400.478L263.853 403.89L554.024 401.906L554 398.494Z" fill="#3F3D56"/>
<path d="M173.648 199.253C184.012 199.253 192.415 194.67 192.415 189.017C192.415 183.363 184.012 178.78 173.648 178.78C163.283 178.78 154.881 183.363 154.881 189.017C154.881 194.67 163.283 199.253 173.648 199.253Z" fill="#3F3D56"/>
<path d="M623.064 131.392C625.048 131.392 626.584 131.6 627.672 132.016C628.76 132.4 629.688 132.816 630.456 133.264C630.84 133.488 631.144 133.664 631.368 133.792C631.624 133.888 631.864 133.936 632.088 133.936C632.408 133.936 632.632 133.76 632.76 133.408C632.92 133.056 633.048 132.528 633.144 131.824H634.248C634.216 132.464 634.168 133.216 634.104 134.08C634.072 134.944 634.04 136.096 634.008 137.536C634.008 138.944 634.008 140.816 634.008 143.152H632.904C632.776 141.424 632.376 139.76 631.704 138.16C631.032 136.56 630.104 135.232 628.92 134.176C627.768 133.12 626.344 132.592 624.648 132.592C623.176 132.592 621.96 133.008 621 133.84C620.04 134.64 619.56 135.792 619.56 137.296C619.56 138.512 619.864 139.568 620.472 140.464C621.08 141.328 621.992 142.208 623.208 143.104C624.456 144 626.024 145.104 627.912 146.416C629.416 147.408 630.76 148.4 631.944 149.392C633.128 150.384 634.072 151.504 634.776 152.752C635.512 154 635.88 155.504 635.88 157.264C635.88 159.376 635.304 161.136 634.152 162.544C633 163.92 631.48 164.96 629.592 165.664C627.704 166.336 625.64 166.672 623.4 166.672C621.32 166.672 619.656 166.48 618.408 166.096C617.192 165.712 616.152 165.312 615.288 164.896C614.584 164.448 614.04 164.224 613.656 164.224C613.336 164.224 613.096 164.4 612.936 164.752C612.808 165.104 612.696 165.632 612.6 166.336H611.496C611.56 165.536 611.592 164.608 611.592 163.552C611.624 162.464 611.64 161.072 611.64 159.376C611.672 157.68 611.688 155.52 611.688 152.896H612.792C612.92 155.072 613.272 157.104 613.848 158.992C614.456 160.88 615.368 162.416 616.584 163.6C617.832 164.752 619.48 165.328 621.528 165.328C622.68 165.328 623.688 165.136 624.552 164.752C625.416 164.368 626.104 163.808 626.616 163.072C627.128 162.304 627.384 161.376 627.384 160.288C627.384 158.944 627.08 157.776 626.472 156.784C625.864 155.792 625.032 154.864 623.976 154C622.92 153.104 621.688 152.208 620.28 151.312C618.776 150.32 617.368 149.312 616.056 148.288C614.744 147.264 613.688 146.128 612.888 144.88C612.12 143.6 611.736 142.064 611.736 140.272C611.736 138.224 612.264 136.544 613.32 135.232C614.376 133.92 615.768 132.96 617.496 132.352C619.256 131.712 621.112 131.392 623.064 131.392ZM646.327 133.312V141.136H651.511V142.096H646.327V161.728C646.327 162.528 646.471 163.104 646.759 163.456C647.047 163.776 647.479 163.936 648.056 163.936C648.535 163.936 649.031 163.776 649.543 163.456C650.087 163.136 650.583 162.592 651.032 161.824L651.799 162.304C651.191 163.616 650.343 164.672 649.256 165.472C648.199 166.272 646.807 166.672 645.079 166.672C644.023 166.672 643.079 166.528 642.247 166.24C641.447 165.984 640.775 165.584 640.231 165.04C639.527 164.336 639.063 163.472 638.839 162.448C638.647 161.392 638.551 160.032 638.551 158.368V142.096H634.711V141.136H638.551V135.136C640.055 135.136 641.431 134.992 642.679 134.704C643.959 134.416 645.175 133.952 646.327 133.312ZM656.388 166.336C654.916 166.336 653.7 166.064 652.74 165.52C651.78 164.944 651.076 164.192 650.628 163.264C650.18 162.336 649.956 161.344 649.956 160.288C649.956 158.944 650.26 157.84 650.868 156.976C651.508 156.112 652.324 155.424 653.316 154.912C654.308 154.368 655.348 153.92 656.436 153.568C657.524 153.216 658.564 152.88 659.556 152.56C660.548 152.208 661.348 151.808 661.956 151.36C662.564 150.88 662.868 150.272 662.868 149.536V145.552C662.868 144.848 662.756 144.192 662.532 143.584C662.34 142.944 661.972 142.432 661.428 142.048C660.916 141.632 660.196 141.424 659.268 141.424C658.692 141.424 658.132 141.504 657.588 141.664C657.044 141.824 656.564 142.08 656.148 142.432C657.172 142.784 657.924 143.312 658.404 144.016C658.916 144.72 659.172 145.504 659.172 146.368C659.172 147.552 658.756 148.496 657.924 149.2C657.124 149.872 656.164 150.208 655.044 150.208C653.828 150.208 652.884 149.824 652.212 149.056C651.572 148.288 651.252 147.36 651.252 146.272C651.252 145.312 651.492 144.512 651.972 143.872C652.452 143.2 653.156 142.592 654.084 142.048C655.012 141.504 656.132 141.104 657.444 140.848C658.756 140.592 660.148 140.464 661.62 140.464C663.124 140.464 664.5 140.624 665.748 140.944C667.028 141.232 668.116 141.824 669.012 142.72C669.716 143.456 670.164 144.352 670.356 145.408C670.548 146.464 670.644 147.808 670.644 149.44V162.4C670.644 163.2 670.708 163.76 670.836 164.08C670.996 164.368 671.236 164.512 671.556 164.512C671.844 164.512 672.116 164.432 672.372 164.272C672.628 164.112 672.884 163.936 673.14 163.744L673.668 164.56C672.964 165.136 672.132 165.584 671.172 165.904C670.212 166.192 669.172 166.336 668.052 166.336C666.772 166.336 665.764 166.176 665.028 165.856C664.324 165.504 663.812 165.04 663.492 164.464C663.204 163.888 663.044 163.248 663.012 162.544C662.308 163.696 661.428 164.624 660.372 165.328C659.316 166 657.988 166.336 656.388 166.336ZM660.372 162.88C660.884 162.88 661.332 162.784 661.716 162.592C662.132 162.368 662.516 162 662.868 161.488V151.504C662.612 151.952 662.26 152.384 661.812 152.8C661.396 153.184 660.948 153.584 660.468 154C659.988 154.384 659.524 154.816 659.076 155.296C658.66 155.776 658.308 156.352 658.02 157.024C657.764 157.664 657.636 158.448 657.636 159.376C657.636 160.624 657.892 161.52 658.404 162.064C658.916 162.608 659.572 162.88 660.372 162.88ZM689.144 140.464C690.232 140.464 691.096 140.704 691.736 141.184C692.376 141.632 692.84 142.224 693.128 142.96C693.416 143.664 693.56 144.368 693.56 145.072C693.56 146.384 693.176 147.44 692.408 148.24C691.672 149.04 690.696 149.44 689.48 149.44C688.2 149.44 687.224 149.152 686.552 148.576C685.88 147.968 685.544 147.168 685.544 146.176C685.544 145.184 685.752 144.368 686.168 143.728C686.616 143.088 687.16 142.544 687.8 142.096C687.32 142.032 686.856 142.096 686.408 142.288C685.896 142.416 685.416 142.656 684.968 143.008C684.52 143.36 684.136 143.776 683.816 144.256C683.496 144.736 683.24 145.264 683.048 145.84C682.888 146.384 682.808 146.944 682.808 147.52V161.056C682.808 162.592 683.144 163.632 683.816 164.176C684.52 164.72 685.624 164.992 687.128 164.992V166C686.392 165.968 685.304 165.936 683.864 165.904C682.424 165.84 680.936 165.808 679.4 165.808C678.024 165.808 676.632 165.84 675.224 165.904C673.848 165.936 672.824 165.968 672.152 166V164.992C673.208 164.992 673.944 164.752 674.36 164.272C674.808 163.792 675.032 162.88 675.032 161.536V146.368C675.032 144.928 674.824 143.872 674.408 143.2C673.992 142.496 673.24 142.144 672.152 142.144V141.136C673.176 141.232 674.168 141.28 675.128 141.28C676.568 141.28 677.928 141.232 679.208 141.136C680.52 141.008 681.72 140.832 682.808 140.608V144.544C683.192 143.712 683.688 142.992 684.296 142.384C684.936 141.776 685.656 141.312 686.456 140.992C687.288 140.64 688.184 140.464 689.144 140.464ZM702.422 133.312V141.136H707.606V142.096H702.422V161.728C702.422 162.528 702.566 163.104 702.854 163.456C703.142 163.776 703.574 163.936 704.15 163.936C704.63 163.936 705.126 163.776 705.638 163.456C706.182 163.136 706.678 162.592 707.126 161.824L707.894 162.304C707.286 163.616 706.438 164.672 705.35 165.472C704.294 166.272 702.902 166.672 701.174 166.672C700.118 166.672 699.174 166.528 698.342 166.24C697.542 165.984 696.87 165.584 696.326 165.04C695.622 164.336 695.158 163.472 694.934 162.448C694.742 161.392 694.646 160.032 694.646 158.368V142.096H690.806V141.136H694.646V135.136C696.15 135.136 697.526 134.992 698.774 134.704C700.054 134.416 701.27 133.952 702.422 133.312ZM726.431 140.464C729.247 140.464 731.455 141.296 733.055 142.96C734.655 144.624 735.455 147.36 735.455 151.168H720.047L719.999 150.256H728.927C728.991 148.688 728.927 147.248 728.735 145.936C728.543 144.592 728.223 143.52 727.775 142.72C727.359 141.92 726.799 141.52 726.095 141.52C725.135 141.52 724.319 142.208 723.647 143.584C722.975 144.96 722.559 147.296 722.399 150.592L722.591 150.928C722.527 151.28 722.495 151.648 722.495 152.032C722.495 152.384 722.495 152.768 722.495 153.184C722.495 155.392 722.783 157.152 723.359 158.464C723.967 159.776 724.719 160.704 725.615 161.248C726.511 161.792 727.439 162.064 728.399 162.064C728.943 162.064 729.551 161.984 730.223 161.824C730.895 161.664 731.599 161.328 732.335 160.816C733.071 160.304 733.775 159.552 734.447 158.56L735.263 158.848C734.911 160.096 734.303 161.328 733.439 162.544C732.607 163.728 731.535 164.72 730.223 165.52C728.911 166.288 727.327 166.672 725.471 166.672C723.359 166.672 721.471 166.24 719.807 165.376C718.143 164.48 716.815 163.088 715.823 161.2C714.863 159.28 714.383 156.784 714.383 153.712C714.383 150.672 714.911 148.176 715.967 146.224C717.023 144.272 718.463 142.832 720.287 141.904C722.111 140.944 724.159 140.464 726.431 140.464ZM745.645 141.136V142.144C745.005 142.144 744.541 142.288 744.253 142.576C743.997 142.864 744.029 143.264 744.349 143.776L756.925 162.592C757.277 163.072 757.661 163.568 758.077 164.08C758.493 164.592 758.973 164.896 759.517 164.992V166C758.973 165.968 758.157 165.936 757.069 165.904C755.981 165.84 754.893 165.808 753.805 165.808C752.589 165.808 751.357 165.84 750.109 165.904C748.893 165.936 747.981 165.968 747.373 166V164.992C748.013 164.992 748.461 164.848 748.717 164.56C749.005 164.272 748.989 163.872 748.669 163.36L736.093 144.544C735.613 143.776 735.181 143.216 734.797 142.864C734.413 142.48 733.981 142.24 733.501 142.144V141.136C734.109 141.168 735.037 141.216 736.285 141.28C737.533 141.312 738.765 141.328 739.981 141.328C741.069 141.328 742.141 141.312 743.197 141.28C744.285 141.216 745.101 141.168 745.645 141.136ZM743.725 154.72C743.725 154.72 743.741 154.816 743.773 155.008C743.837 155.2 743.885 155.392 743.917 155.584C743.949 155.744 743.965 155.824 743.965 155.824L742.765 157.408C741.741 158.72 741.165 159.936 741.037 161.056C740.941 162.176 741.213 163.104 741.853 163.84C742.493 164.544 743.373 164.944 744.493 165.04V166C743.885 165.968 743.101 165.952 742.141 165.952C741.181 165.92 740.253 165.904 739.357 165.904C738.461 165.872 737.725 165.856 737.149 165.856C736.445 165.856 735.837 165.872 735.325 165.904C734.813 165.904 734.317 165.936 733.837 166V165.04C734.637 164.688 735.373 164.224 736.045 163.648C736.749 163.04 737.501 162.224 738.301 161.2L743.725 154.72ZM757.981 141.136V142.096C757.309 142.352 756.589 142.816 755.821 143.488C755.085 144.128 754.317 144.928 753.517 145.888L748.285 152.224C748.285 152.224 748.253 152.144 748.189 151.984C748.157 151.792 748.125 151.6 748.093 151.408C748.061 151.216 748.045 151.12 748.045 151.12L750.013 148.576C750.941 147.456 751.501 146.416 751.693 145.456C751.885 144.496 751.725 143.728 751.213 143.152C750.733 142.544 749.917 142.192 748.765 142.096V141.136C749.725 141.168 750.749 141.2 751.837 141.232C752.925 141.264 753.869 141.28 754.669 141.28C755.373 141.28 755.981 141.264 756.493 141.232C757.037 141.2 757.533 141.168 757.981 141.136ZM767.965 140.656V169.84C767.965 171.376 768.333 172.4 769.069 172.912C769.837 173.424 770.877 173.68 772.189 173.68V174.688C771.325 174.656 770.125 174.608 768.589 174.544C767.053 174.512 765.437 174.496 763.741 174.496C762.525 174.496 761.309 174.512 760.093 174.544C758.909 174.608 758.013 174.656 757.405 174.688V173.68C758.429 173.68 759.149 173.44 759.565 172.96C759.981 172.512 760.189 171.632 760.189 170.32V146.416C760.189 144.976 759.981 143.92 759.565 143.248C759.149 142.544 758.397 142.192 757.309 142.192V141.184C758.333 141.28 759.325 141.328 760.285 141.328C761.757 141.328 763.133 141.28 764.413 141.184C765.693 141.056 766.877 140.88 767.965 140.656ZM775.309 140.464C776.941 140.464 778.381 140.912 779.629 141.808C780.909 142.672 781.917 144 782.653 145.792C783.421 147.552 783.805 149.776 783.805 152.464C783.805 154.992 783.517 157.152 782.941 158.944C782.397 160.736 781.613 162.208 780.589 163.36C779.597 164.512 778.413 165.36 777.037 165.904C775.693 166.416 774.237 166.672 772.669 166.672C771.485 166.672 770.381 166.496 769.357 166.144C768.365 165.824 767.581 165.296 767.005 164.56L767.485 163.936C767.773 164.384 768.173 164.72 768.685 164.944C769.197 165.168 769.741 165.28 770.317 165.28C771.629 165.28 772.669 164.832 773.437 163.936C774.237 163.008 774.813 161.664 775.165 159.904C775.517 158.144 775.693 156 775.693 153.472C775.693 150.688 775.533 148.528 775.213 146.992C774.893 145.424 774.461 144.32 773.917 143.68C773.373 143.04 772.733 142.72 771.997 142.72C770.973 142.72 770.045 143.12 769.213 143.92C768.413 144.688 767.965 145.744 767.869 147.088L767.773 145.072C768.445 143.536 769.437 142.384 770.749 141.616C772.061 140.848 773.581 140.464 775.309 140.464ZM794.195 128.464V161.536C794.195 162.88 794.403 163.792 794.819 164.272C795.267 164.752 796.019 164.992 797.075 164.992V166C796.467 165.968 795.539 165.936 794.291 165.904C793.043 165.84 791.763 165.808 790.451 165.808C789.171 165.808 787.859 165.84 786.515 165.904C785.203 165.936 784.211 165.968 783.539 166V164.992C784.595 164.992 785.331 164.752 785.747 164.272C786.195 163.792 786.419 162.88 786.419 161.536V134.176C786.419 132.768 786.211 131.728 785.795 131.056C785.411 130.352 784.659 130 783.539 130V128.992C784.563 129.088 785.555 129.136 786.515 129.136C787.987 129.136 789.363 129.088 790.643 128.992C791.923 128.864 793.107 128.688 794.195 128.464ZM808.333 140.464C810.733 140.464 812.829 140.896 814.621 141.76C816.445 142.592 817.853 143.968 818.845 145.888C819.869 147.808 820.381 150.368 820.381 153.568C820.381 156.768 819.869 159.328 818.845 161.248C817.853 163.168 816.445 164.56 814.621 165.424C812.829 166.256 810.733 166.672 808.333 166.672C805.965 166.672 803.869 166.256 802.045 165.424C800.253 164.56 798.845 163.168 797.821 161.248C796.797 159.328 796.285 156.768 796.285 153.568C796.285 150.368 796.797 147.808 797.821 145.888C798.845 143.968 800.253 142.592 802.045 141.76C803.869 140.896 805.965 140.464 808.333 140.464ZM808.333 141.424C807.213 141.424 806.269 142.384 805.501 144.304C804.765 146.192 804.397 149.28 804.397 153.568C804.397 157.856 804.765 160.96 805.501 162.88C806.269 164.768 807.213 165.712 808.333 165.712C809.485 165.712 810.429 164.768 811.165 162.88C811.901 160.96 812.269 157.856 812.269 153.568C812.269 149.28 811.901 146.192 811.165 144.304C810.429 142.384 809.485 141.424 808.333 141.424ZM837.244 140.464C838.332 140.464 839.196 140.704 839.836 141.184C840.476 141.632 840.94 142.224 841.228 142.96C841.516 143.664 841.66 144.368 841.66 145.072C841.66 146.384 841.276 147.44 840.508 148.24C839.772 149.04 838.796 149.44 837.58 149.44C836.3 149.44 835.324 149.152 834.652 148.576C833.98 147.968 833.644 147.168 833.644 146.176C833.644 145.184 833.852 144.368 834.268 143.728C834.716 143.088 835.26 142.544 835.9 142.096C835.42 142.032 834.956 142.096 834.508 142.288C833.996 142.416 833.516 142.656 833.068 143.008C832.62 143.36 832.236 143.776 831.916 144.256C831.596 144.736 831.34 145.264 831.148 145.84C830.988 146.384 830.908 146.944 830.908 147.52V161.056C830.908 162.592 831.244 163.632 831.916 164.176C832.62 164.72 833.724 164.992 835.228 164.992V166C834.492 165.968 833.404 165.936 831.964 165.904C830.524 165.84 829.036 165.808 827.5 165.808C826.124 165.808 824.732 165.84 823.324 165.904C821.948 165.936 820.924 165.968 820.252 166V164.992C821.308 164.992 822.044 164.752 822.46 164.272C822.908 163.792 823.132 162.88 823.132 161.536V146.368C823.132 144.928 822.924 143.872 822.508 143.2C822.092 142.496 821.34 142.144 820.252 142.144V141.136C821.276 141.232 822.268 141.28 823.228 141.28C824.668 141.28 826.028 141.232 827.308 141.136C828.62 141.008 829.82 140.832 830.908 140.608V144.544C831.292 143.712 831.788 142.992 832.396 142.384C833.036 141.776 833.756 141.312 834.556 140.992C835.388 140.64 836.284 140.464 837.244 140.464ZM846.539 128.608C848.043 128.608 849.211 128.944 850.043 129.616C850.907 130.288 851.339 131.264 851.339 132.544C851.339 133.824 850.907 134.8 850.043 135.472C849.211 136.144 848.043 136.48 846.539 136.48C845.035 136.48 843.851 136.144 842.987 135.472C842.155 134.8 841.739 133.824 841.739 132.544C841.739 131.264 842.155 130.288 842.987 129.616C843.851 128.944 845.035 128.608 846.539 128.608ZM850.763 140.608V161.536C850.763 162.88 850.971 163.792 851.387 164.272C851.835 164.752 852.587 164.992 853.643 164.992V166C853.003 165.968 852.059 165.936 850.811 165.904C849.563 165.84 848.299 165.808 847.019 165.808C845.739 165.808 844.427 165.84 843.083 165.904C841.771 165.936 840.779 165.968 840.107 166V164.992C841.163 164.992 841.899 164.752 842.315 164.272C842.763 163.792 842.987 162.88 842.987 161.536V146.368C842.987 144.928 842.779 143.872 842.363 143.2C841.947 142.496 841.195 142.144 840.107 142.144V141.136C841.131 141.232 842.123 141.28 843.083 141.28C844.523 141.28 845.883 141.232 847.163 141.136C848.475 141.008 849.675 140.832 850.763 140.608ZM871.126 140.464C872.534 140.464 873.654 140.64 874.486 140.992C875.35 141.344 876.006 141.792 876.454 142.336C876.966 142.944 877.334 143.728 877.558 144.688C877.814 145.648 877.942 146.944 877.942 148.576V161.536C877.942 162.88 878.15 163.792 878.566 164.272C879.014 164.752 879.766 164.992 880.822 164.992V166C880.182 165.968 879.222 165.936 877.942 165.904C876.694 165.84 875.478 165.808 874.294 165.808C872.982 165.808 871.718 165.84 870.502 165.904C869.286 165.936 868.374 165.968 867.766 166V164.992C868.662 164.992 869.286 164.752 869.638 164.272C869.99 163.792 870.166 162.88 870.166 161.536V146.272C870.166 145.536 870.086 144.912 869.926 144.4C869.766 143.856 869.494 143.456 869.11 143.2C868.726 142.912 868.182 142.768 867.478 142.768C866.742 142.768 866.054 142.96 865.414 143.344C864.806 143.728 864.31 144.272 863.926 144.976C863.574 145.648 863.398 146.416 863.398 147.28V161.536C863.398 162.88 863.574 163.792 863.926 164.272C864.278 164.752 864.902 164.992 865.798 164.992V166C865.19 165.968 864.31 165.936 863.158 165.904C862.006 165.84 860.838 165.808 859.654 165.808C858.342 165.808 857.03 165.84 855.718 165.904C854.406 165.936 853.414 165.968 852.742 166V164.992C853.798 164.992 854.534 164.752 854.95 164.272C855.398 163.792 855.622 162.88 855.622 161.536V146.368C855.622 144.928 855.414 143.872 854.998 143.2C854.582 142.496 853.83 142.144 852.742 142.144V141.136C853.766 141.232 854.758 141.28 855.718 141.28C857.158 141.28 858.518 141.232 859.798 141.136C861.11 141.008 862.31 140.832 863.398 140.608V144.496C864.166 143.024 865.206 141.984 866.518 141.376C867.862 140.768 869.398 140.464 871.126 140.464ZM888.708 175.024C886.628 175.024 884.804 174.848 883.236 174.496C881.668 174.176 880.452 173.68 879.588 173.008C878.724 172.368 878.292 171.584 878.292 170.656C878.292 169.696 878.74 168.816 879.636 168.016C880.532 167.248 881.908 166.64 883.764 166.192L884.196 166.96C883.652 167.504 883.268 168.032 883.044 168.544C882.82 169.088 882.708 169.616 882.708 170.128C882.708 171.44 883.3 172.448 884.484 173.152C885.668 173.856 887.3 174.208 889.38 174.208C890.82 174.208 892.068 174 893.124 173.584C894.18 173.2 894.996 172.64 895.572 171.904C896.148 171.168 896.436 170.304 896.436 169.312C896.436 168.384 896.084 167.6 895.38 166.96C894.708 166.32 893.332 166 891.252 166H888.468C887.092 166 885.908 165.824 884.916 165.472C883.924 165.12 883.156 164.624 882.612 163.984C882.1 163.344 881.844 162.544 881.844 161.584C881.844 160.144 882.404 158.928 883.524 157.936C884.644 156.912 886.196 155.968 888.18 155.104L888.612 155.488C888.132 155.776 887.668 156.112 887.22 156.496C886.804 156.88 886.596 157.392 886.596 158.032C886.596 159.056 887.204 159.568 888.42 159.568H893.364C895.284 159.568 896.98 159.792 898.452 160.24C899.924 160.656 901.076 161.36 901.908 162.352C902.772 163.312 903.204 164.576 903.204 166.144C903.204 167.744 902.692 169.216 901.668 170.56C900.644 171.904 899.06 172.976 896.916 173.776C894.804 174.608 892.068 175.024 888.708 175.024ZM889.332 155.776C887.412 155.776 885.7 155.504 884.196 154.96C882.724 154.416 881.556 153.584 880.692 152.464C879.828 151.312 879.396 149.856 879.396 148.096C879.396 146.336 879.828 144.896 880.692 143.776C881.556 142.656 882.724 141.824 884.196 141.28C885.7 140.736 887.412 140.464 889.332 140.464C891.22 140.464 892.916 140.736 894.42 141.28C895.924 141.824 897.108 142.656 897.972 143.776C898.836 144.896 899.268 146.336 899.268 148.096C899.268 149.856 898.836 151.312 897.972 152.464C897.108 153.584 895.924 154.416 894.42 154.96C892.916 155.504 891.22 155.776 889.332 155.776ZM889.332 154.912C890.036 154.912 890.596 154.416 891.012 153.424C891.46 152.432 891.684 150.656 891.684 148.096C891.684 145.536 891.46 143.776 891.012 142.816C890.596 141.824 890.036 141.328 889.332 141.328C888.596 141.328 888.02 141.824 887.604 142.816C887.188 143.776 886.98 145.536 886.98 148.096C886.98 150.656 887.188 152.432 887.604 153.424C888.02 154.416 888.596 154.912 889.332 154.912ZM896.964 144.64L895.956 144.304C896.468 142.992 897.252 141.936 898.308 141.136C899.396 140.304 900.58 139.888 901.86 139.888C902.916 139.888 903.7 140.176 904.212 140.752C904.756 141.328 905.028 142.08 905.028 143.008C905.028 143.936 904.772 144.656 904.26 145.168C903.78 145.648 903.204 145.888 902.532 145.888C901.956 145.888 901.428 145.696 900.948 145.312C900.468 144.896 900.196 144.288 900.132 143.488C900.068 142.656 900.356 141.616 900.996 140.368L901.284 140.656C900.1 141.072 899.188 141.584 898.548 142.192C897.94 142.8 897.412 143.616 896.964 144.64ZM921.315 133.312V141.136H926.499V142.096H921.315V161.728C921.315 162.528 921.459 163.104 921.747 163.456C922.035 163.776 922.467 163.936 923.043 163.936C923.523 163.936 924.019 163.776 924.531 163.456C925.075 163.136 925.571 162.592 926.019 161.824L926.787 162.304C926.179 163.616 925.331 164.672 924.243 165.472C923.187 166.272 921.795 166.672 920.067 166.672C919.011 166.672 918.067 166.528 917.235 166.24C916.435 165.984 915.763 165.584 915.219 165.04C914.515 164.336 914.051 163.472 913.827 162.448C913.635 161.392 913.539 160.032 913.539 158.368V142.096H909.699V141.136H913.539V135.136C915.043 135.136 916.419 134.992 917.667 134.704C918.947 134.416 920.163 133.952 921.315 133.312ZM935.263 128.464V144.496C936.063 143.024 937.119 141.984 938.431 141.376C939.775 140.768 941.311 140.464 943.039 140.464C944.447 140.464 945.567 140.64 946.399 140.992C947.263 141.344 947.919 141.792 948.367 142.336C948.879 142.944 949.247 143.728 949.471 144.688C949.695 145.648 949.807 146.944 949.807 148.576V161.536C949.807 162.88 950.015 163.792 950.431 164.272C950.879 164.752 951.631 164.992 952.687 164.992V166C952.079 165.968 951.135 165.936 949.855 165.904C948.607 165.84 947.375 165.808 946.159 165.808C944.879 165.808 943.631 165.84 942.415 165.904C941.199 165.936 940.271 165.968 939.631 166V164.992C940.527 164.992 941.151 164.752 941.503 164.272C941.855 163.792 942.031 162.88 942.031 161.536V146.272C942.031 145.536 941.951 144.912 941.791 144.4C941.631 143.856 941.359 143.456 940.975 143.2C940.623 142.912 940.095 142.768 939.391 142.768C938.655 142.768 937.967 142.96 937.327 143.344C936.719 143.696 936.223 144.224 935.839 144.928C935.455 145.6 935.263 146.384 935.263 147.28V161.536C935.263 162.88 935.439 163.792 935.791 164.272C936.175 164.752 936.799 164.992 937.663 164.992V166C937.087 165.968 936.223 165.936 935.071 165.904C933.919 165.84 932.735 165.808 931.519 165.808C930.239 165.808 928.927 165.84 927.583 165.904C926.271 165.936 925.279 165.968 924.607 166V164.992C925.663 164.992 926.399 164.752 926.815 164.272C927.263 163.792 927.487 162.88 927.487 161.536V134.224C927.487 132.784 927.279 131.728 926.863 131.056C926.479 130.352 925.727 130 924.607 130V128.992C925.631 129.088 926.623 129.136 927.583 129.136C929.055 129.136 930.431 129.088 931.711 128.992C932.991 128.864 934.175 128.688 935.263 128.464ZM964.074 140.464C966.89 140.464 969.098 141.296 970.698 142.96C972.298 144.624 973.098 147.36 973.098 151.168H957.69L957.642 150.256H966.57C966.634 148.688 966.57 147.248 966.378 145.936C966.186 144.592 965.866 143.52 965.418 142.72C965.002 141.92 964.442 141.52 963.738 141.52C962.778 141.52 961.962 142.208 961.29 143.584C960.618 144.96 960.202 147.296 960.042 150.592L960.234 150.928C960.17 151.28 960.138 151.648 960.138 152.032C960.138 152.384 960.138 152.768 960.138 153.184C960.138 155.392 960.426 157.152 961.002 158.464C961.61 159.776 962.362 160.704 963.258 161.248C964.154 161.792 965.082 162.064 966.042 162.064C966.586 162.064 967.194 161.984 967.866 161.824C968.538 161.664 969.242 161.328 969.978 160.816C970.714 160.304 971.418 159.552 972.09 158.56L972.906 158.848C972.554 160.096 971.946 161.328 971.082 162.544C970.25 163.728 969.178 164.72 967.866 165.52C966.554 166.288 964.97 166.672 963.114 166.672C961.002 166.672 959.114 166.24 957.45 165.376C955.786 164.48 954.458 163.088 953.466 161.2C952.506 159.28 952.026 156.784 952.026 153.712C952.026 150.672 952.554 148.176 953.61 146.224C954.666 144.272 956.106 142.832 957.93 141.904C959.754 140.944 961.802 140.464 964.074 140.464ZM993.424 140.464C994.768 140.464 995.968 140.608 997.024 140.896C998.08 141.152 998.944 141.488 999.616 141.904C1000.45 142.416 1001.12 143.072 1001.63 143.872C1002.14 144.672 1002.4 145.6 1002.4 146.656C1002.4 147.872 1002 148.896 1001.2 149.728C1000.4 150.528 999.392 150.928 998.176 150.928C996.928 150.928 995.936 150.56 995.2 149.824C994.496 149.088 994.144 148.144 994.144 146.992C994.144 145.872 994.496 144.928 995.2 144.16C995.904 143.392 996.736 142.88 997.696 142.624C997.44 142.368 997.104 142.16 996.688 142C996.304 141.84 995.84 141.76 995.296 141.76C994.208 141.76 993.296 142.08 992.56 142.72C991.824 143.328 991.216 144.176 990.736 145.264C990.288 146.32 989.952 147.52 989.728 148.864C989.536 150.176 989.44 151.536 989.44 152.944C989.44 155.312 989.744 157.168 990.352 158.512C990.992 159.824 991.776 160.752 992.704 161.296C993.664 161.808 994.64 162.064 995.632 162.064C996.144 162.064 996.736 161.984 997.408 161.824C998.08 161.664 998.784 161.328 999.52 160.816C1000.29 160.304 1001.01 159.536 1001.68 158.512L1002.5 158.8C1002.14 160.048 1001.55 161.28 1000.72 162.496C999.888 163.712 998.816 164.72 997.504 165.52C996.192 166.288 994.592 166.672 992.704 166.672C990.592 166.672 988.672 166.24 986.944 165.376C985.248 164.512 983.888 163.12 982.864 161.2C981.84 159.28 981.328 156.768 981.328 153.664C981.328 150.656 981.856 148.192 982.912 146.272C983.968 144.32 985.408 142.864 987.232 141.904C989.088 140.944 991.152 140.464 993.424 140.464ZM1026.54 140.608V160.768C1026.54 162.208 1026.75 163.28 1027.17 163.984C1027.62 164.656 1028.37 164.992 1029.42 164.992V166C1028.43 165.904 1027.44 165.856 1026.45 165.856C1024.98 165.856 1023.6 165.904 1022.32 166C1021.07 166.096 1019.89 166.272 1018.77 166.528V162.64C1018 164.08 1016.94 165.12 1015.6 165.76C1014.29 166.368 1012.78 166.672 1011.09 166.672C1009.68 166.672 1008.54 166.496 1007.68 166.144C1006.85 165.792 1006.21 165.328 1005.76 164.752C1005.25 164.176 1004.88 163.408 1004.66 162.448C1004.43 161.456 1004.32 160.16 1004.32 158.56V146.368C1004.32 144.928 1004.11 143.872 1003.7 143.2C1003.28 142.496 1002.53 142.144 1001.44 142.144V141.136C1002.46 141.232 1003.46 141.28 1004.42 141.28C1005.89 141.28 1007.26 141.232 1008.54 141.136C1009.82 141.008 1011.01 140.832 1012.1 140.608V160.864C1012.1 161.6 1012.18 162.224 1012.34 162.736C1012.5 163.248 1012.77 163.648 1013.15 163.936C1013.54 164.224 1014.05 164.368 1014.69 164.368C1015.42 164.368 1016.1 164.176 1016.7 163.792C1017.31 163.408 1017.81 162.88 1018.19 162.208C1018.58 161.504 1018.77 160.72 1018.77 159.856V146.368C1018.77 144.928 1018.56 143.872 1018.14 143.2C1017.73 142.496 1016.98 142.144 1015.89 142.144V141.136C1016.91 141.232 1017.9 141.28 1018.86 141.28C1020.34 141.28 1021.71 141.232 1022.99 141.136C1024.27 141.008 1025.46 140.832 1026.54 140.608ZM1039.04 128.464V161.536C1039.04 162.88 1039.24 163.792 1039.66 164.272C1040.11 164.752 1040.86 164.992 1041.92 164.992V166C1041.31 165.968 1040.38 165.936 1039.13 165.904C1037.88 165.84 1036.6 165.808 1035.29 165.808C1034.01 165.808 1032.7 165.84 1031.36 165.904C1030.04 165.936 1029.05 165.968 1028.38 166V164.992C1029.44 164.992 1030.17 164.752 1030.59 164.272C1031.04 163.792 1031.26 162.88 1031.26 161.536V134.176C1031.26 132.768 1031.05 131.728 1030.64 131.056C1030.25 130.352 1029.5 130 1028.38 130V128.992C1029.4 129.088 1030.4 129.136 1031.36 129.136C1032.83 129.136 1034.2 129.088 1035.48 128.992C1036.76 128.864 1037.95 128.688 1039.04 128.464ZM1047.5 128.608C1049 128.608 1050.17 128.944 1051 129.616C1051.87 130.288 1052.3 131.264 1052.3 132.544C1052.3 133.824 1051.87 134.8 1051 135.472C1050.17 136.144 1049 136.48 1047.5 136.48C1046 136.48 1044.81 136.144 1043.95 135.472C1043.12 134.8 1042.7 133.824 1042.7 132.544C1042.7 131.264 1043.12 130.288 1043.95 129.616C1044.81 128.944 1046 128.608 1047.5 128.608ZM1051.72 140.608V161.536C1051.72 162.88 1051.93 163.792 1052.35 164.272C1052.8 164.752 1053.55 164.992 1054.6 164.992V166C1053.96 165.968 1053.02 165.936 1051.77 165.904C1050.52 165.84 1049.26 165.808 1047.98 165.808C1046.7 165.808 1045.39 165.84 1044.04 165.904C1042.73 165.936 1041.74 165.968 1041.07 166V164.992C1042.12 164.992 1042.86 164.752 1043.28 164.272C1043.72 163.792 1043.95 162.88 1043.95 161.536V146.368C1043.95 144.928 1043.74 143.872 1043.32 143.2C1042.91 142.496 1042.16 142.144 1041.07 142.144V141.136C1042.09 141.232 1043.08 141.28 1044.04 141.28C1045.48 141.28 1046.84 141.232 1048.12 141.136C1049.44 141.008 1050.64 140.832 1051.72 140.608ZM1072.09 140.464C1073.49 140.464 1074.61 140.64 1075.45 140.992C1076.31 141.344 1076.97 141.792 1077.41 142.336C1077.93 142.944 1078.29 143.728 1078.52 144.688C1078.77 145.648 1078.9 146.944 1078.9 148.576V161.536C1078.9 162.88 1079.11 163.792 1079.53 164.272C1079.97 164.752 1080.73 164.992 1081.78 164.992V166C1081.14 165.968 1080.18 165.936 1078.9 165.904C1077.65 165.84 1076.44 165.808 1075.25 165.808C1073.94 165.808 1072.68 165.84 1071.46 165.904C1070.25 165.936 1069.33 165.968 1068.73 166V164.992C1069.62 164.992 1070.25 164.752 1070.6 164.272C1070.95 163.792 1071.13 162.88 1071.13 161.536V146.272C1071.13 145.536 1071.05 144.912 1070.89 144.4C1070.73 143.856 1070.45 143.456 1070.07 143.2C1069.69 142.912 1069.14 142.768 1068.44 142.768C1067.7 142.768 1067.01 142.96 1066.37 143.344C1065.77 143.728 1065.27 144.272 1064.89 144.976C1064.53 145.648 1064.36 146.416 1064.36 147.28V161.536C1064.36 162.88 1064.53 163.792 1064.89 164.272C1065.24 164.752 1065.86 164.992 1066.76 164.992V166C1066.15 165.968 1065.27 165.936 1064.12 165.904C1062.97 165.84 1061.8 165.808 1060.61 165.808C1059.3 165.808 1057.99 165.84 1056.68 165.904C1055.37 165.936 1054.37 165.968 1053.7 166V164.992C1054.76 164.992 1055.49 164.752 1055.91 164.272C1056.36 163.792 1056.58 162.88 1056.58 161.536V146.368C1056.58 144.928 1056.37 143.872 1055.96 143.2C1055.54 142.496 1054.79 142.144 1053.7 142.144V141.136C1054.73 141.232 1055.72 141.28 1056.68 141.28C1058.12 141.28 1059.48 141.232 1060.76 141.136C1062.07 141.008 1063.27 140.832 1064.36 140.608V144.496C1065.13 143.024 1066.17 141.984 1067.48 141.376C1068.82 140.768 1070.36 140.464 1072.09 140.464ZM1087.07 166.336C1085.6 166.336 1084.38 166.064 1083.42 165.52C1082.46 164.944 1081.76 164.192 1081.31 163.264C1080.86 162.336 1080.64 161.344 1080.64 160.288C1080.64 158.944 1080.94 157.84 1081.55 156.976C1082.19 156.112 1083.01 155.424 1084 154.912C1084.99 154.368 1086.03 153.92 1087.12 153.568C1088.21 153.216 1089.25 152.88 1090.24 152.56C1091.23 152.208 1092.03 151.808 1092.64 151.36C1093.25 150.88 1093.55 150.272 1093.55 149.536V145.552C1093.55 144.848 1093.44 144.192 1093.21 143.584C1093.02 142.944 1092.65 142.432 1092.11 142.048C1091.6 141.632 1090.88 141.424 1089.95 141.424C1089.37 141.424 1088.81 141.504 1088.27 141.664C1087.73 141.824 1087.25 142.08 1086.83 142.432C1087.85 142.784 1088.61 143.312 1089.09 144.016C1089.6 144.72 1089.85 145.504 1089.85 146.368C1089.85 147.552 1089.44 148.496 1088.61 149.2C1087.81 149.872 1086.85 150.208 1085.73 150.208C1084.51 150.208 1083.57 149.824 1082.89 149.056C1082.25 148.288 1081.93 147.36 1081.93 146.272C1081.93 145.312 1082.17 144.512 1082.65 143.872C1083.13 143.2 1083.84 142.592 1084.77 142.048C1085.69 141.504 1086.81 141.104 1088.13 140.848C1089.44 140.592 1090.83 140.464 1092.3 140.464C1093.81 140.464 1095.18 140.624 1096.43 140.944C1097.71 141.232 1098.8 141.824 1099.69 142.72C1100.4 143.456 1100.85 144.352 1101.04 145.408C1101.23 146.464 1101.33 147.808 1101.33 149.44V162.4C1101.33 163.2 1101.39 163.76 1101.52 164.08C1101.68 164.368 1101.92 164.512 1102.24 164.512C1102.53 164.512 1102.8 164.432 1103.05 164.272C1103.31 164.112 1103.57 163.936 1103.82 163.744L1104.35 164.56C1103.65 165.136 1102.81 165.584 1101.85 165.904C1100.89 166.192 1099.85 166.336 1098.73 166.336C1097.45 166.336 1096.45 166.176 1095.71 165.856C1095.01 165.504 1094.49 165.04 1094.17 164.464C1093.89 163.888 1093.73 163.248 1093.69 162.544C1092.99 163.696 1092.11 164.624 1091.05 165.328C1090 166 1088.67 166.336 1087.07 166.336ZM1091.05 162.88C1091.57 162.88 1092.01 162.784 1092.4 162.592C1092.81 162.368 1093.2 162 1093.55 161.488V151.504C1093.29 151.952 1092.94 152.384 1092.49 152.8C1092.08 153.184 1091.63 153.584 1091.15 154C1090.67 154.384 1090.21 154.816 1089.76 155.296C1089.34 155.776 1088.99 156.352 1088.7 157.024C1088.45 157.664 1088.32 158.448 1088.32 159.376C1088.32 160.624 1088.57 161.52 1089.09 162.064C1089.6 162.608 1090.25 162.88 1091.05 162.88ZM1119.83 140.464C1120.91 140.464 1121.78 140.704 1122.42 141.184C1123.06 141.632 1123.52 142.224 1123.81 142.96C1124.1 143.664 1124.24 144.368 1124.24 145.072C1124.24 146.384 1123.86 147.44 1123.09 148.24C1122.35 149.04 1121.38 149.44 1120.16 149.44C1118.88 149.44 1117.91 149.152 1117.23 148.576C1116.56 147.968 1116.23 147.168 1116.23 146.176C1116.23 145.184 1116.43 144.368 1116.85 143.728C1117.3 143.088 1117.84 142.544 1118.48 142.096C1118 142.032 1117.54 142.096 1117.09 142.288C1116.58 142.416 1116.1 142.656 1115.65 143.008C1115.2 143.36 1114.82 143.776 1114.5 144.256C1114.18 144.736 1113.92 145.264 1113.73 145.84C1113.57 146.384 1113.49 146.944 1113.49 147.52V161.056C1113.49 162.592 1113.83 163.632 1114.5 164.176C1115.2 164.72 1116.31 164.992 1117.81 164.992V166C1117.07 165.968 1115.99 165.936 1114.55 165.904C1113.11 165.84 1111.62 165.808 1110.08 165.808C1108.71 165.808 1107.31 165.84 1105.91 165.904C1104.53 165.936 1103.51 165.968 1102.83 166V164.992C1103.89 164.992 1104.63 164.752 1105.04 164.272C1105.49 163.792 1105.71 162.88 1105.71 161.536V146.368C1105.71 144.928 1105.51 143.872 1105.09 143.2C1104.67 142.496 1103.92 142.144 1102.83 142.144V141.136C1103.86 141.232 1104.85 141.28 1105.81 141.28C1107.25 141.28 1108.61 141.232 1109.89 141.136C1111.2 141.008 1112.4 140.832 1113.49 140.608V144.544C1113.87 143.712 1114.37 142.992 1114.98 142.384C1115.62 141.776 1116.34 141.312 1117.14 140.992C1117.97 140.64 1118.87 140.464 1119.83 140.464ZM1146.5 141.136V142.144C1145.89 142.336 1145.3 142.736 1144.72 143.344C1144.18 143.952 1143.65 145.008 1143.14 146.512L1136.75 164.944L1134.64 169.408L1123.65 144.832C1123.1 143.616 1122.58 142.864 1122.06 142.576C1121.55 142.288 1121.12 142.144 1120.77 142.144V141.136C1121.95 141.232 1123.17 141.312 1124.42 141.376C1125.66 141.408 1126.85 141.424 1127.97 141.424C1129.38 141.424 1130.62 141.392 1131.71 141.328C1132.8 141.264 1133.82 141.2 1134.78 141.136V142.144C1134.18 142.144 1133.6 142.176 1133.06 142.24C1132.51 142.304 1132.13 142.496 1131.9 142.816C1131.71 143.104 1131.78 143.632 1132.1 144.4L1138.19 158.992L1137.71 159.328L1140.64 150.832C1141.31 148.88 1141.6 147.28 1141.5 146.032C1141.41 144.784 1141.04 143.84 1140.4 143.2C1139.76 142.56 1138.94 142.208 1137.95 142.144V141.136C1138.43 141.168 1138.96 141.2 1139.54 141.232C1140.14 141.264 1140.74 141.296 1141.31 141.328C1141.89 141.328 1142.38 141.328 1142.8 141.328C1143.41 141.328 1144.08 141.312 1144.82 141.28C1145.55 141.248 1146.11 141.2 1146.5 141.136ZM1136.75 164.944L1134.83 170.416C1134.54 171.216 1134.22 171.904 1133.87 172.48C1133.55 173.056 1133.17 173.52 1132.72 173.872C1132.27 174.224 1131.7 174.496 1130.99 174.688C1130.32 174.912 1129.46 175.024 1128.4 175.024C1127.57 175.024 1126.69 174.88 1125.76 174.592C1124.86 174.336 1124.1 173.904 1123.46 173.296C1122.85 172.688 1122.54 171.872 1122.54 170.848C1122.54 169.792 1122.93 168.944 1123.7 168.304C1124.46 167.696 1125.5 167.392 1126.82 167.392C1128 167.392 1128.94 167.664 1129.65 168.208C1130.38 168.752 1130.75 169.568 1130.75 170.656C1130.75 171.328 1130.53 171.984 1130.08 172.624C1129.63 173.264 1128.93 173.744 1127.97 174.064C1128.19 174.096 1128.43 174.112 1128.69 174.112C1128.98 174.144 1129.2 174.16 1129.36 174.16C1130.35 174.16 1131.23 173.84 1132 173.2C1132.77 172.592 1133.38 171.632 1133.82 170.32L1135.5 165.232L1136.75 164.944ZM622.488 205.136V206.144C621.784 206.144 621.192 206.192 620.712 206.288C620.232 206.352 619.896 206.544 619.704 206.864C619.544 207.184 619.56 207.696 619.752 208.4L624.168 222.656L623.448 223.52L628.584 205.136L629.592 205.616L622.728 230.048C622.088 229.984 621.432 229.952 620.76 229.952C620.12 229.952 619.48 229.984 618.84 230.048L611.352 208.832C610.904 207.552 610.408 206.784 609.864 206.528C609.352 206.272 608.92 206.144 608.568 206.144V205.136C609.72 205.232 610.92 205.312 612.168 205.376C613.416 205.408 614.776 205.424 616.248 205.424C617.24 205.424 618.28 205.392 619.368 205.328C620.488 205.264 621.528 205.2 622.488 205.136ZM647.112 205.136V206.144C646.504 206.336 645.912 206.736 645.336 207.344C644.792 207.92 644.264 208.976 643.752 210.512L637.56 230.048C636.92 229.984 636.28 229.952 635.64 229.952C635 229.952 634.344 229.984 633.672 230.048L627.288 211.952L628.632 205.136C629.336 205.168 630.056 205.184 630.792 205.184C631.528 205.184 632.248 205.168 632.952 205.136L639.192 224.384L638.616 223.568L641.352 214.832C641.96 212.848 642.184 211.232 642.024 209.984C641.896 208.736 641.48 207.808 640.776 207.2C640.104 206.56 639.256 206.208 638.232 206.144V205.136C638.68 205.168 639.24 205.2 639.912 205.232C640.584 205.264 641.24 205.296 641.88 205.328C642.52 205.328 643.032 205.328 643.416 205.328C644.024 205.328 644.696 205.312 645.432 205.28C646.168 205.248 646.728 205.2 647.112 205.136ZM657.019 204.464C659.419 204.464 661.515 204.896 663.307 205.76C665.131 206.592 666.539 207.968 667.531 209.888C668.555 211.808 669.067 214.368 669.067 217.568C669.067 220.768 668.555 223.328 667.531 225.248C666.539 227.168 665.131 228.56 663.307 229.424C661.515 230.256 659.419 230.672 657.019 230.672C654.651 230.672 652.555 230.256 650.731 229.424C648.939 228.56 647.531 227.168 646.507 225.248C645.483 223.328 644.971 220.768 644.971 217.568C644.971 214.368 645.483 211.808 646.507 209.888C647.531 207.968 648.939 206.592 650.731 205.76C652.555 204.896 654.651 204.464 657.019 204.464ZM657.019 205.424C655.899 205.424 654.955 206.384 654.187 208.304C653.451 210.192 653.083 213.28 653.083 217.568C653.083 221.856 653.451 224.96 654.187 226.88C654.955 228.768 655.899 229.712 657.019 229.712C658.171 229.712 659.115 228.768 659.851 226.88C660.587 224.96 660.955 221.856 660.955 217.568C660.955 213.28 660.587 210.192 659.851 208.304C659.115 206.384 658.171 205.424 657.019 205.424ZM685.93 204.464C687.018 204.464 687.882 204.704 688.522 205.184C689.162 205.632 689.626 206.224 689.914 206.96C690.202 207.664 690.346 208.368 690.346 209.072C690.346 210.384 689.962 211.44 689.194 212.24C688.458 213.04 687.482 213.44 686.266 213.44C684.986 213.44 684.01 213.152 683.338 212.576C682.666 211.968 682.33 211.168 682.33 210.176C682.33 209.184 682.538 208.368 682.954 207.728C683.402 207.088 683.946 206.544 684.586 206.096C684.106 206.032 683.642 206.096 683.194 206.288C682.682 206.416 682.202 206.656 681.754 207.008C681.306 207.36 680.922 207.776 680.602 208.256C680.282 208.736 680.026 209.264 679.834 209.84C679.674 210.384 679.594 210.944 679.594 211.52V225.056C679.594 226.592 679.93 227.632 680.602 228.176C681.306 228.72 682.41 228.992 683.914 228.992V230C683.178 229.968 682.09 229.936 680.65 229.904C679.21 229.84 677.722 229.808 676.186 229.808C674.81 229.808 673.418 229.84 672.01 229.904C670.634 229.936 669.61 229.968 668.938 230V228.992C669.994 228.992 670.73 228.752 671.146 228.272C671.594 227.792 671.818 226.88 671.818 225.536V210.368C671.818 208.928 671.61 207.872 671.194 207.2C670.778 206.496 670.026 206.144 668.938 206.144V205.136C669.962 205.232 670.954 205.28 671.914 205.28C673.354 205.28 674.714 205.232 675.994 205.136C677.306 205.008 678.506 204.832 679.594 204.608V208.544C679.978 207.712 680.474 206.992 681.082 206.384C681.722 205.776 682.442 205.312 683.242 204.992C684.074 204.64 684.97 204.464 685.93 204.464ZM697.944 192.464V225.536C697.944 226.88 698.152 227.792 698.568 228.272C699.016 228.752 699.768 228.992 700.824 228.992V230C700.216 229.968 699.288 229.936 698.04 229.904C696.792 229.84 695.512 229.808 694.2 229.808C692.92 229.808 691.608 229.84 690.264 229.904C688.952 229.936 687.96 229.968 687.288 230V228.992C688.344 228.992 689.08 228.752 689.496 228.272C689.944 227.792 690.168 226.88 690.168 225.536V198.176C690.168 196.768 689.96 195.728 689.544 195.056C689.16 194.352 688.408 194 687.288 194V192.992C688.312 193.088 689.304 193.136 690.264 193.136C691.736 193.136 693.112 193.088 694.392 192.992C695.672 192.864 696.856 192.688 697.944 192.464ZM723.65 192.464V224.72C723.65 226.16 723.858 227.232 724.274 227.936C724.722 228.608 725.474 228.944 726.53 228.944V229.952C725.538 229.856 724.546 229.808 723.554 229.808C722.114 229.808 720.754 229.856 719.474 229.952C718.194 230.048 716.994 230.224 715.874 230.48V198.224C715.874 196.784 715.666 195.728 715.25 195.056C714.866 194.352 714.114 194 712.994 194V192.992C714.018 193.088 715.01 193.136 715.97 193.136C717.442 193.136 718.818 193.088 720.098 192.992C721.378 192.864 722.562 192.688 723.65 192.464ZM710.738 204.464C712.146 204.464 713.362 204.672 714.386 205.088C715.41 205.472 716.258 206.128 716.93 207.056L716.354 207.536C715.938 206.992 715.426 206.592 714.818 206.336C714.242 206.08 713.634 205.952 712.994 205.952C711.458 205.952 710.258 206.912 709.394 208.832C708.562 210.72 708.146 213.632 708.146 217.568C708.146 220.32 708.306 222.496 708.626 224.096C708.978 225.664 709.442 226.768 710.018 227.408C710.626 228.048 711.298 228.368 712.034 228.368C713.026 228.368 713.906 228 714.674 227.264C715.474 226.496 715.89 225.488 715.922 224.24L716.066 226.256C715.49 227.728 714.69 228.832 713.666 229.568C712.674 230.304 711.394 230.672 709.826 230.672C707.97 230.672 706.29 230.208 704.786 229.28C703.314 228.352 702.146 226.928 701.282 225.008C700.45 223.056 700.034 220.528 700.034 217.424C700.034 214.512 700.482 212.112 701.378 210.224C702.306 208.304 703.57 206.864 705.17 205.904C706.802 204.944 708.658 204.464 710.738 204.464Z" fill="#1C7C54"/>
<defs>
<clipPath id="clip0_50_388">
<rect width="460" height="415" fill="white" transform="translate(776 263)"/>
</clipPath>
</defs>
</svg>
