<svg width="390" height="426" viewBox="0 0 390 426" fill="none" xmlns="http://www.w3.org/2000/svg">
<path d="M329.015 318.938C329.015 378.067 277.273 426 213.446 426C149.619 426 97.8765 378.067 97.8765 318.938C97.8765 259.81 149.619 211.877 213.446 211.877C277.273 211.877 329.015 259.81 329.015 318.938Z" fill="#FFA42C"/>
<path d="M362.896 268.028C362.896 304.828 331.716 334.661 293.253 334.661C254.79 334.661 223.61 304.828 223.61 268.028C223.61 231.228 254.79 201.395 293.253 201.395C331.716 201.395 362.896 231.228 362.896 268.028Z" fill="#FFD9A1"/>
<g clip-path="url(#clip0_69_388)">
<path d="M281.58 357.473H18.4019V358.579H281.58V357.473Z" fill="#3F3D56"/>
<path d="M272.513 170.378C273.02 170.958 273.396 171.636 273.617 172.367C273.838 173.098 273.899 173.866 273.796 174.621C273.693 175.376 273.429 176.102 273.02 176.751C272.611 177.401 272.066 177.959 271.422 178.39L244.185 196.62L232.192 204.414C231.51 204.857 230.685 205.036 229.875 204.918C229.065 204.8 228.329 204.392 227.811 203.775V203.775C227.508 203.415 227.29 202.995 227.17 202.544C227.051 202.094 227.033 201.623 227.118 201.166C227.204 200.708 227.39 200.273 227.664 199.893C227.938 199.512 228.294 199.193 228.707 198.96L240.323 192.385L260.597 173.563L247.564 159.917L257.218 152.859L272.513 170.378Z" fill="#A0616A"/>
<path d="M208.465 342.019H201.803L197.845 288.376L214.74 287.906L208.465 342.019Z" fill="#A0616A"/>
<path d="M208.948 359.429C207.171 360.219 205.683 353.816 204.185 355.251C199.993 359.267 193.575 360.141 187.98 358.388L189.938 358.367C189.6 358.261 189.288 358.089 189.021 357.863C188.753 357.636 188.536 357.358 188.381 357.047C188.227 356.736 188.139 356.397 188.122 356.052C188.106 355.707 188.162 355.362 188.287 355.038V355.038C188.436 354.651 188.679 354.305 188.995 354.029C189.312 353.754 189.693 353.557 190.104 353.457L194.562 352.371L201.561 340.372L208.706 339.901C210.299 341.881 211.411 344.187 211.958 346.646C212.505 349.105 212.473 351.652 211.864 354.097C211.215 356.677 210.214 358.865 208.948 359.429Z" fill="#2F2E41"/>
<path d="M252.826 342.019H246.164L242.207 288.376L259.584 285.083L252.826 342.019Z" fill="#A0616A"/>
<path d="M253.309 359.429C251.532 360.219 250.044 353.816 248.546 355.251C244.354 359.267 237.936 360.141 232.341 358.388L234.299 358.367C233.962 358.261 233.649 358.089 233.382 357.862C233.114 357.636 232.897 357.358 232.742 357.047C232.588 356.736 232.5 356.397 232.484 356.052C232.467 355.707 232.523 355.362 232.648 355.038C232.797 354.651 233.04 354.304 233.357 354.029C233.673 353.754 234.054 353.557 234.465 353.457L238.923 352.371L245.922 340.372L253.55 339.431L253.743 339.738C255.218 342.055 256.168 344.651 256.532 347.355C256.895 350.058 256.663 352.806 255.851 355.415C255.216 357.396 254.353 358.964 253.309 359.429Z" fill="#2F2E41"/>
<path d="M260.381 154.072C254.254 154.903 250.012 158.174 248.284 164.699L237.022 144.429C236.355 143.141 236.185 141.661 236.546 140.261C236.906 138.861 237.772 137.635 238.984 136.806C240.271 135.927 241.854 135.561 243.409 135.783C244.964 136.005 246.373 136.798 247.348 138L260.381 154.072Z" fill="#DD0426"/>
<path d="M272.182 282.73C244.799 294.54 216.776 295.993 188.192 288.376C198.63 248.912 210.955 213.228 210.879 183.915L238.876 181.562L243.186 188.224C253.413 204.03 260.473 221.583 263.991 239.953L272.182 282.73Z" fill="#2F2E41"/>
<path d="M226.325 123.214C234.323 123.214 240.806 116.894 240.806 109.098C240.806 101.302 234.323 94.9814 226.325 94.9814C218.327 94.9814 211.844 101.302 211.844 109.098C211.844 116.894 218.327 123.214 226.325 123.214Z" fill="#A0616A"/>
<path d="M242.254 134.037L224.394 134.978L221.498 119.45L235.979 117.097L242.254 134.037Z" fill="#A0616A"/>
<path d="M240.324 183.915L220.757 184.452L210.879 185.797C206.03 170.183 201.948 154.604 211.844 141.566L223.429 130.272L240.806 129.802L241.037 129.93C243.796 131.471 245.935 133.883 247.101 136.768C248.266 139.653 248.388 142.838 247.448 145.8C243.136 159.461 240.366 172.36 240.324 183.915Z" fill="#DD0426"/>
<path d="M210.396 227.676L209.182 243.845C209.117 244.712 208.733 245.526 208.101 246.138C207.469 246.75 206.632 247.119 205.743 247.176V247.176C205.231 247.21 204.717 247.139 204.235 246.968C203.752 246.797 203.312 246.529 202.941 246.183C202.57 245.837 202.278 245.419 202.082 244.957C201.886 244.494 201.791 243.997 201.804 243.497L202.19 227.676L214.258 182.974L214.74 155.682L228.256 155.211L227.291 186.738L210.396 227.676Z" fill="#A0616A"/>
<path d="M229.704 157.564C223.974 155.293 218.622 156.053 213.775 160.858L214.439 137.815C214.523 136.374 215.136 135.011 216.167 133.975C217.198 132.939 218.578 132.3 220.053 132.175V132.175C221.618 132.042 223.177 132.498 224.409 133.449C225.641 134.4 226.453 135.774 226.679 137.29L229.704 157.564Z" fill="#DD0426"/>
<path d="M256.977 171.916H212.568C222.928 145.174 226.269 120.296 212.568 98.9811C212.803 92.5791 221.227 87.0291 227.768 87.6423C235.494 88.3664 245.875 93.9007 247.323 101.334L256.977 171.916Z" fill="#2F2E41"/>
<path d="M183.819 85.3991H181.794V31.307C181.794 27.1957 180.963 23.1247 179.349 19.3263C177.735 15.528 175.369 12.0767 172.387 9.16959C169.405 6.26246 165.865 3.9564 161.968 2.38308C158.072 0.809758 153.895 -1.23204e-05 149.678 1.40595e-10L32.1159 1.40595e-10C27.8984 -9.07819e-06 23.7221 0.809767 19.8257 2.38309C15.9292 3.95641 12.3888 6.26247 9.40652 9.1696C6.42428 12.0767 4.05864 15.528 2.44467 19.3263C0.830694 23.1247 -4.65642e-06 27.1957 0 31.307L0 328.06C-3.32601e-06 332.172 0.830693 336.243 2.44467 340.041C4.05864 343.839 6.42428 347.291 9.40652 350.198C12.3888 353.105 15.9292 355.411 19.8257 356.984C23.7221 358.558 27.8984 359.367 32.1159 359.367H149.678C153.895 359.367 158.072 358.558 161.968 356.984C165.865 355.411 169.405 353.105 172.387 350.198C175.369 347.291 177.735 343.839 179.349 340.041C180.963 336.243 181.794 332.172 181.794 328.06V123.903H183.819V85.3991Z" fill="#3F3D56"/>
<path d="M150.974 8.14502H135.628C136.334 9.83162 136.603 11.6615 136.412 13.4735C136.222 15.2855 135.577 17.024 134.535 18.5358C133.492 20.0476 132.085 21.2864 130.436 22.143C128.787 22.9995 126.947 23.4476 125.078 23.4478H57.7284C55.8598 23.4476 54.02 22.9995 52.3709 22.143C50.7218 21.2864 49.3142 20.0476 48.2719 18.5358C47.2296 17.024 46.5848 15.2855 46.3941 13.4735C46.2034 11.6615 46.4728 9.83162 47.1785 8.14502H32.8456C29.696 8.14502 26.5772 8.74974 23.6674 9.92468C20.7576 11.0996 18.1136 12.8218 15.8865 14.9928C13.6594 17.1638 11.8928 19.7411 10.6875 22.5777C9.48218 25.4142 8.86182 28.4544 8.86182 31.5247V327.843C8.86182 330.913 9.48217 333.953 10.6875 336.79C11.8928 339.626 13.6594 342.204 15.8865 344.375C18.1136 346.546 20.7576 348.268 23.6674 349.443C26.5772 350.618 29.696 351.222 32.8456 351.222H150.974C154.123 351.222 157.242 350.618 160.152 349.443C163.062 348.268 165.706 346.546 167.933 344.375C170.16 342.204 171.927 339.626 173.132 336.79C174.337 333.953 174.958 330.913 174.958 327.843V31.5247C174.958 25.324 172.431 19.3773 167.933 14.9928C163.435 10.6082 157.335 8.14501 150.974 8.14502V8.14502Z" fill="white"/>
<path d="M154.215 54.432H29.6047V158.621H154.215V54.432Z" fill="#E6E6E6"/>
<path d="M66.5824 180.348C71.618 180.348 75.7002 176.368 75.7002 171.459C75.7002 166.551 71.618 162.571 66.5824 162.571C61.5468 162.571 57.4646 166.551 57.4646 171.459C57.4646 176.368 61.5468 180.348 66.5824 180.348Z" fill="#1C7C54"/>
<path d="M71.1415 170.719H67.3424V167.016H65.8228V170.719H62.0237V172.2H65.8228V175.904H67.3424V172.2H71.1415V170.719Z" fill="white"/>
<path d="M114.704 180.348C119.74 180.348 123.822 176.368 123.822 171.459C123.822 166.551 119.74 162.571 114.704 162.571C109.669 162.571 105.586 166.551 105.586 171.459C105.586 176.368 109.669 180.348 114.704 180.348Z" fill="#1C7054"/>
<path d="M119.263 172.2V170.719H110.145V172.2H119.263Z" fill="white"/>
<path d="M96.5572 67.4259H86.7099C86.3636 67.4259 86.0315 67.56 85.7867 67.7987C85.5419 68.0373 85.4043 68.361 85.4043 68.6986V72.912C85.4043 73.2495 85.5419 73.5732 85.7867 73.8119C86.0315 74.0506 86.3636 74.1847 86.7099 74.1847H88.3417V80.4978H94.9253V74.1847H96.5572C96.9034 74.1847 97.2355 74.0506 97.4803 73.8119C97.7252 73.5732 97.8627 73.2495 97.8627 72.912V68.6986C97.8627 68.361 97.7252 68.0373 97.4803 67.7987C97.2355 67.56 96.9034 67.4259 96.5572 67.4259Z" fill="#D21717"/>
<path d="M106.42 105.987C100.39 97.3847 97.3064 87.1423 97.6128 76.7272C97.6183 76.4869 97.5383 76.2521 97.3863 76.0628C97.2344 75.8734 97.02 75.7412 96.7794 75.6885V73.8679H86.3793V75.6632H86.236C86.0959 75.6634 85.9571 75.6905 85.8277 75.7429C85.6983 75.7954 85.5808 75.8721 85.4818 75.9689C85.3828 76.0656 85.3044 76.1804 85.2509 76.3066C85.1975 76.4329 85.17 76.5682 85.1702 76.7048C85.1703 76.7301 85.1712 76.7553 85.1732 76.7806C85.9925 87.9142 83.2258 97.8987 76.8731 106.734C76.5075 107.242 76.3208 107.851 76.3408 108.471L77.478 142.762C77.5054 143.527 77.8347 144.252 78.3972 144.786C78.9597 145.32 79.7121 145.621 80.4971 145.627H104.021C104.815 145.621 105.575 145.313 106.139 144.768C106.703 144.223 107.027 143.485 107.041 142.712L107.48 109.418C107.493 108.196 107.123 106.999 106.42 105.987V105.987Z" fill="#3F3D56"/>
<path opacity="0.2" d="M94.5042 68.7988C94.5042 69.527 94.2075 70.2254 93.6792 70.7404C93.151 71.2553 92.4346 71.5446 91.6875 71.5446C90.9405 71.5446 90.2241 71.2553 89.6958 70.7404C89.1676 70.2254 88.8708 69.527 88.8708 68.7988" fill="black"/>
<path d="M102.696 117.377H99.8478C99.5759 115.657 98.6814 114.089 97.3261 112.956C95.9708 111.822 94.2443 111.199 92.4588 111.199C90.6733 111.199 88.9467 111.822 87.5915 112.956C86.2362 114.089 85.3417 115.657 85.0697 117.377H82.2211C81.918 117.377 81.6185 117.441 81.3431 117.565C81.0677 117.688 80.8229 117.868 80.6256 118.092C80.4282 118.317 80.283 118.58 80.1997 118.864C80.1165 119.148 80.0973 119.446 80.1433 119.738L83.2374 139.343H101.004L104.762 119.804C104.819 119.508 104.809 119.204 104.731 118.912C104.654 118.621 104.511 118.35 104.314 118.118C104.117 117.886 103.869 117.7 103.59 117.572C103.31 117.444 103.005 117.377 102.696 117.377V117.377Z" fill="#D21717"/>
<path d="M154.215 201.087H29.6047V305.276H154.215V201.087Z" fill="#E6E6E6"/>
<path d="M66.5824 327.002C71.618 327.002 75.7002 323.023 75.7002 318.114C75.7002 313.205 71.618 309.226 66.5824 309.226C61.5468 309.226 57.4646 313.205 57.4646 318.114C57.4646 323.023 61.5468 327.002 66.5824 327.002Z" fill="#1C7054"/>
<path d="M71.1415 317.374H67.3424V313.67H65.8228V317.374H62.0237V318.855H65.8228V322.558H67.3424V318.855H71.1415V317.374Z" fill="white"/>
<path d="M114.704 327.002C119.74 327.002 123.822 323.023 123.822 318.114C123.822 313.205 119.74 309.226 114.704 309.226C109.669 309.226 105.586 313.205 105.586 318.114C105.586 323.023 109.669 327.002 114.704 327.002Z" fill="#1C7054"/>
<path d="M119.263 318.855V317.374H110.145V318.855H119.263Z" fill="white"/>
<path d="M116.441 275.104L116.509 275.104C118.856 275.124 121.153 274.453 123.102 273.18C125.052 271.907 126.562 270.091 127.437 267.969C130.193 261.175 130.839 253.741 129.293 246.592C127.747 239.443 124.078 232.895 118.742 227.764C113.407 222.633 106.641 219.145 99.2875 217.734C91.9337 216.324 84.3167 217.053 77.385 219.832C70.4533 222.61 64.5131 227.315 60.3041 233.36C56.0951 239.405 53.8032 246.524 53.7139 253.829C53.6246 261.135 55.7417 268.305 59.8016 274.446C63.8616 280.587 69.685 285.429 76.5468 288.367C78.6795 289.288 81.0477 289.559 83.341 289.144C85.6343 288.73 87.7455 287.649 89.3978 286.044C92.9418 282.572 97.156 279.817 101.797 277.939C106.439 276.061 111.415 275.098 116.441 275.104V275.104Z" fill="white"/>
<path d="M96.8157 263.831C103.783 263.831 109.432 258.325 109.432 251.533C109.432 244.74 103.783 239.234 96.8157 239.234C89.8481 239.234 84.1997 244.74 84.1997 251.533C84.1997 258.325 89.8481 263.831 96.8157 263.831Z" fill="#F9A825"/>
</g>
<defs>
<clipPath id="clip0_69_388">
<rect width="390" height="359.367" fill="white"/>
</clipPath>
</defs>
</svg>
