<svg width="1289" height="606" viewBox="0 0 1289 606" fill="none" xmlns="http://www.w3.org/2000/svg">
<rect x="472" y="36" width="501" height="305" rx="40" fill="#FFD788"/>
<ellipse cx="576" cy="344" rx="181" ry="170" fill="#D21717"/>
<g clip-path="url(#clip0_50_388)">
<path d="M1043.27 493.438C1054.22 497.02 1061.33 505.847 1059.16 513.152C1056.98 520.458 1046.34 523.476 1035.39 519.891C1031 518.522 1026.98 516.07 1023.67 512.74L977.459 496.95L984.988 474.371L1029.75 492.334C1034.27 491.565 1038.91 491.943 1043.27 493.438L1043.27 493.438Z" fill="#FFB6B6"/>
<path d="M944.266 327.768H944.266C933.246 326.4 923.1 334.208 921.047 345.641C913.725 386.42 898.174 474.602 900.222 476.749C902.888 479.544 1002.42 510.292 1002.42 510.292L1013.98 484.203L948.213 450.66L962.636 353.127C964.467 340.746 956.134 329.242 944.266 327.768V327.768Z" fill="#E6E6E6"/>
<path d="M1064.18 535.855C1053.5 540.231 1042.68 537.998 1040.03 530.868C1037.37 523.739 1043.88 514.415 1054.57 510.039C1058.82 508.23 1063.42 507.513 1067.98 507.949L1113.48 490.01L1121.05 512.572L1075.4 527.862C1072.32 531.427 1068.48 534.168 1064.18 535.855H1064.18Z" fill="#A0616A"/>
<path d="M1129.79 342.203H1129.79C1140.7 340.062 1151.32 347.137 1154.1 358.4C1164.02 398.571 1185.19 485.458 1183.28 487.744C1180.8 490.721 1083.46 528.411 1083.46 528.411L1070.26 503.196L1133.73 465.095L1113.09 368.799C1110.47 356.574 1118.04 344.51 1129.79 342.203L1129.79 342.203Z" fill="#E6E6E6"/>
<path d="M936.46 333.626L941.88 298.108L905.292 282.48L899.871 336.468L936.46 333.626Z" fill="#FFB6B6"/>
<path d="M1150.15 339.217L1144.73 303.699L1181.32 288.071L1186.74 342.058L1150.15 339.217Z" fill="#A0616A"/>
<path d="M927.214 309.526C947.82 309.526 964.525 292.012 964.525 270.408C964.525 248.804 947.82 231.291 927.214 231.291C906.607 231.291 889.902 248.804 889.902 270.408C889.902 292.012 906.607 309.526 927.214 309.526Z" fill="#FFB6B6"/>
<path d="M924.236 217.817C925.316 218.478 926.762 217.479 927.108 216.219C927.454 214.96 927.051 213.623 926.651 212.381L924.638 206.13C923.21 201.696 921.695 197.107 918.602 193.733C913.935 188.64 906.518 187.344 899.841 188.283C891.267 189.488 882.806 194.356 878.82 202.405C874.833 210.455 876.53 221.687 883.734 226.709C873.467 239.047 869.888 252.797 870.453 269.16C871.018 285.523 888.026 300.582 899.118 312.109C901.595 310.535 903.846 303.158 902.484 300.478C901.122 297.798 903.074 294.693 901.387 292.224C899.7 289.756 898.289 293.686 899.994 291.232C901.07 289.683 896.87 286.119 898.47 285.192C906.207 280.709 908.78 270.598 913.64 262.855C919.501 253.516 929.533 247.191 940.149 246.142C945.997 245.564 952.174 246.611 956.968 250.17C961.761 253.73 964.864 260.091 963.753 266.138C966.632 263.073 968.065 258.582 967.524 254.319C966.984 250.055 964.482 246.112 960.939 243.942C963.093 236.475 961.248 227.885 956.249 222.106C951.25 216.328 930.97 217.312 923.671 218.833" fill="#2F2E41"/>
<path d="M923.102 246.369C913.436 247.463 906.456 256.242 900.563 264.349C897.166 269.022 893.607 274.182 893.693 280.057C893.779 285.996 897.566 291.09 899.377 296.719C902.336 305.919 899.452 316.866 892.408 323.17C899.368 324.554 906.892 319.083 908.093 311.764C909.492 303.244 903.331 295.02 904.061 286.408C904.704 278.821 910.406 272.982 915.255 267.309C920.103 261.636 924.656 254.109 922.426 246.86" fill="#2F2E41"/>
<path d="M940.687 327.671L898.445 315.558L854.898 334.193L836.235 488.862L942.881 492.589V467.641C942.881 467.641 961.544 443.206 957.989 407.8L954.434 372.394L940.687 327.671H940.687Z" fill="#E6E6E6"/>
<path d="M960.211 390.563L876.671 385.904L854.009 453.456C854.009 453.456 826.014 493.986 821.571 523.802C817.127 553.618 819.793 595.546 819.793 595.546H953.535L942.881 467.641C942.881 467.641 967.754 411.061 964.871 401.278C961.988 391.495 960.211 390.563 960.211 390.563V390.563Z" fill="#3F3D56"/>
<path d="M896.223 316.024H875.782V395.222H896.223V316.024Z" fill="#3F3D56"/>
<path d="M959.322 333.727H938.881V398.949H959.322V333.727Z" fill="#3F3D56"/>
<path d="M1144.15 335.124L1186.39 323.012L1229.94 341.647L1248.6 496.316L1141.95 500.043V475.095C1141.95 475.095 1131.04 449.589 1141.51 415.72C1151.73 382.643 1130.4 379.848 1130.4 379.848L1144.15 335.124V335.124Z" fill="#E6E6E6"/>
<path d="M1124.62 398.017L1208.16 393.358L1230.83 460.909C1230.83 460.909 1244.6 507.031 1249.04 536.846C1253.49 566.662 1265.04 603 1265.04 603H1131.3L1127.29 480.01L1124.62 398.017L1124.62 398.017Z" fill="#3F3D56"/>
<path d="M1209.05 323.478H1188.61V402.676H1209.05V323.478Z" fill="#3F3D56"/>
<path d="M1145.95 341.181H1125.51V406.403H1145.95V341.181Z" fill="#3F3D56"/>
<path d="M1191.46 300.612C1209.71 281.479 1209.71 250.458 1191.46 231.325C1173.21 212.192 1143.62 212.192 1125.37 231.325C1107.12 250.458 1107.12 281.479 1125.37 300.612C1143.62 319.745 1173.21 319.745 1191.46 300.612Z" fill="#A0616A"/>
<path d="M1204.38 292.547C1204.38 292.547 1181.77 264.102 1172.73 266.473C1163.68 268.843 1169.34 272.399 1169.34 272.399L1146.73 246.325C1146.73 246.325 1128.64 239.214 1111.68 261.732C1111.68 261.732 1101.51 242.769 1111.68 232.103C1121.86 221.436 1125.25 222.621 1127.51 216.695C1129.77 210.77 1145.6 206.029 1145.6 206.029C1145.6 206.029 1144.69 197.499 1149.66 201.764C1154.64 206.029 1167.07 206.029 1167.07 206.029C1167.07 206.029 1167.14 201.288 1172.19 206.029C1177.25 210.77 1182.9 208.399 1182.9 208.399C1182.9 208.399 1182.9 216.602 1186.86 216.649C1190.81 216.695 1197.6 210.77 1198.73 215.51C1199.86 220.251 1207.77 222.621 1208.9 236.843C1210.03 251.065 1204.38 292.547 1204.38 292.547Z" fill="#2F2E41"/>
<path d="M1031.06 365.672L1067.25 437.381L1062.29 440.131L1026.1 368.422C1025.58 367.381 1025.96 366.089 1026.95 365.539L1028.31 364.783C1029.31 364.233 1030.54 364.631 1031.06 365.672V365.672Z" fill="#3F3D56"/>
<path d="M1091.34 464.482C1082.14 461.993 1072.51 466.399 1067.89 475.11C1062.1 486.017 1055.5 494.965 1057.71 473.639C1060.14 450.162 1047.01 431.2 1057.33 425.474C1067.66 419.749 1078.32 437.15 1095.1 452.905C1110.65 467.507 1101.68 467.276 1091.34 464.482L1091.34 464.482Z" fill="#3F3D56"/>
<path d="M1038.06 380.179C1048.5 375.184 1059.41 376.779 1062.44 383.742C1065.47 390.704 1059.47 400.396 1049.03 405.391C1044.89 407.446 1040.34 408.432 1035.76 408.264L991.289 428.843L982.523 406.76L1027.29 388.817C1030.17 385.077 1033.86 382.115 1038.06 380.179V380.179Z" fill="#FFB6B6"/>
<path d="M858.871 326.08L858.871 326.08C849.794 332.772 847.209 345.686 852.958 355.637C873.465 391.127 918.02 467.677 920.912 467.843C924.677 468.059 1018.37 421.309 1018.37 421.309L1010.37 393.797L940.042 414.835L888.694 332.111C882.176 321.609 868.647 318.873 858.871 326.08V326.08V326.08Z" fill="#E6E6E6"/>
<path d="M1042.51 490.306L1162.7 423.649L1177.46 452.892C1190.18 478.118 1180.98 509.431 1156.92 522.775L1123.92 541.078C1099.86 554.422 1069.99 544.775 1057.26 519.55L1042.51 490.306V490.306H1042.51Z" fill="#DD0426"/>
<path d="M1144.34 535.113C1133.91 540.11 1122.99 538.516 1119.96 531.553C1116.93 524.591 1122.93 514.899 1133.36 509.902C1137.51 507.846 1142.06 506.86 1146.64 507.027L1191.11 486.442L1199.88 508.523L1155.11 526.473C1152.23 530.213 1148.54 533.176 1144.34 535.113H1144.34Z" fill="#A0616A"/>
<path d="M1234.77 338.018H1234.77C1245.79 336.649 1255.94 344.458 1257.99 355.89C1265.31 396.669 1280.86 484.851 1278.82 486.998C1276.15 489.793 1176.61 520.541 1176.61 520.541L1165.06 494.452L1230.83 460.909L1216.4 363.376C1214.57 350.995 1222.9 339.491 1234.77 338.018V338.018Z" fill="#E6E6E6"/>
</g>
<path d="M668.064 86.392C670.048 86.392 671.584 86.6 672.672 87.016C673.76 87.4 674.688 87.816 675.456 88.264C675.84 88.488 676.144 88.664 676.368 88.792C676.624 88.888 676.864 88.936 677.088 88.936C677.408 88.936 677.632 88.76 677.76 88.408C677.92 88.056 678.048 87.528 678.144 86.824H679.248C679.216 87.464 679.168 88.216 679.104 89.08C679.072 89.944 679.04 91.096 679.008 92.536C679.008 93.944 679.008 95.816 679.008 98.152H677.904C677.776 96.424 677.376 94.76 676.704 93.16C676.032 91.56 675.104 90.232 673.92 89.176C672.768 88.12 671.344 87.592 669.648 87.592C668.176 87.592 666.96 88.008 666 88.84C665.04 89.64 664.56 90.792 664.56 92.296C664.56 93.512 664.864 94.568 665.472 95.464C666.08 96.328 666.992 97.208 668.208 98.104C669.456 99 671.024 100.104 672.912 101.416C674.416 102.408 675.76 103.4 676.944 104.392C678.128 105.384 679.072 106.504 679.776 107.752C680.512 109 680.88 110.504 680.88 112.264C680.88 114.376 680.304 116.136 679.152 117.544C678 118.92 676.48 119.96 674.592 120.664C672.704 121.336 670.64 121.672 668.4 121.672C666.32 121.672 664.656 121.48 663.408 121.096C662.192 120.712 661.152 120.312 660.288 119.896C659.584 119.448 659.04 119.224 658.656 119.224C658.336 119.224 658.096 119.4 657.936 119.752C657.808 120.104 657.696 120.632 657.6 121.336H656.496C656.56 120.536 656.592 119.608 656.592 118.552C656.624 117.464 656.64 116.072 656.64 114.376C656.672 112.68 656.688 110.52 656.688 107.896H657.792C657.92 110.072 658.272 112.104 658.848 113.992C659.456 115.88 660.368 117.416 661.584 118.6C662.832 119.752 664.48 120.328 666.528 120.328C667.68 120.328 668.688 120.136 669.552 119.752C670.416 119.368 671.104 118.808 671.616 118.072C672.128 117.304 672.384 116.376 672.384 115.288C672.384 113.944 672.08 112.776 671.472 111.784C670.864 110.792 670.032 109.864 668.976 109C667.92 108.104 666.688 107.208 665.28 106.312C663.776 105.32 662.368 104.312 661.056 103.288C659.744 102.264 658.688 101.128 657.888 99.88C657.12 98.6 656.736 97.064 656.736 95.272C656.736 93.224 657.264 91.544 658.32 90.232C659.376 88.92 660.768 87.96 662.496 87.352C664.256 86.712 666.112 86.392 668.064 86.392ZM691.327 88.312V96.136H696.511V97.096H691.327V116.728C691.327 117.528 691.471 118.104 691.759 118.456C692.047 118.776 692.479 118.936 693.056 118.936C693.535 118.936 694.031 118.776 694.543 118.456C695.087 118.136 695.583 117.592 696.032 116.824L696.799 117.304C696.191 118.616 695.343 119.672 694.256 120.472C693.199 121.272 691.807 121.672 690.079 121.672C689.023 121.672 688.079 121.528 687.247 121.24C686.447 120.984 685.775 120.584 685.231 120.04C684.527 119.336 684.063 118.472 683.839 117.448C683.647 116.392 683.551 115.032 683.551 113.368V97.096H679.711V96.136H683.551V90.136C685.055 90.136 686.431 89.992 687.679 89.704C688.959 89.416 690.175 88.952 691.327 88.312ZM701.388 121.336C699.916 121.336 698.7 121.064 697.74 120.52C696.78 119.944 696.076 119.192 695.628 118.264C695.18 117.336 694.956 116.344 694.956 115.288C694.956 113.944 695.26 112.84 695.868 111.976C696.508 111.112 697.324 110.424 698.316 109.912C699.308 109.368 700.348 108.92 701.436 108.568C702.524 108.216 703.564 107.88 704.556 107.56C705.548 107.208 706.348 106.808 706.956 106.36C707.564 105.88 707.868 105.272 707.868 104.536V100.552C707.868 99.848 707.756 99.192 707.532 98.584C707.34 97.944 706.972 97.432 706.428 97.048C705.916 96.632 705.196 96.424 704.268 96.424C703.692 96.424 703.132 96.504 702.588 96.664C702.044 96.824 701.564 97.08 701.148 97.432C702.172 97.784 702.924 98.312 703.404 99.016C703.916 99.72 704.172 100.504 704.172 101.368C704.172 102.552 703.756 103.496 702.924 104.2C702.124 104.872 701.164 105.208 700.044 105.208C698.828 105.208 697.884 104.824 697.212 104.056C696.572 103.288 696.252 102.36 696.252 101.272C696.252 100.312 696.492 99.512 696.972 98.872C697.452 98.2 698.156 97.592 699.084 97.048C700.012 96.504 701.132 96.104 702.444 95.848C703.756 95.592 705.148 95.464 706.62 95.464C708.124 95.464 709.5 95.624 710.748 95.944C712.028 96.232 713.116 96.824 714.012 97.72C714.716 98.456 715.164 99.352 715.356 100.408C715.548 101.464 715.644 102.808 715.644 104.44V117.4C715.644 118.2 715.708 118.76 715.836 119.08C715.996 119.368 716.236 119.512 716.556 119.512C716.844 119.512 717.116 119.432 717.372 119.272C717.628 119.112 717.884 118.936 718.14 118.744L718.668 119.56C717.964 120.136 717.132 120.584 716.172 120.904C715.212 121.192 714.172 121.336 713.052 121.336C711.772 121.336 710.764 121.176 710.028 120.856C709.324 120.504 708.812 120.04 708.492 119.464C708.204 118.888 708.044 118.248 708.012 117.544C707.308 118.696 706.428 119.624 705.372 120.328C704.316 121 702.988 121.336 701.388 121.336ZM705.372 117.88C705.884 117.88 706.332 117.784 706.716 117.592C707.132 117.368 707.516 117 707.868 116.488V106.504C707.612 106.952 707.26 107.384 706.812 107.8C706.396 108.184 705.948 108.584 705.468 109C704.988 109.384 704.524 109.816 704.076 110.296C703.66 110.776 703.308 111.352 703.02 112.024C702.764 112.664 702.636 113.448 702.636 114.376C702.636 115.624 702.892 116.52 703.404 117.064C703.916 117.608 704.572 117.88 705.372 117.88ZM734.144 95.464C735.232 95.464 736.096 95.704 736.736 96.184C737.376 96.632 737.84 97.224 738.128 97.96C738.416 98.664 738.56 99.368 738.56 100.072C738.56 101.384 738.176 102.44 737.408 103.24C736.672 104.04 735.696 104.44 734.48 104.44C733.2 104.44 732.224 104.152 731.552 103.576C730.88 102.968 730.544 102.168 730.544 101.176C730.544 100.184 730.752 99.368 731.168 98.728C731.616 98.088 732.16 97.544 732.8 97.096C732.32 97.032 731.856 97.096 731.408 97.288C730.896 97.416 730.416 97.656 729.968 98.008C729.52 98.36 729.136 98.776 728.816 99.256C728.496 99.736 728.24 100.264 728.048 100.84C727.888 101.384 727.808 101.944 727.808 102.52V116.056C727.808 117.592 728.144 118.632 728.816 119.176C729.52 119.72 730.624 119.992 732.128 119.992V121C731.392 120.968 730.304 120.936 728.864 120.904C727.424 120.84 725.936 120.808 724.4 120.808C723.024 120.808 721.632 120.84 720.224 120.904C718.848 120.936 717.824 120.968 717.152 121V119.992C718.208 119.992 718.944 119.752 719.36 119.272C719.808 118.792 720.032 117.88 720.032 116.536V101.368C720.032 99.928 719.824 98.872 719.408 98.2C718.992 97.496 718.24 97.144 717.152 97.144V96.136C718.176 96.232 719.168 96.28 720.128 96.28C721.568 96.28 722.928 96.232 724.208 96.136C725.52 96.008 726.72 95.832 727.808 95.608V99.544C728.192 98.712 728.688 97.992 729.296 97.384C729.936 96.776 730.656 96.312 731.456 95.992C732.288 95.64 733.184 95.464 734.144 95.464ZM747.422 88.312V96.136H752.606V97.096H747.422V116.728C747.422 117.528 747.566 118.104 747.854 118.456C748.142 118.776 748.574 118.936 749.15 118.936C749.63 118.936 750.126 118.776 750.638 118.456C751.182 118.136 751.678 117.592 752.126 116.824L752.894 117.304C752.286 118.616 751.438 119.672 750.35 120.472C749.294 121.272 747.902 121.672 746.174 121.672C745.118 121.672 744.174 121.528 743.342 121.24C742.542 120.984 741.87 120.584 741.326 120.04C740.622 119.336 740.158 118.472 739.934 117.448C739.742 116.392 739.646 115.032 739.646 113.368V97.096H735.806V96.136H739.646V90.136C741.15 90.136 742.526 89.992 743.774 89.704C745.054 89.416 746.27 88.952 747.422 88.312ZM771.431 95.464C774.247 95.464 776.455 96.296 778.055 97.96C779.655 99.624 780.455 102.36 780.455 106.168H765.047L764.999 105.256H773.927C773.991 103.688 773.927 102.248 773.735 100.936C773.543 99.592 773.223 98.52 772.775 97.72C772.359 96.92 771.799 96.52 771.095 96.52C770.135 96.52 769.319 97.208 768.647 98.584C767.975 99.96 767.559 102.296 767.399 105.592L767.591 105.928C767.527 106.28 767.495 106.648 767.495 107.032C767.495 107.384 767.495 107.768 767.495 108.184C767.495 110.392 767.783 112.152 768.359 113.464C768.967 114.776 769.719 115.704 770.615 116.248C771.511 116.792 772.439 117.064 773.399 117.064C773.943 117.064 774.551 116.984 775.223 116.824C775.895 116.664 776.599 116.328 777.335 115.816C778.071 115.304 778.775 114.552 779.447 113.56L780.263 113.848C779.911 115.096 779.303 116.328 778.439 117.544C777.607 118.728 776.535 119.72 775.223 120.52C773.911 121.288 772.327 121.672 770.471 121.672C768.359 121.672 766.471 121.24 764.807 120.376C763.143 119.48 761.815 118.088 760.823 116.2C759.863 114.28 759.383 111.784 759.383 108.712C759.383 105.672 759.911 103.176 760.967 101.224C762.023 99.272 763.463 97.832 765.287 96.904C767.111 95.944 769.159 95.464 771.431 95.464ZM790.645 96.136V97.144C790.005 97.144 789.541 97.288 789.253 97.576C788.997 97.864 789.029 98.264 789.349 98.776L801.925 117.592C802.277 118.072 802.661 118.568 803.077 119.08C803.493 119.592 803.973 119.896 804.517 119.992V121C803.973 120.968 803.157 120.936 802.069 120.904C800.981 120.84 799.893 120.808 798.805 120.808C797.589 120.808 796.357 120.84 795.109 120.904C793.893 120.936 792.981 120.968 792.373 121V119.992C793.013 119.992 793.461 119.848 793.717 119.56C794.005 119.272 793.989 118.872 793.669 118.36L781.093 99.544C780.613 98.776 780.181 98.216 779.797 97.864C779.413 97.48 778.981 97.24 778.501 97.144V96.136C779.109 96.168 780.037 96.216 781.285 96.28C782.533 96.312 783.765 96.328 784.981 96.328C786.069 96.328 787.141 96.312 788.197 96.28C789.285 96.216 790.101 96.168 790.645 96.136ZM788.725 109.72C788.725 109.72 788.741 109.816 788.773 110.008C788.837 110.2 788.885 110.392 788.917 110.584C788.949 110.744 788.965 110.824 788.965 110.824L787.765 112.408C786.741 113.72 786.165 114.936 786.037 116.056C785.941 117.176 786.213 118.104 786.853 118.84C787.493 119.544 788.373 119.944 789.493 120.04V121C788.885 120.968 788.101 120.952 787.141 120.952C786.181 120.92 785.253 120.904 784.357 120.904C783.461 120.872 782.725 120.856 782.149 120.856C781.445 120.856 780.837 120.872 780.325 120.904C779.813 120.904 779.317 120.936 778.837 121V120.04C779.637 119.688 780.373 119.224 781.045 118.648C781.749 118.04 782.501 117.224 783.301 116.2L788.725 109.72ZM802.981 96.136V97.096C802.309 97.352 801.589 97.816 800.821 98.488C800.085 99.128 799.317 99.928 798.517 100.888L793.285 107.224C793.285 107.224 793.253 107.144 793.189 106.984C793.157 106.792 793.125 106.6 793.093 106.408C793.061 106.216 793.045 106.12 793.045 106.12L795.013 103.576C795.941 102.456 796.501 101.416 796.693 100.456C796.885 99.496 796.725 98.728 796.213 98.152C795.733 97.544 794.917 97.192 793.765 97.096V96.136C794.725 96.168 795.749 96.2 796.837 96.232C797.925 96.264 798.869 96.28 799.669 96.28C800.373 96.28 800.981 96.264 801.493 96.232C802.037 96.2 802.533 96.168 802.981 96.136ZM812.965 95.656V124.84C812.965 126.376 813.333 127.4 814.069 127.912C814.837 128.424 815.877 128.68 817.189 128.68V129.688C816.325 129.656 815.125 129.608 813.589 129.544C812.053 129.512 810.437 129.496 808.741 129.496C807.525 129.496 806.309 129.512 805.093 129.544C803.909 129.608 803.013 129.656 802.405 129.688V128.68C803.429 128.68 804.149 128.44 804.565 127.96C804.981 127.512 805.189 126.632 805.189 125.32V101.416C805.189 99.976 804.981 98.92 804.565 98.248C804.149 97.544 803.397 97.192 802.309 97.192V96.184C803.333 96.28 804.325 96.328 805.285 96.328C806.757 96.328 808.133 96.28 809.413 96.184C810.693 96.056 811.877 95.88 812.965 95.656ZM820.309 95.464C821.941 95.464 823.381 95.912 824.629 96.808C825.909 97.672 826.917 99 827.653 100.792C828.421 102.552 828.805 104.776 828.805 107.464C828.805 109.992 828.517 112.152 827.941 113.944C827.397 115.736 826.613 117.208 825.589 118.36C824.597 119.512 823.413 120.36 822.037 120.904C820.693 121.416 819.237 121.672 817.669 121.672C816.485 121.672 815.381 121.496 814.357 121.144C813.365 120.824 812.581 120.296 812.005 119.56L812.485 118.936C812.773 119.384 813.173 119.72 813.685 119.944C814.197 120.168 814.741 120.28 815.317 120.28C816.629 120.28 817.669 119.832 818.437 118.936C819.237 118.008 819.813 116.664 820.165 114.904C820.517 113.144 820.693 111 820.693 108.472C820.693 105.688 820.533 103.528 820.213 101.992C819.893 100.424 819.461 99.32 818.917 98.68C818.373 98.04 817.733 97.72 816.997 97.72C815.973 97.72 815.045 98.12 814.213 98.92C813.413 99.688 812.965 100.744 812.869 102.088L812.773 100.072C813.445 98.536 814.437 97.384 815.749 96.616C817.061 95.848 818.581 95.464 820.309 95.464ZM839.195 83.464V116.536C839.195 117.88 839.403 118.792 839.819 119.272C840.267 119.752 841.019 119.992 842.075 119.992V121C841.467 120.968 840.539 120.936 839.291 120.904C838.043 120.84 836.763 120.808 835.451 120.808C834.171 120.808 832.859 120.84 831.515 120.904C830.203 120.936 829.211 120.968 828.539 121V119.992C829.595 119.992 830.331 119.752 830.747 119.272C831.195 118.792 831.419 117.88 831.419 116.536V89.176C831.419 87.768 831.211 86.728 830.795 86.056C830.411 85.352 829.659 85 828.539 85V83.992C829.563 84.088 830.555 84.136 831.515 84.136C832.987 84.136 834.363 84.088 835.643 83.992C836.923 83.864 838.107 83.688 839.195 83.464ZM853.333 95.464C855.733 95.464 857.829 95.896 859.621 96.76C861.445 97.592 862.853 98.968 863.845 100.888C864.869 102.808 865.381 105.368 865.381 108.568C865.381 111.768 864.869 114.328 863.845 116.248C862.853 118.168 861.445 119.56 859.621 120.424C857.829 121.256 855.733 121.672 853.333 121.672C850.965 121.672 848.869 121.256 847.045 120.424C845.253 119.56 843.845 118.168 842.821 116.248C841.797 114.328 841.285 111.768 841.285 108.568C841.285 105.368 841.797 102.808 842.821 100.888C843.845 98.968 845.253 97.592 847.045 96.76C848.869 95.896 850.965 95.464 853.333 95.464ZM853.333 96.424C852.213 96.424 851.269 97.384 850.501 99.304C849.765 101.192 849.397 104.28 849.397 108.568C849.397 112.856 849.765 115.96 850.501 117.88C851.269 119.768 852.213 120.712 853.333 120.712C854.485 120.712 855.429 119.768 856.165 117.88C856.901 115.96 857.269 112.856 857.269 108.568C857.269 104.28 856.901 101.192 856.165 99.304C855.429 97.384 854.485 96.424 853.333 96.424ZM882.244 95.464C883.332 95.464 884.196 95.704 884.836 96.184C885.476 96.632 885.94 97.224 886.228 97.96C886.516 98.664 886.66 99.368 886.66 100.072C886.66 101.384 886.276 102.44 885.508 103.24C884.772 104.04 883.796 104.44 882.58 104.44C881.3 104.44 880.324 104.152 879.652 103.576C878.98 102.968 878.644 102.168 878.644 101.176C878.644 100.184 878.852 99.368 879.268 98.728C879.716 98.088 880.26 97.544 880.9 97.096C880.42 97.032 879.956 97.096 879.508 97.288C878.996 97.416 878.516 97.656 878.068 98.008C877.62 98.36 877.236 98.776 876.916 99.256C876.596 99.736 876.34 100.264 876.148 100.84C875.988 101.384 875.908 101.944 875.908 102.52V116.056C875.908 117.592 876.244 118.632 876.916 119.176C877.62 119.72 878.724 119.992 880.228 119.992V121C879.492 120.968 878.404 120.936 876.964 120.904C875.524 120.84 874.036 120.808 872.5 120.808C871.124 120.808 869.732 120.84 868.324 120.904C866.948 120.936 865.924 120.968 865.252 121V119.992C866.308 119.992 867.044 119.752 867.46 119.272C867.908 118.792 868.132 117.88 868.132 116.536V101.368C868.132 99.928 867.924 98.872 867.508 98.2C867.092 97.496 866.34 97.144 865.252 97.144V96.136C866.276 96.232 867.268 96.28 868.228 96.28C869.668 96.28 871.028 96.232 872.308 96.136C873.62 96.008 874.82 95.832 875.908 95.608V99.544C876.292 98.712 876.788 97.992 877.396 97.384C878.036 96.776 878.756 96.312 879.556 95.992C880.388 95.64 881.284 95.464 882.244 95.464ZM891.539 83.608C893.043 83.608 894.211 83.944 895.043 84.616C895.907 85.288 896.339 86.264 896.339 87.544C896.339 88.824 895.907 89.8 895.043 90.472C894.211 91.144 893.043 91.48 891.539 91.48C890.035 91.48 888.851 91.144 887.987 90.472C887.155 89.8 886.739 88.824 886.739 87.544C886.739 86.264 887.155 85.288 887.987 84.616C888.851 83.944 890.035 83.608 891.539 83.608ZM895.763 95.608V116.536C895.763 117.88 895.971 118.792 896.387 119.272C896.835 119.752 897.587 119.992 898.643 119.992V121C898.003 120.968 897.059 120.936 895.811 120.904C894.563 120.84 893.299 120.808 892.019 120.808C890.739 120.808 889.427 120.84 888.083 120.904C886.771 120.936 885.779 120.968 885.107 121V119.992C886.163 119.992 886.899 119.752 887.315 119.272C887.763 118.792 887.987 117.88 887.987 116.536V101.368C887.987 99.928 887.779 98.872 887.363 98.2C886.947 97.496 886.195 97.144 885.107 97.144V96.136C886.131 96.232 887.123 96.28 888.083 96.28C889.523 96.28 890.883 96.232 892.163 96.136C893.475 96.008 894.675 95.832 895.763 95.608ZM916.126 95.464C917.534 95.464 918.654 95.64 919.486 95.992C920.35 96.344 921.006 96.792 921.454 97.336C921.966 97.944 922.334 98.728 922.558 99.688C922.814 100.648 922.942 101.944 922.942 103.576V116.536C922.942 117.88 923.15 118.792 923.566 119.272C924.014 119.752 924.766 119.992 925.822 119.992V121C925.182 120.968 924.222 120.936 922.942 120.904C921.694 120.84 920.478 120.808 919.294 120.808C917.982 120.808 916.718 120.84 915.502 120.904C914.286 120.936 913.374 120.968 912.766 121V119.992C913.662 119.992 914.286 119.752 914.638 119.272C914.99 118.792 915.166 117.88 915.166 116.536V101.272C915.166 100.536 915.086 99.912 914.926 99.4C914.766 98.856 914.494 98.456 914.11 98.2C913.726 97.912 913.182 97.768 912.478 97.768C911.742 97.768 911.054 97.96 910.414 98.344C909.806 98.728 909.31 99.272 908.926 99.976C908.574 100.648 908.398 101.416 908.398 102.28V116.536C908.398 117.88 908.574 118.792 908.926 119.272C909.278 119.752 909.902 119.992 910.798 119.992V121C910.19 120.968 909.31 120.936 908.158 120.904C907.006 120.84 905.838 120.808 904.654 120.808C903.342 120.808 902.03 120.84 900.718 120.904C899.406 120.936 898.414 120.968 897.742 121V119.992C898.798 119.992 899.534 119.752 899.95 119.272C900.398 118.792 900.622 117.88 900.622 116.536V101.368C900.622 99.928 900.414 98.872 899.998 98.2C899.582 97.496 898.83 97.144 897.742 97.144V96.136C898.766 96.232 899.758 96.28 900.718 96.28C902.158 96.28 903.518 96.232 904.798 96.136C906.11 96.008 907.31 95.832 908.398 95.608V99.496C909.166 98.024 910.206 96.984 911.518 96.376C912.862 95.768 914.398 95.464 916.126 95.464ZM933.708 130.024C931.628 130.024 929.804 129.848 928.236 129.496C926.668 129.176 925.452 128.68 924.588 128.008C923.724 127.368 923.292 126.584 923.292 125.656C923.292 124.696 923.74 123.816 924.636 123.016C925.532 122.248 926.908 121.64 928.764 121.192L929.196 121.96C928.652 122.504 928.268 123.032 928.044 123.544C927.82 124.088 927.708 124.616 927.708 125.128C927.708 126.44 928.3 127.448 929.484 128.152C930.668 128.856 932.3 129.208 934.38 129.208C935.82 129.208 937.068 129 938.124 128.584C939.18 128.2 939.996 127.64 940.572 126.904C941.148 126.168 941.436 125.304 941.436 124.312C941.436 123.384 941.084 122.6 940.38 121.96C939.708 121.32 938.332 121 936.252 121H933.468C932.092 121 930.908 120.824 929.916 120.472C928.924 120.12 928.156 119.624 927.612 118.984C927.1 118.344 926.844 117.544 926.844 116.584C926.844 115.144 927.404 113.928 928.524 112.936C929.644 111.912 931.196 110.968 933.18 110.104L933.612 110.488C933.132 110.776 932.668 111.112 932.22 111.496C931.804 111.88 931.596 112.392 931.596 113.032C931.596 114.056 932.204 114.568 933.42 114.568H938.364C940.284 114.568 941.98 114.792 943.452 115.24C944.924 115.656 946.076 116.36 946.908 117.352C947.772 118.312 948.204 119.576 948.204 121.144C948.204 122.744 947.692 124.216 946.668 125.56C945.644 126.904 944.06 127.976 941.916 128.776C939.804 129.608 937.068 130.024 933.708 130.024ZM934.332 110.776C932.412 110.776 930.7 110.504 929.196 109.96C927.724 109.416 926.556 108.584 925.692 107.464C924.828 106.312 924.396 104.856 924.396 103.096C924.396 101.336 924.828 99.896 925.692 98.776C926.556 97.656 927.724 96.824 929.196 96.28C930.7 95.736 932.412 95.464 934.332 95.464C936.22 95.464 937.916 95.736 939.42 96.28C940.924 96.824 942.108 97.656 942.972 98.776C943.836 99.896 944.268 101.336 944.268 103.096C944.268 104.856 943.836 106.312 942.972 107.464C942.108 108.584 940.924 109.416 939.42 109.96C937.916 110.504 936.22 110.776 934.332 110.776ZM934.332 109.912C935.036 109.912 935.596 109.416 936.012 108.424C936.46 107.432 936.684 105.656 936.684 103.096C936.684 100.536 936.46 98.776 936.012 97.816C935.596 96.824 935.036 96.328 934.332 96.328C933.596 96.328 933.02 96.824 932.604 97.816C932.188 98.776 931.98 100.536 931.98 103.096C931.98 105.656 932.188 107.432 932.604 108.424C933.02 109.416 933.596 109.912 934.332 109.912ZM941.964 99.64L940.956 99.304C941.468 97.992 942.252 96.936 943.308 96.136C944.396 95.304 945.58 94.888 946.86 94.888C947.916 94.888 948.7 95.176 949.212 95.752C949.756 96.328 950.028 97.08 950.028 98.008C950.028 98.936 949.772 99.656 949.26 100.168C948.78 100.648 948.204 100.888 947.532 100.888C946.956 100.888 946.428 100.696 945.948 100.312C945.468 99.896 945.196 99.288 945.132 98.488C945.068 97.656 945.356 96.616 945.996 95.368L946.284 95.656C945.1 96.072 944.188 96.584 943.548 97.192C942.94 97.8 942.412 98.616 941.964 99.64ZM966.315 88.312V96.136H971.499V97.096H966.315V116.728C966.315 117.528 966.459 118.104 966.747 118.456C967.035 118.776 967.467 118.936 968.043 118.936C968.523 118.936 969.019 118.776 969.531 118.456C970.075 118.136 970.571 117.592 971.019 116.824L971.787 117.304C971.179 118.616 970.331 119.672 969.243 120.472C968.187 121.272 966.795 121.672 965.067 121.672C964.011 121.672 963.067 121.528 962.235 121.24C961.435 120.984 960.763 120.584 960.219 120.04C959.515 119.336 959.051 118.472 958.827 117.448C958.635 116.392 958.539 115.032 958.539 113.368V97.096H954.699V96.136H958.539V90.136C960.043 90.136 961.419 89.992 962.667 89.704C963.947 89.416 965.163 88.952 966.315 88.312ZM980.263 83.464V99.496C981.063 98.024 982.119 96.984 983.431 96.376C984.775 95.768 986.311 95.464 988.039 95.464C989.447 95.464 990.567 95.64 991.399 95.992C992.263 96.344 992.919 96.792 993.367 97.336C993.879 97.944 994.247 98.728 994.471 99.688C994.695 100.648 994.807 101.944 994.807 103.576V116.536C994.807 117.88 995.015 118.792 995.431 119.272C995.879 119.752 996.631 119.992 997.687 119.992V121C997.079 120.968 996.135 120.936 994.855 120.904C993.607 120.84 992.375 120.808 991.159 120.808C989.879 120.808 988.631 120.84 987.415 120.904C986.199 120.936 985.271 120.968 984.631 121V119.992C985.527 119.992 986.151 119.752 986.503 119.272C986.855 118.792 987.031 117.88 987.031 116.536V101.272C987.031 100.536 986.951 99.912 986.791 99.4C986.631 98.856 986.359 98.456 985.975 98.2C985.623 97.912 985.095 97.768 984.391 97.768C983.655 97.768 982.967 97.96 982.327 98.344C981.719 98.696 981.223 99.224 980.839 99.928C980.455 100.6 980.263 101.384 980.263 102.28V116.536C980.263 117.88 980.439 118.792 980.791 119.272C981.175 119.752 981.799 119.992 982.663 119.992V121C982.087 120.968 981.223 120.936 980.071 120.904C978.919 120.84 977.735 120.808 976.519 120.808C975.239 120.808 973.927 120.84 972.583 120.904C971.271 120.936 970.279 120.968 969.607 121V119.992C970.663 119.992 971.399 119.752 971.815 119.272C972.263 118.792 972.487 117.88 972.487 116.536V89.224C972.487 87.784 972.279 86.728 971.863 86.056C971.479 85.352 970.727 85 969.607 85V83.992C970.631 84.088 971.623 84.136 972.583 84.136C974.055 84.136 975.431 84.088 976.711 83.992C977.991 83.864 979.175 83.688 980.263 83.464ZM1009.07 95.464C1011.89 95.464 1014.1 96.296 1015.7 97.96C1017.3 99.624 1018.1 102.36 1018.1 106.168H1002.69L1002.64 105.256H1011.57C1011.63 103.688 1011.57 102.248 1011.38 100.936C1011.19 99.592 1010.87 98.52 1010.42 97.72C1010 96.92 1009.44 96.52 1008.74 96.52C1007.78 96.52 1006.96 97.208 1006.29 98.584C1005.62 99.96 1005.2 102.296 1005.04 105.592L1005.23 105.928C1005.17 106.28 1005.14 106.648 1005.14 107.032C1005.14 107.384 1005.14 107.768 1005.14 108.184C1005.14 110.392 1005.43 112.152 1006 113.464C1006.61 114.776 1007.36 115.704 1008.26 116.248C1009.15 116.792 1010.08 117.064 1011.04 117.064C1011.59 117.064 1012.19 116.984 1012.87 116.824C1013.54 116.664 1014.24 116.328 1014.98 115.816C1015.71 115.304 1016.42 114.552 1017.09 113.56L1017.91 113.848C1017.55 115.096 1016.95 116.328 1016.08 117.544C1015.25 118.728 1014.18 119.72 1012.87 120.52C1011.55 121.288 1009.97 121.672 1008.11 121.672C1006 121.672 1004.11 121.24 1002.45 120.376C1000.79 119.48 999.458 118.088 998.466 116.2C997.506 114.28 997.026 111.784 997.026 108.712C997.026 105.672 997.554 103.176 998.61 101.224C999.666 99.272 1001.11 97.832 1002.93 96.904C1004.75 95.944 1006.8 95.464 1009.07 95.464ZM1038.42 95.464C1039.77 95.464 1040.97 95.608 1042.02 95.896C1043.08 96.152 1043.94 96.488 1044.62 96.904C1045.45 97.416 1046.12 98.072 1046.63 98.872C1047.14 99.672 1047.4 100.6 1047.4 101.656C1047.4 102.872 1047 103.896 1046.2 104.728C1045.4 105.528 1044.39 105.928 1043.18 105.928C1041.93 105.928 1040.94 105.56 1040.2 104.824C1039.5 104.088 1039.14 103.144 1039.14 101.992C1039.14 100.872 1039.5 99.928 1040.2 99.16C1040.9 98.392 1041.74 97.88 1042.7 97.624C1042.44 97.368 1042.1 97.16 1041.69 97C1041.3 96.84 1040.84 96.76 1040.3 96.76C1039.21 96.76 1038.3 97.08 1037.56 97.72C1036.82 98.328 1036.22 99.176 1035.74 100.264C1035.29 101.32 1034.95 102.52 1034.73 103.864C1034.54 105.176 1034.44 106.536 1034.44 107.944C1034.44 110.312 1034.74 112.168 1035.35 113.512C1035.99 114.824 1036.78 115.752 1037.7 116.296C1038.66 116.808 1039.64 117.064 1040.63 117.064C1041.14 117.064 1041.74 116.984 1042.41 116.824C1043.08 116.664 1043.78 116.328 1044.52 115.816C1045.29 115.304 1046.01 114.536 1046.68 113.512L1047.5 113.8C1047.14 115.048 1046.55 116.28 1045.72 117.496C1044.89 118.712 1043.82 119.72 1042.5 120.52C1041.19 121.288 1039.59 121.672 1037.7 121.672C1035.59 121.672 1033.67 121.24 1031.94 120.376C1030.25 119.512 1028.89 118.12 1027.86 116.2C1026.84 114.28 1026.33 111.768 1026.33 108.664C1026.33 105.656 1026.86 103.192 1027.91 101.272C1028.97 99.32 1030.41 97.864 1032.23 96.904C1034.09 95.944 1036.15 95.464 1038.42 95.464ZM1071.54 95.608V115.768C1071.54 117.208 1071.75 118.28 1072.17 118.984C1072.62 119.656 1073.37 119.992 1074.42 119.992V121C1073.43 120.904 1072.44 120.856 1071.45 120.856C1069.98 120.856 1068.6 120.904 1067.32 121C1066.07 121.096 1064.89 121.272 1063.77 121.528V117.64C1063 119.08 1061.94 120.12 1060.6 120.76C1059.29 121.368 1057.78 121.672 1056.09 121.672C1054.68 121.672 1053.54 121.496 1052.68 121.144C1051.85 120.792 1051.21 120.328 1050.76 119.752C1050.25 119.176 1049.88 118.408 1049.66 117.448C1049.43 116.456 1049.32 115.16 1049.32 113.56V101.368C1049.32 99.928 1049.11 98.872 1048.7 98.2C1048.28 97.496 1047.53 97.144 1046.44 97.144V96.136C1047.46 96.232 1048.46 96.28 1049.42 96.28C1050.89 96.28 1052.26 96.232 1053.54 96.136C1054.82 96.008 1056.01 95.832 1057.1 95.608V115.864C1057.1 116.6 1057.18 117.224 1057.34 117.736C1057.5 118.248 1057.77 118.648 1058.15 118.936C1058.54 119.224 1059.05 119.368 1059.69 119.368C1060.42 119.368 1061.1 119.176 1061.7 118.792C1062.31 118.408 1062.81 117.88 1063.19 117.208C1063.58 116.504 1063.77 115.72 1063.77 114.856V101.368C1063.77 99.928 1063.56 98.872 1063.14 98.2C1062.73 97.496 1061.98 97.144 1060.89 97.144V96.136C1061.91 96.232 1062.9 96.28 1063.86 96.28C1065.34 96.28 1066.71 96.232 1067.99 96.136C1069.27 96.008 1070.46 95.832 1071.54 95.608ZM1084.04 83.464V116.536C1084.04 117.88 1084.24 118.792 1084.66 119.272C1085.11 119.752 1085.86 119.992 1086.92 119.992V121C1086.31 120.968 1085.38 120.936 1084.13 120.904C1082.88 120.84 1081.6 120.808 1080.29 120.808C1079.01 120.808 1077.7 120.84 1076.36 120.904C1075.04 120.936 1074.05 120.968 1073.38 121V119.992C1074.44 119.992 1075.17 119.752 1075.59 119.272C1076.04 118.792 1076.26 117.88 1076.26 116.536V89.176C1076.26 87.768 1076.05 86.728 1075.64 86.056C1075.25 85.352 1074.5 85 1073.38 85V83.992C1074.4 84.088 1075.4 84.136 1076.36 84.136C1077.83 84.136 1079.2 84.088 1080.48 83.992C1081.76 83.864 1082.95 83.688 1084.04 83.464ZM1092.5 83.608C1094 83.608 1095.17 83.944 1096 84.616C1096.87 85.288 1097.3 86.264 1097.3 87.544C1097.3 88.824 1096.87 89.8 1096 90.472C1095.17 91.144 1094 91.48 1092.5 91.48C1091 91.48 1089.81 91.144 1088.95 90.472C1088.12 89.8 1087.7 88.824 1087.7 87.544C1087.7 86.264 1088.12 85.288 1088.95 84.616C1089.81 83.944 1091 83.608 1092.5 83.608ZM1096.72 95.608V116.536C1096.72 117.88 1096.93 118.792 1097.35 119.272C1097.8 119.752 1098.55 119.992 1099.6 119.992V121C1098.96 120.968 1098.02 120.936 1096.77 120.904C1095.52 120.84 1094.26 120.808 1092.98 120.808C1091.7 120.808 1090.39 120.84 1089.04 120.904C1087.73 120.936 1086.74 120.968 1086.07 121V119.992C1087.12 119.992 1087.86 119.752 1088.28 119.272C1088.72 118.792 1088.95 117.88 1088.95 116.536V101.368C1088.95 99.928 1088.74 98.872 1088.32 98.2C1087.91 97.496 1087.16 97.144 1086.07 97.144V96.136C1087.09 96.232 1088.08 96.28 1089.04 96.28C1090.48 96.28 1091.84 96.232 1093.12 96.136C1094.44 96.008 1095.64 95.832 1096.72 95.608ZM1117.09 95.464C1118.49 95.464 1119.61 95.64 1120.45 95.992C1121.31 96.344 1121.97 96.792 1122.41 97.336C1122.93 97.944 1123.29 98.728 1123.52 99.688C1123.77 100.648 1123.9 101.944 1123.9 103.576V116.536C1123.9 117.88 1124.11 118.792 1124.53 119.272C1124.97 119.752 1125.73 119.992 1126.78 119.992V121C1126.14 120.968 1125.18 120.936 1123.9 120.904C1122.65 120.84 1121.44 120.808 1120.25 120.808C1118.94 120.808 1117.68 120.84 1116.46 120.904C1115.25 120.936 1114.33 120.968 1113.73 121V119.992C1114.62 119.992 1115.25 119.752 1115.6 119.272C1115.95 118.792 1116.13 117.88 1116.13 116.536V101.272C1116.13 100.536 1116.05 99.912 1115.89 99.4C1115.73 98.856 1115.45 98.456 1115.07 98.2C1114.69 97.912 1114.14 97.768 1113.44 97.768C1112.7 97.768 1112.01 97.96 1111.37 98.344C1110.77 98.728 1110.27 99.272 1109.89 99.976C1109.53 100.648 1109.36 101.416 1109.36 102.28V116.536C1109.36 117.88 1109.53 118.792 1109.89 119.272C1110.24 119.752 1110.86 119.992 1111.76 119.992V121C1111.15 120.968 1110.27 120.936 1109.12 120.904C1107.97 120.84 1106.8 120.808 1105.61 120.808C1104.3 120.808 1102.99 120.84 1101.68 120.904C1100.37 120.936 1099.37 120.968 1098.7 121V119.992C1099.76 119.992 1100.49 119.752 1100.91 119.272C1101.36 118.792 1101.58 117.88 1101.58 116.536V101.368C1101.58 99.928 1101.37 98.872 1100.96 98.2C1100.54 97.496 1099.79 97.144 1098.7 97.144V96.136C1099.73 96.232 1100.72 96.28 1101.68 96.28C1103.12 96.28 1104.48 96.232 1105.76 96.136C1107.07 96.008 1108.27 95.832 1109.36 95.608V99.496C1110.13 98.024 1111.17 96.984 1112.48 96.376C1113.82 95.768 1115.36 95.464 1117.09 95.464ZM1132.07 121.336C1130.6 121.336 1129.38 121.064 1128.42 120.52C1127.46 119.944 1126.76 119.192 1126.31 118.264C1125.86 117.336 1125.64 116.344 1125.64 115.288C1125.64 113.944 1125.94 112.84 1126.55 111.976C1127.19 111.112 1128.01 110.424 1129 109.912C1129.99 109.368 1131.03 108.92 1132.12 108.568C1133.21 108.216 1134.25 107.88 1135.24 107.56C1136.23 107.208 1137.03 106.808 1137.64 106.36C1138.25 105.88 1138.55 105.272 1138.55 104.536V100.552C1138.55 99.848 1138.44 99.192 1138.21 98.584C1138.02 97.944 1137.65 97.432 1137.11 97.048C1136.6 96.632 1135.88 96.424 1134.95 96.424C1134.37 96.424 1133.81 96.504 1133.27 96.664C1132.73 96.824 1132.25 97.08 1131.83 97.432C1132.85 97.784 1133.61 98.312 1134.09 99.016C1134.6 99.72 1134.85 100.504 1134.85 101.368C1134.85 102.552 1134.44 103.496 1133.61 104.2C1132.81 104.872 1131.85 105.208 1130.73 105.208C1129.51 105.208 1128.57 104.824 1127.89 104.056C1127.25 103.288 1126.93 102.36 1126.93 101.272C1126.93 100.312 1127.17 99.512 1127.65 98.872C1128.13 98.2 1128.84 97.592 1129.77 97.048C1130.69 96.504 1131.81 96.104 1133.13 95.848C1134.44 95.592 1135.83 95.464 1137.3 95.464C1138.81 95.464 1140.18 95.624 1141.43 95.944C1142.71 96.232 1143.8 96.824 1144.69 97.72C1145.4 98.456 1145.85 99.352 1146.04 100.408C1146.23 101.464 1146.33 102.808 1146.33 104.44V117.4C1146.33 118.2 1146.39 118.76 1146.52 119.08C1146.68 119.368 1146.92 119.512 1147.24 119.512C1147.53 119.512 1147.8 119.432 1148.05 119.272C1148.31 119.112 1148.57 118.936 1148.82 118.744L1149.35 119.56C1148.65 120.136 1147.81 120.584 1146.85 120.904C1145.89 121.192 1144.85 121.336 1143.73 121.336C1142.45 121.336 1141.45 121.176 1140.71 120.856C1140.01 120.504 1139.49 120.04 1139.17 119.464C1138.89 118.888 1138.73 118.248 1138.69 117.544C1137.99 118.696 1137.11 119.624 1136.05 120.328C1135 121 1133.67 121.336 1132.07 121.336ZM1136.05 117.88C1136.57 117.88 1137.01 117.784 1137.4 117.592C1137.81 117.368 1138.2 117 1138.55 116.488V106.504C1138.29 106.952 1137.94 107.384 1137.49 107.8C1137.08 108.184 1136.63 108.584 1136.15 109C1135.67 109.384 1135.21 109.816 1134.76 110.296C1134.34 110.776 1133.99 111.352 1133.7 112.024C1133.45 112.664 1133.32 113.448 1133.32 114.376C1133.32 115.624 1133.57 116.52 1134.09 117.064C1134.6 117.608 1135.25 117.88 1136.05 117.88ZM1164.83 95.464C1165.91 95.464 1166.78 95.704 1167.42 96.184C1168.06 96.632 1168.52 97.224 1168.81 97.96C1169.1 98.664 1169.24 99.368 1169.24 100.072C1169.24 101.384 1168.86 102.44 1168.09 103.24C1167.35 104.04 1166.38 104.44 1165.16 104.44C1163.88 104.44 1162.91 104.152 1162.23 103.576C1161.56 102.968 1161.23 102.168 1161.23 101.176C1161.23 100.184 1161.43 99.368 1161.85 98.728C1162.3 98.088 1162.84 97.544 1163.48 97.096C1163 97.032 1162.54 97.096 1162.09 97.288C1161.58 97.416 1161.1 97.656 1160.65 98.008C1160.2 98.36 1159.82 98.776 1159.5 99.256C1159.18 99.736 1158.92 100.264 1158.73 100.84C1158.57 101.384 1158.49 101.944 1158.49 102.52V116.056C1158.49 117.592 1158.83 118.632 1159.5 119.176C1160.2 119.72 1161.31 119.992 1162.81 119.992V121C1162.07 120.968 1160.99 120.936 1159.55 120.904C1158.11 120.84 1156.62 120.808 1155.08 120.808C1153.71 120.808 1152.31 120.84 1150.91 120.904C1149.53 120.936 1148.51 120.968 1147.83 121V119.992C1148.89 119.992 1149.63 119.752 1150.04 119.272C1150.49 118.792 1150.71 117.88 1150.71 116.536V101.368C1150.71 99.928 1150.51 98.872 1150.09 98.2C1149.67 97.496 1148.92 97.144 1147.83 97.144V96.136C1148.86 96.232 1149.85 96.28 1150.81 96.28C1152.25 96.28 1153.61 96.232 1154.89 96.136C1156.2 96.008 1157.4 95.832 1158.49 95.608V99.544C1158.87 98.712 1159.37 97.992 1159.98 97.384C1160.62 96.776 1161.34 96.312 1162.14 95.992C1162.97 95.64 1163.87 95.464 1164.83 95.464ZM1191.5 96.136V97.144C1190.89 97.336 1190.3 97.736 1189.72 98.344C1189.18 98.952 1188.65 100.008 1188.14 101.512L1181.75 119.944L1179.64 124.408L1168.65 99.832C1168.1 98.616 1167.58 97.864 1167.06 97.576C1166.55 97.288 1166.12 97.144 1165.77 97.144V96.136C1166.95 96.232 1168.17 96.312 1169.42 96.376C1170.66 96.408 1171.85 96.424 1172.97 96.424C1174.38 96.424 1175.62 96.392 1176.71 96.328C1177.8 96.264 1178.82 96.2 1179.78 96.136V97.144C1179.18 97.144 1178.6 97.176 1178.06 97.24C1177.51 97.304 1177.13 97.496 1176.9 97.816C1176.71 98.104 1176.78 98.632 1177.1 99.4L1183.19 113.992L1182.71 114.328L1185.64 105.832C1186.31 103.88 1186.6 102.28 1186.5 101.032C1186.41 99.784 1186.04 98.84 1185.4 98.2C1184.76 97.56 1183.94 97.208 1182.95 97.144V96.136C1183.43 96.168 1183.96 96.2 1184.54 96.232C1185.14 96.264 1185.74 96.296 1186.31 96.328C1186.89 96.328 1187.38 96.328 1187.8 96.328C1188.41 96.328 1189.08 96.312 1189.82 96.28C1190.55 96.248 1191.11 96.2 1191.5 96.136ZM1181.75 119.944L1179.83 125.416C1179.54 126.216 1179.22 126.904 1178.87 127.48C1178.55 128.056 1178.17 128.52 1177.72 128.872C1177.27 129.224 1176.7 129.496 1175.99 129.688C1175.32 129.912 1174.46 130.024 1173.4 130.024C1172.57 130.024 1171.69 129.88 1170.76 129.592C1169.86 129.336 1169.1 128.904 1168.46 128.296C1167.85 127.688 1167.54 126.872 1167.54 125.848C1167.54 124.792 1167.93 123.944 1168.7 123.304C1169.46 122.696 1170.5 122.392 1171.82 122.392C1173 122.392 1173.94 122.664 1174.65 123.208C1175.38 123.752 1175.75 124.568 1175.75 125.656C1175.75 126.328 1175.53 126.984 1175.08 127.624C1174.63 128.264 1173.93 128.744 1172.97 129.064C1173.19 129.096 1173.43 129.112 1173.69 129.112C1173.98 129.144 1174.2 129.16 1174.36 129.16C1175.35 129.16 1176.23 128.84 1177 128.2C1177.77 127.592 1178.38 126.632 1178.82 125.32L1180.5 120.232L1181.75 119.944ZM667.488 160.136V161.144C666.784 161.144 666.192 161.192 665.712 161.288C665.232 161.352 664.896 161.544 664.704 161.864C664.544 162.184 664.56 162.696 664.752 163.4L669.168 177.656L668.448 178.52L673.584 160.136L674.592 160.616L667.728 185.048C667.088 184.984 666.432 184.952 665.76 184.952C665.12 184.952 664.48 184.984 663.84 185.048L656.352 163.832C655.904 162.552 655.408 161.784 654.864 161.528C654.352 161.272 653.92 161.144 653.568 161.144V160.136C654.72 160.232 655.92 160.312 657.168 160.376C658.416 160.408 659.776 160.424 661.248 160.424C662.24 160.424 663.28 160.392 664.368 160.328C665.488 160.264 666.528 160.2 667.488 160.136ZM692.112 160.136V161.144C691.504 161.336 690.912 161.736 690.336 162.344C689.792 162.92 689.264 163.976 688.752 165.512L682.56 185.048C681.92 184.984 681.28 184.952 680.64 184.952C680 184.952 679.344 184.984 678.672 185.048L672.288 166.952L673.632 160.136C674.336 160.168 675.056 160.184 675.792 160.184C676.528 160.184 677.248 160.168 677.952 160.136L684.192 179.384L683.616 178.568L686.352 169.832C686.96 167.848 687.184 166.232 687.024 164.984C686.896 163.736 686.48 162.808 685.776 162.2C685.104 161.56 684.256 161.208 683.232 161.144V160.136C683.68 160.168 684.24 160.2 684.912 160.232C685.584 160.264 686.24 160.296 686.88 160.328C687.52 160.328 688.032 160.328 688.416 160.328C689.024 160.328 689.696 160.312 690.432 160.28C691.168 160.248 691.728 160.2 692.112 160.136ZM702.019 159.464C704.419 159.464 706.515 159.896 708.307 160.76C710.131 161.592 711.539 162.968 712.531 164.888C713.555 166.808 714.067 169.368 714.067 172.568C714.067 175.768 713.555 178.328 712.531 180.248C711.539 182.168 710.131 183.56 708.307 184.424C706.515 185.256 704.419 185.672 702.019 185.672C699.651 185.672 697.555 185.256 695.731 184.424C693.939 183.56 692.531 182.168 691.507 180.248C690.483 178.328 689.971 175.768 689.971 172.568C689.971 169.368 690.483 166.808 691.507 164.888C692.531 162.968 693.939 161.592 695.731 160.76C697.555 159.896 699.651 159.464 702.019 159.464ZM702.019 160.424C700.899 160.424 699.955 161.384 699.187 163.304C698.451 165.192 698.083 168.28 698.083 172.568C698.083 176.856 698.451 179.96 699.187 181.88C699.955 183.768 700.899 184.712 702.019 184.712C703.171 184.712 704.115 183.768 704.851 181.88C705.587 179.96 705.955 176.856 705.955 172.568C705.955 168.28 705.587 165.192 704.851 163.304C704.115 161.384 703.171 160.424 702.019 160.424ZM730.93 159.464C732.018 159.464 732.882 159.704 733.522 160.184C734.162 160.632 734.626 161.224 734.914 161.96C735.202 162.664 735.346 163.368 735.346 164.072C735.346 165.384 734.962 166.44 734.194 167.24C733.458 168.04 732.482 168.44 731.266 168.44C729.986 168.44 729.01 168.152 728.338 167.576C727.666 166.968 727.33 166.168 727.33 165.176C727.33 164.184 727.538 163.368 727.954 162.728C728.402 162.088 728.946 161.544 729.586 161.096C729.106 161.032 728.642 161.096 728.194 161.288C727.682 161.416 727.202 161.656 726.754 162.008C726.306 162.36 725.922 162.776 725.602 163.256C725.282 163.736 725.026 164.264 724.834 164.84C724.674 165.384 724.594 165.944 724.594 166.52V180.056C724.594 181.592 724.93 182.632 725.602 183.176C726.306 183.72 727.41 183.992 728.914 183.992V185C728.178 184.968 727.09 184.936 725.65 184.904C724.21 184.84 722.722 184.808 721.186 184.808C719.81 184.808 718.418 184.84 717.01 184.904C715.634 184.936 714.61 184.968 713.938 185V183.992C714.994 183.992 715.73 183.752 716.146 183.272C716.594 182.792 716.818 181.88 716.818 180.536V165.368C716.818 163.928 716.61 162.872 716.194 162.2C715.778 161.496 715.026 161.144 713.938 161.144V160.136C714.962 160.232 715.954 160.28 716.914 160.28C718.354 160.28 719.714 160.232 720.994 160.136C722.306 160.008 723.506 159.832 724.594 159.608V163.544C724.978 162.712 725.474 161.992 726.082 161.384C726.722 160.776 727.442 160.312 728.242 159.992C729.074 159.64 729.97 159.464 730.93 159.464ZM742.944 147.464V180.536C742.944 181.88 743.152 182.792 743.568 183.272C744.016 183.752 744.768 183.992 745.824 183.992V185C745.216 184.968 744.288 184.936 743.04 184.904C741.792 184.84 740.512 184.808 739.2 184.808C737.92 184.808 736.608 184.84 735.264 184.904C733.952 184.936 732.96 184.968 732.288 185V183.992C733.344 183.992 734.08 183.752 734.496 183.272C734.944 182.792 735.168 181.88 735.168 180.536V153.176C735.168 151.768 734.96 150.728 734.544 150.056C734.16 149.352 733.408 149 732.288 149V147.992C733.312 148.088 734.304 148.136 735.264 148.136C736.736 148.136 738.112 148.088 739.392 147.992C740.672 147.864 741.856 147.688 742.944 147.464ZM768.65 147.464V179.72C768.65 181.16 768.858 182.232 769.274 182.936C769.722 183.608 770.474 183.944 771.53 183.944V184.952C770.538 184.856 769.546 184.808 768.554 184.808C767.114 184.808 765.754 184.856 764.474 184.952C763.194 185.048 761.994 185.224 760.874 185.48V153.224C760.874 151.784 760.666 150.728 760.25 150.056C759.866 149.352 759.114 149 757.994 149V147.992C759.018 148.088 760.01 148.136 760.97 148.136C762.442 148.136 763.818 148.088 765.098 147.992C766.378 147.864 767.562 147.688 768.65 147.464ZM755.738 159.464C757.146 159.464 758.362 159.672 759.386 160.088C760.41 160.472 761.258 161.128 761.93 162.056L761.354 162.536C760.938 161.992 760.426 161.592 759.818 161.336C759.242 161.08 758.634 160.952 757.994 160.952C756.458 160.952 755.258 161.912 754.394 163.832C753.562 165.72 753.146 168.632 753.146 172.568C753.146 175.32 753.306 177.496 753.626 179.096C753.978 180.664 754.442 181.768 755.018 182.408C755.626 183.048 756.298 183.368 757.034 183.368C758.026 183.368 758.906 183 759.674 182.264C760.474 181.496 760.89 180.488 760.922 179.24L761.066 181.256C760.49 182.728 759.69 183.832 758.666 184.568C757.674 185.304 756.394 185.672 754.826 185.672C752.97 185.672 751.29 185.208 749.786 184.28C748.314 183.352 747.146 181.928 746.282 180.008C745.45 178.056 745.034 175.528 745.034 172.424C745.034 169.512 745.482 167.112 746.378 165.224C747.306 163.304 748.57 161.864 750.17 160.904C751.802 159.944 753.658 159.464 755.738 159.464Z" fill="#1C7C54"/>
<path d="M316.721 395.504L334.622 398.87C339.982 399.674 345.461 399.491 350.745 398.331C356.029 397.17 361.015 395.055 365.419 392.106C369.822 389.156 373.556 385.431 376.408 381.142C379.26 376.853 381.174 372.085 382.041 367.109C382.91 362.132 382.715 357.045 381.466 352.139C380.217 347.232 377.938 342.602 374.76 338.513C371.583 334.424 367.568 330.957 362.946 328.308C358.324 325.66 353.185 323.883 347.823 323.079L329.958 319.73" fill="#1C7054"/>
<path d="M316.721 395.504L334.622 398.87C339.982 399.674 345.461 399.491 350.745 398.331C356.029 397.17 361.015 395.055 365.419 392.106C369.822 389.156 373.556 385.431 376.408 381.142C379.26 376.853 381.174 372.085 382.041 367.109V367.109C382.91 362.132 382.715 357.045 381.466 352.139C380.217 347.232 377.938 342.602 374.76 338.513C371.583 334.424 367.568 330.957 362.946 328.308C358.324 325.66 353.185 323.883 347.823 323.079L329.958 319.73" stroke="black" stroke-miterlimit="10"/>
<path d="M350.49 361.696C354.137 340.773 344.934 321.986 329.935 319.733C314.936 317.481 299.82 332.616 296.174 353.54C292.527 374.463 301.729 393.25 316.728 395.503C331.727 397.755 346.843 382.619 350.49 361.696Z" fill="#C0D45C" stroke="black" stroke-miterlimit="10"/>
<path d="M330.601 358.342C331.714 351.956 328.906 346.221 324.329 345.534C319.751 344.846 315.138 349.466 314.025 355.853C312.912 362.239 315.72 367.974 320.298 368.661C324.875 369.349 329.488 364.729 330.601 358.342Z" fill="black"/>
<path d="M346.233 362.636C346.624 361.211 344.888 359.57 342.354 358.97C339.82 358.371 337.448 359.04 337.057 360.465C336.666 361.89 338.402 363.532 340.936 364.131C343.47 364.731 345.842 364.061 346.233 362.636Z" fill="black"/>
<path d="M339.077 378.071C340.017 376.887 339.072 374.76 336.967 373.32C334.862 371.88 332.394 371.672 331.454 372.856C330.514 374.04 331.458 376.167 333.563 377.607C335.668 379.047 338.137 379.255 339.077 378.071Z" fill="black"/>
<path d="M322.159 387.858C323.742 387.801 324.943 385.788 324.842 383.363C324.74 380.938 323.374 379.018 321.791 379.075C320.207 379.132 319.006 381.145 319.108 383.57C319.21 385.996 320.576 387.915 322.159 387.858Z" fill="black"/>
<path d="M310.067 378.627C312.296 377.358 313.431 375.312 312.602 374.059C311.773 372.805 309.294 372.818 307.066 374.088C304.837 375.358 303.702 377.403 304.531 378.657C305.36 379.91 307.839 379.897 310.067 378.627Z" fill="black"/>
<path d="M304.514 364.509C307.112 364.234 309.074 362.827 308.894 361.366C308.715 359.905 306.464 358.942 303.866 359.217C301.267 359.491 299.306 360.898 299.485 362.359C299.665 363.821 301.916 364.783 304.514 364.509Z" fill="black"/>
<path d="M311.428 348.773C312.094 347.439 310.711 345.53 308.339 344.509C305.966 343.488 303.503 343.742 302.836 345.077C302.17 346.411 303.553 348.32 305.926 349.341C308.298 350.362 310.762 350.108 311.428 348.773Z" fill="black"/>
<path d="M319.682 338.129C320.894 337.182 320.512 334.909 318.829 333.052C317.145 331.194 314.797 330.456 313.585 331.403C312.372 332.35 312.754 334.624 314.438 336.481C316.122 338.338 318.469 339.076 319.682 338.129Z" fill="black"/>
<path d="M334.692 334.036C335.612 331.764 335.156 329.503 333.673 328.985C332.19 328.467 330.242 329.889 329.321 332.161C328.401 334.433 328.857 336.694 330.34 337.212C331.823 337.73 333.771 336.308 334.692 334.036Z" fill="black"/>
<path d="M341.987 347.815C344.473 347.065 346.092 345.322 345.602 343.924C345.112 342.525 342.699 342 340.213 342.75C337.726 343.5 336.107 345.243 336.597 346.641C337.087 348.04 339.5 348.566 341.987 347.815Z" fill="black"/>
<path d="M301.215 245.948L354.97 280.829C360.271 284.152 364.272 288.978 366.375 294.586C366.416 294.761 366.497 294.926 366.613 295.069C366.728 295.213 366.875 295.332 367.044 295.419L389.222 304.552C402.335 309.943 404.923 311.969 416.188 320.252L417.824 321.461C418.737 322.15 419.831 322.601 420.993 322.768L421.609 322.85C422.652 322.998 423.642 323.375 424.497 323.95C425.351 324.525 426.045 325.281 426.52 326.156C426.996 327.03 427.239 327.998 427.23 328.977C427.22 329.957 426.959 330.92 426.467 331.787L424.707 334.956C424.304 335.672 423.753 336.308 423.086 336.826C422.418 337.344 421.647 337.735 420.816 337.977C419.986 338.218 419.112 338.305 418.245 338.232C417.379 338.16 416.536 337.929 415.765 337.554C415.108 337.207 414.514 336.766 414.005 336.247C413.203 335.424 412.174 334.82 411.03 334.499L410.203 334.27L408.443 333.764L407.14 333.372C394.819 329.81 391.598 328.895 379.981 322.295L358.965 310.303L358.824 310.221C358.512 310.112 358.168 310.112 357.856 310.221C351.478 311.824 344.726 311.591 338.495 309.551L277.382 288.312C276.049 287.846 274.836 287.123 273.825 286.191C272.814 285.259 272.026 284.14 271.514 282.905C271.002 281.671 270.777 280.35 270.854 279.029C270.931 277.708 271.308 276.418 271.961 275.242L286.588 249.428C287.243 248.253 288.159 247.22 289.275 246.396C290.39 245.573 291.681 244.977 293.062 244.649C294.443 244.32 295.883 244.266 297.288 244.49C298.693 244.714 300.031 245.211 301.215 245.948Z" fill="#FFD9A1" stroke="black" stroke-miterlimit="10"/>
<path d="M286.06 281.042L318.323 293.066" stroke="black" stroke-miterlimit="10"/>
<path d="M299.208 257.842L328.162 275.699" stroke="black" stroke-miterlimit="10"/>
<path d="M292.255 269.344L323.058 283.607" stroke="black" stroke-miterlimit="10"/>
<path d="M419.725 322.834L412.614 335.397" stroke="black" stroke-miterlimit="10"/>
<path d="M362.133 311.904L378.573 300.304L367.15 295.19L358.525 310.417" fill="black"/>
<path d="M362.133 311.904L378.573 300.304L367.15 295.19L358.525 310.417" stroke="black" stroke-miterlimit="10"/>
<path d="M301.215 245.948L354.97 280.829C360.271 284.152 364.272 288.978 366.375 294.586C366.416 294.761 366.497 294.926 366.613 295.069C366.728 295.213 366.875 295.332 367.044 295.419L389.222 304.552C402.335 309.943 404.923 311.969 416.188 320.252L417.824 321.461C418.737 322.15 419.831 322.601 420.993 322.768L421.609 322.85C422.652 322.998 423.642 323.375 424.497 323.95C425.351 324.525 426.045 325.281 426.52 326.156C426.996 327.03 427.239 327.998 427.23 328.977C427.22 329.957 426.959 330.92 426.467 331.787L424.707 334.956C424.304 335.672 423.753 336.308 423.086 336.826C422.418 337.344 421.647 337.735 420.816 337.977C419.986 338.218 419.112 338.305 418.245 338.232C417.379 338.16 416.536 337.929 415.765 337.554C415.108 337.207 414.514 336.766 414.005 336.247C413.203 335.424 412.174 334.82 411.03 334.499L410.203 334.27L408.443 333.764L407.14 333.372C394.819 329.81 391.598 328.895 379.981 322.295L358.965 310.303L358.824 310.221C358.512 310.112 358.168 310.112 357.856 310.221C351.478 311.824 344.726 311.591 338.495 309.551L277.382 288.312C276.049 287.846 274.836 287.123 273.825 286.191C272.814 285.259 272.026 284.14 271.514 282.905C271.002 281.671 270.777 280.35 270.854 279.029C270.931 277.708 271.308 276.418 271.961 275.242L286.588 249.428C287.243 248.253 288.159 247.22 289.275 246.396C290.39 245.573 291.681 244.977 293.062 244.649C294.443 244.32 295.883 244.266 297.288 244.49C298.693 244.714 300.031 245.211 301.215 245.948Z" fill="#F1F2EB" stroke="black" stroke-miterlimit="10"/>
<path d="M286.06 281.042L318.323 293.066" stroke="black" stroke-miterlimit="10"/>
<path d="M299.208 257.842L328.162 275.699" stroke="black" stroke-miterlimit="10"/>
<path d="M292.255 269.344L323.058 283.607" stroke="black" stroke-miterlimit="10"/>
<path d="M419.725 322.834L412.614 335.397" stroke="black" stroke-miterlimit="10"/>
<path d="M461.177 376.487L447.377 368.792C441.133 365.313 433.656 364.278 426.59 365.914C419.523 367.55 413.446 371.723 409.693 377.516L404.007 386.306C401.12 390.77 399.774 395.948 400.148 401.143C400.522 406.338 402.6 411.303 406.102 415.371C410.851 420.885 413.434 427.737 413.424 434.796V436.103L415.483 437.247C422.313 433.702 429.001 431.039 436.729 432.264C442.18 433.127 447.784 432.443 452.809 430.3C457.834 428.158 462.045 424.657 464.891 420.256L470.576 411.466C472.434 408.597 473.665 405.415 474.198 402.104C474.731 398.793 474.556 395.417 473.683 392.169C472.811 388.921 471.257 385.864 469.111 383.173C466.965 380.482 464.269 378.21 461.177 376.487Z" fill="#DD0426" stroke="black" stroke-miterlimit="10"/>
<path d="M496.749 348.794C497.38 347.823 497.785 346.74 497.94 345.614C498.094 344.489 497.994 343.347 497.647 342.259C497.342 341.312 497.417 340.294 497.857 339.393C498.297 338.492 499.072 337.77 500.041 337.358C502.034 336.541 503.707 335.171 504.829 333.437L505.145 332.93C506.576 330.749 507.53 328.328 507.953 325.805C508.376 323.282 508.259 320.706 507.609 318.225C506.959 315.744 505.79 313.406 504.166 311.344C502.543 309.283 500.498 307.538 498.149 306.21C495.799 304.882 493.191 303.996 490.473 303.604C487.754 303.212 484.979 303.32 482.306 303.923C479.633 304.526 477.114 305.612 474.893 307.119C472.672 308.625 470.792 310.523 469.362 312.704L468.904 313.407C468.11 314.929 467.793 316.627 467.989 318.308C468.004 319.384 467.568 320.423 466.773 321.207C465.978 321.99 464.887 322.456 463.729 322.507C462.296 322.595 460.908 323.004 459.682 323.698C458.456 324.392 457.429 325.351 456.688 326.493C455.632 328.127 456.248 330.529 457.322 332.767C457.89 333.985 457.952 335.354 457.497 336.612C457.042 337.87 456.102 338.927 454.858 339.58C453.552 340.299 452.469 341.32 451.714 342.542C450.959 343.765 450.557 345.148 450.548 346.557C450.539 347.967 450.923 349.354 451.663 350.585C452.403 351.816 453.473 352.848 454.77 353.581L453.626 352.944L452.288 355.003C451.494 356.221 450.967 357.573 450.738 358.982C450.508 360.39 450.582 361.826 450.953 363.208C451.324 364.59 451.987 365.89 452.901 367.033C453.816 368.177 454.966 369.141 456.284 369.87C458.881 371.255 461.961 371.639 464.86 370.94C467.76 370.24 470.248 368.513 471.791 366.129L473.234 363.874L472.09 363.237C474.085 364.343 476.471 364.672 478.726 364.152C480.982 363.632 482.924 362.304 484.129 360.459C484.894 359.253 485.324 357.889 485.379 356.489C485.405 355.167 485.96 353.901 486.936 352.938C487.912 351.975 489.239 351.383 490.659 351.278C493.212 351.065 495.693 350.412 496.749 348.794Z" fill="#C0D45C" stroke="black" stroke-miterlimit="10"/>
<path d="M492.261 315.269L450.106 380.424" stroke="black" stroke-miterlimit="10"/>
<path d="M446.709 375.49C446.709 375.49 449.296 382.744 456.953 380.571" stroke="black" stroke-miterlimit="10"/>
<path d="M446.709 375.49C446.709 375.49 449.296 382.744 456.953 380.571" stroke="black" stroke-miterlimit="10"/>
<path d="M464.416 358.254L480.398 356.424" stroke="black" stroke-miterlimit="10"/>
<path d="M467.443 353.14L461.67 339.188" stroke="black" stroke-miterlimit="10"/>
<path d="M479.658 334.254L473.885 320.301" stroke="black" stroke-miterlimit="10"/>
<path d="M472.882 345.167L494.849 339.743" stroke="black" stroke-miterlimit="10"/>
<path d="M426.96 170.925C427.564 169.992 427.952 168.953 428.101 167.873C428.249 166.793 428.154 165.696 427.822 164.652C427.521 163.748 427.585 162.772 428.003 161.909C428.421 161.046 429.164 160.354 430.093 159.963C431.995 159.188 433.589 157.879 434.651 156.221L434.951 155.748C437.7 151.558 438.544 146.525 437.296 141.758C436.048 136.99 432.811 132.878 428.297 130.326C423.783 127.774 418.362 126.991 413.225 128.149C408.089 129.307 403.659 132.312 400.909 136.502L400.469 137.172C399.718 138.612 399.419 140.22 399.607 141.812C399.65 142.844 399.257 143.852 398.51 144.618C397.763 145.384 396.723 145.849 395.611 145.912C394.246 145.993 392.923 146.38 391.755 147.041C390.587 147.701 389.609 148.614 388.905 149.703C387.902 151.336 388.483 153.542 389.504 155.666C390.059 156.832 390.125 158.149 389.689 159.358C389.252 160.567 388.345 161.581 387.145 162.201C385.905 162.89 384.879 163.866 384.167 165.033C383.455 166.199 383.08 167.518 383.08 168.859C383.08 170.2 383.455 171.518 384.167 172.685C384.879 173.852 385.905 174.827 387.145 175.516L386.054 174.912L384.786 176.872C384.028 178.031 383.524 179.318 383.305 180.659C383.086 181.999 383.155 183.367 383.508 184.683C383.862 185.998 384.493 187.236 385.365 188.324C386.237 189.412 387.332 190.328 388.588 191.021C391.06 192.335 393.989 192.698 396.746 192.032C399.503 191.367 401.87 189.725 403.338 187.459L404.711 185.319L403.62 184.714C405.518 185.769 407.789 186.081 409.934 185.581C412.08 185.082 413.924 183.812 415.061 182.051C415.809 180.919 416.222 179.622 416.258 178.294C416.304 177.054 416.835 175.872 417.752 174.97C418.669 174.068 419.908 173.507 421.239 173.392C423.598 173.082 425.956 172.461 426.96 170.925Z" fill="#C0D45C" stroke="black" stroke-miterlimit="10"/>
<path d="M422.7 139.018L382.586 201.02" stroke="black" stroke-miterlimit="10"/>
<path d="M422.7 139.018L382.586 201.02" stroke="black" stroke-miterlimit="10"/>
<path d="M396.21 179.927L411.4 178.179" stroke="black" stroke-miterlimit="10"/>
<path d="M399.079 175.059L393.587 161.776" stroke="black" stroke-miterlimit="10"/>
<path d="M410.696 157.087L405.222 143.821" stroke="black" stroke-miterlimit="10"/>
<path d="M404.271 167.478L425.164 162.299" stroke="black" stroke-miterlimit="10"/>
<path d="M179.06 301.905C178.404 301.004 177.554 300.24 176.563 299.661C175.572 299.082 174.463 298.7 173.304 298.54C172.295 298.409 171.371 297.943 170.704 297.228C170.038 296.513 169.673 295.597 169.679 294.651C169.756 292.711 169.178 290.797 168.024 289.178L167.69 288.721C166.234 286.702 164.365 284.969 162.189 283.62C160.012 282.272 157.57 281.334 155.004 280.862C152.437 280.389 149.795 280.391 147.228 280.866C144.662 281.341 142.221 282.281 140.046 283.631C137.871 284.982 136.004 286.717 134.551 288.737C133.099 290.758 132.089 293.024 131.58 295.407C131.071 297.789 131.072 300.242 131.584 302.624C132.096 305.006 133.108 307.271 134.564 309.29L135.039 309.943C136.123 311.186 137.563 312.121 139.193 312.639C140.222 313.027 141.044 313.778 141.479 314.727C141.915 315.676 141.928 316.746 141.516 317.704C141.022 318.89 140.846 320.17 141.002 321.433C141.159 322.697 141.643 323.906 142.414 324.958C143.505 326.461 145.934 326.935 148.486 326.967C149.836 327.012 151.12 327.516 152.094 328.384C153.068 329.252 153.664 330.423 153.767 331.672C153.911 332.965 154.394 334.205 155.175 335.283C156.417 336.981 158.335 338.151 160.507 338.537C162.678 338.923 164.926 338.493 166.757 337.342L165.701 337.995L167.091 339.89C167.905 341.015 168.951 341.979 170.168 342.726C171.386 343.474 172.751 343.99 174.184 344.245C175.618 344.5 177.092 344.489 178.521 344.213C179.95 343.937 181.306 343.4 182.51 342.635C184.836 341.107 186.423 338.793 186.93 336.189C187.437 333.586 186.823 330.903 185.221 328.715L183.725 326.657L182.668 327.327C183.871 326.565 184.839 325.524 185.475 324.309C186.111 323.093 186.395 321.744 186.297 320.396C186.199 319.047 185.724 317.746 184.917 316.62C184.111 315.495 183.002 314.584 181.7 313.979C180.488 313.429 179.537 312.483 179.03 311.322C178.523 310.161 178.496 308.867 178.955 307.689C179.764 305.63 180.151 303.392 179.06 301.905Z" fill="#C0D45C" stroke="black" stroke-miterlimit="10"/>
<path d="M146.092 292.07L189.815 351.931" stroke="black" stroke-miterlimit="10"/>
<path d="M146.092 292.07L189.815 351.931" stroke="black" stroke-miterlimit="10"/>
<path d="M174.924 331.591L179.623 318.047" stroke="black" stroke-miterlimit="10"/>
<path d="M171.386 327.114L156.09 326.15" stroke="black" stroke-miterlimit="10"/>
<path d="M158.713 309.78L143.435 308.816" stroke="black" stroke-miterlimit="10"/>
<path d="M166.141 319.566L169.89 299.797" stroke="black" stroke-miterlimit="10"/>
<path d="M436.437 211.778L402.31 219.173L405.583 232.187L439.71 224.792L436.437 211.778Z" fill="#FF7342" stroke="black" stroke-miterlimit="10"/>
<path d="M439.706 224.797L405.579 232.191L407.143 238.412L441.27 231.017L439.706 224.797Z" fill="#FF7342" stroke="black" stroke-miterlimit="10"/>
<path d="M462.198 292.086L418.335 301.595C417.066 301.871 415.75 301.912 414.464 301.716C413.178 301.519 411.946 301.089 410.839 300.45C409.732 299.812 408.772 298.976 408.014 297.992C407.255 297.008 406.713 295.895 406.419 294.716L405.081 289.423L407.158 238.4L440.97 231.065L468.006 274.67L469.608 281.009C469.906 282.188 469.95 283.41 469.739 284.605C469.528 285.8 469.065 286.945 468.377 287.973C467.688 289.002 466.788 289.895 465.728 290.6C464.668 291.306 463.468 291.811 462.198 292.086Z" fill="#F1F2EB" stroke="black" stroke-miterlimit="10"/>
<path d="M415.413 236.472L421.468 285.502L425.147 300.075" stroke="black" stroke-miterlimit="10"/>
<path d="M434.493 232.339L456.407 277.938L460.068 292.494" stroke="black" stroke-miterlimit="10"/>
<path d="M423.915 234.757L439.809 296.644" stroke="black" stroke-miterlimit="10"/>
<path d="M468.165 275.275L404.975 288.982" stroke="black" stroke-miterlimit="10"/>
<path d="M438.471 220.527L404.782 227.83" stroke="black" stroke-miterlimit="10"/>
<path d="M421.468 285.502L425.147 300.075" stroke="black" stroke-miterlimit="10"/>
<path d="M456.407 277.938L460.068 292.495" stroke="black" stroke-miterlimit="10"/>
<path d="M438.471 220.527L404.782 227.83" stroke="black" stroke-miterlimit="10"/>
<path d="M263.248 242.697L317.32 220.657L310.49 206.689" fill="#DD0426"/>
<path d="M263.248 242.697L317.32 220.657L310.49 206.689" stroke="black" stroke-miterlimit="10"/>
<path d="M310.931 207.571L329.835 199.598L322.636 185.384" fill="#FF7342"/>
<path d="M310.931 207.571L329.835 199.598L322.636 185.384" stroke="black" stroke-miterlimit="10"/>
<path d="M338.23 162.315L332.316 150.225L297.589 179.421" fill="#DD0426"/>
<path d="M338.23 162.315L332.316 150.225L297.589 179.421" stroke="black" stroke-miterlimit="10"/>
<path d="M208.859 216.965L225.862 251.716H225.651C207.099 254.885 176.561 249.624 176.561 249.624L194.761 238.841L168.024 234.136L208.859 216.965Z" fill="#FFD9A1" stroke="black" stroke-miterlimit="10"/>
<path d="M198.844 235.231C201.77 235.231 204.142 233.029 204.142 230.313C204.142 227.597 201.77 225.395 198.844 225.395C195.918 225.395 193.546 227.597 193.546 230.313C193.546 233.029 195.918 235.231 198.844 235.231Z" fill="#FFD9A1" stroke="black" stroke-miterlimit="10"/>
<path d="M198.844 232.584C200.195 232.584 201.291 231.567 201.291 230.313C201.291 229.059 200.195 228.042 198.844 228.042C197.493 228.042 196.398 229.059 196.398 230.313C196.398 231.567 197.493 232.584 198.844 232.584Z" fill="black" stroke="black" stroke-miterlimit="10"/>
<path d="M213.365 215.152L211.165 221.834" stroke="black" stroke-miterlimit="10"/>
<path d="M248.868 200.105L232.639 250.931" stroke="black" stroke-miterlimit="10"/>
<path d="M260.784 194.877L242.918 249.101" stroke="black" stroke-miterlimit="10"/>
<path d="M296.251 179.927L277.54 235.754" stroke="black" stroke-miterlimit="10"/>
<path d="M337.421 178.98L343.405 160.094" stroke="black" stroke-miterlimit="10"/>
<path d="M343.282 159.897L353.368 142.579L358.754 160.437L372.87 176.497L350.182 174.013L343.282 159.897Z" fill="#DD0426" stroke="black" stroke-miterlimit="10"/>
<path d="M354.811 147.366L349.214 149.719" stroke="black" stroke-miterlimit="10"/>
<path d="M357.381 154.588L343.546 160.42" stroke="black" stroke-miterlimit="10"/>
<path d="M359.951 161.793L346.908 167.298" stroke="black" stroke-miterlimit="10"/>
<path d="M362.608 164.831L348.598 170.746" stroke="black" stroke-miterlimit="10"/>
<path d="M365.284 167.854L350.587 174.046" stroke="black" stroke-miterlimit="10"/>
<path d="M367.942 170.893L358.402 174.912" stroke="black" stroke-miterlimit="10"/>
<path d="M370.6 173.915L366.217 175.761" stroke="black" stroke-miterlimit="10"/>
<path d="M343.405 160.11L350.111 173.85L322.636 185.401C322.636 185.401 303.696 240.443 232.657 250.882C230.456 251.209 228.221 251.487 225.915 251.716L209 217.129V216.965L213.506 215.152L225.352 210.136L237.18 205.12L249.008 200.105L343.405 160.11Z" fill="#FFA42C" stroke="black" stroke-miterlimit="10"/>
<path d="M198.844 235.231C201.77 235.231 204.142 233.029 204.142 230.313C204.142 227.597 201.77 225.395 198.844 225.395C195.918 225.395 193.546 227.597 193.546 230.313C193.546 233.029 195.918 235.231 198.844 235.231Z" fill="#1C7054" stroke="black" stroke-miterlimit="10"/>
<path d="M198.844 232.584C200.195 232.584 201.291 231.567 201.291 230.313C201.291 229.059 200.195 228.042 198.844 228.042C197.493 228.042 196.398 229.059 196.398 230.313C196.398 231.567 197.493 232.584 198.844 232.584Z" fill="black" stroke="black" stroke-miterlimit="10"/>
<path d="M213.365 215.152L211.165 221.834" stroke="black" stroke-miterlimit="10"/>
<path d="M225.211 210.136L217.449 234.512" stroke="black" stroke-miterlimit="10"/>
<path d="M237.039 205.12L223.169 246.21" stroke="black" stroke-miterlimit="10"/>
<path d="M248.868 200.105L232.639 250.931" stroke="black" stroke-miterlimit="10"/>
<path d="M260.784 194.877L242.918 249.101" stroke="black" stroke-miterlimit="10"/>
<path d="M272.542 190.09L254.711 245.785" stroke="black" stroke-miterlimit="10"/>
<path d="M296.251 179.927L277.54 235.754" stroke="black" stroke-miterlimit="10"/>
<path d="M319.907 169.961L303.837 214.711" stroke="black" stroke-miterlimit="10"/>
<path d="M331.735 164.979L325.417 184.241" stroke="black" stroke-miterlimit="10"/>
<path d="M337.333 179.209L343.405 160.094" stroke="black" stroke-miterlimit="10"/>
<path d="M303.151 174.781L295.952 160.077L242.091 202.98L297.589 179.421L303.151 174.781Z" fill="#DD0426" stroke="black" stroke-miterlimit="10"/>
<path d="M354.811 147.366L349.214 149.719" stroke="black" stroke-miterlimit="10"/>
<path d="M355.92 151.042L346.01 155.225" stroke="black" stroke-miterlimit="10"/>
<path d="M357.029 154.718L343.546 160.42" stroke="black" stroke-miterlimit="10"/>
<path d="M358.138 158.411L345.218 163.851" stroke="black" stroke-miterlimit="10"/>
<path d="M359.951 161.793L346.908 167.298" stroke="black" stroke-miterlimit="10"/>
<path d="M362.608 164.831L348.598 170.746" stroke="black" stroke-miterlimit="10"/>
<path d="M365.284 167.854L350.587 174.046" stroke="black" stroke-miterlimit="10"/>
<path d="M367.942 170.893L358.402 174.912" stroke="black" stroke-miterlimit="10"/>
<path d="M370.6 173.915L366.217 175.761" stroke="black" stroke-miterlimit="10"/>
<path d="M303.01 433.62C309.338 433.62 314.468 428.858 314.468 422.984C314.468 417.11 309.338 412.348 303.01 412.348C296.681 412.348 291.551 417.11 291.551 422.984C291.551 428.858 296.681 433.62 303.01 433.62Z" fill="#DD0426" stroke="black" stroke-miterlimit="10"/>
<path d="M189.885 425.614C192.986 425.614 195.5 423.281 195.5 420.403C195.5 417.524 192.986 415.191 189.885 415.191C186.784 415.191 184.27 417.524 184.27 420.403C184.27 423.281 186.784 425.614 189.885 425.614Z" fill="#FFD9A1" stroke="black" stroke-miterlimit="10"/>
<path d="M204.389 317.197C211.582 317.197 217.414 311.784 217.414 305.107C217.414 298.43 211.582 293.017 204.389 293.017C197.195 293.017 191.364 298.43 191.364 305.107C191.364 311.784 197.195 317.197 204.389 317.197Z" fill="#DD0426" stroke="black" stroke-miterlimit="10"/>
<path d="M225.986 320.579C229.087 320.579 231.601 318.246 231.601 315.367C231.601 312.489 229.087 310.156 225.986 310.156C222.885 310.156 220.371 312.489 220.371 315.367C220.371 318.246 222.885 320.579 225.986 320.579Z" fill="#263B34" stroke="black" stroke-miterlimit="10"/>
<path d="M181.014 370.213C184.115 370.213 186.629 367.88 186.629 365.001C186.629 362.123 184.115 359.79 181.014 359.79C177.913 359.79 175.399 362.123 175.399 365.001C175.399 367.88 177.913 370.213 181.014 370.213Z" fill="#FFC043" stroke="black" stroke-miterlimit="10"/>
<path d="M156.636 394.654C159.737 394.654 162.251 392.321 162.251 389.443C162.251 386.564 159.737 384.231 156.636 384.231C153.535 384.231 151.021 386.564 151.021 389.443C151.021 392.321 153.535 394.654 156.636 394.654Z" fill="#FFD9A1" stroke="black" stroke-miterlimit="10"/>
<path d="M210.004 284.538C213.105 284.538 215.618 282.205 215.618 279.326C215.618 276.448 213.105 274.115 210.004 274.115C206.903 274.115 204.389 276.448 204.389 279.326C204.389 282.205 206.903 284.538 210.004 284.538Z" fill="#FF7342" stroke="black" stroke-miterlimit="10"/>
<path d="M231.601 298.278C234.702 298.278 237.215 295.945 237.215 293.066C237.215 290.188 234.702 287.855 231.601 287.855C228.5 287.855 225.986 290.188 225.986 293.066C225.986 295.945 228.5 298.278 231.601 298.278Z" fill="#FF7342" stroke="black" stroke-miterlimit="10"/>
<path d="M372.483 243.677C379.677 243.677 385.508 238.265 385.508 231.587C385.508 224.91 379.677 219.498 372.483 219.498C365.289 219.498 359.458 224.91 359.458 231.587C359.458 238.265 365.289 243.677 372.483 243.677Z" fill="#FFD9A1" stroke="black" stroke-miterlimit="10"/>
<path d="M336.347 236.276C339.448 236.276 341.962 233.943 341.962 231.065C341.962 228.186 339.448 225.853 336.347 225.853C333.246 225.853 330.732 228.186 330.732 231.065C330.732 233.943 333.246 236.276 336.347 236.276Z" fill="#FFC043" stroke="black" stroke-miterlimit="10"/>
<path d="M481.859 254.836C484.96 254.836 487.474 252.503 487.474 249.624C487.474 246.746 484.96 244.413 481.859 244.413C478.758 244.413 476.244 246.746 476.244 249.624C476.244 252.503 478.758 254.836 481.859 254.836Z" fill="#DD0426" stroke="black" stroke-miterlimit="10"/>
<path d="M419.725 202.245C422.826 202.245 425.34 199.911 425.34 197.033C425.34 194.155 422.826 191.821 419.725 191.821C416.624 191.821 414.111 194.155 414.111 197.033C414.111 199.911 416.624 202.245 419.725 202.245Z" fill="#263B34" stroke="black" stroke-miterlimit="10"/>
<path d="M366.868 270.422C369.969 270.422 372.483 268.089 372.483 265.21C372.483 262.332 369.969 259.999 366.868 259.999C363.767 259.999 361.253 262.332 361.253 265.21C361.253 268.089 363.767 270.422 366.868 270.422Z" fill="#FFC043" stroke="black" stroke-miterlimit="10"/>
<path d="M351.696 256.339C354.797 256.339 357.31 254.006 357.31 251.127C357.31 248.249 354.797 245.916 351.696 245.916C348.595 245.916 346.081 248.249 346.081 251.127C346.081 254.006 348.595 256.339 351.696 256.339Z" fill="#FFC043" stroke="black" stroke-miterlimit="10"/>
<path d="M239.468 150.683C247.469 150.683 253.955 144.027 253.955 135.816C253.955 127.605 247.469 120.948 239.468 120.948C231.468 120.948 224.982 127.605 224.982 135.816C224.982 144.027 231.468 150.683 239.468 150.683Z" fill="#FF7342" stroke="black" stroke-miterlimit="10"/>
<path d="M250.892 174.699C253.993 174.699 256.507 172.366 256.507 169.488C256.507 166.609 253.993 164.276 250.892 164.276C247.791 164.276 245.277 166.609 245.277 169.488C245.277 172.366 247.791 174.699 250.892 174.699Z" fill="#263B34" stroke="black" stroke-miterlimit="10"/>
<path d="M260.784 113.008C263.885 113.008 266.399 110.675 266.399 107.796C266.399 104.918 263.885 102.585 260.784 102.585C257.683 102.585 255.169 104.918 255.169 107.796C255.169 110.675 257.683 113.008 260.784 113.008Z" fill="#263B34" stroke="black" stroke-miterlimit="10"/>
<path d="M270.394 147.775C275.478 147.775 279.6 143.949 279.6 139.23C279.6 134.511 275.478 130.686 270.394 130.686C265.31 130.686 261.189 134.511 261.189 139.23C261.189 143.949 265.31 147.775 270.394 147.775Z" fill="#FF7342" stroke="black" stroke-miterlimit="10"/>
<path d="M376.954 433.865C384.701 433.865 390.982 428.035 390.982 420.844C390.982 413.652 384.701 407.823 376.954 407.823C369.206 407.823 362.925 413.652 362.925 420.844C362.925 428.035 369.206 433.865 376.954 433.865Z" fill="#FFD9A1" stroke="black" stroke-miterlimit="10"/>
<path d="M279.424 308.751C282.525 308.751 285.039 306.417 285.039 303.539C285.039 300.66 282.525 298.327 279.424 298.327C276.323 298.327 273.809 300.66 273.809 303.539C273.809 306.417 276.323 308.751 279.424 308.751Z" fill="#FFC043" stroke="black" stroke-miterlimit="10"/>
<path d="M267.948 364.528L268.053 364.315C269.305 362.166 270.089 359.808 270.359 357.378C270.629 354.947 270.38 352.491 269.626 350.149C268.872 347.808 267.629 345.628 265.967 343.733C264.305 341.838 262.256 340.266 259.939 339.106C257.622 337.944 255.081 337.218 252.462 336.969C249.843 336.72 247.196 336.952 244.673 337.653C242.151 338.354 239.802 339.51 237.761 341.055C235.72 342.599 234.028 344.502 232.78 346.654L232.058 347.879C229.284 352.622 224.75 356.268 219.297 358.14C211.376 360.924 204.801 366.266 200.78 373.187C191.557 389.051 201.643 402.497 218.751 411.058C235.86 419.618 253.497 420.076 262.755 404.196C266.941 396.995 268.053 388.596 265.871 380.669C264.356 375.237 265.097 369.475 267.948 364.528Z" fill="#FFA42C" stroke="black" stroke-miterlimit="10"/>
<path d="M255.803 308.555C258.032 309.798 259.975 311.438 261.52 313.38C263.066 315.322 264.182 317.528 264.806 319.871C265.43 322.215 265.549 324.65 265.157 327.037C264.764 329.423 263.868 331.714 262.519 333.778L259.8 337.98C255.31 335.476 252.075 331.42 250.807 326.703C249.539 321.986 250.342 316.995 253.038 312.827L255.757 308.625L255.803 308.555Z" fill="#C0D45C" stroke="black" stroke-miterlimit="10"/>
<path d="M251.49 340.838C251.49 340.838 252.212 348.68 262.192 348.549" stroke="black" stroke-miterlimit="10"/>
<path d="M285.039 329.026C268.405 322.834 254.852 346.523 254.852 346.523" stroke="black" stroke-miterlimit="10"/>
<path d="M251.49 340.838C251.49 340.838 252.212 348.68 262.192 348.549" stroke="black" stroke-miterlimit="10"/>
<path d="M284.44 184.91L265.272 241.864" stroke="black" stroke-miterlimit="10"/>
<path d="M308.079 174.944L291.023 226.637" stroke="black" stroke-miterlimit="10"/>
<path d="M267.781 540.781V565.369H386.503V541.402" fill="#FF7342"/>
<path d="M267.781 540.781V565.369H386.503V541.402" stroke="black" stroke-miterlimit="10"/>
<path d="M386.503 534.164H267.781V549.015H386.503V534.164Z" fill="black" stroke="black" stroke-miterlimit="10"/>
<path d="M182.466 449.453H477.96V452.296C477.96 501.707 434.806 541.761 381.574 541.761H278.852C225.62 541.761 182.466 501.707 182.466 452.296V449.518V449.453Z" fill="#FF7342" stroke="black" stroke-miterlimit="10"/>
<path d="M173.806 565.369H471.342" stroke="black" stroke-miterlimit="10"/>
<path d="M367.044 295.419L358.807 310.303" stroke="black" stroke-miterlimit="10"/>
<defs>
<clipPath id="clip0_50_388">
<rect width="460" height="415" fill="white" transform="translate(819 188)"/>
</clipPath>
</defs>
</svg>
