<svg width="764" height="570" viewBox="0 0 764 570" fill="none" xmlns="http://www.w3.org/2000/svg">
<rect y="82" width="606" height="368" rx="60" fill="white"/>
<ellipse cx="583" cy="400" rx="181" ry="170" fill="#FFA42C"/>
<path d="M65.136 36.032V37.952C62.96 38.016 61.296 38.272 60.144 38.72C59.056 39.104 58.32 39.872 57.936 41.024C57.552 42.112 57.36 43.84 57.36 46.208V95.36C57.36 97.216 57.488 98.624 57.744 99.584C58.064 100.48 58.608 101.088 59.376 101.408C60.144 101.664 61.296 101.792 62.832 101.792H66.768C68.688 101.792 70.608 101.216 72.528 100.064C74.448 98.912 76.24 97.312 77.904 95.264C79.568 93.152 81.008 90.752 82.224 88.064C83.44 85.312 84.304 82.368 84.816 79.232H87.024C86.832 81.472 86.736 84.352 86.736 87.872C86.736 89.472 86.768 91.776 86.832 94.784C86.896 97.728 87.088 100.8 87.408 104C84.144 103.872 80.464 103.808 76.368 103.808C72.272 103.744 68.624 103.712 65.424 103.712C63.76 103.712 61.648 103.712 59.088 103.712C56.528 103.712 53.744 103.744 50.736 103.808C47.728 103.808 44.688 103.84 41.616 103.904C38.544 103.904 35.664 103.936 32.976 104V102.08C34.96 101.952 36.432 101.696 37.392 101.312C38.416 100.928 39.088 100.16 39.408 99.008C39.792 97.856 39.984 96.128 39.984 93.824V46.208C39.984 43.84 39.792 42.112 39.408 41.024C39.088 39.872 38.416 39.104 37.392 38.72C36.432 38.272 34.96 38.016 32.976 37.952V36.032C34.704 36.096 37.008 36.16 39.888 36.224C42.768 36.288 45.84 36.32 49.104 36.32C52.112 36.32 55.056 36.288 57.936 36.224C60.816 36.16 63.216 36.096 65.136 36.032ZM110.944 52.928C115.744 52.928 119.936 53.792 123.52 55.52C127.168 57.184 129.984 59.936 131.968 63.776C134.016 67.616 135.04 72.736 135.04 79.136C135.04 85.536 134.016 90.656 131.968 94.496C129.984 98.336 127.168 101.12 123.52 102.848C119.936 104.512 115.744 105.344 110.944 105.344C106.208 105.344 102.016 104.512 98.3677 102.848C94.7837 101.12 91.9677 98.336 89.9197 94.496C87.8717 90.656 86.8477 85.536 86.8477 79.136C86.8477 72.736 87.8717 67.616 89.9197 63.776C91.9677 59.936 94.7837 57.184 98.3677 55.52C102.016 53.792 106.208 52.928 110.944 52.928ZM110.944 54.848C108.704 54.848 106.816 56.768 105.28 60.608C103.808 64.384 103.072 70.56 103.072 79.136C103.072 87.712 103.808 93.92 105.28 97.76C106.816 101.536 108.704 103.424 110.944 103.424C113.248 103.424 115.136 101.536 116.608 97.76C118.08 93.92 118.816 87.712 118.816 79.136C118.816 70.56 118.08 64.384 116.608 60.608C115.136 56.768 113.248 54.848 110.944 54.848ZM153.598 122.048C149.438 122.048 145.79 121.696 142.654 120.992C139.518 120.352 137.086 119.36 135.358 118.016C133.63 116.736 132.766 115.168 132.766 113.312C132.766 111.392 133.662 109.632 135.454 108.032C137.246 106.496 139.998 105.28 143.71 104.384L144.574 105.92C143.486 107.008 142.718 108.064 142.27 109.088C141.822 110.176 141.598 111.232 141.598 112.256C141.598 114.88 142.782 116.896 145.15 118.304C147.518 119.712 150.782 120.416 154.942 120.416C157.822 120.416 160.318 120 162.43 119.168C164.542 118.4 166.174 117.28 167.326 115.808C168.478 114.336 169.054 112.608 169.054 110.624C169.054 108.768 168.35 107.2 166.942 105.92C165.598 104.64 162.846 104 158.686 104H153.118C150.366 104 147.998 103.648 146.014 102.944C144.03 102.24 142.494 101.248 141.406 99.968C140.382 98.688 139.87 97.088 139.87 95.168C139.87 92.288 140.99 89.856 143.23 87.872C145.47 85.824 148.574 83.936 152.542 82.208L153.406 82.976C152.446 83.552 151.518 84.224 150.622 84.992C149.79 85.76 149.374 86.784 149.374 88.064C149.374 90.112 150.59 91.136 153.022 91.136H162.91C166.75 91.136 170.142 91.584 173.086 92.48C176.03 93.312 178.334 94.72 179.998 96.704C181.726 98.624 182.59 101.152 182.59 104.288C182.59 107.488 181.566 110.432 179.518 113.12C177.47 115.808 174.302 117.952 170.014 119.552C165.79 121.216 160.318 122.048 153.598 122.048ZM154.846 83.552C151.006 83.552 147.582 83.008 144.574 81.92C141.63 80.832 139.294 79.168 137.566 76.928C135.838 74.624 134.974 71.712 134.974 68.192C134.974 64.672 135.838 61.792 137.566 59.552C139.294 57.312 141.63 55.648 144.574 54.56C147.582 53.472 151.006 52.928 154.846 52.928C158.622 52.928 162.014 53.472 165.022 54.56C168.03 55.648 170.398 57.312 172.126 59.552C173.854 61.792 174.718 64.672 174.718 68.192C174.718 71.712 173.854 74.624 172.126 76.928C170.398 79.168 168.03 80.832 165.022 81.92C162.014 83.008 158.622 83.552 154.846 83.552ZM154.846 81.824C156.254 81.824 157.374 80.832 158.206 78.848C159.102 76.864 159.55 73.312 159.55 68.192C159.55 63.072 159.102 59.552 158.206 57.632C157.374 55.648 156.254 54.656 154.846 54.656C153.374 54.656 152.222 55.648 151.39 57.632C150.558 59.552 150.142 63.072 150.142 68.192C150.142 73.312 150.558 76.864 151.39 78.848C152.222 80.832 153.374 81.824 154.846 81.824ZM170.11 61.28L168.094 60.608C169.118 57.984 170.686 55.872 172.798 54.272C174.974 52.608 177.342 51.776 179.902 51.776C182.014 51.776 183.582 52.352 184.606 53.504C185.694 54.656 186.238 56.16 186.238 58.016C186.238 59.872 185.726 61.312 184.702 62.336C183.742 63.296 182.59 63.776 181.246 63.776C180.094 63.776 179.038 63.392 178.078 62.624C177.118 61.792 176.574 60.576 176.446 58.976C176.318 57.312 176.894 55.232 178.174 52.736L178.75 53.312C176.382 54.144 174.558 55.168 173.278 56.384C172.062 57.6 171.006 59.232 170.11 61.28ZM195.792 29.216C198.8 29.216 201.136 29.888 202.8 31.232C204.528 32.576 205.392 34.528 205.392 37.088C205.392 39.648 204.528 41.6 202.8 42.944C201.136 44.288 198.8 44.96 195.792 44.96C192.784 44.96 190.416 44.288 188.688 42.944C187.024 41.6 186.192 39.648 186.192 37.088C186.192 34.528 187.024 32.576 188.688 31.232C190.416 29.888 192.784 29.216 195.792 29.216ZM204.24 53.216V95.072C204.24 97.76 204.656 99.584 205.488 100.544C206.384 101.504 207.888 101.984 210 101.984V104C208.72 103.936 206.832 103.872 204.336 103.808C201.84 103.68 199.312 103.616 196.752 103.616C194.192 103.616 191.568 103.68 188.88 103.808C186.256 103.872 184.272 103.936 182.928 104V101.984C185.04 101.984 186.512 101.504 187.344 100.544C188.24 99.584 188.688 97.76 188.688 95.072V64.736C188.688 61.856 188.272 59.744 187.44 58.4C186.608 56.992 185.104 56.288 182.928 56.288V54.272C184.976 54.464 186.96 54.56 188.88 54.56C191.76 54.56 194.48 54.464 197.04 54.272C199.664 54.016 202.064 53.664 204.24 53.216ZM244.967 52.928C247.783 52.928 250.023 53.28 251.687 53.984C253.415 54.688 254.727 55.584 255.623 56.672C256.647 57.888 257.383 59.456 257.831 61.376C258.343 63.296 258.599 65.888 258.599 69.152V95.072C258.599 97.76 259.015 99.584 259.847 100.544C260.743 101.504 262.247 101.984 264.359 101.984V104C263.079 103.936 261.159 103.872 258.599 103.808C256.103 103.68 253.671 103.616 251.303 103.616C248.679 103.616 246.151 103.68 243.719 103.808C241.287 103.872 239.463 103.936 238.247 104V101.984C240.039 101.984 241.287 101.504 241.991 100.544C242.695 99.584 243.047 97.76 243.047 95.072V64.544C243.047 63.072 242.887 61.824 242.567 60.8C242.247 59.712 241.703 58.912 240.935 58.4C240.167 57.824 239.079 57.536 237.671 57.536C236.199 57.536 234.823 57.92 233.543 58.688C232.327 59.456 231.335 60.544 230.567 61.952C229.863 63.296 229.511 64.832 229.511 66.56V95.072C229.511 97.76 229.863 99.584 230.567 100.544C231.271 101.504 232.519 101.984 234.311 101.984V104C233.095 103.936 231.335 103.872 229.031 103.808C226.727 103.68 224.391 103.616 222.023 103.616C219.399 103.616 216.775 103.68 214.151 103.808C211.527 103.872 209.543 103.936 208.199 104V101.984C210.311 101.984 211.783 101.504 212.615 100.544C213.511 99.584 213.959 97.76 213.959 95.072V64.736C213.959 61.856 213.543 59.744 212.711 58.4C211.879 56.992 210.375 56.288 208.199 56.288V54.272C210.247 54.464 212.231 54.56 214.151 54.56C217.031 54.56 219.751 54.464 222.311 54.272C224.935 54.016 227.335 53.664 229.511 53.216V60.992C231.047 58.048 233.127 55.968 235.751 54.752C238.439 53.536 241.511 52.928 244.967 52.928Z" fill="#333333"/>
</svg>
