<svg width="203" height="76" viewBox="0 0 203 76" fill="none" xmlns="http://www.w3.org/2000/svg">
<g clip-path="url(#clip0_93_391)">
<g opacity="0.65">
<path d="M168.096 46.6151L171.289 47.1507C172.245 47.2788 173.223 47.2497 174.165 47.065C175.108 46.8803 175.998 46.5436 176.783 46.0743C177.569 45.6049 178.235 45.0121 178.744 44.3295C179.252 43.647 179.594 42.8881 179.748 42.0963C179.903 41.3043 179.869 40.4948 179.646 39.714C179.423 38.9331 179.016 38.1963 178.45 37.5456C177.883 36.8949 177.167 36.343 176.342 35.9216C175.518 35.5001 174.601 35.2173 173.644 35.0893L170.457 34.5563" fill="#1C7054"/>
<path d="M168.096 46.6151L171.289 47.1507C172.245 47.2788 173.223 47.2497 174.165 47.065C175.108 46.8803 175.998 46.5436 176.783 46.0743C177.569 45.6049 178.235 45.0121 178.744 44.3295C179.252 43.647 179.594 42.8881 179.748 42.0963C179.903 41.3043 179.869 40.4948 179.646 39.714C179.423 38.9331 179.016 38.1963 178.45 37.5456C177.883 36.8949 177.167 36.343 176.342 35.9216C175.518 35.5001 174.601 35.2173 173.644 35.0893L170.457 34.5563" fill="black"/>
<path d="M168.096 46.6151L171.289 47.1507C172.245 47.2788 173.223 47.2497 174.165 47.065C175.108 46.8803 175.998 46.5436 176.783 46.0743C177.569 45.6049 178.235 45.0121 178.744 44.3295C179.252 43.647 179.594 42.8881 179.748 42.0963C179.903 41.3043 179.869 40.4948 179.646 39.714C179.423 38.9331 179.016 38.1963 178.45 37.5456C177.883 36.8949 177.167 36.343 176.342 35.9216C175.518 35.5001 174.601 35.2173 173.644 35.0893L170.457 34.5563" stroke="black" stroke-miterlimit="10"/>
<path d="M174.12 41.2349C174.77 37.9052 173.129 34.9154 170.453 34.5569C167.777 34.1985 165.081 36.6072 164.43 39.9369C163.78 43.2666 165.421 46.2565 168.097 46.6149C170.773 46.9734 173.469 44.5647 174.12 41.2349Z" fill="#C0D45C" stroke="black" stroke-miterlimit="10"/>
<path d="M170.572 40.7012C170.771 39.6848 170.27 38.7722 169.453 38.6628C168.636 38.5534 167.813 39.2887 167.615 40.305C167.416 41.3214 167.917 42.234 168.734 42.3434C169.55 42.4527 170.373 41.7175 170.572 40.7012Z" fill="black"/>
<path d="M173.361 41.3845C173.43 41.1577 173.121 40.8965 172.668 40.8011C172.216 40.7057 171.793 40.8122 171.724 41.039C171.654 41.2658 171.964 41.527 172.416 41.6224C172.868 41.7179 173.291 41.6113 173.361 41.3845Z" fill="black"/>
<path d="M172.084 43.8409C172.252 43.6524 172.083 43.3139 171.708 43.0848C171.332 42.8556 170.892 42.8226 170.724 43.011C170.556 43.1994 170.725 43.5379 171.1 43.7671C171.476 43.9962 171.916 44.0293 172.084 43.8409Z" fill="black"/>
<path d="M169.066 45.3984C169.348 45.3892 169.563 45.069 169.544 44.683C169.526 44.297 169.283 43.9915 169 44.0006C168.718 44.0097 168.503 44.33 168.522 44.716C168.54 45.102 168.783 45.4075 169.066 45.3984Z" fill="black"/>
<path d="M166.909 43.9294C167.306 43.7273 167.509 43.4018 167.361 43.2023C167.213 43.0028 166.771 43.0049 166.373 43.207C165.976 43.409 165.773 43.7345 165.921 43.934C166.069 44.1335 166.511 44.1314 166.909 43.9294Z" fill="black"/>
<path d="M165.918 41.6825C166.382 41.6388 166.731 41.4149 166.7 41.1824C166.668 40.9498 166.266 40.7967 165.802 40.8403C165.339 40.884 164.989 41.1079 165.021 41.3405C165.053 41.573 165.455 41.7262 165.918 41.6825Z" fill="black"/>
<path d="M167.151 39.1784C167.27 38.966 167.024 38.6622 166.6 38.4997C166.177 38.3373 165.738 38.3777 165.619 38.5901C165.5 38.8025 165.747 39.1063 166.17 39.2687C166.593 39.4312 167.033 39.3907 167.151 39.1784Z" fill="black"/>
<path d="M168.624 37.4844C168.84 37.3337 168.772 36.972 168.472 36.6764C168.171 36.3809 167.753 36.2634 167.536 36.4141C167.32 36.5648 167.388 36.9266 167.688 37.2221C167.989 37.5177 168.408 37.6351 168.624 37.4844Z" fill="black"/>
<path d="M171.302 36.8331C171.466 36.4715 171.384 36.1116 171.12 36.0293C170.855 35.9469 170.508 36.1732 170.344 36.5347C170.179 36.8963 170.261 37.2561 170.525 37.3385C170.79 37.4209 171.137 37.1946 171.302 36.8331Z" fill="black"/>
<path d="M172.603 39.0259C173.047 38.9065 173.335 38.6292 173.248 38.4066C173.161 38.184 172.73 38.1004 172.286 38.2198C171.843 38.3393 171.554 38.6165 171.641 38.8391C171.729 39.0617 172.159 39.1453 172.603 39.0259Z" fill="black"/>
<path d="M165.329 22.8147L174.919 28.3657C175.865 28.8945 176.579 29.6625 176.954 30.5549C176.961 30.5828 176.976 30.609 176.996 30.6319C177.017 30.6548 177.043 30.6737 177.073 30.6875L181.029 32.1409C183.369 32.9989 183.83 33.3213 185.84 34.6395L186.132 34.8319C186.295 34.9415 186.49 35.0133 186.697 35.0399L186.807 35.0529C186.993 35.0764 187.17 35.1364 187.322 35.2279C187.475 35.3194 187.598 35.4398 187.683 35.579C187.768 35.7182 187.811 35.8721 187.81 36.028C187.808 36.1839 187.761 36.3372 187.674 36.4751L187.36 36.9795C187.288 37.0935 187.19 37.1946 187.071 37.2771C186.951 37.3596 186.814 37.4218 186.666 37.4602C186.518 37.4986 186.362 37.5124 186.207 37.5009C186.052 37.4893 185.902 37.4526 185.765 37.3929C185.647 37.3377 185.541 37.2675 185.451 37.1849C185.308 37.054 185.124 36.9578 184.92 36.9067L184.772 36.8703L184.458 36.7897L184.226 36.7273C182.028 36.1605 181.453 36.0149 179.381 34.9645L175.632 33.0561L175.607 33.0431C175.551 33.0258 175.49 33.0258 175.434 33.0431C174.296 33.2983 173.092 33.2611 171.98 32.9365L161.078 29.5565C160.84 29.4823 160.624 29.3673 160.443 29.219C160.263 29.0707 160.122 28.8925 160.031 28.6961C159.94 28.4996 159.9 28.2894 159.913 28.0792C159.927 27.8691 159.994 27.6636 160.111 27.4765L162.72 23.3685C162.837 23.1815 163 23.0171 163.199 22.886C163.399 22.755 163.629 22.6602 163.875 22.6079C164.121 22.5556 164.378 22.547 164.629 22.5827C164.88 22.6183 165.118 22.6974 165.329 22.8147Z" fill="#FFD9A1" stroke="black" stroke-miterlimit="10"/>
<path d="M162.626 28.3995L168.382 30.3131L162.626 28.3995Z" fill="black"/>
<path d="M162.626 28.3995L168.382 30.3131" stroke="black" stroke-miterlimit="10"/>
<path d="M164.972 24.7075L170.137 27.5493L164.972 24.7075Z" fill="black"/>
<path d="M164.972 24.7075L170.137 27.5493" stroke="black" stroke-miterlimit="10"/>
<path d="M163.731 26.5379L169.226 28.8077L163.731 26.5379Z" fill="black"/>
<path d="M163.731 26.5379L169.226 28.8077" stroke="black" stroke-miterlimit="10"/>
<path d="M186.471 35.0503L185.203 37.0497L186.471 35.0503Z" fill="black"/>
<path d="M186.471 35.0503L185.203 37.0497" stroke="black" stroke-miterlimit="10"/>
<path d="M176.197 33.3109L179.13 31.4649L177.092 30.6511L175.553 33.0743" fill="black"/>
<path d="M176.197 33.3109L179.13 31.4649L177.092 30.6511L175.553 33.0743" fill="black"/>
<path d="M176.197 33.3109L179.13 31.4649L177.092 30.6511L175.553 33.0743" stroke="black" stroke-miterlimit="10"/>
<path d="M165.329 22.8147L174.919 28.3657C175.865 28.8945 176.579 29.6625 176.954 30.5549C176.961 30.5828 176.976 30.609 176.996 30.6319C177.017 30.6548 177.043 30.6737 177.073 30.6875L181.029 32.1409C183.369 32.9989 183.83 33.3213 185.84 34.6395L186.132 34.8319C186.295 34.9415 186.49 35.0133 186.697 35.0399L186.807 35.0529C186.993 35.0764 187.17 35.1364 187.322 35.2279C187.475 35.3194 187.598 35.4398 187.683 35.579C187.768 35.7182 187.811 35.8721 187.81 36.028C187.808 36.1839 187.761 36.3372 187.674 36.4751L187.36 36.9795C187.288 37.0935 187.19 37.1946 187.071 37.2771C186.951 37.3596 186.814 37.4218 186.666 37.4602C186.518 37.4986 186.362 37.5124 186.207 37.5009C186.052 37.4893 185.902 37.4526 185.765 37.3929C185.647 37.3377 185.541 37.2675 185.451 37.1849C185.308 37.054 185.124 36.9578 184.92 36.9067L184.772 36.8703L184.458 36.7897L184.226 36.7273C182.028 36.1605 181.453 36.0149 179.381 34.9645L175.632 33.0561L175.607 33.0431C175.551 33.0258 175.49 33.0258 175.434 33.0431C174.296 33.2983 173.092 33.2611 171.98 32.9365L161.078 29.5565C160.84 29.4823 160.624 29.3673 160.443 29.219C160.263 29.0707 160.122 28.8925 160.031 28.6961C159.94 28.4996 159.9 28.2894 159.913 28.0792C159.927 27.8691 159.994 27.6636 160.111 27.4765L162.72 23.3685C162.837 23.1815 163 23.0171 163.199 22.886C163.399 22.755 163.629 22.6602 163.875 22.6079C164.121 22.5556 164.378 22.547 164.629 22.5827C164.88 22.6183 165.118 22.6974 165.329 22.8147Z" fill="#F1F2EB" stroke="black" stroke-miterlimit="10"/>
<path d="M162.626 28.3995L168.382 30.3131L162.626 28.3995Z" fill="black"/>
<path d="M162.626 28.3995L168.382 30.3131" stroke="black" stroke-miterlimit="10"/>
<path d="M164.972 24.7075L170.137 27.5493L164.972 24.7075Z" fill="black"/>
<path d="M164.972 24.7075L170.137 27.5493" stroke="black" stroke-miterlimit="10"/>
<path d="M163.731 26.5379L169.226 28.8077L163.731 26.5379Z" fill="black"/>
<path d="M163.731 26.5379L169.226 28.8077" stroke="black" stroke-miterlimit="10"/>
<path d="M186.471 35.0503L185.203 37.0497L186.471 35.0503Z" fill="black"/>
<path d="M186.471 35.0503L185.203 37.0497" stroke="black" stroke-miterlimit="10"/>
<path d="M193.866 43.5887L191.404 42.3641C190.29 41.8106 188.956 41.6459 187.696 41.9062C186.435 42.1665 185.351 42.8306 184.681 43.7525L183.667 45.1513C183.152 45.8618 182.912 46.6857 182.979 47.5125C183.045 48.3393 183.416 49.1294 184.041 49.7767C184.888 50.6542 185.349 51.7447 185.347 52.8681V53.0761L185.714 53.2581C186.933 52.6939 188.126 52.2701 189.504 52.4651C190.477 52.6025 191.477 52.4936 192.373 52.1526C193.269 51.8117 194.021 51.2545 194.528 50.5541L195.543 49.1553C195.874 48.6987 196.094 48.1925 196.189 47.6655C196.284 47.1386 196.253 46.6013 196.097 46.0844C195.942 45.5675 195.664 45.081 195.282 44.6528C194.898 44.2246 194.417 43.863 193.866 43.5887Z" fill="#DD0426" stroke="black" stroke-miterlimit="10"/>
<path d="M200.212 39.1817C200.325 39.0271 200.397 38.8547 200.424 38.6757C200.452 38.4966 200.434 38.3148 200.372 38.1417C200.318 37.9909 200.331 37.8289 200.41 37.6856C200.488 37.5423 200.627 37.4272 200.799 37.3617C201.155 37.2317 201.453 37.0137 201.653 36.7377L201.71 36.6571C201.965 36.31 202.135 35.9247 202.211 35.5232C202.286 35.1217 202.265 34.7118 202.149 34.3169C202.034 33.9221 201.825 33.55 201.535 33.2219C201.246 32.8938 200.881 32.6162 200.462 32.4048C200.043 32.1935 199.577 32.0526 199.092 31.9901C198.607 31.9277 198.112 31.9449 197.636 32.0409C197.159 32.1369 196.709 32.3097 196.313 32.5494C195.917 32.7892 195.582 33.0912 195.326 33.4383L195.245 33.5501C195.103 33.7923 195.046 34.0626 195.081 34.3301C195.084 34.5013 195.006 34.6667 194.864 34.7914C194.722 34.916 194.528 34.9902 194.321 34.9983C194.065 35.0124 193.818 35.0774 193.599 35.1879C193.38 35.2984 193.197 35.451 193.065 35.6327C192.877 35.8927 192.987 36.2749 193.178 36.6311C193.279 36.8249 193.29 37.0428 193.209 37.243C193.128 37.4432 192.96 37.6114 192.739 37.7153C192.506 37.8298 192.312 37.9922 192.178 38.1868C192.043 38.3813 191.971 38.6015 191.97 38.8257C191.968 39.05 192.037 39.2708 192.169 39.4667C192.301 39.6626 192.491 39.8268 192.723 39.9435L192.519 39.8421L192.28 40.1697C192.138 40.3636 192.044 40.5788 192.003 40.8029C191.963 41.027 191.976 41.2556 192.042 41.4755C192.108 41.6954 192.226 41.9023 192.389 42.0843C192.553 42.2662 192.758 42.4197 192.993 42.5357C193.456 42.7561 194.006 42.8172 194.523 42.7059C195.04 42.5946 195.484 42.3197 195.76 41.9403L196.017 41.5815L195.813 41.4801C196.169 41.6562 196.595 41.7086 196.997 41.6258C197.399 41.5429 197.746 41.3317 197.961 41.0381C198.097 40.8461 198.174 40.629 198.184 40.4063C198.188 40.1959 198.287 39.9945 198.462 39.8412C198.636 39.6879 198.872 39.5937 199.126 39.5769C199.581 39.5431 200.024 39.4391 200.212 39.1817Z" fill="#C0D45C" stroke="black" stroke-miterlimit="10"/>
<path d="M199.411 33.8465L191.891 44.2153L199.411 33.8465Z" fill="black"/>
<path d="M199.411 33.8465L191.891 44.2153" stroke="black" stroke-miterlimit="10"/>
<path d="M191.285 43.4301C191.285 43.4301 191.746 44.5845 193.112 44.2387L191.285 43.4301Z" fill="black"/>
<path d="M191.285 43.4301C191.285 43.4301 191.746 44.5845 193.112 44.2387" stroke="black" stroke-miterlimit="10"/>
<path d="M191.285 43.4301C191.285 43.4301 191.746 44.5845 193.112 44.2387L191.285 43.4301Z" fill="black"/>
<path d="M191.285 43.4301C191.285 43.4301 191.746 44.5845 193.112 44.2387" stroke="black" stroke-miterlimit="10"/>
<path d="M194.444 40.6871L197.295 40.3959L194.444 40.6871Z" fill="black"/>
<path d="M194.444 40.6871L197.295 40.3959" stroke="black" stroke-miterlimit="10"/>
<path d="M194.984 39.8733L193.954 37.6529L194.984 39.8733Z" fill="black"/>
<path d="M194.984 39.8733L193.954 37.6529" stroke="black" stroke-miterlimit="10"/>
<path d="M197.163 36.8677L196.133 34.6473L197.163 36.8677Z" fill="black"/>
<path d="M197.163 36.8677L196.133 34.6473" stroke="black" stroke-miterlimit="10"/>
<path d="M195.954 38.6045L199.873 37.7413L195.954 38.6045Z" fill="black"/>
<path d="M195.954 38.6045L199.873 37.7413" stroke="black" stroke-miterlimit="10"/>
<path d="M187.762 10.8755C187.869 10.727 187.939 10.5616 187.965 10.3897C187.992 10.2178 187.975 10.0433 187.916 9.87711C187.862 9.73321 187.873 9.57811 187.948 9.44071C188.022 9.30331 188.155 9.19321 188.321 9.13091C188.66 9.00761 188.944 8.79941 189.134 8.53551L189.187 8.46011C189.678 7.79331 189.828 6.99251 189.606 6.23381C189.383 5.47511 188.806 4.82071 188 4.41451C187.195 4.00841 186.228 3.88381 185.312 4.06811C184.395 4.25241 183.605 4.73051 183.114 5.39731L183.036 5.50391C182.902 5.73321 182.849 5.98911 182.882 6.24231C182.89 6.40671 182.82 6.56701 182.686 6.68901C182.553 6.81091 182.368 6.88491 182.169 6.89491C181.926 6.90781 181.69 6.96941 181.481 7.07451C181.273 7.17951 181.099 7.32491 180.973 7.49811C180.794 7.75811 180.898 8.10911 181.08 8.44711C181.179 8.63271 181.191 8.84221 181.113 9.03461C181.035 9.22701 180.873 9.3884 180.659 9.4871C180.438 9.5968 180.255 9.75201 180.128 9.93771C180.001 10.1234 179.934 10.3332 179.934 10.5466C179.934 10.7601 180.001 10.9699 180.128 11.1555C180.255 11.3412 180.438 11.4965 180.659 11.6061L180.464 11.5099L180.238 11.8219C180.103 12.0064 180.013 12.2112 179.974 12.4245C179.935 12.6378 179.947 12.8555 180.01 13.0649C180.073 13.2742 180.186 13.4712 180.341 13.6443C180.497 13.8174 180.692 13.9633 180.916 14.0735C181.357 14.2827 181.88 14.3404 182.372 14.2345C182.864 14.1286 183.286 13.8673 183.548 13.5067L183.793 13.1661L183.598 13.0699C183.937 13.2377 184.342 13.2874 184.724 13.2079C185.107 13.1284 185.436 12.9264 185.639 12.6461C185.773 12.4658 185.846 12.2596 185.853 12.0481C185.861 11.8509 185.955 11.6628 186.119 11.5192C186.283 11.3756 186.504 11.2864 186.741 11.2681C187.162 11.2187 187.583 11.1199 187.762 10.8755Z" fill="#C0D45C" stroke="black" stroke-miterlimit="10"/>
<path d="M187.002 5.79773L179.846 15.6647L187.002 5.79773Z" fill="black"/>
<path d="M187.002 5.79773L179.846 15.6647" stroke="black" stroke-miterlimit="10"/>
<path d="M187.002 5.79773L179.846 15.6647L187.002 5.79773Z" fill="black"/>
<path d="M187.002 5.79773L179.846 15.6647" stroke="black" stroke-miterlimit="10"/>
<path d="M182.276 12.3081L184.986 12.0299L182.276 12.3081Z" fill="black"/>
<path d="M182.276 12.3081L184.986 12.0299" stroke="black" stroke-miterlimit="10"/>
<path d="M182.788 11.5333L181.808 9.41953L182.788 11.5333Z" fill="black"/>
<path d="M182.788 11.5333L181.808 9.41953" stroke="black" stroke-miterlimit="10"/>
<path d="M184.86 8.6733L183.884 6.5621L184.86 8.6733Z" fill="black"/>
<path d="M184.86 8.6733L183.884 6.5621" stroke="black" stroke-miterlimit="10"/>
<path d="M183.714 10.3269L187.441 9.50272L183.714 10.3269Z" fill="black"/>
<path d="M183.714 10.3269L187.441 9.50272" stroke="black" stroke-miterlimit="10"/>
<path d="M143.538 31.7197C143.421 31.5764 143.269 31.4548 143.092 31.3626C142.916 31.2704 142.718 31.2096 142.511 31.1841C142.331 31.1633 142.166 31.0892 142.047 30.9754C141.928 30.8615 141.863 30.7158 141.864 30.5653C141.878 30.2566 141.775 29.952 141.569 29.6943L141.509 29.6215C141.25 29.3002 140.916 29.0244 140.528 28.8098C140.14 28.5953 139.704 28.4461 139.246 28.3709C138.788 28.2957 138.317 28.2959 137.859 28.3715C137.401 28.4472 136.966 28.5967 136.578 28.8116C136.19 29.0266 135.857 29.3027 135.598 29.6242C135.339 29.9457 135.159 30.3064 135.068 30.6855C134.977 31.0647 134.977 31.455 135.068 31.8341C135.16 32.2132 135.34 32.5736 135.6 32.8949L135.685 32.9989C135.878 33.1967 136.135 33.3454 136.426 33.4279C136.609 33.4897 136.756 33.6092 136.834 33.7602C136.911 33.9112 136.914 34.0815 136.84 34.2339C136.752 34.4227 136.721 34.6264 136.749 34.8275C136.776 35.0285 136.863 35.221 137 35.3883C137.195 35.6275 137.628 35.7029 138.084 35.7081C138.324 35.7152 138.554 35.7955 138.727 35.9336C138.901 36.0718 139.007 36.2581 139.026 36.4569C139.051 36.6626 139.138 36.8599 139.277 37.0315C139.499 37.3017 139.841 37.4879 140.228 37.5494C140.615 37.6108 141.016 37.5424 141.343 37.3591L141.155 37.4631L141.403 37.7647C141.548 37.9437 141.734 38.0971 141.952 38.216C142.169 38.335 142.412 38.4171 142.668 38.4577C142.924 38.4983 143.187 38.4966 143.442 38.4526C143.697 38.4087 143.938 38.3233 144.153 38.2015C144.568 37.9583 144.851 37.59 144.942 37.1758C145.032 36.7615 144.923 36.3344 144.637 35.9863L144.37 35.6587L144.182 35.7653C144.396 35.6441 144.569 35.4785 144.682 35.2851C144.796 35.0916 144.846 34.8769 144.829 34.6623C144.811 34.4477 144.727 34.2406 144.583 34.0615C144.439 33.8824 144.241 33.7375 144.009 33.6411C143.793 33.5536 143.623 33.403 143.533 33.2183C143.442 33.0335 143.437 32.8276 143.519 32.6401C143.663 32.3125 143.733 31.9563 143.538 31.7197Z" fill="#C0D45C" stroke="black" stroke-miterlimit="10"/>
<path d="M137.657 30.1545L145.456 39.6809L137.657 30.1545Z" fill="black"/>
<path d="M137.657 30.1545L145.456 39.6809" stroke="black" stroke-miterlimit="10"/>
<path d="M137.657 30.1545L145.456 39.6809L137.657 30.1545Z" fill="black"/>
<path d="M137.657 30.1545L145.456 39.6809" stroke="black" stroke-miterlimit="10"/>
<path d="M142.8 36.4439L143.638 34.2885L142.8 36.4439Z" fill="black"/>
<path d="M142.8 36.4439L143.638 34.2885" stroke="black" stroke-miterlimit="10"/>
<path d="M142.169 35.7315L139.44 35.5781L142.169 35.7315Z" fill="black"/>
<path d="M142.169 35.7315L139.44 35.5781" stroke="black" stroke-miterlimit="10"/>
<path d="M139.908 32.9729L137.183 32.8195L139.908 32.9729Z" fill="black"/>
<path d="M139.908 32.9729L137.183 32.8195" stroke="black" stroke-miterlimit="10"/>
<path d="M141.233 34.5303L141.902 31.3843L141.233 34.5303Z" fill="black"/>
<path d="M141.233 34.5303L141.902 31.3843" stroke="black" stroke-miterlimit="10"/>
<path d="M189.452 17.3768L183.364 18.5536L183.948 20.6248L190.036 19.4479L189.452 17.3768Z" fill="#FF7342" stroke="black" stroke-miterlimit="10"/>
<path d="M190.035 19.4486L183.947 20.6254L184.226 21.6154L190.315 20.4386L190.035 19.4486Z" fill="#FF7342" stroke="black" stroke-miterlimit="10"/>
<path d="M194.048 30.1571L186.223 31.6703C185.997 31.7143 185.762 31.7208 185.533 31.6896C185.303 31.6583 185.083 31.5899 184.886 31.4882C184.688 31.3866 184.517 31.2536 184.382 31.097C184.246 30.9404 184.15 30.7633 184.097 30.5757L183.859 29.7333L184.229 21.6135L190.261 20.4461L195.084 27.3855L195.37 28.3943C195.423 28.5819 195.431 28.7764 195.394 28.9666C195.356 29.1567 195.273 29.3389 195.151 29.5026C195.027 29.6663 194.867 29.8084 194.678 29.9207C194.489 30.033 194.275 30.1134 194.048 30.1571Z" fill="#F1F2EB" stroke="black" stroke-miterlimit="10"/>
<path d="M185.702 21.3067L186.782 29.1093L187.438 31.4285" fill="black"/>
<path d="M185.702 21.3067L186.782 29.1093L187.438 31.4285" stroke="black" stroke-miterlimit="10"/>
<path d="M189.106 20.6489L193.015 27.9055L193.668 30.2221" fill="black"/>
<path d="M189.106 20.6489L193.015 27.9055L193.668 30.2221" stroke="black" stroke-miterlimit="10"/>
<path d="M187.218 21.0337L190.054 30.8825L187.218 21.0337Z" fill="black"/>
<path d="M187.218 21.0337L190.054 30.8825" stroke="black" stroke-miterlimit="10"/>
<path d="M195.112 27.4817L183.84 29.6631L195.112 27.4817Z" fill="black"/>
<path d="M195.112 27.4817L183.84 29.6631" stroke="black" stroke-miterlimit="10"/>
<path d="M189.815 18.7691L183.805 19.9313L189.815 18.7691Z" fill="black"/>
<path d="M189.815 18.7691L183.805 19.9313" stroke="black" stroke-miterlimit="10"/>
<path d="M186.782 29.1093L187.438 31.4285L186.782 29.1093Z" fill="black"/>
<path d="M186.782 29.1093L187.438 31.4285" stroke="black" stroke-miterlimit="10"/>
<path d="M193.015 27.9055L193.668 30.2221L193.015 27.9055Z" fill="black"/>
<path d="M193.015 27.9055L193.668 30.2221" stroke="black" stroke-miterlimit="10"/>
<path d="M189.815 18.7691L183.805 19.9313L189.815 18.7691Z" fill="black"/>
<path d="M189.815 18.7691L183.805 19.9313" stroke="black" stroke-miterlimit="10"/>
<path d="M158.557 22.2973L168.203 18.7899L166.984 16.5669" fill="#DD0426"/>
<path d="M158.557 22.2973L168.203 18.7899L166.984 16.5669" fill="black"/>
<path d="M158.557 22.2973L168.203 18.7899L166.984 16.5669" stroke="black" stroke-miterlimit="10"/>
<path d="M167.063 16.7073L170.435 15.4385L169.151 13.1765" fill="#FF7342"/>
<path d="M167.063 16.7073L170.435 15.4385L169.151 13.1765" fill="black"/>
<path d="M167.063 16.7073L170.435 15.4385L169.151 13.1765" stroke="black" stroke-miterlimit="10"/>
<path d="M171.933 9.50533L170.878 7.58133L164.683 12.2275" fill="#DD0426"/>
<path d="M171.933 9.50533L170.878 7.58133L164.683 12.2275" fill="black"/>
<path d="M171.933 9.50533L170.878 7.58133L164.683 12.2275" stroke="black" stroke-miterlimit="10"/>
<path d="M148.854 18.2023L151.887 23.7325H151.849C148.54 24.2369 143.092 23.3997 143.092 23.3997L146.339 21.6837L141.569 20.9349L148.854 18.2023Z" fill="#FFD9A1" stroke="black" stroke-miterlimit="10"/>
<path d="M147.067 21.1091C147.589 21.1091 148.012 20.7587 148.012 20.3265C148.012 19.8943 147.589 19.5439 147.067 19.5439C146.545 19.5439 146.122 19.8943 146.122 20.3265C146.122 20.7587 146.545 21.1091 147.067 21.1091Z" fill="#FFD9A1" stroke="black" stroke-miterlimit="10"/>
<path d="M147.067 20.6879C147.308 20.6879 147.504 20.5261 147.504 20.3265C147.504 20.1269 147.308 19.9651 147.067 19.9651C146.826 19.9651 146.631 20.1269 146.631 20.3265C146.631 20.5261 146.826 20.6879 147.067 20.6879Z" fill="black" stroke="black" stroke-miterlimit="10"/>
<path d="M149.658 17.9137L149.265 18.9771L149.658 17.9137Z" fill="black"/>
<path d="M149.658 17.9137L149.265 18.9771" stroke="black" stroke-miterlimit="10"/>
<path d="M155.991 15.5191L153.096 23.6077L155.991 15.5191Z" fill="black"/>
<path d="M155.991 15.5191L153.096 23.6077" stroke="black" stroke-miterlimit="10"/>
<path d="M158.117 14.6871L154.93 23.3165L158.117 14.6871Z" fill="black"/>
<path d="M158.117 14.6871L154.93 23.3165" stroke="black" stroke-miterlimit="10"/>
<path d="M164.444 12.3081L161.106 21.1923L164.444 12.3081Z" fill="black"/>
<path d="M164.444 12.3081L161.106 21.1923" stroke="black" stroke-miterlimit="10"/>
<path d="M171.788 12.1573L172.856 9.1517L171.788 12.1573Z" fill="black"/>
<path d="M171.788 12.1573L172.856 9.1517" stroke="black" stroke-miterlimit="10"/>
<path d="M172.834 9.1205L174.633 6.3645L175.594 9.2063L178.112 11.7621L174.065 11.3669L172.834 9.1205Z" fill="#DD0426" stroke="black" stroke-miterlimit="10"/>
<path d="M174.891 7.12631L173.892 7.50071L174.891 7.12631Z" fill="black"/>
<path d="M174.891 7.12631L173.892 7.50071" stroke="black" stroke-miterlimit="10"/>
<path d="M175.349 8.27551L172.881 9.20371L175.349 8.27551Z" fill="black"/>
<path d="M175.349 8.27551L172.881 9.20371" stroke="black" stroke-miterlimit="10"/>
<path d="M175.808 9.42212L173.481 10.2983L175.808 9.42212Z" fill="black"/>
<path d="M175.808 9.42212L173.481 10.2983" stroke="black" stroke-miterlimit="10"/>
<path d="M176.282 9.9057L173.782 10.8469L176.282 9.9057Z" fill="black"/>
<path d="M176.282 9.9057L173.782 10.8469" stroke="black" stroke-miterlimit="10"/>
<path d="M176.759 10.3867L174.137 11.3721L176.759 10.3867Z" fill="black"/>
<path d="M176.759 10.3867L174.137 11.3721" stroke="black" stroke-miterlimit="10"/>
<path d="M177.233 10.8703L175.531 11.5099L177.233 10.8703Z" fill="black"/>
<path d="M177.233 10.8703L175.531 11.5099" stroke="black" stroke-miterlimit="10"/>
<path d="M177.707 11.3513L176.926 11.6451L177.707 11.3513Z" fill="black"/>
<path d="M177.707 11.3513L176.926 11.6451" stroke="black" stroke-miterlimit="10"/>
<path d="M172.856 9.15433L174.052 11.3409L169.151 13.1791C169.151 13.1791 165.772 21.9385 153.099 23.5999C152.707 23.6519 152.308 23.6961 151.897 23.7326L148.879 18.2283V18.2023L149.683 17.9137L151.796 17.1155L153.906 16.3173L156.016 15.5191L172.856 9.15433Z" fill="#FFA42C" stroke="black" stroke-miterlimit="10"/>
<path d="M147.067 21.1091C147.589 21.1091 148.012 20.7587 148.012 20.3265C148.012 19.8943 147.589 19.5439 147.067 19.5439C146.545 19.5439 146.122 19.8943 146.122 20.3265C146.122 20.7587 146.545 21.1091 147.067 21.1091Z" fill="#1C7054" stroke="black" stroke-miterlimit="10"/>
<path d="M147.067 20.6879C147.308 20.6879 147.504 20.5261 147.504 20.3265C147.504 20.1269 147.308 19.9651 147.067 19.9651C146.826 19.9651 146.631 20.1269 146.631 20.3265C146.631 20.5261 146.826 20.6879 147.067 20.6879Z" fill="black" stroke="black" stroke-miterlimit="10"/>
<path d="M149.658 17.9137L149.265 18.9771L149.658 17.9137Z" fill="black"/>
<path d="M149.658 17.9137L149.265 18.9771" stroke="black" stroke-miterlimit="10"/>
<path d="M151.771 17.1155L150.386 20.9947L151.771 17.1155Z" fill="black"/>
<path d="M151.771 17.1155L150.386 20.9947" stroke="black" stroke-miterlimit="10"/>
<path d="M153.881 16.3173L151.407 22.8563L153.881 16.3173Z" fill="black"/>
<path d="M153.881 16.3173L151.407 22.8563" stroke="black" stroke-miterlimit="10"/>
<path d="M155.991 15.5191L153.096 23.6077L155.991 15.5191Z" fill="black"/>
<path d="M155.991 15.5191L153.096 23.6077" stroke="black" stroke-miterlimit="10"/>
<path d="M158.117 14.6871L154.93 23.3165L158.117 14.6871Z" fill="black"/>
<path d="M158.117 14.6871L154.93 23.3165" stroke="black" stroke-miterlimit="10"/>
<path d="M160.214 13.9253L157.034 22.7887L160.214 13.9253Z" fill="black"/>
<path d="M160.214 13.9253L157.034 22.7887" stroke="black" stroke-miterlimit="10"/>
<path d="M164.444 12.3081L161.106 21.1923L164.444 12.3081Z" fill="black"/>
<path d="M164.444 12.3081L161.106 21.1923" stroke="black" stroke-miterlimit="10"/>
<path d="M168.664 10.7221L165.797 17.8435L168.664 10.7221Z" fill="black"/>
<path d="M168.664 10.7221L165.797 17.8435" stroke="black" stroke-miterlimit="10"/>
<path d="M170.774 9.92911L169.647 12.9945L170.774 9.92911Z" fill="black"/>
<path d="M170.774 9.92911L169.647 12.9945" stroke="black" stroke-miterlimit="10"/>
<path d="M171.773 12.1937L172.856 9.1517L171.773 12.1937Z" fill="black"/>
<path d="M171.773 12.1937L172.856 9.1517" stroke="black" stroke-miterlimit="10"/>
<path d="M165.675 11.4891L164.391 9.14911L154.782 15.9767L164.683 12.2275L165.675 11.4891Z" fill="#DD0426" stroke="black" stroke-miterlimit="10"/>
<path d="M174.891 7.12631L173.892 7.50071L174.891 7.12631Z" fill="black"/>
<path d="M174.891 7.12631L173.892 7.50071" stroke="black" stroke-miterlimit="10"/>
<path d="M175.089 7.7113L173.321 8.3769L175.089 7.7113Z" fill="black"/>
<path d="M175.089 7.7113L173.321 8.3769" stroke="black" stroke-miterlimit="10"/>
<path d="M175.286 8.29633L172.881 9.20373L175.286 8.29633Z" fill="black"/>
<path d="M175.286 8.29633L172.881 9.20373" stroke="black" stroke-miterlimit="10"/>
<path d="M175.484 8.88391L173.18 9.74971L175.484 8.88391Z" fill="black"/>
<path d="M175.484 8.88391L173.18 9.74971" stroke="black" stroke-miterlimit="10"/>
<path d="M175.808 9.42212L173.481 10.2983L175.808 9.42212Z" fill="black"/>
<path d="M175.808 9.42212L173.481 10.2983" stroke="black" stroke-miterlimit="10"/>
<path d="M176.282 9.9057L173.782 10.8469L176.282 9.9057Z" fill="black"/>
<path d="M176.282 9.9057L173.782 10.8469" stroke="black" stroke-miterlimit="10"/>
<path d="M176.759 10.3867L174.137 11.3721L176.759 10.3867Z" fill="black"/>
<path d="M176.759 10.3867L174.137 11.3721" stroke="black" stroke-miterlimit="10"/>
<path d="M177.233 10.8703L175.531 11.5099L177.233 10.8703Z" fill="black"/>
<path d="M177.233 10.8703L175.531 11.5099" stroke="black" stroke-miterlimit="10"/>
<path d="M177.707 11.3513L176.926 11.6451L177.707 11.3513Z" fill="black"/>
<path d="M177.707 11.3513L176.926 11.6451" stroke="black" stroke-miterlimit="10"/>
<path d="M165.65 52.6809C166.779 52.6809 167.694 51.9231 167.694 50.9883C167.694 50.0535 166.779 49.2957 165.65 49.2957C164.521 49.2957 163.606 50.0535 163.606 50.9883C163.606 51.9231 164.521 52.6809 165.65 52.6809Z" fill="#DD0426" stroke="black" stroke-miterlimit="10"/>
<path d="M145.469 51.4069C146.022 51.4069 146.471 51.0356 146.471 50.5775C146.471 50.1195 146.022 49.7481 145.469 49.7481C144.916 49.7481 144.467 50.1195 144.467 50.5775C144.467 51.0356 144.916 51.4069 145.469 51.4069Z" fill="#FFD9A1" stroke="black" stroke-miterlimit="10"/>
<path d="M148.056 34.1533C149.34 34.1533 150.38 33.2919 150.38 32.2293C150.38 31.1667 149.34 30.3053 148.056 30.3053C146.773 30.3053 145.733 31.1667 145.733 32.2293C145.733 33.2919 146.773 34.1533 148.056 34.1533Z" fill="#DD0426" stroke="black" stroke-miterlimit="10"/>
<path d="M151.909 34.6915C152.462 34.6915 152.911 34.3202 152.911 33.8621C152.911 33.4041 152.462 33.0327 151.909 33.0327C151.356 33.0327 150.907 33.4041 150.907 33.8621C150.907 34.3202 151.356 34.6915 151.909 34.6915Z" fill="#263B34" stroke="black" stroke-miterlimit="10"/>
<path d="M143.886 42.5903C144.44 42.5903 144.888 42.219 144.888 41.7609C144.888 41.3029 144.44 40.9315 143.886 40.9315C143.333 40.9315 142.885 41.3029 142.885 41.7609C142.885 42.219 143.333 42.5903 143.886 42.5903Z" fill="#FFC043" stroke="black" stroke-miterlimit="10"/>
<path d="M139.538 46.4799C140.091 46.4799 140.539 46.1086 140.539 45.6505C140.539 45.1925 140.091 44.8211 139.538 44.8211C138.984 44.8211 138.536 45.1925 138.536 45.6505C138.536 46.1086 138.984 46.4799 139.538 46.4799Z" fill="#FFD9A1" stroke="black" stroke-miterlimit="10"/>
<path d="M149.058 28.9559C149.611 28.9559 150.06 28.5846 150.06 28.1265C150.06 27.6685 149.611 27.2971 149.058 27.2971C148.505 27.2971 148.056 27.6685 148.056 28.1265C148.056 28.5846 148.505 28.9559 149.058 28.9559Z" fill="#FF7342" stroke="black" stroke-miterlimit="10"/>
<path d="M152.911 31.1425C153.464 31.1425 153.912 30.7712 153.912 30.3131C153.912 29.8551 153.464 29.4837 152.911 29.4837C152.358 29.4837 151.909 29.8551 151.909 30.3131C151.909 30.7712 152.358 31.1425 152.911 31.1425Z" fill="#FF7342" stroke="black" stroke-miterlimit="10"/>
<path d="M178.043 22.4533C179.327 22.4533 180.367 21.5919 180.367 20.5293C180.367 19.4667 179.327 18.6053 178.043 18.6053C176.76 18.6053 175.72 19.4667 175.72 20.5293C175.72 21.5919 176.76 22.4533 178.043 22.4533Z" fill="#FFD9A1" stroke="black" stroke-miterlimit="10"/>
<path d="M171.597 21.2755C172.15 21.2755 172.599 20.9042 172.599 20.4461C172.599 19.988 172.15 19.6167 171.597 19.6167C171.044 19.6167 170.595 19.988 170.595 20.4461C170.595 20.9042 171.044 21.2755 171.597 21.2755Z" fill="#FFC043" stroke="black" stroke-miterlimit="10"/>
<path d="M197.556 24.2291C198.109 24.2291 198.557 23.8578 198.557 23.3997C198.557 22.9417 198.109 22.5703 197.556 22.5703C197.003 22.5703 196.554 22.9417 196.554 23.3997C196.554 23.8578 197.003 24.2291 197.556 24.2291Z" fill="#DD0426" stroke="black" stroke-miterlimit="10"/>
<path d="M186.471 15.8597C187.024 15.8597 187.473 15.4884 187.473 15.0303C187.473 14.5723 187.024 14.2009 186.471 14.2009C185.918 14.2009 185.469 14.5723 185.469 15.0303C185.469 15.4884 185.918 15.8597 186.471 15.8597Z" fill="#263B34" stroke="black" stroke-miterlimit="10"/>
<path d="M177.042 26.7095C177.595 26.7095 178.043 26.3382 178.043 25.8801C178.043 25.4221 177.595 25.0507 177.042 25.0507C176.488 25.0507 176.04 25.4221 176.04 25.8801C176.04 26.3382 176.488 26.7095 177.042 26.7095Z" fill="#FFC043" stroke="black" stroke-miterlimit="10"/>
<path d="M174.335 24.4683C174.888 24.4683 175.337 24.097 175.337 23.6389C175.337 23.1809 174.888 22.8095 174.335 22.8095C173.782 22.8095 173.333 23.1809 173.333 23.6389C173.333 24.097 173.782 24.4683 174.335 24.4683Z" fill="#FFC043" stroke="black" stroke-miterlimit="10"/>
<path d="M154.314 7.65412C155.742 7.65412 156.899 6.59482 156.899 5.28812C156.899 3.98142 155.742 2.92212 154.314 2.92212C152.887 2.92212 151.73 3.98142 151.73 5.28812C151.73 6.59482 152.887 7.65412 154.314 7.65412Z" fill="#FF7342" stroke="black" stroke-miterlimit="10"/>
<path d="M156.352 11.4761C156.905 11.4761 157.354 11.1048 157.354 10.6467C157.354 10.1887 156.905 9.81732 156.352 9.81732C155.799 9.81732 155.351 10.1887 155.351 10.6467C155.351 11.1048 155.799 11.4761 156.352 11.4761Z" fill="#263B34" stroke="black" stroke-miterlimit="10"/>
<path d="M158.117 1.65852C158.67 1.65852 159.119 1.28722 159.119 0.829156C159.119 0.371096 158.67 -0.000244141 158.117 -0.000244141C157.564 -0.000244141 157.115 0.371096 157.115 0.829156C157.115 1.28722 157.564 1.65852 158.117 1.65852Z" fill="#263B34" stroke="black" stroke-miterlimit="10"/>
<path d="M159.831 7.19131C160.738 7.19131 161.474 6.58251 161.474 5.83151C161.474 5.08051 160.738 4.47171 159.831 4.47171C158.924 4.47171 158.189 5.08051 158.189 5.83151C158.189 6.58251 158.924 7.19131 159.831 7.19131Z" fill="#FF7342" stroke="black" stroke-miterlimit="10"/>
<path d="M178.841 52.7199C180.223 52.7199 181.343 51.7922 181.343 50.6477C181.343 49.5033 180.223 48.5755 178.841 48.5755C177.459 48.5755 176.338 49.5033 176.338 50.6477C176.338 51.7922 177.459 52.7199 178.841 52.7199Z" fill="#FFD9A1" stroke="black" stroke-miterlimit="10"/>
<path d="M161.442 32.8091C161.995 32.8091 162.444 32.4378 162.444 31.9797C162.444 31.5217 161.995 31.1503 161.442 31.1503C160.889 31.1503 160.44 31.5217 160.44 31.9797C160.44 32.4378 160.889 32.8091 161.442 32.8091Z" fill="#FFC043" stroke="black" stroke-miterlimit="10"/>
<path d="M159.395 41.6855L159.414 41.6517C159.637 41.3097 159.777 40.9345 159.825 40.5477C159.873 40.1609 159.829 39.77 159.694 39.3974C159.56 39.0248 159.338 38.6778 159.042 38.3762C158.745 38.0747 158.38 37.8245 157.966 37.6399C157.553 37.4551 157.1 37.3395 156.632 37.2998C156.165 37.2601 155.693 37.2971 155.243 37.4087C154.793 37.5203 154.374 37.7042 154.01 37.95C153.646 38.1958 153.344 38.4986 153.121 38.8411L152.992 39.0361C152.498 39.7908 151.689 40.371 150.716 40.6689C149.303 41.1121 148.13 41.9623 147.413 43.0635C145.767 45.5881 147.567 47.7279 150.619 49.0903C153.671 50.4527 156.817 50.5255 158.469 47.9983C159.215 46.8525 159.414 45.5158 159.024 44.2543C158.754 43.3899 158.886 42.4729 159.395 41.6855Z" fill="#FFA42C" stroke="black" stroke-miterlimit="10"/>
<path d="M157.228 32.778C157.626 32.9758 157.973 33.2368 158.248 33.5458C158.524 33.8549 158.723 34.2059 158.834 34.5789C158.946 34.9519 158.967 35.3394 158.897 35.7192C158.827 36.0989 158.667 36.4635 158.426 36.792L157.941 37.4607C157.14 37.0623 156.563 36.4168 156.337 35.6661C156.111 34.9154 156.254 34.1211 156.735 33.4578L157.22 32.7892L157.228 32.778Z" fill="#C0D45C" stroke="black" stroke-miterlimit="10"/>
<path d="M156.459 37.9155C156.459 37.9155 156.588 39.1635 158.368 39.1427L156.459 37.9155Z" fill="black"/>
<path d="M156.459 37.9155C156.459 37.9155 156.588 39.1635 158.368 39.1427" stroke="black" stroke-miterlimit="10"/>
<path d="M162.444 36.0357C159.477 35.0503 157.059 38.8203 157.059 38.8203L162.444 36.0357Z" fill="black"/>
<path d="M162.444 36.0357C159.477 35.0503 157.059 38.8203 157.059 38.8203" stroke="black" stroke-miterlimit="10"/>
<path d="M156.459 37.9155C156.459 37.9155 156.588 39.1635 158.368 39.1427L156.459 37.9155Z" fill="black"/>
<path d="M156.459 37.9155C156.459 37.9155 156.588 39.1635 158.368 39.1427" stroke="black" stroke-miterlimit="10"/>
<path d="M162.337 13.1011L158.918 22.1647L162.337 13.1011Z" fill="black"/>
<path d="M162.337 13.1011L158.918 22.1647" stroke="black" stroke-miterlimit="10"/>
<path d="M166.554 11.5151L163.511 19.7415L166.554 11.5151Z" fill="black"/>
<path d="M166.554 11.5151L163.511 19.7415" stroke="black" stroke-miterlimit="10"/>
<path d="M159.365 69.7346V73.6476H180.544V69.8334" fill="#FF7342"/>
<path d="M159.365 69.7346V73.6476H180.544V69.8334" fill="black"/>
<path d="M159.365 69.7346V73.6476H180.544V69.8334" stroke="black" stroke-miterlimit="10"/>
<path d="M180.544 68.6816H159.365V71.045H180.544V68.6816Z" fill="black" stroke="black" stroke-miterlimit="10"/>
<path d="M144.146 55.2006H196.86V55.653C196.86 63.5164 189.161 69.8906 179.665 69.8906H161.34C151.844 69.8906 144.146 63.5164 144.146 55.653V55.211V55.2006Z" fill="#FF7342" stroke="black" stroke-miterlimit="10"/>
<path d="M142.601 73.6476H195.68H142.601Z" fill="black"/>
<path d="M142.601 73.6476H195.68" stroke="black" stroke-miterlimit="10"/>
<path d="M177.073 30.6875L175.604 33.0561L177.073 30.6875Z" fill="black"/>
<path d="M177.073 30.6875L175.604 33.0561" stroke="black" stroke-miterlimit="10"/>
</g>
<path d="M172.933 7.37701H177.806H172.933Z" fill="black"/>
<path d="M172.933 7.37701H177.806" stroke="black"/>
</g>
<path d="M1.14138 29.2324C1.70088 29.2548 2.45061 29.2772 3.39057 29.2996C4.35291 29.322 5.30406 29.3331 6.24402 29.3331C7.31826 29.3331 8.35893 29.322 9.36603 29.2996C10.3731 29.2772 11.0893 29.266 11.5145 29.266C13.5959 29.266 15.3191 29.501 16.6843 29.971C18.0719 30.4186 19.1013 31.0788 19.7727 31.9516C20.4665 32.8244 20.8134 33.8763 20.8134 35.1072C20.8134 35.8681 20.6567 36.6402 20.3434 37.4235C20.0301 38.1844 19.493 38.9006 18.7321 39.572C17.9935 40.221 16.9752 40.7469 15.6772 41.1498C14.3792 41.5302 12.7454 41.7205 10.776 41.7205H7.55325V41.0491H10.4403C11.7607 41.0491 12.7566 40.8029 13.428 40.3105C14.1218 39.7958 14.5918 39.1244 14.8379 38.2963C15.1065 37.4459 15.2408 36.5059 15.2408 35.4765C15.2408 33.7084 14.9275 32.3433 14.3008 31.3809C13.6742 30.3962 12.5999 29.9038 11.0781 29.9038C10.2053 29.9038 9.63459 30.0941 9.36603 30.4745C9.11985 30.855 8.99676 31.6271 8.99676 32.7909V49.4416C8.99676 50.2473 9.05271 50.8515 9.16461 51.2544C9.29889 51.6572 9.54507 51.9258 9.90315 52.06C10.2612 52.1943 10.7984 52.2838 11.5145 52.3286V53C10.9103 52.9552 10.1493 52.9329 9.23175 52.9329C8.31417 52.9105 7.3854 52.8993 6.44544 52.8993C5.3712 52.8993 4.35291 52.9105 3.39057 52.9329C2.45061 52.9329 1.70088 52.9552 1.14138 53V52.3286C1.85754 52.2838 2.39466 52.1943 2.75274 52.06C3.11082 51.9258 3.34581 51.6572 3.45771 51.2544C3.59199 50.8515 3.65913 50.2473 3.65913 49.4416V32.7909C3.65913 31.9628 3.59199 31.3585 3.45771 30.9781C3.34581 30.5752 3.09963 30.3067 2.71917 30.1724C2.36109 30.0157 1.83516 29.9262 1.14138 29.9038V29.2324ZM7.48611 41.1498C8.44845 41.1722 9.27651 41.2169 9.97029 41.2841C10.6865 41.3512 11.3131 41.4183 11.8502 41.4855C12.3873 41.5302 12.8685 41.5638 13.2937 41.5862C15.3303 41.7652 16.8298 42.2016 17.7921 42.8954C18.7768 43.5892 19.4146 44.6299 19.7056 46.0174L20.4777 49.4751C20.6791 50.3703 20.8917 50.997 21.1155 51.3551C21.3393 51.7131 21.6638 51.8922 22.0891 51.8922C22.38 51.8698 22.615 51.8027 22.794 51.6908C22.9955 51.5565 23.2081 51.3663 23.4319 51.1201L23.9018 51.5229C23.2976 52.2167 22.6486 52.7091 21.9548 53C21.261 53.3133 20.4218 53.47 19.437 53.47C18.2285 53.47 17.2326 53.2126 16.4493 52.6979C15.666 52.1831 15.1513 51.232 14.9051 49.8444L14.3008 46.4874C14.1442 45.5475 13.9539 44.7306 13.7301 44.0368C13.5063 43.3206 13.193 42.7611 12.7902 42.3583C12.4097 41.9331 11.8726 41.7205 11.1788 41.7205H7.55325L7.48611 41.1498ZM29.6887 35.1743C31.6582 35.1743 33.2024 35.7562 34.3214 36.92C35.4404 38.0837 35.9999 39.986 35.9999 42.6269H24.9554L24.8882 41.989H31.7701C31.7925 40.8924 31.7253 39.8853 31.5687 38.9677C31.412 38.0278 31.1658 37.278 30.8301 36.7185C30.4944 36.159 30.0468 35.8793 29.4873 35.8793C28.704 35.8793 28.0326 36.3717 27.4731 37.3564C26.936 38.3411 26.6115 39.9748 26.4996 42.2576L26.6003 42.459C26.5779 42.7276 26.5555 43.0073 26.5332 43.2983C26.5332 43.5892 26.5332 43.8913 26.5332 44.2047C26.5332 45.7489 26.7458 47.0022 27.171 47.9645C27.6186 48.9268 28.1781 49.6318 28.8495 50.0794C29.5209 50.5046 30.2035 50.7172 30.8973 50.7172C31.3672 50.7172 31.8484 50.6501 32.3408 50.5158C32.8555 50.3592 33.3702 50.0906 33.885 49.7101C34.3997 49.3073 34.8809 48.7478 35.3285 48.0316L35.9328 48.2331C35.6642 49.0835 35.239 49.9116 34.6571 50.7172C34.0752 51.5229 33.3367 52.1831 32.4415 52.6979C31.5463 53.2126 30.472 53.47 29.2188 53.47C27.6969 53.47 26.3541 53.1455 25.1904 52.4964C24.0266 51.8474 23.109 50.8627 22.4376 49.5423C21.7886 48.2219 21.4641 46.5434 21.4641 44.5068C21.4641 42.4254 21.811 40.691 22.5048 39.3034C23.2209 37.9159 24.1944 36.8864 25.4253 36.215C26.6786 35.5212 28.0998 35.1743 29.6887 35.1743ZM43.6507 35.1743C44.5235 35.1743 45.318 35.275 46.0342 35.4765C46.7727 35.6555 47.377 35.8905 47.847 36.1814C48.4288 36.5395 48.8764 36.9871 49.1898 37.5242C49.5255 38.039 49.6933 38.6432 49.6933 39.337C49.6933 40.1203 49.4471 40.7693 48.9548 41.2841C48.4624 41.7764 47.8246 42.0226 47.0413 42.0226C46.258 42.0226 45.6313 41.7988 45.1614 41.3512C44.6914 40.9036 44.4564 40.2993 44.4564 39.5384C44.4564 38.8223 44.6802 38.2292 45.1278 37.7592C45.5754 37.2669 46.0901 36.9423 46.672 36.7857C46.493 36.5619 46.2244 36.3717 45.8663 36.215C45.5082 36.0583 45.1054 35.98 44.6578 35.98C43.964 35.98 43.3486 36.1814 42.8115 36.5843C42.2967 36.9871 41.8603 37.5466 41.5022 38.2628C41.1441 38.9789 40.8644 39.8182 40.663 40.7805C40.4839 41.7429 40.3944 42.7947 40.3944 43.9361C40.3944 45.6594 40.607 47.0133 41.0322 47.9981C41.4798 48.9828 42.0393 49.6766 42.7107 50.0794C43.4045 50.4822 44.1207 50.6837 44.8592 50.6837C45.2844 50.6837 45.7432 50.6165 46.2356 50.4822C46.7503 50.348 47.2651 50.0794 47.7798 49.6766C48.3169 49.2737 48.8093 48.703 49.2569 47.9645L49.8276 48.1659C49.5814 48.994 49.1786 49.822 48.6191 50.6501C48.0596 51.4782 47.3322 52.1608 46.437 52.6979C45.5418 53.2126 44.4452 53.47 43.1472 53.47C41.6925 53.47 40.372 53.1567 39.1859 52.53C38.0221 51.881 37.0822 50.8963 36.366 49.5759C35.6722 48.2331 35.3253 46.5098 35.3253 44.4061C35.3253 42.3919 35.6834 40.7022 36.3996 39.337C37.1381 37.9494 38.134 36.9088 39.3873 36.215C40.6406 35.5212 42.0617 35.1743 43.6507 35.1743ZM52.9192 26.9832C53.8591 26.9832 54.5977 27.2182 55.1348 27.6882C55.6943 28.1358 55.974 28.7625 55.974 29.5681C55.974 30.3738 55.6943 31.0116 55.1348 31.4816C54.5977 31.9292 53.8591 32.153 52.9192 32.153C51.9792 32.153 51.2295 31.9292 50.67 31.4816C50.1329 31.0116 49.8643 30.3738 49.8643 29.5681C49.8643 28.7625 50.1329 28.1358 50.67 27.6882C51.2295 27.2182 51.9792 26.9832 52.9192 26.9832ZM55.5376 35.275V49.878C55.5376 50.8179 55.6943 51.4558 56.0076 51.7915C56.3433 52.1272 56.9028 52.295 57.6861 52.295V53C57.2833 52.9776 56.6566 52.9552 55.8062 52.9329C54.9557 52.8881 54.0941 52.8657 53.2213 52.8657C52.3485 52.8657 51.4645 52.8881 50.5693 52.9329C49.6741 52.9552 49.0027 52.9776 48.5551 53V52.295C49.3384 52.295 49.8867 52.1272 50.2 51.7915C50.5357 51.4558 50.7035 50.8179 50.7035 49.878V39.3034C50.7035 38.2963 50.5469 37.5578 50.2336 37.0878C49.9426 36.5955 49.3831 36.3493 48.5551 36.3493V35.6443C49.2712 35.7114 49.965 35.745 50.6364 35.745C51.5764 35.745 52.4492 35.7114 53.2549 35.6443C54.0829 35.5548 54.8438 35.4317 55.5376 35.275ZM62.971 35.275V55.7527C62.971 56.8046 63.2396 57.4984 63.7767 57.8341C64.3138 58.1922 65.0524 58.3712 65.9923 58.3712V59.0762C65.4104 59.0538 64.6048 59.0202 63.5753 58.9755C62.5682 58.9531 61.4939 58.9419 60.3526 58.9419C59.5245 58.9419 58.7076 58.9531 57.902 58.9755C57.1187 59.0202 56.5256 59.0538 56.1227 59.0762V58.3712C56.8613 58.3712 57.376 58.2145 57.667 57.9012C57.9803 57.5879 58.1369 56.9836 58.1369 56.0884V39.3034C58.1369 38.2963 57.9803 37.5578 57.667 37.0878C57.3536 36.5955 56.7941 36.3493 55.9885 36.3493V35.6443C56.7046 35.7114 57.3984 35.745 58.0698 35.745C58.9874 35.745 59.8602 35.7114 60.6883 35.6443C61.5163 35.5548 62.2772 35.4317 62.971 35.275ZM68.1744 35.1743C69.3158 35.1743 70.334 35.4876 71.2292 36.1143C72.1244 36.7185 72.8406 37.6473 73.3777 38.9006C73.9148 40.1315 74.1834 41.6757 74.1834 43.5333C74.1834 45.167 73.9932 46.5993 73.6127 47.8302C73.2546 49.0611 72.7287 50.1018 72.0349 50.9522C71.3635 51.7803 70.5467 52.4069 69.5843 52.8321C68.6444 53.2574 67.5813 53.47 66.3952 53.47C65.5223 53.47 64.7279 53.3133 64.0117 53C63.2955 52.7091 62.7472 52.2838 62.3668 51.7243L62.7025 51.2879C62.9263 51.6908 63.2396 52.0041 63.6424 52.2279C64.0676 52.4517 64.5488 52.5636 65.0859 52.5636C66.093 52.5636 66.8875 52.2279 67.4694 51.5565C68.0513 50.8627 68.4653 49.9004 68.7115 48.6695C68.9801 47.4162 69.1143 45.9279 69.1143 44.2047C69.1143 42.28 68.9912 40.7693 68.7451 39.6727C68.4989 38.5761 68.1632 37.7928 67.738 37.3228C67.3127 36.8528 66.798 36.6178 66.1937 36.6178C65.3881 36.6178 64.6495 36.9312 63.9781 37.5578C63.3291 38.1844 62.9598 39.0796 62.8703 40.2434L62.7025 39.0684C63.1053 37.7928 63.7879 36.8304 64.7502 36.1814C65.735 35.51 66.8763 35.1743 68.1744 35.1743ZM81.8914 35.1743C83.8608 35.1743 85.4051 35.7562 86.5241 36.92C87.6431 38.0837 88.2026 39.986 88.2026 42.6269H77.158L77.0909 41.989H83.9727C83.9951 40.8924 83.928 39.8853 83.7713 38.9677C83.6147 38.0278 83.3685 37.278 83.0328 36.7185C82.6971 36.159 82.2495 35.8793 81.69 35.8793C80.9067 35.8793 80.2353 36.3717 79.6758 37.3564C79.1387 38.3411 78.8141 39.9748 78.7022 42.2576L78.803 42.459C78.7806 42.7276 78.7582 43.0073 78.7358 43.2983C78.7358 43.5892 78.7358 43.8913 78.7358 44.2047C78.7358 45.7489 78.9484 47.0022 79.3736 47.9645C79.8212 48.9268 80.3807 49.6318 81.0521 50.0794C81.7235 50.5046 82.4061 50.7172 83.0999 50.7172C83.5699 50.7172 84.0511 50.6501 84.5434 50.5158C85.0582 50.3592 85.5729 50.0906 86.0876 49.7101C86.6024 49.3073 87.0836 48.7478 87.5312 48.0316L88.1354 48.2331C87.8669 49.0835 87.4416 49.9116 86.8598 50.7172C86.2779 51.5229 85.5393 52.1831 84.6441 52.6979C83.7489 53.2126 82.6747 53.47 81.4214 53.47C79.8996 53.47 78.5568 53.1455 77.393 52.4964C76.2293 51.8474 75.3117 50.8627 74.6403 49.5423C73.9913 48.2219 73.6667 46.5434 73.6667 44.5068C73.6667 42.4254 74.0136 40.691 74.7074 39.3034C75.4236 37.9159 76.3971 36.8864 77.628 36.215C78.8813 35.5212 80.3024 35.1743 81.8914 35.1743ZM103.642 26.7147V49.3073C103.642 50.3144 103.798 51.0641 104.112 51.5565C104.425 52.0265 104.984 52.2615 105.79 52.2615V52.9664C105.096 52.8993 104.403 52.8657 103.709 52.8657C102.769 52.8657 101.885 52.8993 101.057 52.9664C100.251 53.0336 99.5013 53.1567 98.8075 53.3357V30.7431C98.8075 29.736 98.6509 28.9974 98.3375 28.5275C98.0466 28.0351 97.4871 27.7889 96.659 27.7889V27.084C97.3752 27.1511 98.069 27.1847 98.7404 27.1847C99.658 27.1847 100.531 27.1511 101.359 27.084C102.187 26.9944 102.948 26.8713 103.642 26.7147ZM95.0813 35.1743C96.066 35.1743 96.9276 35.3422 97.6661 35.6779C98.4271 35.9912 99.0201 36.5283 99.4454 37.2892L99.0425 37.6585C98.7516 37.1214 98.3599 36.7409 97.8676 36.5171C97.3976 36.2709 96.894 36.1479 96.3569 36.1479C95.2155 36.1479 94.3091 36.8193 93.6377 38.1621C92.9663 39.4825 92.6418 41.5302 92.6642 44.3054C92.6642 46.2077 92.7873 47.7295 93.0335 48.8709C93.302 49.9899 93.6713 50.7956 94.1413 51.2879C94.6337 51.7803 95.1932 52.0265 95.8198 52.0265C96.5807 52.0265 97.2633 51.7243 97.8676 51.1201C98.4718 50.5158 98.7963 49.6989 98.8411 48.6695L99.0089 49.8444C98.6732 51.0306 98.1249 51.9369 97.364 52.5636C96.6255 53.1679 95.6519 53.47 94.4434 53.47C93.123 53.47 91.9369 53.1455 90.885 52.4964C89.8555 51.8474 89.0498 50.8515 88.468 49.5087C87.8861 48.1435 87.5951 46.3867 87.5951 44.2382C87.5951 42.2016 87.9197 40.5231 88.5687 39.2027C89.2177 37.8599 90.1017 36.8528 91.2207 36.1814C92.3621 35.51 93.6489 35.1743 95.0813 35.1743ZM108.531 26.9832C109.471 26.9832 110.21 27.2182 110.747 27.6882C111.306 28.1358 111.586 28.7625 111.586 29.5681C111.586 30.3738 111.306 31.0116 110.747 31.4816C110.21 31.9292 109.471 32.153 108.531 32.153C107.591 32.153 106.842 31.9292 106.282 31.4816C105.745 31.0116 105.476 30.3738 105.476 29.5681C105.476 28.7625 105.745 28.1358 106.282 27.6882C106.842 27.2182 107.591 26.9832 108.531 26.9832ZM111.15 35.275V49.878C111.15 50.8179 111.306 51.4558 111.62 51.7915C111.955 52.1272 112.515 52.295 113.298 52.295V53C112.895 52.9776 112.269 52.9552 111.418 52.9329C110.568 52.8881 109.706 52.8657 108.833 52.8657C107.961 52.8657 107.077 52.8881 106.181 52.9329C105.286 52.9552 104.615 52.9776 104.167 53V52.295C104.95 52.295 105.499 52.1272 105.812 51.7915C106.148 51.4558 106.316 50.8179 106.316 49.878V39.3034C106.316 38.2963 106.159 37.5578 105.846 37.0878C105.555 36.5955 104.995 36.3493 104.167 36.3493V35.6443C104.883 35.7114 105.577 35.745 106.249 35.745C107.188 35.745 108.061 35.7114 108.867 35.6443C109.695 35.5548 110.456 35.4317 111.15 35.275ZM116.368 53.235C115.36 53.235 114.521 53.0448 113.85 52.6643C113.178 52.2838 112.686 51.7803 112.373 51.1536C112.059 50.5046 111.903 49.7997 111.903 49.0387C111.903 48.0764 112.115 47.2931 112.541 46.6888C112.988 46.0846 113.559 45.5922 114.253 45.2118C114.946 44.8313 115.674 44.518 116.435 44.2718C117.218 44.0256 117.956 43.7906 118.65 43.5668C119.366 43.3206 119.937 43.0409 120.362 42.7276C120.81 42.3919 121.034 41.9667 121.034 41.4519V38.8335C121.034 38.2516 120.933 37.7368 120.732 37.2892C120.553 36.8193 120.262 36.4612 119.859 36.215C119.478 35.9688 118.975 35.8457 118.348 35.8457C117.901 35.8457 117.453 35.9129 117.005 36.0472C116.558 36.1591 116.188 36.3605 115.898 36.6514C116.524 36.8752 117.005 37.2221 117.341 37.6921C117.699 38.1397 117.878 38.6544 117.878 39.2363C117.878 39.9972 117.61 40.6015 117.072 41.0491C116.558 41.4967 115.942 41.7205 115.226 41.7205C114.42 41.7205 113.805 41.4743 113.38 40.9819C112.977 40.4672 112.776 39.8517 112.776 39.1356C112.776 38.4866 112.932 37.9494 113.246 37.5242C113.581 37.099 114.04 36.6962 114.622 36.3157C115.249 35.9576 115.998 35.6779 116.871 35.4765C117.766 35.275 118.729 35.1743 119.758 35.1743C120.788 35.1743 121.716 35.2862 122.544 35.51C123.372 35.7114 124.066 36.0919 124.626 36.6514C125.14 37.1661 125.476 37.804 125.633 38.5649C125.789 39.3034 125.868 40.2434 125.868 41.3848V50.5158C125.868 51.0753 125.924 51.467 126.036 51.6908C126.148 51.8922 126.338 51.9929 126.606 51.9929C126.808 51.9929 126.998 51.9369 127.177 51.8251C127.378 51.7131 127.591 51.5789 127.815 51.4222L128.151 51.9929C127.681 52.3957 127.132 52.7091 126.506 52.9329C125.901 53.1343 125.219 53.235 124.458 53.235C123.63 53.235 122.97 53.1231 122.477 52.8993C121.985 52.6531 121.627 52.3286 121.403 51.9258C121.202 51.5229 121.101 51.0529 121.101 50.5158C120.564 51.3663 119.915 52.0377 119.154 52.53C118.393 53 117.464 53.235 116.368 53.235ZM118.751 51.0865C119.199 51.0865 119.601 50.9858 119.96 50.7844C120.34 50.5606 120.698 50.2025 121.034 49.7101V42.8283C120.832 43.164 120.553 43.4661 120.194 43.7347C119.836 44.0032 119.456 44.283 119.053 44.5739C118.65 44.8425 118.259 45.1446 117.878 45.4803C117.52 45.816 117.229 46.23 117.005 46.7224C116.782 47.2148 116.67 47.8078 116.67 48.5016C116.67 49.3744 116.86 50.0235 117.24 50.4487C117.621 50.8739 118.124 51.0865 118.751 51.0865Z" fill="#FFA42C"/>
<defs>
<clipPath id="clip0_93_391">
<rect width="67.255" height="73.648" fill="white" transform="translate(135)"/>
</clipPath>
</defs>
</svg>
