<svg width="42" height="42" viewBox="0 0 42 42" fill="none" xmlns="http://www.w3.org/2000/svg">
<path d="M21 16.1507C21.4095 14.1907 23.7073 5.24999 30.4185 5.24999C34.3035 5.24999 38.5 7.96424 38.5 14.0052C38.5 20.8425 32.1528 28.8277 21 36.106C9.84725 28.8277 3.5 20.8425 3.5 14.0052C3.5 7.90824 7.64575 5.24649 11.5098 5.24649C18.375 5.24649 20.5135 14.217 21 16.1507ZM0 14.0052C0 21.1242 5.355 30.597 21 40.25C36.645 30.597 42 21.1242 42 14.0052C42 0.0717375 25.116 -1.79376 21 7.46549C16.9085 -1.74301 0 -0.00701261 0 14.0052Z" fill="black"/>
</svg>
