<svg width="92" height="92" viewBox="0 0 92 92" fill="none" xmlns="http://www.w3.org/2000/svg">
<path d="M69 53.6667C66.7351 53.6817 64.5017 54.1982 62.4603 55.1791C60.4189 56.1601 58.6201 57.5811 57.1933 59.34L37.6433 50.3317C38.5625 47.5171 38.5625 44.483 37.6433 41.6684L57.1933 32.66C59.4995 35.4429 62.7146 37.3217 66.2712 37.9648C69.8278 38.6078 73.4973 37.9739 76.6319 36.1748C79.7666 34.3758 82.165 31.5272 83.4039 28.1319C84.6428 24.7366 84.6424 21.0128 83.403 17.6177C82.1635 14.2226 79.7645 11.3745 76.6295 9.57596C73.4945 7.77746 69.8249 7.14419 66.2685 7.78792C62.712 8.43166 59.4972 10.311 57.1915 13.0943C54.8858 15.8776 53.6374 19.3859 53.6666 23C53.6782 23.9133 53.7679 24.8238 53.935 25.7217L33.695 35.0367C31.5371 32.9268 28.8046 31.5005 25.8397 30.9367C22.8749 30.3728 19.8096 30.6965 17.0278 31.867C14.2461 33.0376 11.8717 35.003 10.202 37.5171C8.53234 40.0312 7.64172 42.982 7.64172 46C7.64172 49.018 8.53234 51.9689 10.202 54.483C11.8717 56.997 14.2461 58.9625 17.0278 60.133C19.8096 61.3036 22.8749 61.6272 25.8397 61.0634C28.8046 60.4996 31.5371 59.0733 33.695 56.9634L53.935 66.2784C53.7679 67.1763 53.6782 68.0868 53.6666 69C53.6666 72.0327 54.5659 74.9972 56.2508 77.5188C57.9356 80.0403 60.3304 82.0056 63.1322 83.1662C65.934 84.3267 69.017 84.6304 71.9914 84.0387C74.9657 83.4471 77.6979 81.9867 79.8423 79.8423C81.9867 77.6979 83.447 74.9658 84.0387 71.9914C84.6303 69.017 84.3267 65.934 83.1661 63.1322C82.0056 60.3304 80.0403 57.9357 77.5187 56.2508C74.9972 54.566 72.0326 53.6667 69 53.6667ZM69 15.3334C70.5163 15.3334 71.9986 15.783 73.2593 16.6254C74.5201 17.4679 75.5028 18.6652 76.083 20.0661C76.6633 21.467 76.8151 23.0085 76.5193 24.4957C76.2235 25.9829 75.4933 27.349 74.4211 28.4212C73.3489 29.4934 71.9828 30.2236 70.4957 30.5194C69.0085 30.8152 67.467 30.6634 66.0661 30.0831C64.6652 29.5028 63.4678 28.5202 62.6254 27.2594C61.7829 25.9986 61.3333 24.5164 61.3333 23C61.3333 20.9667 62.141 19.0167 63.5788 17.5789C65.0166 16.1411 66.9666 15.3334 69 15.3334ZM23 53.6667C21.4836 53.6667 20.0014 53.2171 18.7406 52.3746C17.4798 51.5322 16.4972 50.3348 15.9169 48.9339C15.3366 47.533 15.1848 45.9915 15.4806 44.5043C15.7764 43.0172 16.5066 41.6511 17.5788 40.5789C18.651 39.5067 20.0171 38.7765 21.5043 38.4807C22.9915 38.1849 24.533 38.3367 25.9339 38.917C27.3348 39.4972 28.5321 40.4799 29.3746 41.7407C30.217 43.0014 30.6666 44.4837 30.6666 46C30.6666 48.0334 29.8589 49.9834 28.4211 51.4212C26.9833 52.859 25.0333 53.6667 23 53.6667ZM69 76.6667C67.4836 76.6667 66.0014 76.2171 64.7406 75.3746C63.4798 74.5322 62.4972 73.3348 61.9169 71.9339C61.3366 70.533 61.1848 68.9915 61.4806 67.5043C61.7764 66.0172 62.5066 64.6511 63.5788 63.5789C64.651 62.5067 66.0171 61.7765 67.5043 61.4807C68.9915 61.1849 70.533 61.3367 71.9339 61.917C73.3348 62.4972 74.5321 63.4799 75.3746 64.7407C76.217 66.0014 76.6666 67.4837 76.6666 69C76.6666 71.0334 75.8589 72.9834 74.4211 74.4212C72.9833 75.859 71.0333 76.6667 69 76.6667Z" fill="#1C7054"/>
</svg>
