<svg width="58" height="55" viewBox="0 0 58 55" fill="none" xmlns="http://www.w3.org/2000/svg">
<path d="M34.7928 44.0359C35.5647 44.0359 36.305 43.7471 36.8508 43.233C37.3966 42.719 37.7033 42.0218 37.7033 41.2949V35.8128C37.7033 35.0859 37.3966 34.3887 36.8508 33.8747C36.305 33.3606 35.5647 33.0718 34.7928 33.0718C34.0209 33.0718 33.2806 33.3606 32.7348 33.8747C32.189 34.3887 31.8824 35.0859 31.8824 35.8128V41.2949C31.8824 42.0218 32.189 42.719 32.7348 43.233C33.2806 43.7471 34.0209 44.0359 34.7928 44.0359ZM23.151 44.0359C23.9229 44.0359 24.6631 43.7471 25.209 43.233C25.7548 42.719 26.0614 42.0218 26.0614 41.2949V35.8128C26.0614 35.0859 25.7548 34.3887 25.209 33.8747C24.6631 33.3606 23.9229 33.0718 23.151 33.0718C22.379 33.0718 21.6388 33.3606 21.0929 33.8747C20.5471 34.3887 20.2405 35.0859 20.2405 35.8128V41.2949C20.2405 42.0218 20.5471 42.719 21.0929 43.233C21.6388 43.7471 22.379 44.0359 23.151 44.0359ZM49.3451 11.1438H45.3287L40.2936 1.68731C40.1397 1.33934 39.9113 1.02501 39.6227 0.763938C39.334 0.502868 38.9912 0.300677 38.6158 0.17C38.2404 0.0393231 37.8404 -0.0170313 37.4408 0.00445879C37.0413 0.0259489 36.6507 0.124822 36.2935 0.294898C35.9363 0.464974 35.6203 0.702599 35.365 0.992922C35.1098 1.28325 34.9208 1.62003 34.8101 1.98222C34.6993 2.34442 34.669 2.72424 34.7211 3.09796C34.7732 3.47167 34.9066 3.83125 35.113 4.15421L38.8093 11.1438H19.1345L22.8308 4.15421C23.1133 3.5153 23.1287 2.79939 22.8739 2.15023C22.6192 1.50106 22.1131 0.966687 21.4572 0.654401C20.8014 0.342114 20.0444 0.275033 19.3383 0.466623C18.6321 0.658213 18.0291 1.09429 17.6502 1.68731L12.6151 11.1438H8.59863C6.54148 11.1732 4.56145 11.8859 3.00777 13.156C1.45408 14.4262 0.426547 16.1722 0.106386 18.0862C-0.213774 20.0002 0.194008 21.9592 1.25781 23.6177C2.32161 25.2762 3.9731 26.5276 5.921 27.1513L8.07475 47.5992C8.29193 49.6346 9.30687 51.5206 10.9214 52.8891C12.5359 54.2576 14.6341 55.0101 16.8061 54.9999H41.1958C43.3679 55.0101 45.4661 54.2576 47.0806 52.8891C48.6951 51.5206 49.7101 49.6346 49.9272 47.5992L52.081 27.1513C54.0331 26.5257 55.6872 25.2697 56.7503 23.6057C57.8133 21.9417 58.2167 19.977 57.889 18.0597C57.5613 16.1424 56.5237 14.3962 54.9599 13.1304C53.3961 11.8646 51.4071 11.1608 49.3451 11.1438ZM44.0772 47.051C44.0048 47.7294 43.6665 48.3581 43.1283 48.8143C42.5901 49.2704 41.8908 49.5213 41.1667 49.5179H16.777C16.053 49.5213 15.3536 49.2704 14.8155 48.8143C14.2773 48.3581 13.939 47.7294 13.8666 47.051L11.8001 27.5898H46.1436L44.0772 47.051ZM49.3451 22.1078H8.59863C7.82672 22.1078 7.08644 21.819 6.54062 21.305C5.9948 20.7909 5.68816 20.0938 5.68816 19.3668C5.68816 18.6398 5.9948 17.9427 6.54062 17.4286C7.08644 16.9146 7.82672 16.6258 8.59863 16.6258H49.3451C50.117 16.6258 50.8573 16.9146 51.4032 17.4286C51.949 17.9427 52.2556 18.6398 52.2556 19.3668C52.2556 20.0938 51.949 20.7909 51.4032 21.305C50.8573 21.819 50.117 22.1078 49.3451 22.1078Z" fill="#D21717"/>
</svg>
