<svg width="709" height="592" viewBox="0 0 709 592" fill="none" xmlns="http://www.w3.org/2000/svg">
<g clip-path="url(#clip0_20_95)">
<path d="M292.14 139.307H288.921V51.0695C288.921 44.3629 287.601 37.722 285.036 31.526C282.471 25.33 278.711 19.7001 273.971 14.9579C269.232 10.2156 263.605 6.45386 257.412 3.88739C251.22 1.32092 244.583 -2.09816e-05 237.88 2.49954e-10H51.0411C44.3383 -2.09816e-05 37.7011 1.32092 31.5085 3.88739C25.3159 6.45386 19.6892 10.2156 14.9496 14.9579C10.21 19.7001 6.4503 25.33 3.88525 31.526C1.32019 37.722 -1.0485e-05 44.3629 0 51.0695V535.147C-6.29101e-06 541.853 1.32021 548.494 3.88526 554.69C6.45032 560.886 10.21 566.516 14.9496 571.258C19.6892 576 25.3159 579.762 31.5085 582.329C37.7011 584.895 44.3383 586.216 51.0411 586.216H237.88C244.583 586.216 251.22 584.895 257.412 582.329C263.605 579.762 269.232 576 273.971 571.258C278.711 566.516 282.471 560.886 285.036 554.69C287.601 548.494 288.921 541.853 288.921 535.147V202.116H292.14V139.307Z" fill="#2F2E41"/>
<path d="M239.939 13.2865H215.551C216.672 16.0378 217.1 19.0228 216.797 21.9786C216.494 24.9344 215.469 27.7703 213.813 30.2364C212.156 32.7026 209.919 34.7233 207.298 36.1206C204.678 37.5178 201.754 38.2488 198.784 38.249H91.7464C88.7768 38.2488 85.8527 37.5178 83.2319 36.1206C80.6111 34.7233 78.3739 32.7026 76.7174 30.2364C75.061 27.7703 74.0361 24.9344 73.7331 21.9786C73.4301 19.0228 73.8582 16.0378 74.9798 13.2865H52.2007C47.1952 13.2865 42.2386 14.273 37.6141 16.1896C32.9895 18.1062 28.7875 20.9154 25.2481 24.4568C21.7086 27.9983 18.9009 32.2026 16.9854 36.8297C15.0698 41.4568 14.0839 46.4161 14.0839 51.4245V534.792C14.0839 539.8 15.0698 544.759 16.9853 549.386C18.9009 554.013 21.7086 558.218 25.248 561.759C28.7875 565.301 32.9895 568.11 37.614 570.026C42.2386 571.943 47.1952 572.93 52.2007 572.93H239.939C244.945 572.93 249.901 571.943 254.526 570.026C259.151 568.11 263.353 565.301 266.892 561.759C270.431 558.218 273.239 554.013 275.155 549.386C277.07 544.759 278.056 539.8 278.056 534.792V51.4245C278.056 46.4161 277.07 41.4568 275.155 36.8297C273.239 32.2026 270.431 27.9983 266.892 24.4568C263.352 20.9154 259.15 18.1062 254.526 16.1896C249.901 14.273 244.945 13.2865 239.939 13.2865Z" fill="white"/>
<path d="M90.7587 111.55H79.5494C79.1553 111.55 78.7773 111.706 78.4986 111.985C78.2199 112.264 78.0633 112.642 78.0633 113.037V117.96C78.0633 118.354 78.2199 118.732 78.4986 119.011C78.7773 119.29 79.1553 119.446 79.5494 119.446H81.4069V126.823H88.9012V119.446H90.7587C91.1529 119.446 91.5309 119.29 91.8096 119.011C92.0883 118.732 92.2448 118.354 92.2448 117.96V113.037C92.2448 112.642 92.0883 112.264 91.8096 111.985C91.5309 111.706 91.1529 111.55 90.7587 111.55Z" fill="#E6E6E6"/>
<path d="M101.986 156.603C95.1211 146.553 91.6116 134.586 91.9604 122.417C91.9666 122.136 91.8755 121.862 91.7026 121.641C91.5297 121.42 91.2855 121.265 91.0116 121.203V119.076H79.1732V121.174H79.01C78.6879 121.174 78.3791 121.303 78.1516 121.531C77.924 121.759 77.7965 122.069 77.7969 122.391C77.7969 122.42 77.798 122.45 77.8002 122.479C78.7329 135.488 75.5835 147.153 68.3522 157.476C67.936 158.069 67.7234 158.781 67.7463 159.506L69.0408 199.57C69.0719 200.464 69.4467 201.311 70.0871 201.935C70.7274 202.558 71.5838 202.91 72.4775 202.918H99.2544C100.158 202.91 101.023 202.55 101.666 201.914C102.308 201.277 102.677 200.415 102.693 199.511L103.192 160.612C103.207 159.184 102.786 157.786 101.986 156.603Z" fill="#E6E6E6"/>
<path d="M97.7472 169.912H74.44C74.095 169.912 73.754 169.986 73.4406 170.13C73.1271 170.275 72.8485 170.485 72.6238 170.747C72.3992 171.009 72.2338 171.316 72.1391 171.648C72.0443 171.98 72.0224 172.329 72.0749 172.67L75.5969 195.576H95.821L100.099 172.747C100.164 172.401 100.152 172.045 100.063 171.705C99.9753 171.364 99.8131 171.047 99.5886 170.777C99.364 170.506 99.0826 170.288 98.7643 170.139C98.4461 169.989 98.0988 169.912 97.7472 169.912Z" fill="white"/>
<path d="M215.54 231.567H204.33C203.936 231.567 203.558 231.724 203.28 232.003C203.001 232.282 202.844 232.66 202.844 233.054V237.977C202.844 238.372 203.001 238.75 203.28 239.029C203.558 239.307 203.936 239.464 204.33 239.464H206.188V246.84H213.682V239.464H215.54C215.934 239.464 216.312 239.307 216.591 239.029C216.869 238.75 217.026 238.372 217.026 237.977V233.054C217.026 232.66 216.869 232.282 216.591 232.003C216.312 231.724 215.934 231.567 215.54 231.567Z" fill="#E6E6E6"/>
<path d="M226.767 276.621C219.902 266.57 216.393 254.603 216.741 242.435C216.748 242.154 216.657 241.88 216.484 241.658C216.311 241.437 216.067 241.283 215.793 241.221V239.094H203.954V241.192H203.791C203.632 241.192 203.474 241.223 203.326 241.285C203.179 241.346 203.045 241.436 202.933 241.549C202.82 241.662 202.731 241.796 202.67 241.943C202.609 242.091 202.578 242.249 202.578 242.409C202.578 242.438 202.579 242.468 202.581 242.497C203.514 255.505 200.365 267.171 193.133 277.494C192.717 278.087 192.504 278.799 192.527 279.523L193.822 319.588C193.853 320.481 194.228 321.328 194.868 321.952C195.508 322.576 196.365 322.928 197.258 322.935H224.035C224.939 322.928 225.804 322.568 226.447 321.931C227.089 321.295 227.458 320.433 227.474 319.529L227.973 280.63C227.988 279.202 227.567 277.803 226.767 276.621Z" fill="#E6E6E6"/>
<path d="M222.528 289.929H199.221C198.876 289.929 198.535 290.004 198.222 290.148C197.908 290.292 197.63 290.502 197.405 290.764C197.18 291.026 197.015 291.334 196.92 291.666C196.825 291.998 196.803 292.346 196.856 292.687L200.378 315.594H220.602L224.88 292.765C224.945 292.419 224.933 292.063 224.845 291.723C224.756 291.382 224.594 291.065 224.37 290.794C224.145 290.524 223.864 290.306 223.545 290.156C223.227 290.007 222.88 289.929 222.528 289.929H222.528Z" fill="white"/>
<path d="M74.9999 401.237H69.6828C69.4959 401.237 69.3166 401.311 69.1844 401.444C69.0522 401.576 68.9779 401.755 68.9779 401.942V404.277C68.9779 404.465 69.0522 404.644 69.1844 404.776C69.3166 404.909 69.4959 404.983 69.6828 404.983H70.564V408.482H74.1188V404.983H74.9999C75.1869 404.983 75.3662 404.909 75.4984 404.776C75.6306 404.644 75.7049 404.465 75.7049 404.277V401.942C75.7049 401.755 75.6306 401.576 75.4984 401.444C75.3662 401.311 75.1869 401.237 74.9999 401.237Z" fill="#E6E6E6"/>
<path d="M80.3256 422.608C77.0692 417.84 75.4045 412.164 75.5699 406.392C75.5729 406.259 75.5297 406.129 75.4477 406.024C75.3656 405.919 75.2498 405.845 75.1199 405.816V404.807H69.5044V405.802H69.427C69.3513 405.802 69.2764 405.817 69.2065 405.846C69.1367 405.875 69.0732 405.918 69.0198 405.972C68.9663 406.025 68.924 406.089 68.8951 406.159C68.8662 406.229 68.8514 406.304 68.8515 406.38C68.8515 406.394 68.8521 406.407 68.8531 406.421C69.3714 412.311 67.7833 418.194 64.3715 423.022C64.1741 423.303 64.0733 423.641 64.0841 423.985L64.6981 442.989C64.7128 443.413 64.8907 443.815 65.1944 444.111C65.4982 444.407 65.9044 444.574 66.3283 444.577H79.0298C79.4585 444.573 79.8689 444.403 80.1736 444.101C80.4783 443.799 80.6532 443.39 80.661 442.961L80.8976 424.509C80.9046 423.832 80.7051 423.169 80.3256 422.608Z" fill="#E6E6E6"/>
<path d="M78.4976 429.594H66.3782V435.657H78.4976V429.594Z" fill="white"/>
<path d="M99.751 401.237H94.434C94.247 401.237 94.0677 401.311 93.9355 401.444C93.8033 401.576 93.729 401.755 93.729 401.942V404.277C93.729 404.465 93.8033 404.644 93.9355 404.776C94.0677 404.909 94.247 404.983 94.434 404.983H95.3151V408.482H98.8699V404.983H99.751C99.938 404.983 100.117 404.909 100.25 404.776C100.382 404.644 100.456 404.465 100.456 404.277V401.942C100.456 401.755 100.382 401.576 100.25 401.444C100.117 401.311 99.938 401.237 99.751 401.237Z" fill="#E6E6E6"/>
<path d="M105.077 422.608C101.82 417.84 100.156 412.164 100.321 406.392C100.324 406.259 100.281 406.129 100.199 406.024C100.117 405.919 100.001 405.845 99.871 405.816V404.807H94.2555V405.802H94.1781C94.1024 405.802 94.0275 405.817 93.9577 405.846C93.8878 405.875 93.8243 405.918 93.7709 405.972C93.7175 406.025 93.6751 406.089 93.6462 406.159C93.6173 406.229 93.6025 406.304 93.6026 406.38C93.6026 406.394 93.6032 406.407 93.6043 406.421C94.1226 412.311 92.5344 418.194 89.1226 423.022C88.9252 423.303 88.8244 423.641 88.8352 423.985L89.4492 442.989C89.464 443.413 89.6418 443.815 89.9455 444.111C90.2493 444.407 90.6555 444.574 91.0794 444.577H103.781C104.21 444.573 104.62 444.403 104.925 444.101C105.229 443.799 105.404 443.39 105.412 442.961L105.649 424.509C105.656 423.832 105.456 423.169 105.077 422.608Z" fill="#E6E6E6"/>
<path d="M103.249 429.594H91.1293V435.657H103.249V429.594Z" fill="white"/>
<path d="M124.502 401.237H119.185C118.998 401.237 118.819 401.311 118.687 401.444C118.554 401.576 118.48 401.755 118.48 401.942V404.277C118.48 404.465 118.554 404.644 118.687 404.776C118.819 404.909 118.998 404.983 119.185 404.983H120.066V408.482H123.621V404.983H124.502C124.689 404.983 124.868 404.909 125.001 404.776C125.133 404.644 125.207 404.465 125.207 404.277V401.942C125.207 401.755 125.133 401.576 125.001 401.444C124.868 401.311 124.689 401.237 124.502 401.237Z" fill="#E6E6E6"/>
<path d="M129.828 422.608C126.571 417.84 124.907 412.164 125.072 406.392C125.075 406.259 125.032 406.129 124.95 406.024C124.868 405.919 124.752 405.845 124.622 405.816V404.807H119.007V405.802H118.929C118.854 405.802 118.779 405.817 118.709 405.846C118.639 405.875 118.575 405.918 118.522 405.972C118.469 406.025 118.426 406.089 118.397 406.159C118.369 406.229 118.354 406.304 118.354 406.38C118.354 406.394 118.354 406.407 118.355 406.421C118.874 412.311 117.286 418.194 113.874 423.022C113.676 423.303 113.576 423.641 113.586 423.985L114.2 442.989C114.215 443.413 114.393 443.815 114.697 444.111C115 444.407 115.407 444.574 115.831 444.577H128.532C128.961 444.573 129.371 444.403 129.676 444.101C129.981 443.799 130.155 443.39 130.163 442.961L130.4 424.509C130.407 423.832 130.207 423.169 129.828 422.608Z" fill="#E6E6E6"/>
<path d="M128 429.594H115.88V435.657H128V429.594Z" fill="white"/>
<path d="M196.067 354.807H184.857C184.662 354.807 184.469 354.845 184.289 354.92C184.108 354.995 183.945 355.104 183.807 355.242C183.669 355.38 183.559 355.544 183.484 355.725C183.41 355.905 183.371 356.099 183.371 356.294V361.217C183.371 361.611 183.528 361.989 183.807 362.268C184.085 362.547 184.463 362.704 184.857 362.704H186.715V370.08H194.209V362.704H196.067C196.461 362.704 196.839 362.547 197.117 362.268C197.396 361.989 197.553 361.611 197.553 361.217V356.294C197.553 356.099 197.514 355.905 197.44 355.725C197.365 355.544 197.255 355.38 197.117 355.242C196.979 355.104 196.816 354.995 196.635 354.92C196.455 354.845 196.262 354.807 196.067 354.807Z" fill="#E6E6E6"/>
<path d="M207.294 399.861C200.429 389.81 196.92 377.843 197.268 365.674C197.275 365.393 197.183 365.119 197.011 364.898C196.838 364.677 196.594 364.522 196.32 364.461V362.334H184.481V364.431H184.318C184.159 364.431 184.001 364.463 183.853 364.524C183.706 364.586 183.572 364.675 183.46 364.788C183.347 364.901 183.258 365.035 183.197 365.183C183.136 365.33 183.105 365.488 183.105 365.648C183.105 365.678 183.106 365.707 183.108 365.737C184.041 378.745 180.892 390.41 173.66 400.733C173.244 401.326 173.031 402.039 173.054 402.763L174.349 442.827C174.38 443.721 174.755 444.568 175.395 445.192C176.035 445.815 176.892 446.168 177.785 446.175H204.562C205.466 446.167 206.331 445.807 206.974 445.171C207.616 444.535 207.985 443.672 208.001 442.768L208.5 403.869C208.515 402.441 208.094 401.043 207.294 399.861Z" fill="#E6E6E6"/>
<path d="M203.055 413.169H179.748C179.403 413.169 179.062 413.243 178.748 413.388C178.435 413.532 178.156 413.742 177.932 414.004C177.707 414.266 177.542 414.574 177.447 414.905C177.352 415.237 177.33 415.586 177.383 415.927L180.905 438.833H201.129L205.407 416.004C205.472 415.658 205.46 415.303 205.371 414.962C205.283 414.622 205.121 414.305 204.896 414.034C204.672 413.763 204.391 413.545 204.072 413.396C203.754 413.246 203.407 413.169 203.055 413.169Z" fill="white"/>
<path d="M202.186 208.075H135.368C140.039 182.804 138.965 152.289 135.368 119.472H202.186C198.685 152.289 197.639 182.804 202.186 208.075Z" fill="#E6E6E6"/>
<path d="M169.18 177.467C178.072 177.467 185.28 170.254 185.28 161.357C185.28 152.46 178.072 145.247 169.18 145.247C160.287 145.247 153.079 152.46 153.079 161.357C153.079 170.254 160.287 177.467 169.18 177.467Z" fill="white"/>
<path d="M141.003 325.676H74.1849C78.8565 300.405 77.7817 269.89 74.1849 237.073H141.003C137.502 269.89 136.456 300.406 141.003 325.676Z" fill="#E6E6E6"/>
<path d="M107.997 295.068C116.889 295.068 124.097 287.855 124.097 278.958C124.097 270.061 116.889 262.848 107.997 262.848C99.1044 262.848 91.8958 270.061 91.8958 278.958C91.8958 287.855 99.1044 295.068 107.997 295.068Z" fill="white"/>
<path d="M240.023 213.714H173.205C177.876 188.443 176.801 157.927 173.205 125.11H240.023C236.522 157.927 235.476 188.443 240.023 213.714Z" fill="#E6E6E6"/>
<path d="M207.016 183.105C215.909 183.105 223.117 175.893 223.117 166.995C223.117 158.098 215.909 150.886 207.016 150.886C198.124 150.886 190.916 158.098 190.916 166.995C190.916 175.893 198.124 183.105 207.016 183.105Z" fill="white"/>
<path d="M240.023 209.686H173.205C177.876 184.415 176.801 153.9 173.205 121.083H240.023C236.522 153.9 235.476 184.415 240.023 209.686Z" fill="#E6E6E6"/>
<path d="M207.016 179.078C215.909 179.078 223.117 171.865 223.117 162.968C223.117 154.071 215.909 146.858 207.016 146.858C198.124 146.858 190.916 154.071 190.916 162.968C190.916 171.865 198.124 179.078 207.016 179.078Z" fill="white"/>
<path d="M240.023 213.714H173.205C177.876 188.443 176.801 157.927 173.205 125.11H240.023C236.522 157.927 235.476 188.443 240.023 213.714Z" fill="#E6E6E6"/>
<path d="M207.016 183.105C215.909 183.105 223.117 175.893 223.117 166.995C223.117 158.098 215.909 150.886 207.016 150.886C198.124 150.886 190.916 158.098 190.916 166.995C190.916 175.893 198.124 183.105 207.016 183.105Z" fill="white"/>
<path d="M255.319 203.242H36.3481V227.407H255.319V203.242Z" fill="#E6E6E6"/>
<path d="M255.319 323.26H36.3481V347.425H255.319V323.26Z" fill="#E6E6E6"/>
<path d="M255.319 443.278H36.3481V467.442H255.319V443.278Z" fill="#E6E6E6"/>
<path d="M636.227 541.312L581.675 502.707C600.074 484.774 616.808 459.239 632.811 430.368L687.363 468.974C665.565 493.744 647.099 518.053 636.227 541.312Z" fill="#DD0426"/>
<path d="M636.242 500.21C645.135 500.21 652.343 492.997 652.343 484.1C652.343 475.203 645.135 467.99 636.242 467.99C627.35 467.99 620.142 475.203 620.142 484.1C620.142 492.997 627.35 500.21 636.242 500.21Z" fill="white"/>
<path d="M373.073 365.145H367.085C366.874 365.145 366.673 365.229 366.524 365.378C366.375 365.527 366.291 365.729 366.291 365.94V368.569C366.291 368.674 366.312 368.777 366.352 368.873C366.391 368.97 366.45 369.057 366.524 369.131C366.597 369.205 366.685 369.263 366.781 369.303C366.878 369.343 366.981 369.364 367.085 369.364H368.077V373.304H372.081V369.364H373.073C373.284 369.364 373.486 369.28 373.635 369.131C373.783 368.982 373.867 368.78 373.867 368.569V365.94C373.867 365.729 373.783 365.527 373.635 365.378C373.486 365.229 373.284 365.145 373.073 365.145Z" fill="#E6E6E6"/>
<path d="M379.071 389.214C375.404 383.844 373.529 377.451 373.715 370.951C373.719 370.801 373.67 370.654 373.578 370.536C373.485 370.418 373.355 370.335 373.208 370.302V369.166H366.884V370.287H366.797C366.712 370.287 366.627 370.304 366.549 370.336C366.47 370.369 366.399 370.417 366.338 370.477C366.278 370.538 366.23 370.609 366.198 370.688C366.165 370.767 366.149 370.851 366.149 370.937C366.149 370.953 366.149 370.968 366.151 370.984C366.734 377.617 364.946 384.243 361.103 389.68C360.881 389.997 360.767 390.377 360.78 390.764L361.471 412.167C361.488 412.644 361.688 413.097 362.03 413.43C362.372 413.763 362.83 413.951 363.307 413.955H377.612C378.095 413.951 378.557 413.759 378.9 413.419C379.243 413.079 379.44 412.618 379.449 412.135L379.715 391.355C379.723 390.592 379.498 389.845 379.071 389.214Z" fill="#DD0426"/>
<path opacity="0.2" d="M371.825 366.002C371.825 366.457 371.644 366.893 371.323 367.214C371.002 367.535 370.566 367.716 370.112 367.716C369.658 367.716 369.222 367.535 368.901 367.214C368.58 366.893 368.399 366.457 368.399 366.002" fill="black"/>
<path d="M376.285 393.337H364.209V401.392H376.285V393.337Z" fill="white"/>
<path d="M562.571 448.758H551.362C550.968 448.758 550.59 448.914 550.311 449.193C550.032 449.472 549.876 449.85 549.876 450.245V455.168C549.876 455.562 550.032 455.94 550.311 456.219C550.59 456.498 550.968 456.654 551.362 456.654H553.219V464.031H560.713V456.654H562.571C562.965 456.654 563.343 456.498 563.622 456.219C563.901 455.94 564.057 455.562 564.057 455.168V450.245C564.057 449.85 563.901 449.472 563.622 449.193C563.343 448.914 562.965 448.758 562.571 448.758Z" fill="#E6E6E6"/>
<path d="M573.798 493.812C566.933 483.761 563.424 471.794 563.773 459.625C563.779 459.344 563.688 459.07 563.515 458.849C563.342 458.628 563.098 458.473 562.824 458.412V456.284H550.986V458.382H550.822C550.663 458.382 550.505 458.414 550.358 458.475C550.21 458.536 550.077 458.626 549.964 458.739C549.851 458.852 549.762 458.986 549.701 459.134C549.64 459.281 549.609 459.439 549.609 459.599C549.609 459.628 549.61 459.658 549.613 459.687C550.545 472.696 547.396 484.361 540.165 494.684C539.748 495.277 539.536 495.989 539.559 496.714L540.853 536.778C540.884 537.672 541.259 538.519 541.899 539.143C542.54 539.766 543.396 540.118 544.29 540.126H571.067C571.971 540.118 572.836 539.758 573.478 539.122C574.12 538.485 574.489 537.623 574.505 536.719L575.004 497.82C575.019 496.392 574.598 494.994 573.798 493.812Z" fill="#FFC043"/>
<path opacity="0.2" d="M560.234 450.362C560.234 451.213 559.896 452.029 559.295 452.63C558.694 453.232 557.878 453.57 557.028 453.57C556.178 453.57 555.362 453.232 554.761 452.63C554.16 452.029 553.822 451.213 553.822 450.362" fill="black"/>
<path d="M569.56 507.12H546.252C545.907 507.12 545.566 507.194 545.253 507.338C544.939 507.483 544.661 507.693 544.436 507.955C544.212 508.217 544.046 508.524 543.951 508.856C543.857 509.188 543.835 509.537 543.887 509.878L547.409 532.784H567.633L571.911 509.955C571.976 509.609 571.964 509.254 571.876 508.913C571.788 508.572 571.625 508.256 571.401 507.985C571.176 507.714 570.895 507.496 570.577 507.347C570.258 507.197 569.911 507.12 569.56 507.12Z" fill="white"/>
<path d="M530.589 541.249H463.771C468.442 515.978 467.368 485.463 463.771 452.646H530.589C527.088 485.463 526.042 515.978 530.589 541.249Z" fill="#1C7054"/>
<path d="M497.582 510.641C506.475 510.641 513.683 503.428 513.683 494.531C513.683 485.634 506.475 478.421 497.582 478.421C488.69 478.421 481.482 485.634 481.482 494.531C481.482 503.428 488.69 510.641 497.582 510.641Z" fill="white"/>
<path d="M257.286 262.401L272.286 261.037L281.832 237.842L264.787 228.291L257.286 262.401Z" fill="#FFB8B8"/>
<path d="M394.948 326.077C395.447 324.833 395.643 323.487 395.52 322.152C395.397 320.817 394.959 319.53 394.242 318.397C393.524 317.265 392.548 316.319 391.393 315.638C390.239 314.957 388.939 314.56 387.602 314.48L364.312 313.091L360.882 324.5L384.858 331.089C386.862 331.639 388.997 331.432 390.858 330.508C392.719 329.584 394.175 328.007 394.948 326.077Z" fill="#FFB8B8"/>
<path d="M369.94 331.28L369.684 309.871L317.952 301.612L278.099 255.878C276.025 253.499 273.16 251.952 270.034 251.524C266.908 251.097 263.733 251.817 261.097 253.552C259.501 254.603 258.155 255.991 257.154 257.62C256.154 259.248 255.523 261.076 255.306 262.975C255.089 264.874 255.292 266.798 255.9 268.61C256.508 270.422 257.506 272.078 258.824 273.462L291.703 313.946L369.94 331.28Z" fill="#FFC043"/>
<path d="M245.695 572.123H259.332L293.156 419.113L328.196 466.381L348.651 568.712H361.606L358.878 458.877L313.196 341.537H268.196C255.898 363.805 246.251 386.76 257.286 410.44L245.695 572.123Z" fill="#2F2E41"/>
<path d="M340.292 581.417C340.141 581.899 340.095 582.409 340.156 582.911C340.217 583.413 340.385 583.896 340.647 584.328C340.91 584.76 341.261 585.132 341.679 585.417C342.096 585.703 342.569 585.896 343.067 585.985L376.435 591.91C377.754 592.151 379.115 591.901 380.262 591.208C381.41 590.514 382.264 589.425 382.664 588.145C383.053 586.921 382.998 585.6 382.51 584.413C382.022 583.226 381.132 582.249 379.995 581.653C372.658 577.884 366.344 572.391 361.593 565.645C357.925 569.062 353.826 568.741 349.474 566.223L344.857 566.8L340.292 581.417Z" fill="#2F2E41"/>
<path d="M239.381 581.417C239.231 581.899 239.184 582.409 239.246 582.911C239.307 583.413 239.474 583.896 239.737 584.328C240 584.76 240.351 585.132 240.768 585.417C241.185 585.703 241.659 585.896 242.156 585.985L275.525 591.91C276.844 592.151 278.205 591.901 279.352 591.208C280.5 590.514 281.354 589.425 281.753 588.145C282.142 586.921 282.088 585.6 281.6 584.413C281.112 583.226 280.221 582.249 279.085 581.653C271.748 577.884 265.433 572.391 260.683 565.645C257.015 569.062 252.916 568.741 248.563 566.223L243.946 566.8L239.381 581.417Z" fill="#2F2E41"/>
<path d="M282.173 246.369C292.717 246.369 301.264 237.817 301.264 227.268C301.264 216.718 292.717 208.166 282.173 208.166C271.629 208.166 263.082 216.718 263.082 227.268C263.082 237.817 271.629 246.369 282.173 246.369Z" fill="#FFB8B8"/>
<path d="M265.127 346.654L314.901 345.289L300.283 299.259C309.367 284.688 300.225 270.132 287.287 255.579L277.059 248.757L260.695 247.393C253.61 254.978 249.734 265.012 249.877 275.393C250.201 297.623 254.135 321.823 265.127 346.654Z" fill="#FFC043"/>
<path d="M379.484 377.638C380.432 376.69 381.141 375.53 381.553 374.254C381.965 372.978 382.068 371.622 381.854 370.299C381.639 368.975 381.114 367.721 380.32 366.641C379.526 365.56 378.487 364.684 377.289 364.084L356.423 353.639L348.784 362.779L368.237 378.273C369.862 379.568 371.907 380.219 373.981 380.101C376.056 379.984 378.014 379.107 379.484 377.638Z" fill="#FFB8B8"/>
<path d="M354.446 372.578L362.628 352.794L318.315 324.838L299.655 267.106C298.684 264.102 296.658 261.552 293.952 259.928C291.247 258.305 288.044 257.717 284.939 258.275C283.058 258.613 281.275 259.359 279.715 260.462C278.155 261.566 276.856 262.998 275.91 264.659C274.964 266.319 274.394 268.168 274.241 270.073C274.087 271.978 274.354 273.894 275.022 275.684L289.332 325.846L354.446 372.578Z" fill="#FFD788"/>
<path d="M250.809 219.763C250.809 227.196 255.633 238.707 261.718 243.641C265.812 246.961 271.223 246.821 273.309 242.276C275.449 237.614 282.826 226.657 295.809 219.763C313.117 210.574 289.672 194.854 273.309 197.251C261.014 199.052 250.809 207.33 250.809 219.763Z" fill="#2F2E41"/>
<path d="M262.4 209.53C269.931 209.53 276.037 203.422 276.037 195.886C276.037 188.351 269.931 182.242 262.4 182.242C254.869 182.242 248.763 188.351 248.763 195.886C248.763 203.422 254.869 209.53 262.4 209.53Z" fill="#2F2E41"/>
<path d="M278.082 191.111C278.081 187.671 276.78 184.359 274.441 181.838C272.102 179.317 268.897 177.774 265.468 177.518C265.807 177.493 266.146 177.467 266.491 177.467C270.108 177.467 273.576 178.904 276.133 181.463C278.691 184.022 280.127 187.492 280.127 191.111C280.127 194.729 278.691 198.2 276.133 200.759C273.576 203.317 270.108 204.755 266.491 204.755C266.146 204.755 265.807 204.728 265.468 204.703C268.897 204.447 272.102 202.904 274.441 200.384C276.78 197.863 278.081 194.551 278.082 191.111Z" fill="#2F2E41"/>
<path d="M282.514 234.09C284.208 234.09 285.582 232.257 285.582 229.997C285.582 227.736 284.208 225.903 282.514 225.903C280.819 225.903 279.446 227.736 279.446 229.997C279.446 232.257 280.819 234.09 282.514 234.09Z" fill="#FFB8B8"/>
<path d="M668.88 547.101H456.602L411.65 334.481H373.286V324.941H419.378L464.33 537.56H668.88V547.101Z" fill="#3F3D56"/>
<path d="M487.71 585.944C498.994 585.944 508.142 576.791 508.142 565.5C508.142 554.209 498.994 545.056 487.71 545.056C476.425 545.056 467.277 554.209 467.277 565.5C467.277 576.791 476.425 585.944 487.71 585.944Z" fill="#3F3D56"/>
<path d="M640.274 585.944C651.559 585.944 660.707 576.791 660.707 565.5C660.707 554.209 651.559 545.056 640.274 545.056C628.99 545.056 619.842 554.209 619.842 565.5C619.842 576.791 628.99 585.944 640.274 585.944Z" fill="#3F3D56"/>
<path d="M665.01 542.608H458.475L422.034 362.422H699.207C700.622 362.422 702.019 362.729 703.304 363.321C704.588 363.913 705.73 364.776 706.649 365.852C707.568 366.927 708.244 368.189 708.629 369.551C709.014 370.912 709.1 372.341 708.881 373.739L674.682 534.332C674.329 536.642 673.158 538.749 671.383 540.268C669.607 541.787 667.346 542.618 665.01 542.608ZM460.718 539.882H665.01C666.696 539.889 668.328 539.29 669.609 538.193C670.89 537.097 671.735 535.576 671.989 533.909L706.189 373.316C706.347 372.307 706.285 371.276 706.007 370.293C705.73 369.31 705.242 368.399 704.579 367.623C703.915 366.847 703.091 366.223 702.164 365.796C701.237 365.369 700.228 365.148 699.207 365.148H425.341L460.718 539.882Z" fill="#3F3D56"/>
<path d="M498.626 542.031L474.761 364.007L477.448 363.562L501.313 541.587L498.626 542.031Z" fill="#3F3D56"/>
<path d="M631.323 540.664L628.633 540.228L651.801 363.567L654.491 364.003L631.323 540.664Z" fill="#3F3D56"/>
<path d="M568.1 363.785H565.376V541.809H568.1V363.785Z" fill="#3F3D56"/>
<path d="M435.95 411.488L435.943 414.214L699.659 414.853L699.665 412.127L435.95 411.488Z" fill="#3F3D56"/>
<path d="M681.056 495.693L449.376 497.278L449.395 500.004L681.074 498.419L681.056 495.693Z" fill="#3F3D56"/>
<path d="M377.373 336.526C385.648 336.526 392.357 332.865 392.357 328.348C392.357 323.832 385.648 320.171 377.373 320.171C369.097 320.171 362.389 323.832 362.389 328.348C362.389 332.865 369.097 336.526 377.373 336.526Z" fill="#3F3D56"/>
</g>
<defs>
<clipPath id="clip0_20_95">
<rect width="709" height="592" fill="white"/>
</clipPath>
</defs>
</svg>
