<?xml version="1.0" encoding="utf-8"?>
<svg viewBox="4.079 6.325 67.255 73.648" xmlns="http://www.w3.org/2000/svg">
  <g opacity="0.65" transform="matrix(1, 0, 0, 1, -35.803471, -2.466674)">
    <path d="M72.9783 55.4068L76.1717 55.9424C77.1279 56.0705 78.1053 56.0414 79.0479 55.8567C79.9905 55.672 80.88 55.3353 81.6655 54.866C82.4511 54.3966 83.1172 53.8038 83.626 53.1212C84.1348 52.4387 84.4762 51.6798 84.6308 50.888C84.7859 50.096 84.7511 49.2865 84.5283 48.5057C84.3054 47.7248 83.8989 46.988 83.3321 46.3373C82.7652 45.6866 82.049 45.1347 81.2245 44.7133C80.4 44.2918 79.4832 44.009 78.5267 43.881L75.3396 43.348" fill="#1C7054"/>
    <path d="M72.9783 55.4068L76.1717 55.9424C77.1279 56.0705 78.1053 56.0414 79.0479 55.8567C79.9905 55.672 80.88 55.3353 81.6655 54.866C82.4511 54.3966 83.1172 53.8038 83.626 53.1212C84.1348 52.4387 84.4762 51.6798 84.6308 50.888V50.888C84.7859 50.096 84.7511 49.2865 84.5283 48.5057C84.3054 47.7248 83.8989 46.988 83.3321 46.3373C82.7652 45.6866 82.049 45.1347 81.2245 44.7133C80.4 44.2918 79.4832 44.009 78.5267 43.881L75.3396 43.348" stroke="black" stroke-miterlimit="10"/>
    <path d="M79.0023 50.0266C79.6529 46.6969 78.0112 43.7071 75.3355 43.3486C72.6597 42.9902 69.9632 45.3989 69.3126 48.7286C68.662 52.0583 70.3037 55.0482 72.9795 55.4066C75.6552 55.7651 78.3517 53.3564 79.0023 50.0266Z" fill="#C0D45C" stroke="black" stroke-miterlimit="10"/>
    <path d="M75.4544 49.4929C75.653 48.4765 75.152 47.5639 74.3354 47.4545C73.5188 47.3451 72.6958 48.0804 72.4973 49.0967C72.2987 50.1131 72.7997 51.0257 73.6163 51.1351C74.4328 51.2444 75.2558 50.5092 75.4544 49.4929Z" fill="black"/>
    <path d="M78.243 50.1762C78.3128 49.9494 78.003 49.6882 77.5509 49.5928C77.0989 49.4974 76.6759 49.6039 76.606 49.8307C76.5362 50.0575 76.8461 50.3187 77.2981 50.4141C77.7501 50.5096 78.1732 50.403 78.243 50.1762Z" fill="black"/>
    <path d="M76.9663 52.6326C77.134 52.4441 76.9655 52.1056 76.59 51.8765C76.2145 51.6473 75.7741 51.6143 75.6064 51.8027C75.4387 51.9911 75.6072 52.3296 75.9827 52.5588C76.3582 52.7879 76.7986 52.821 76.9663 52.6326Z" fill="black"/>
    <path d="M73.9483 54.1901C74.2308 54.1809 74.445 53.8607 74.4269 53.4747C74.4087 53.0887 74.165 52.7832 73.8826 52.7923C73.6001 52.8014 73.3859 53.1217 73.404 53.5077C73.4222 53.8937 73.6659 54.1992 73.9483 54.1901Z" fill="black"/>
    <path d="M71.7912 52.7211C72.1888 52.519 72.3912 52.1935 72.2434 51.994C72.0955 51.7945 71.6534 51.7966 71.2558 51.9987C70.8582 52.2007 70.6558 52.5262 70.8036 52.7257C70.9515 52.9252 71.3937 52.9231 71.7912 52.7211Z" fill="black"/>
    <path d="M70.8006 50.4742C71.2641 50.4305 71.6139 50.2066 71.582 49.9741C71.55 49.7415 71.1484 49.5884 70.6849 49.632C70.2214 49.6757 69.8715 49.8996 69.9035 50.1322C69.9354 50.3647 70.3371 50.5179 70.8006 50.4742Z" fill="black"/>
    <path d="M72.0339 47.9701C72.1528 47.7577 71.9061 47.4539 71.4828 47.2914C71.0596 47.129 70.6201 47.1694 70.5013 47.3818C70.3824 47.5942 70.6291 47.898 71.0523 48.0604C71.4756 48.2229 71.915 48.1824 72.0339 47.9701Z" fill="black"/>
    <path d="M73.5064 46.2761C73.7227 46.1254 73.6545 45.7637 73.3542 45.4681C73.0538 45.1726 72.635 45.0551 72.4187 45.2058C72.2024 45.3565 72.2706 45.7183 72.5709 46.0138C72.8713 46.3094 73.2901 46.4268 73.5064 46.2761Z" fill="black"/>
    <path d="M76.1841 45.6248C76.3483 45.2632 76.2669 44.9033 76.0024 44.821C75.7378 44.7386 75.3902 44.9649 75.226 45.3264C75.0618 45.688 75.1431 46.0478 75.4077 46.1302C75.6723 46.2126 76.0199 45.9863 76.1841 45.6248Z" fill="black"/>
    <path d="M77.4854 47.8176C77.9291 47.6982 78.2179 47.4209 78.1305 47.1983C78.0431 46.9757 77.6126 46.8921 77.1689 47.0115C76.7253 47.131 76.4365 47.4082 76.5239 47.6308C76.6113 47.8534 77.0418 47.937 77.4854 47.8176Z" fill="black"/>
    <path d="M70.2119 31.6064L79.8015 37.1574C80.7473 37.6862 81.461 38.4542 81.8362 39.3466C81.8436 39.3745 81.858 39.4007 81.8786 39.4236C81.8992 39.4465 81.9254 39.4654 81.9555 39.4792L85.9119 40.9326C88.2512 41.7906 88.7128 42.113 90.7224 43.4312L91.0144 43.6236C91.1772 43.7332 91.3723 43.805 91.5796 43.8316L91.6895 43.8446C91.8757 43.8681 92.0523 43.9281 92.2047 44.0196C92.3572 44.1111 92.4809 44.2315 92.5657 44.3707C92.6506 44.5099 92.6939 44.6638 92.6923 44.8197C92.6906 44.9756 92.6439 45.1289 92.5562 45.2668L92.2422 45.7712C92.1703 45.8852 92.0721 45.9863 91.953 46.0688C91.8339 46.1513 91.6963 46.2135 91.5482 46.2519C91.4 46.2903 91.2441 46.3041 91.0895 46.2926C90.9349 46.281 90.7845 46.2443 90.6471 46.1846C90.5298 46.1294 90.4239 46.0592 90.3331 45.9766C90.19 45.8457 90.0065 45.7495 89.8024 45.6984L89.6548 45.662L89.3408 45.5814L89.1085 45.519C86.9105 44.9522 86.3358 44.8066 84.2634 43.7562L80.5143 41.8478L80.4892 41.8348C80.4335 41.8175 80.3721 41.8175 80.3165 41.8348C79.1787 42.09 77.9741 42.0528 76.8625 41.7282L65.9604 38.3482C65.7225 38.274 65.5062 38.159 65.3258 38.0107C65.1454 37.8624 65.0049 37.6842 64.9136 37.4878C64.8222 37.2913 64.7821 37.0811 64.7958 36.8709C64.8096 36.6608 64.8769 36.4553 64.9933 36.2682L67.6026 32.1602C67.7196 31.9732 67.8829 31.8088 68.0819 31.6777C68.281 31.5467 68.5112 31.4519 68.7575 31.3996C69.0039 31.3473 69.2608 31.3387 69.5114 31.3744C69.7621 31.41 70.0008 31.4891 70.2119 31.6064Z" fill="#FFD9A1" stroke="black" stroke-miterlimit="10"/>
    <path d="M67.5084 37.1912L73.264 39.1048" stroke="black" stroke-miterlimit="10"/>
    <path d="M69.854 33.4992L75.0193 36.341" stroke="black" stroke-miterlimit="10"/>
    <path d="M68.6136 35.3296L74.1086 37.5994" stroke="black" stroke-miterlimit="10"/>
    <path d="M91.3535 43.842L90.085 45.8414" stroke="black" stroke-miterlimit="10"/>
    <path d="M81.0795 42.1026L84.0123 40.2566L81.9744 39.4428L80.4358 41.866" fill="black"/>
    <path d="M81.0795 42.1026L84.0123 40.2566L81.9744 39.4428L80.4358 41.866" stroke="black" stroke-miterlimit="10"/>
    <path d="M70.2119 31.6064L79.8015 37.1574C80.7473 37.6862 81.461 38.4542 81.8362 39.3466C81.8436 39.3745 81.858 39.4007 81.8786 39.4236C81.8992 39.4465 81.9254 39.4654 81.9555 39.4792L85.9119 40.9326C88.2512 41.7906 88.7128 42.113 90.7224 43.4312L91.0144 43.6236C91.1772 43.7332 91.3723 43.805 91.5796 43.8316L91.6895 43.8446C91.8757 43.8681 92.0523 43.9281 92.2047 44.0196C92.3572 44.1111 92.4809 44.2315 92.5657 44.3707C92.6506 44.5099 92.6939 44.6638 92.6923 44.8197C92.6906 44.9756 92.6439 45.1289 92.5562 45.2668L92.2422 45.7712C92.1703 45.8852 92.0721 45.9863 91.953 46.0688C91.8339 46.1513 91.6963 46.2135 91.5482 46.2519C91.4 46.2903 91.2441 46.3041 91.0895 46.2926C90.9349 46.281 90.7845 46.2443 90.6471 46.1846C90.5298 46.1294 90.4239 46.0592 90.3331 45.9766C90.19 45.8457 90.0065 45.7495 89.8024 45.6984L89.6548 45.662L89.3408 45.5814L89.1085 45.519C86.9105 44.9522 86.3358 44.8066 84.2634 43.7562L80.5143 41.8478L80.4892 41.8348C80.4335 41.8175 80.3721 41.8175 80.3165 41.8348C79.1787 42.09 77.9741 42.0528 76.8625 41.7282L65.9604 38.3482C65.7225 38.274 65.5062 38.159 65.3258 38.0107C65.1454 37.8624 65.0049 37.6842 64.9136 37.4878C64.8222 37.2913 64.7821 37.0811 64.7958 36.8709C64.8096 36.6608 64.8769 36.4553 64.9933 36.2682L67.6026 32.1602C67.7196 31.9732 67.8829 31.8088 68.0819 31.6777C68.281 31.5467 68.5112 31.4519 68.7575 31.3996C69.0039 31.3473 69.2608 31.3387 69.5114 31.3744C69.7621 31.41 70.0008 31.4891 70.2119 31.6064Z" fill="#F1F2EB" stroke="black" stroke-miterlimit="10"/>
    <path d="M67.5084 37.1912L73.264 39.1048" stroke="black" stroke-miterlimit="10"/>
    <path d="M69.854 33.4992L75.0193 36.341" stroke="black" stroke-miterlimit="10"/>
    <path d="M68.6136 35.3296L74.1086 37.5994" stroke="black" stroke-miterlimit="10"/>
    <path d="M91.3535 43.842L90.085 45.8414" stroke="black" stroke-miterlimit="10"/>
    <path d="M98.7482 52.3804L96.2865 51.1558C95.1725 50.6023 93.8387 50.4376 92.5781 50.6979C91.3175 50.9582 90.2333 51.6223 89.5637 52.5442L88.5495 53.943C88.0345 54.6535 87.7942 55.4774 87.861 56.3042C87.9278 57.131 88.2985 57.9211 88.9232 58.5684C89.7705 59.4459 90.2312 60.5364 90.2294 61.6598V61.8678L90.5968 62.0498C91.8151 61.4856 93.0083 61.0618 94.3868 61.2568C95.3592 61.3942 96.3591 61.2853 97.2555 60.9443C98.1519 60.6034 98.9031 60.0462 99.4108 59.3458L100.425 57.947C100.756 57.4904 100.976 56.9842 101.071 56.4572C101.166 55.9303 101.135 55.393 100.979 54.8761C100.824 54.3592 100.546 53.8727 100.164 53.4445C99.7808 53.0163 99.2999 52.6547 98.7482 52.3804Z" fill="#DD0426" stroke="black" stroke-miterlimit="10"/>
    <path d="M105.094 47.9734C105.207 47.8188 105.279 47.6464 105.306 47.4674C105.334 47.2883 105.316 47.1065 105.254 46.9334C105.2 46.7826 105.213 46.6206 105.292 46.4773C105.37 46.334 105.509 46.2189 105.681 46.1534C106.037 46.0234 106.335 45.8054 106.535 45.5294L106.592 45.4488C106.847 45.1017 107.017 44.7164 107.093 44.3149C107.168 43.9134 107.147 43.5035 107.031 43.1086C106.916 42.7138 106.707 42.3417 106.417 42.0136C106.128 41.6855 105.763 41.4079 105.344 41.1965C104.925 40.9852 104.459 40.8443 103.974 40.7818C103.489 40.7194 102.994 40.7366 102.518 40.8326C102.041 40.9286 101.591 41.1014 101.195 41.3411C100.799 41.5809 100.464 41.8829 100.208 42.23L100.127 42.3418C99.985 42.584 99.9284 42.8543 99.9634 43.1218C99.9661 43.293 99.8883 43.4584 99.7466 43.5831C99.6048 43.7077 99.4101 43.7819 99.2035 43.79C98.9479 43.8041 98.7002 43.8691 98.4815 43.9796C98.2628 44.0901 98.0796 44.2427 97.9475 44.4244C97.7591 44.6844 97.869 45.0666 98.0606 45.4228C98.1618 45.6166 98.1729 45.8345 98.0918 46.0347C98.0106 46.2349 97.8429 46.4031 97.621 46.507C97.388 46.6215 97.1948 46.7839 97.0601 46.9785C96.9253 47.173 96.8537 47.3932 96.8521 47.6174C96.8506 47.8417 96.9191 48.0625 97.0511 48.2584C97.183 48.4543 97.3739 48.6185 97.6053 48.7352L97.4012 48.6338L97.1625 48.9614C97.0208 49.1553 96.9268 49.3705 96.8859 49.5946C96.845 49.8187 96.8581 50.0473 96.9244 50.2672C96.9906 50.4871 97.1087 50.694 97.2719 50.876C97.4351 51.0579 97.6402 51.2114 97.8753 51.3274C98.3387 51.5478 98.8881 51.6089 99.4054 51.4976C99.9226 51.3863 100.366 51.1114 100.642 50.732L100.899 50.3732L100.695 50.2718C101.051 50.4479 101.477 50.5003 101.879 50.4175C102.281 50.3346 102.628 50.1234 102.843 49.8298C102.979 49.6378 103.056 49.4207 103.066 49.198C103.07 48.9876 103.169 48.7862 103.344 48.6329C103.518 48.4796 103.754 48.3854 104.008 48.3686C104.463 48.3348 104.906 48.2308 105.094 47.9734Z" fill="#C0D45C" stroke="black" stroke-miterlimit="10"/>
    <path d="M104.293 42.6382L96.7732 53.007" stroke="black" stroke-miterlimit="10"/>
    <path d="M96.1672 52.2218C96.1672 52.2218 96.6288 53.3762 97.9947 53.0304" stroke="black" stroke-miterlimit="10"/>
    <path d="M96.1672 52.2218C96.1672 52.2218 96.6288 53.3762 97.9947 53.0304" stroke="black" stroke-miterlimit="10"/>
    <path d="M99.326 49.4788L102.177 49.1876" stroke="black" stroke-miterlimit="10"/>
    <path d="M99.8661 48.665L98.8362 46.4446" stroke="black" stroke-miterlimit="10"/>
    <path d="M102.045 45.6594L101.015 43.439" stroke="black" stroke-miterlimit="10"/>
    <path d="M100.836 47.3962L104.755 46.533" stroke="black" stroke-miterlimit="10"/>
    <path d="M92.6441 19.6672C92.7519 19.5187 92.8212 19.3533 92.8477 19.1814C92.8742 19.0095 92.8572 18.835 92.798 18.6688C92.7442 18.5249 92.7557 18.3698 92.8303 18.2324C92.9049 18.095 93.0374 17.9849 93.203 17.9226C93.5425 17.7993 93.8268 17.5911 94.0163 17.3272L94.0697 17.2518C94.5602 16.585 94.7107 15.7842 94.4881 15.0255C94.2655 14.2668 93.688 13.6124 92.8827 13.2062C92.0774 12.8001 91.1103 12.6755 90.194 12.8598C89.2777 13.0441 88.4874 13.5222 87.9969 14.189L87.9184 14.2956C87.7843 14.5249 87.731 14.7808 87.7645 15.034C87.7723 15.1984 87.702 15.3587 87.5688 15.4807C87.4356 15.6026 87.25 15.6766 87.0518 15.6866C86.8083 15.6995 86.5722 15.7611 86.3638 15.8662C86.1554 15.9712 85.981 16.1166 85.8554 16.2898C85.6764 16.5498 85.7801 16.9008 85.9622 17.2388C86.0612 17.4244 86.073 17.6339 85.9952 17.8263C85.9173 18.0187 85.7555 18.1801 85.5414 18.2788C85.3203 18.3885 85.1373 18.5437 85.0102 18.7294C84.8831 18.9151 84.8163 19.1249 84.8163 19.3383C84.8163 19.5518 84.8831 19.7616 85.0102 19.9472C85.1373 20.1329 85.3203 20.2882 85.5414 20.3978L85.3467 20.3016L85.1207 20.6136C84.9853 20.7981 84.8955 21.0029 84.8564 21.2162C84.8172 21.4295 84.8296 21.6472 84.8926 21.8566C84.9557 22.0659 85.0683 22.2629 85.2238 22.436C85.3794 22.6091 85.5748 22.755 85.7989 22.8652C86.2399 23.0744 86.7623 23.1321 87.2542 23.0262C87.746 22.9203 88.1682 22.659 88.4302 22.2984L88.6751 21.9578L88.4805 21.8616C88.819 22.0294 89.2242 22.0791 89.6069 21.9996C89.9896 21.9201 90.3186 21.7181 90.5215 21.4378C90.655 21.2575 90.7286 21.0513 90.735 20.8398C90.7431 20.6426 90.8379 20.4545 91.0014 20.3109C91.165 20.1673 91.3862 20.0781 91.6236 20.0598C92.0444 20.0104 92.4651 19.9116 92.6441 19.6672Z" fill="#C0D45C" stroke="black" stroke-miterlimit="10"/>
    <path d="M91.8842 14.5894L84.7281 24.4564" stroke="black" stroke-miterlimit="10"/>
    <path d="M91.8842 14.5894L84.7281 24.4564" stroke="black" stroke-miterlimit="10"/>
    <path d="M87.1585 21.0998L89.8683 20.8216" stroke="black" stroke-miterlimit="10"/>
    <path d="M87.6704 20.325L86.6907 18.2112" stroke="black" stroke-miterlimit="10"/>
    <path d="M89.7427 17.465L88.7662 15.3538" stroke="black" stroke-miterlimit="10"/>
    <path d="M88.5966 19.1186L92.3238 18.2944" stroke="black" stroke-miterlimit="10"/>
    <path d="M48.4203 40.5114C48.3033 40.3681 48.1517 40.2465 47.9749 40.1543C47.7981 40.0621 47.6002 40.0013 47.3935 39.9758C47.2135 39.955 47.0487 39.8809 46.9297 39.7671C46.8107 39.6532 46.7457 39.5075 46.7467 39.357C46.7606 39.0483 46.6573 38.7437 46.4515 38.486L46.3919 38.4132C46.1323 38.0919 45.7988 37.8161 45.4105 37.6015C45.0222 37.387 44.5867 37.2378 44.1288 37.1626C43.6708 37.0874 43.1995 37.0876 42.7417 37.1632C42.2839 37.2389 41.8485 37.3884 41.4605 37.6033C41.0725 37.8183 40.7394 38.0944 40.4802 38.4159C40.2211 38.7374 40.041 39.0981 39.9501 39.4772C39.8593 39.8564 39.8596 40.2467 39.9509 40.6258C40.0422 41.0049 40.2228 41.3653 40.4824 41.6866L40.5672 41.7906C40.7606 41.9884 41.0174 42.1371 41.3082 42.2196C41.4919 42.2814 41.6385 42.4009 41.7162 42.5519C41.7938 42.7029 41.7962 42.8732 41.7227 43.0256C41.6346 43.2144 41.6031 43.4181 41.631 43.6192C41.6589 43.8202 41.7453 44.0127 41.8828 44.18C42.0775 44.4192 42.5108 44.4946 42.9661 44.4998C43.2069 44.5069 43.436 44.5872 43.6098 44.7253C43.7835 44.8635 43.8898 45.0498 43.9081 45.2486C43.9338 45.4543 44.0201 45.6516 44.1593 45.8232C44.381 46.0934 44.7231 46.2796 45.1105 46.3411C45.4979 46.4025 45.8989 46.3341 46.2255 46.1508L46.0371 46.2548L46.2851 46.5564C46.4303 46.7354 46.6169 46.8888 46.8341 47.0077C47.0513 47.1267 47.2948 47.2088 47.5505 47.2494C47.8062 47.29 48.0692 47.2883 48.3241 47.2443C48.579 47.2004 48.8209 47.115 49.0358 46.9932C49.4507 46.75 49.7339 46.3817 49.8243 45.9675C49.9147 45.5532 49.8052 45.1261 49.5193 44.778L49.2524 44.4504L49.064 44.557C49.2786 44.4358 49.4512 44.2702 49.5647 44.0768C49.6782 43.8833 49.7288 43.6686 49.7113 43.454C49.6939 43.2394 49.609 43.0323 49.4652 42.8532C49.3214 42.6741 49.1236 42.5292 48.8913 42.4328C48.675 42.3453 48.5054 42.1947 48.415 42.01C48.3246 41.8252 48.3198 41.6193 48.4015 41.4318C48.5459 41.1042 48.615 40.748 48.4203 40.5114Z" fill="#C0D45C" stroke="black" stroke-miterlimit="10"/>
    <path d="M42.5391 38.9462L50.3389 48.4726" stroke="black" stroke-miterlimit="10"/>
    <path d="M42.5391 38.9462L50.3389 48.4726" stroke="black" stroke-miterlimit="10"/>
    <path d="M47.6824 45.2356L48.5208 43.0802" stroke="black" stroke-miterlimit="10"/>
    <path d="M47.0513 44.5232L44.3226 44.3698" stroke="black" stroke-miterlimit="10"/>
    <path d="M44.7905 41.7646L42.065 41.6112" stroke="black" stroke-miterlimit="10"/>
    <path d="M46.1156 43.322L46.7844 40.176" stroke="black" stroke-miterlimit="10"/>
    <path d="M94.3347 26.1685L88.2466 27.3453L88.8305 29.4165L94.9186 28.2396L94.3347 26.1685Z" fill="#FF7342" stroke="black" stroke-miterlimit="10"/>
    <path d="M94.9179 28.2403L88.8298 29.4171L89.1089 30.4071L95.197 29.2303L94.9179 28.2403Z" fill="#FF7342" stroke="black" stroke-miterlimit="10"/>
    <path d="M98.9304 38.9488L91.1055 40.462C90.8791 40.506 90.6445 40.5125 90.415 40.4813C90.1856 40.45 89.9658 40.3816 89.7683 40.2799C89.5709 40.1783 89.3996 40.0453 89.2642 39.8887C89.1289 39.7321 89.0322 39.555 88.9797 39.3674L88.7411 38.525L89.1116 30.4052L95.1436 29.2378L99.9666 36.1772L100.252 37.186C100.305 37.3736 100.313 37.5681 100.276 37.7583C100.238 37.9484 100.155 38.1306 100.033 38.2943C99.9099 38.458 99.7493 38.6001 99.5602 38.7124C99.3711 38.8247 99.157 38.9051 98.9304 38.9488Z" fill="#F1F2EB" stroke="black" stroke-miterlimit="10"/>
    <path d="M90.5842 30.0984L91.6644 37.901L92.3206 40.2202" stroke="black" stroke-miterlimit="10"/>
    <path d="M93.988 29.4406L97.8973 36.6972L98.5505 39.0138" stroke="black" stroke-miterlimit="10"/>
    <path d="M92.1009 29.8254L94.9363 39.6742" stroke="black" stroke-miterlimit="10"/>
    <path d="M99.9948 36.2734L88.7222 38.4548" stroke="black" stroke-miterlimit="10"/>
    <path d="M94.6976 27.5608L88.6877 28.723" stroke="black" stroke-miterlimit="10"/>
    <path d="M91.6644 37.901L92.3207 40.2202" stroke="black" stroke-miterlimit="10"/>
    <path d="M97.8973 36.6972L98.5505 39.0138" stroke="black" stroke-miterlimit="10"/>
    <path d="M94.6976 27.5608L88.6877 28.723" stroke="black" stroke-miterlimit="10"/>
    <path d="M63.439 31.089L73.085 27.5816L71.8667 25.3586" fill="#DD0426"/>
    <path d="M63.439 31.089L73.085 27.5816L71.8667 25.3586" stroke="black" stroke-miterlimit="10"/>
    <path d="M71.9452 25.499L75.3175 24.2302L74.0333 21.9682" fill="#FF7342"/>
    <path d="M71.9452 25.499L75.3175 24.2302L74.0333 21.9682" stroke="black" stroke-miterlimit="10"/>
    <path d="M76.8153 18.297L75.7603 16.373L69.5651 21.0192" fill="#DD0426"/>
    <path d="M76.8153 18.297L75.7603 16.373L69.5651 21.0192" stroke="black" stroke-miterlimit="10"/>
    <path d="M53.7363 26.994L56.7696 32.5242H56.7319C53.4223 33.0286 47.9744 32.1914 47.9744 32.1914L51.2212 30.4754L46.4515 29.7266L53.7363 26.994Z" fill="#FFD9A1" stroke="black" stroke-miterlimit="10"/>
    <path d="M51.9497 29.9008C52.4717 29.9008 52.8949 29.5504 52.8949 29.1182C52.8949 28.686 52.4717 28.3356 51.9497 28.3356C51.4277 28.3356 51.0046 28.686 51.0046 29.1182C51.0046 29.5504 51.4277 29.9008 51.9497 29.9008Z" fill="#FFD9A1" stroke="black" stroke-miterlimit="10"/>
    <path d="M51.9497 29.4796C52.1908 29.4796 52.3862 29.3178 52.3862 29.1182C52.3862 28.9186 52.1908 28.7568 51.9497 28.7568C51.7087 28.7568 51.5132 28.9186 51.5132 29.1182C51.5132 29.3178 51.7087 29.4796 51.9497 29.4796Z" fill="black" stroke="black" stroke-miterlimit="10"/>
    <path d="M54.5402 26.7054L54.1477 27.7688" stroke="black" stroke-miterlimit="10"/>
    <path d="M60.8736 24.3108L57.9785 32.3994" stroke="black" stroke-miterlimit="10"/>
    <path d="M62.9994 23.4788L59.8123 32.1082" stroke="black" stroke-miterlimit="10"/>
    <path d="M69.3265 21.0998L65.9886 29.984" stroke="black" stroke-miterlimit="10"/>
    <path d="M76.6709 20.949L77.7385 17.9434" stroke="black" stroke-miterlimit="10"/>
    <path d="M77.7166 17.9122L79.5158 15.1562L80.4766 17.998L82.9949 20.5538L78.9474 20.1586L77.7166 17.9122Z" fill="#DD0426" stroke="black" stroke-miterlimit="10"/>
    <path d="M79.7732 15.918L78.7747 16.2924" stroke="black" stroke-miterlimit="10"/>
    <path d="M80.2317 17.0672L77.7636 17.9954" stroke="black" stroke-miterlimit="10"/>
    <path d="M80.6901 18.2138L78.3634 19.09" stroke="black" stroke-miterlimit="10"/>
    <path d="M81.1642 18.6974L78.6648 19.6386" stroke="black" stroke-miterlimit="10"/>
    <path d="M81.6416 19.1784L79.0197 20.1638" stroke="black" stroke-miterlimit="10"/>
    <path d="M82.1157 19.662L80.4138 20.3016" stroke="black" stroke-miterlimit="10"/>
    <path d="M82.5898 20.143L81.808 20.4368" stroke="black" stroke-miterlimit="10"/>
    <path d="M77.7385 17.946L78.9349 20.1326L74.0333 21.9708C74.0333 21.9708 70.6547 30.7302 57.9816 32.3916C57.5891 32.4436 57.1904 32.4878 56.779 32.5243L53.7615 27.02V26.994L54.5653 26.7054L56.6785 25.9072L58.7886 25.109L60.8987 24.3108L77.7385 17.946Z" fill="#FFA42C" stroke="black" stroke-miterlimit="10"/>
    <path d="M51.9497 29.9008C52.4717 29.9008 52.8949 29.5504 52.8949 29.1182C52.8949 28.686 52.4717 28.3356 51.9497 28.3356C51.4277 28.3356 51.0046 28.686 51.0046 29.1182C51.0046 29.5504 51.4277 29.9008 51.9497 29.9008Z" fill="#1C7054" stroke="black" stroke-miterlimit="10"/>
    <path d="M51.9497 29.4796C52.1908 29.4796 52.3862 29.3178 52.3862 29.1182C52.3862 28.9186 52.1908 28.7568 51.9497 28.7568C51.7087 28.7568 51.5132 28.9186 51.5132 29.1182C51.5132 29.3178 51.7087 29.4796 51.9497 29.4796Z" fill="black" stroke="black" stroke-miterlimit="10"/>
    <path d="M54.5402 26.7054L54.1477 27.7688" stroke="black" stroke-miterlimit="10"/>
    <path d="M56.6534 25.9072L55.2687 29.7864" stroke="black" stroke-miterlimit="10"/>
    <path d="M58.7635 25.109L56.2892 31.648" stroke="black" stroke-miterlimit="10"/>
    <path d="M60.8736 24.3108L57.9785 32.3994" stroke="black" stroke-miterlimit="10"/>
    <path d="M62.9994 23.4788L59.8123 32.1082" stroke="black" stroke-miterlimit="10"/>
    <path d="M65.0969 22.717L61.9161 31.5804" stroke="black" stroke-miterlimit="10"/>
    <path d="M69.3265 21.0998L65.9886 29.984" stroke="black" stroke-miterlimit="10"/>
    <path d="M73.5466 19.5138L70.6798 26.6352" stroke="black" stroke-miterlimit="10"/>
    <path d="M75.6567 18.7208L74.5294 21.7862" stroke="black" stroke-miterlimit="10"/>
    <path d="M76.6552 20.9854L77.7385 17.9434" stroke="black" stroke-miterlimit="10"/>
    <path d="M70.5573 20.2808L69.2731 17.9408L59.6647 24.7684L69.5651 21.0192L70.5573 20.2808Z" fill="#DD0426" stroke="black" stroke-miterlimit="10"/>
    <path d="M79.7732 15.918L78.7747 16.2924" stroke="black" stroke-miterlimit="10"/>
    <path d="M79.9711 16.503L78.2032 17.1686" stroke="black" stroke-miterlimit="10"/>
    <path d="M80.1689 17.088L77.7636 17.9954" stroke="black" stroke-miterlimit="10"/>
    <path d="M80.3667 17.6756L78.062 18.5414" stroke="black" stroke-miterlimit="10"/>
    <path d="M80.6901 18.2138L78.3634 19.09" stroke="black" stroke-miterlimit="10"/>
    <path d="M81.1642 18.6974L78.6648 19.6386" stroke="black" stroke-miterlimit="10"/>
    <path d="M81.6416 19.1784L79.0197 20.1638" stroke="black" stroke-miterlimit="10"/>
    <path d="M82.1157 19.662L80.4138 20.3016" stroke="black" stroke-miterlimit="10"/>
    <path d="M82.5898 20.143L81.808 20.4368" stroke="black" stroke-miterlimit="10"/>
    <path d="M70.5322 61.4726C71.6612 61.4726 72.5764 60.7148 72.5764 59.78C72.5764 58.8452 71.6612 58.0874 70.5322 58.0874C69.4033 58.0874 68.4881 58.8452 68.4881 59.78C68.4881 60.7148 69.4033 61.4726 70.5322 61.4726Z" fill="#DD0426" stroke="black" stroke-miterlimit="10"/>
    <path d="M50.3515 60.1986C50.9047 60.1986 51.3531 59.8273 51.3531 59.3692C51.3531 58.9112 50.9047 58.5398 50.3515 58.5398C49.7982 58.5398 49.3498 58.9112 49.3498 59.3692C49.3498 59.8273 49.7982 60.1986 50.3515 60.1986Z" fill="#FFD9A1" stroke="black" stroke-miterlimit="10"/>
    <path d="M52.9388 42.945C54.2221 42.945 55.2624 42.0836 55.2624 41.021C55.2624 39.9584 54.2221 39.097 52.9388 39.097C51.6555 39.097 50.6152 39.9584 50.6152 41.021C50.6152 42.0836 51.6555 42.945 52.9388 42.945Z" fill="#DD0426" stroke="black" stroke-miterlimit="10"/>
    <path d="M56.7916 43.4832C57.3448 43.4832 57.7932 43.1119 57.7932 42.6538C57.7932 42.1958 57.3448 41.8244 56.7916 41.8244C56.2384 41.8244 55.7899 42.1958 55.7899 42.6538C55.7899 43.1119 56.2384 43.4832 56.7916 43.4832Z" fill="#263B34" stroke="black" stroke-miterlimit="10"/>
    <path d="M48.7689 51.382C49.3221 51.382 49.7705 51.0107 49.7705 50.5526C49.7705 50.0946 49.3221 49.7232 48.7689 49.7232C48.2157 49.7232 47.7672 50.0946 47.7672 50.5526C47.7672 51.0107 48.2157 51.382 48.7689 51.382Z" fill="#FFC043" stroke="black" stroke-miterlimit="10"/>
    <path d="M44.42 55.2716C44.9732 55.2716 45.4217 54.9003 45.4217 54.4422C45.4217 53.9842 44.9732 53.6128 44.42 53.6128C43.8668 53.6128 43.4183 53.9842 43.4183 54.4422C43.4183 54.9003 43.8668 55.2716 44.42 55.2716Z" fill="#FFD9A1" stroke="black" stroke-miterlimit="10"/>
    <path d="M53.9404 37.7476C54.4936 37.7476 54.9421 37.3763 54.9421 36.9182C54.9421 36.4602 54.4936 36.0888 53.9404 36.0888C53.3872 36.0888 52.9388 36.4602 52.9388 36.9182C52.9388 37.3763 53.3872 37.7476 53.9404 37.7476Z" fill="#FF7342" stroke="black" stroke-miterlimit="10"/>
    <path d="M57.7932 39.9342C58.3464 39.9342 58.7949 39.5629 58.7949 39.1048C58.7949 38.6468 58.3464 38.2754 57.7932 38.2754C57.24 38.2754 56.7916 38.6468 56.7916 39.1048C56.7916 39.5629 57.24 39.9342 57.7932 39.9342Z" fill="#FF7342" stroke="black" stroke-miterlimit="10"/>
    <path d="M82.9258 31.245C84.2091 31.245 85.2494 30.3836 85.2494 29.321C85.2494 28.2584 84.2091 27.397 82.9258 27.397C81.6425 27.397 80.6022 28.2584 80.6022 29.321C80.6022 30.3836 81.6425 31.245 82.9258 31.245Z" fill="#FFD9A1" stroke="black" stroke-miterlimit="10"/>
    <path d="M76.4794 30.0672C77.0326 30.0672 77.481 29.6959 77.481 29.2378C77.481 28.7797 77.0326 28.4084 76.4794 28.4084C75.9262 28.4084 75.4777 28.7797 75.4777 29.2378C75.4777 29.6959 75.9262 30.0672 76.4794 30.0672Z" fill="#FFC043" stroke="black" stroke-miterlimit="10"/>
    <path d="M102.438 33.0208C102.991 33.0208 103.439 32.6495 103.439 32.1914C103.439 31.7334 102.991 31.362 102.438 31.362C101.885 31.362 101.436 31.7334 101.436 32.1914C101.436 32.6495 101.885 33.0208 102.438 33.0208Z" fill="#DD0426" stroke="black" stroke-miterlimit="10"/>
    <path d="M91.3536 24.6514C91.9068 24.6514 92.3553 24.2801 92.3553 23.822C92.3553 23.364 91.9068 22.9926 91.3536 22.9926C90.8004 22.9926 90.3519 23.364 90.3519 23.822C90.3519 24.2801 90.8004 24.6514 91.3536 24.6514Z" fill="#263B34" stroke="black" stroke-miterlimit="10"/>
    <path d="M81.9241 35.5012C82.4773 35.5012 82.9258 35.1299 82.9258 34.6718C82.9258 34.2138 82.4773 33.8424 81.9241 33.8424C81.3709 33.8424 80.9225 34.2138 80.9225 34.6718C80.9225 35.1299 81.3709 35.5012 81.9241 35.5012Z" fill="#FFC043" stroke="black" stroke-miterlimit="10"/>
    <path d="M79.2175 33.26C79.7707 33.26 80.2191 32.8887 80.2191 32.4306C80.2191 31.9726 79.7707 31.6012 79.2175 31.6012C78.6643 31.6012 78.2158 31.9726 78.2158 32.4306C78.2158 32.8887 78.6643 33.26 79.2175 33.26Z" fill="#FFC043" stroke="black" stroke-miterlimit="10"/>
    <path d="M59.1968 16.4458C60.6241 16.4458 61.7811 15.3865 61.7811 14.0798C61.7811 12.7731 60.6241 11.7138 59.1968 11.7138C57.7696 11.7138 56.6126 12.7731 56.6126 14.0798C56.6126 15.3865 57.7696 16.4458 59.1968 16.4458Z" fill="#FF7342" stroke="black" stroke-miterlimit="10"/>
    <path d="M61.2347 20.2678C61.7879 20.2678 62.2364 19.8965 62.2364 19.4384C62.2364 18.9804 61.7879 18.609 61.2347 18.609C60.6815 18.609 60.233 18.9804 60.233 19.4384C60.233 19.8965 60.6815 20.2678 61.2347 20.2678Z" fill="#263B34" stroke="black" stroke-miterlimit="10"/>
    <path d="M62.9993 10.4502C63.5525 10.4502 64.001 10.0789 64.001 9.62084C64.001 9.16278 63.5525 8.79144 62.9993 8.79144C62.4461 8.79144 61.9977 9.16278 61.9977 9.62084C61.9977 10.0789 62.4461 10.4502 62.9993 10.4502Z" fill="#263B34" stroke="black" stroke-miterlimit="10"/>
    <path d="M64.7138 15.983C65.6208 15.983 66.356 15.3742 66.356 14.6232C66.356 13.8722 65.6208 13.2634 64.7138 13.2634C63.8068 13.2634 63.0716 13.8722 63.0716 14.6232C63.0716 15.3742 63.8068 15.983 64.7138 15.983Z" fill="#FF7342" stroke="black" stroke-miterlimit="10"/>
    <path d="M83.7233 61.5116C85.1055 61.5116 86.2259 60.5839 86.2259 59.4394C86.2259 58.295 85.1055 57.3672 83.7233 57.3672C82.3412 57.3672 81.2208 58.295 81.2208 59.4394C81.2208 60.5839 82.3412 61.5116 83.7233 61.5116Z" fill="#FFD9A1" stroke="black" stroke-miterlimit="10"/>
    <path d="M66.3246 41.6008C66.8778 41.6008 67.3263 41.2295 67.3263 40.7714C67.3263 40.3134 66.8778 39.942 66.3246 39.942C65.7714 39.942 65.3229 40.3134 65.3229 40.7714C65.3229 41.2295 65.7714 41.6008 66.3246 41.6008Z" fill="#FFC043" stroke="black" stroke-miterlimit="10"/>
    <path d="M64.2773 50.4772L64.2962 50.4434C64.5196 50.1014 64.6593 49.7262 64.7075 49.3394C64.7556 48.9526 64.7112 48.5617 64.5767 48.1891C64.4423 47.8165 64.2205 47.4695 63.924 47.1679C63.6274 46.8664 63.262 46.6162 62.8486 46.4316C62.4353 46.2468 61.9821 46.1312 61.5148 46.0915C61.0475 46.0518 60.5753 46.0888 60.1253 46.2004C59.6753 46.312 59.2563 46.4959 58.8922 46.7417C58.5282 46.9875 58.2262 47.2903 58.0036 47.6328L57.8749 47.8278C57.38 48.5825 56.5711 49.1627 55.5984 49.4606C54.1852 49.9038 53.0124 50.754 52.2951 51.8552C50.6497 54.3798 52.449 56.5196 55.501 57.882C58.5531 59.2444 61.6994 59.3172 63.351 56.79C64.0978 55.6442 64.2962 54.3075 63.9068 53.046C63.6365 52.1816 63.7688 51.2646 64.2773 50.4772Z" fill="#FFA42C" stroke="black" stroke-miterlimit="10"/>
    <path d="M62.1107 41.5697C62.5085 41.7675 62.8551 42.0285 63.1308 42.3375C63.4064 42.6466 63.6056 42.9976 63.7169 43.3706C63.8282 43.7436 63.8495 44.1311 63.7795 44.5109C63.7094 44.8906 63.5495 45.2552 63.3088 45.5837L62.8238 46.2524C62.0228 45.854 61.4457 45.2085 61.2195 44.4578C60.9933 43.7071 61.1365 42.9128 61.6176 42.2495L62.1026 41.5809L62.1107 41.5697Z" fill="#C0D45C" stroke="black" stroke-miterlimit="10"/>
    <path d="M61.3414 46.7072C61.3414 46.7072 61.4702 47.9552 63.2506 47.9344" stroke="black" stroke-miterlimit="10"/>
    <path d="M67.3263 44.8274C64.359 43.842 61.9412 47.612 61.9412 47.612" stroke="black" stroke-miterlimit="10"/>
    <path d="M61.3414 46.7072C61.3414 46.7072 61.4702 47.9552 63.2506 47.9344" stroke="black" stroke-miterlimit="10"/>
    <path d="M67.2195 21.8928L63.8 30.9564" stroke="black" stroke-miterlimit="10"/>
    <path d="M71.4365 20.3068L68.3939 28.5332" stroke="black" stroke-miterlimit="10"/>
    <path d="M64.2475 78.5263V82.4393H85.4268V78.6251" fill="#FF7342"/>
    <path d="M64.2475 78.5263V82.4393H85.4268V78.6251" stroke="black" stroke-miterlimit="10"/>
    <path d="M85.4268 77.4733H64.2475V79.8367H85.4268V77.4733Z" fill="black" stroke="black" stroke-miterlimit="10"/>
    <path d="M49.028 63.9923H101.742V64.4447C101.742 72.3081 94.0439 78.6823 84.5476 78.6823H66.2226C56.7263 78.6823 49.028 72.3081 49.028 64.4447V64.0027V63.9923Z" fill="#FF7342" stroke="black" stroke-miterlimit="10"/>
    <path d="M47.483 82.4393H100.562" stroke="black" stroke-miterlimit="10"/>
    <path d="M81.9555 39.4792L80.486 41.8478" stroke="black" stroke-miterlimit="10"/>
  </g>
  <path d="M 42.012 13.702 L 46.885 13.702 L 42.012 13.702 Z" fill="#D8D8D8"/>
  <path d="M 42.012 13.702 L 46.885 13.702" stroke="black"/>
</svg>