<svg width="817" height="305" viewBox="0 0 817 305" fill="none" xmlns="http://www.w3.org/2000/svg">
<rect width="501" height="305" rx="40" fill="#FFD788"/>
<path d="M196.064 50.392C198.048 50.392 199.584 50.6 200.672 51.016C201.76 51.4 202.688 51.816 203.456 52.264C203.84 52.488 204.144 52.664 204.368 52.792C204.624 52.888 204.864 52.936 205.088 52.936C205.408 52.936 205.632 52.76 205.76 52.408C205.92 52.056 206.048 51.528 206.144 50.824H207.248C207.216 51.464 207.168 52.216 207.104 53.08C207.072 53.944 207.04 55.096 207.008 56.536C207.008 57.944 207.008 59.816 207.008 62.152H205.904C205.776 60.424 205.376 58.76 204.704 57.16C204.032 55.56 203.104 54.232 201.92 53.176C200.768 52.12 199.344 51.592 197.648 51.592C196.176 51.592 194.96 52.008 194 52.84C193.04 53.64 192.56 54.792 192.56 56.296C192.56 57.512 192.864 58.568 193.472 59.464C194.08 60.328 194.992 61.208 196.208 62.104C197.456 63 199.024 64.104 200.912 65.416C202.416 66.408 203.76 67.4 204.944 68.392C206.128 69.384 207.072 70.504 207.776 71.752C208.512 73 208.88 74.504 208.88 76.264C208.88 78.376 208.304 80.136 207.152 81.544C206 82.92 204.48 83.96 202.592 84.664C200.704 85.336 198.64 85.672 196.4 85.672C194.32 85.672 192.656 85.48 191.408 85.096C190.192 84.712 189.152 84.312 188.288 83.896C187.584 83.448 187.04 83.224 186.656 83.224C186.336 83.224 186.096 83.4 185.936 83.752C185.808 84.104 185.696 84.632 185.6 85.336H184.496C184.56 84.536 184.592 83.608 184.592 82.552C184.624 81.464 184.64 80.072 184.64 78.376C184.672 76.68 184.688 74.52 184.688 71.896H185.792C185.92 74.072 186.272 76.104 186.848 77.992C187.456 79.88 188.368 81.416 189.584 82.6C190.832 83.752 192.48 84.328 194.528 84.328C195.68 84.328 196.688 84.136 197.552 83.752C198.416 83.368 199.104 82.808 199.616 82.072C200.128 81.304 200.384 80.376 200.384 79.288C200.384 77.944 200.08 76.776 199.472 75.784C198.864 74.792 198.032 73.864 196.976 73C195.92 72.104 194.688 71.208 193.28 70.312C191.776 69.32 190.368 68.312 189.056 67.288C187.744 66.264 186.688 65.128 185.888 63.88C185.12 62.6 184.736 61.064 184.736 59.272C184.736 57.224 185.264 55.544 186.32 54.232C187.376 52.92 188.768 51.96 190.496 51.352C192.256 50.712 194.112 50.392 196.064 50.392ZM219.327 52.312V60.136H224.511V61.096H219.327V80.728C219.327 81.528 219.471 82.104 219.759 82.456C220.047 82.776 220.479 82.936 221.056 82.936C221.535 82.936 222.031 82.776 222.543 82.456C223.087 82.136 223.583 81.592 224.032 80.824L224.799 81.304C224.191 82.616 223.343 83.672 222.256 84.472C221.199 85.272 219.807 85.672 218.079 85.672C217.023 85.672 216.079 85.528 215.247 85.24C214.447 84.984 213.775 84.584 213.231 84.04C212.527 83.336 212.063 82.472 211.839 81.448C211.647 80.392 211.551 79.032 211.551 77.368V61.096H207.711V60.136H211.551V54.136C213.055 54.136 214.431 53.992 215.679 53.704C216.959 53.416 218.175 52.952 219.327 52.312ZM229.388 85.336C227.916 85.336 226.7 85.064 225.74 84.52C224.78 83.944 224.076 83.192 223.628 82.264C223.18 81.336 222.956 80.344 222.956 79.288C222.956 77.944 223.26 76.84 223.868 75.976C224.508 75.112 225.324 74.424 226.316 73.912C227.308 73.368 228.348 72.92 229.436 72.568C230.524 72.216 231.564 71.88 232.556 71.56C233.548 71.208 234.348 70.808 234.956 70.36C235.564 69.88 235.868 69.272 235.868 68.536V64.552C235.868 63.848 235.756 63.192 235.532 62.584C235.34 61.944 234.972 61.432 234.428 61.048C233.916 60.632 233.196 60.424 232.268 60.424C231.692 60.424 231.132 60.504 230.588 60.664C230.044 60.824 229.564 61.08 229.148 61.432C230.172 61.784 230.924 62.312 231.404 63.016C231.916 63.72 232.172 64.504 232.172 65.368C232.172 66.552 231.756 67.496 230.924 68.2C230.124 68.872 229.164 69.208 228.044 69.208C226.828 69.208 225.884 68.824 225.212 68.056C224.572 67.288 224.252 66.36 224.252 65.272C224.252 64.312 224.492 63.512 224.972 62.872C225.452 62.2 226.156 61.592 227.084 61.048C228.012 60.504 229.132 60.104 230.444 59.848C231.756 59.592 233.148 59.464 234.62 59.464C236.124 59.464 237.5 59.624 238.748 59.944C240.028 60.232 241.116 60.824 242.012 61.72C242.716 62.456 243.164 63.352 243.356 64.408C243.548 65.464 243.644 66.808 243.644 68.44V81.4C243.644 82.2 243.708 82.76 243.836 83.08C243.996 83.368 244.236 83.512 244.556 83.512C244.844 83.512 245.116 83.432 245.372 83.272C245.628 83.112 245.884 82.936 246.14 82.744L246.668 83.56C245.964 84.136 245.132 84.584 244.172 84.904C243.212 85.192 242.172 85.336 241.052 85.336C239.772 85.336 238.764 85.176 238.028 84.856C237.324 84.504 236.812 84.04 236.492 83.464C236.204 82.888 236.044 82.248 236.012 81.544C235.308 82.696 234.428 83.624 233.372 84.328C232.316 85 230.988 85.336 229.388 85.336ZM233.372 81.88C233.884 81.88 234.332 81.784 234.716 81.592C235.132 81.368 235.516 81 235.868 80.488V70.504C235.612 70.952 235.26 71.384 234.812 71.8C234.396 72.184 233.948 72.584 233.468 73C232.988 73.384 232.524 73.816 232.076 74.296C231.66 74.776 231.308 75.352 231.02 76.024C230.764 76.664 230.636 77.448 230.636 78.376C230.636 79.624 230.892 80.52 231.404 81.064C231.916 81.608 232.572 81.88 233.372 81.88ZM262.144 59.464C263.232 59.464 264.096 59.704 264.736 60.184C265.376 60.632 265.84 61.224 266.128 61.96C266.416 62.664 266.56 63.368 266.56 64.072C266.56 65.384 266.176 66.44 265.408 67.24C264.672 68.04 263.696 68.44 262.48 68.44C261.2 68.44 260.224 68.152 259.552 67.576C258.88 66.968 258.544 66.168 258.544 65.176C258.544 64.184 258.752 63.368 259.168 62.728C259.616 62.088 260.16 61.544 260.8 61.096C260.32 61.032 259.856 61.096 259.408 61.288C258.896 61.416 258.416 61.656 257.968 62.008C257.52 62.36 257.136 62.776 256.816 63.256C256.496 63.736 256.24 64.264 256.048 64.84C255.888 65.384 255.808 65.944 255.808 66.52V80.056C255.808 81.592 256.144 82.632 256.816 83.176C257.52 83.72 258.624 83.992 260.128 83.992V85C259.392 84.968 258.304 84.936 256.864 84.904C255.424 84.84 253.936 84.808 252.4 84.808C251.024 84.808 249.632 84.84 248.224 84.904C246.848 84.936 245.824 84.968 245.152 85V83.992C246.208 83.992 246.944 83.752 247.36 83.272C247.808 82.792 248.032 81.88 248.032 80.536V65.368C248.032 63.928 247.824 62.872 247.408 62.2C246.992 61.496 246.24 61.144 245.152 61.144V60.136C246.176 60.232 247.168 60.28 248.128 60.28C249.568 60.28 250.928 60.232 252.208 60.136C253.52 60.008 254.72 59.832 255.808 59.608V63.544C256.192 62.712 256.688 61.992 257.296 61.384C257.936 60.776 258.656 60.312 259.456 59.992C260.288 59.64 261.184 59.464 262.144 59.464ZM275.422 52.312V60.136H280.606V61.096H275.422V80.728C275.422 81.528 275.566 82.104 275.854 82.456C276.142 82.776 276.574 82.936 277.15 82.936C277.63 82.936 278.126 82.776 278.638 82.456C279.182 82.136 279.678 81.592 280.126 80.824L280.894 81.304C280.286 82.616 279.438 83.672 278.35 84.472C277.294 85.272 275.902 85.672 274.174 85.672C273.118 85.672 272.174 85.528 271.342 85.24C270.542 84.984 269.87 84.584 269.326 84.04C268.622 83.336 268.158 82.472 267.934 81.448C267.742 80.392 267.646 79.032 267.646 77.368V61.096H263.806V60.136H267.646V54.136C269.15 54.136 270.526 53.992 271.774 53.704C273.054 53.416 274.27 52.952 275.422 52.312ZM299.431 59.464C302.247 59.464 304.455 60.296 306.055 61.96C307.655 63.624 308.455 66.36 308.455 70.168H293.047L292.999 69.256H301.927C301.991 67.688 301.927 66.248 301.735 64.936C301.543 63.592 301.223 62.52 300.775 61.72C300.359 60.92 299.799 60.52 299.095 60.52C298.135 60.52 297.319 61.208 296.647 62.584C295.975 63.96 295.559 66.296 295.399 69.592L295.591 69.928C295.527 70.28 295.495 70.648 295.495 71.032C295.495 71.384 295.495 71.768 295.495 72.184C295.495 74.392 295.783 76.152 296.359 77.464C296.967 78.776 297.719 79.704 298.615 80.248C299.511 80.792 300.439 81.064 301.399 81.064C301.943 81.064 302.551 80.984 303.223 80.824C303.895 80.664 304.599 80.328 305.335 79.816C306.071 79.304 306.775 78.552 307.447 77.56L308.263 77.848C307.911 79.096 307.303 80.328 306.439 81.544C305.607 82.728 304.535 83.72 303.223 84.52C301.911 85.288 300.327 85.672 298.471 85.672C296.359 85.672 294.471 85.24 292.807 84.376C291.143 83.48 289.815 82.088 288.823 80.2C287.863 78.28 287.383 75.784 287.383 72.712C287.383 69.672 287.911 67.176 288.967 65.224C290.023 63.272 291.463 61.832 293.287 60.904C295.111 59.944 297.159 59.464 299.431 59.464ZM318.645 60.136V61.144C318.005 61.144 317.541 61.288 317.253 61.576C316.997 61.864 317.029 62.264 317.349 62.776L329.925 81.592C330.277 82.072 330.661 82.568 331.077 83.08C331.493 83.592 331.973 83.896 332.517 83.992V85C331.973 84.968 331.157 84.936 330.069 84.904C328.981 84.84 327.893 84.808 326.805 84.808C325.589 84.808 324.357 84.84 323.109 84.904C321.893 84.936 320.981 84.968 320.373 85V83.992C321.013 83.992 321.461 83.848 321.717 83.56C322.005 83.272 321.989 82.872 321.669 82.36L309.093 63.544C308.613 62.776 308.181 62.216 307.797 61.864C307.413 61.48 306.981 61.24 306.501 61.144V60.136C307.109 60.168 308.037 60.216 309.285 60.28C310.533 60.312 311.765 60.328 312.981 60.328C314.069 60.328 315.141 60.312 316.197 60.28C317.285 60.216 318.101 60.168 318.645 60.136ZM316.725 73.72C316.725 73.72 316.741 73.816 316.773 74.008C316.837 74.2 316.885 74.392 316.917 74.584C316.949 74.744 316.965 74.824 316.965 74.824L315.765 76.408C314.741 77.72 314.165 78.936 314.037 80.056C313.941 81.176 314.213 82.104 314.853 82.84C315.493 83.544 316.373 83.944 317.493 84.04V85C316.885 84.968 316.101 84.952 315.141 84.952C314.181 84.92 313.253 84.904 312.357 84.904C311.461 84.872 310.725 84.856 310.149 84.856C309.445 84.856 308.837 84.872 308.325 84.904C307.813 84.904 307.317 84.936 306.837 85V84.04C307.637 83.688 308.373 83.224 309.045 82.648C309.749 82.04 310.501 81.224 311.301 80.2L316.725 73.72ZM330.981 60.136V61.096C330.309 61.352 329.589 61.816 328.821 62.488C328.085 63.128 327.317 63.928 326.517 64.888L321.285 71.224C321.285 71.224 321.253 71.144 321.189 70.984C321.157 70.792 321.125 70.6 321.093 70.408C321.061 70.216 321.045 70.12 321.045 70.12L323.013 67.576C323.941 66.456 324.501 65.416 324.693 64.456C324.885 63.496 324.725 62.728 324.213 62.152C323.733 61.544 322.917 61.192 321.765 61.096V60.136C322.725 60.168 323.749 60.2 324.837 60.232C325.925 60.264 326.869 60.28 327.669 60.28C328.373 60.28 328.981 60.264 329.493 60.232C330.037 60.2 330.533 60.168 330.981 60.136ZM340.965 59.656V88.84C340.965 90.376 341.333 91.4 342.069 91.912C342.837 92.424 343.877 92.68 345.189 92.68V93.688C344.325 93.656 343.125 93.608 341.589 93.544C340.053 93.512 338.437 93.496 336.741 93.496C335.525 93.496 334.309 93.512 333.093 93.544C331.909 93.608 331.013 93.656 330.405 93.688V92.68C331.429 92.68 332.149 92.44 332.565 91.96C332.981 91.512 333.189 90.632 333.189 89.32V65.416C333.189 63.976 332.981 62.92 332.565 62.248C332.149 61.544 331.397 61.192 330.309 61.192V60.184C331.333 60.28 332.325 60.328 333.285 60.328C334.757 60.328 336.133 60.28 337.413 60.184C338.693 60.056 339.877 59.88 340.965 59.656ZM348.309 59.464C349.941 59.464 351.381 59.912 352.629 60.808C353.909 61.672 354.917 63 355.653 64.792C356.421 66.552 356.805 68.776 356.805 71.464C356.805 73.992 356.517 76.152 355.941 77.944C355.397 79.736 354.613 81.208 353.589 82.36C352.597 83.512 351.413 84.36 350.037 84.904C348.693 85.416 347.237 85.672 345.669 85.672C344.485 85.672 343.381 85.496 342.357 85.144C341.365 84.824 340.581 84.296 340.005 83.56L340.485 82.936C340.773 83.384 341.173 83.72 341.685 83.944C342.197 84.168 342.741 84.28 343.317 84.28C344.629 84.28 345.669 83.832 346.437 82.936C347.237 82.008 347.813 80.664 348.165 78.904C348.517 77.144 348.693 75 348.693 72.472C348.693 69.688 348.533 67.528 348.213 65.992C347.893 64.424 347.461 63.32 346.917 62.68C346.373 62.04 345.733 61.72 344.997 61.72C343.973 61.72 343.045 62.12 342.213 62.92C341.413 63.688 340.965 64.744 340.869 66.088L340.773 64.072C341.445 62.536 342.437 61.384 343.749 60.616C345.061 59.848 346.581 59.464 348.309 59.464ZM367.195 47.464V80.536C367.195 81.88 367.403 82.792 367.819 83.272C368.267 83.752 369.019 83.992 370.075 83.992V85C369.467 84.968 368.539 84.936 367.291 84.904C366.043 84.84 364.763 84.808 363.451 84.808C362.171 84.808 360.859 84.84 359.515 84.904C358.203 84.936 357.211 84.968 356.539 85V83.992C357.595 83.992 358.331 83.752 358.747 83.272C359.195 82.792 359.419 81.88 359.419 80.536V53.176C359.419 51.768 359.211 50.728 358.795 50.056C358.411 49.352 357.659 49 356.539 49V47.992C357.563 48.088 358.555 48.136 359.515 48.136C360.987 48.136 362.363 48.088 363.643 47.992C364.923 47.864 366.107 47.688 367.195 47.464ZM381.333 59.464C383.733 59.464 385.829 59.896 387.621 60.76C389.445 61.592 390.853 62.968 391.845 64.888C392.869 66.808 393.381 69.368 393.381 72.568C393.381 75.768 392.869 78.328 391.845 80.248C390.853 82.168 389.445 83.56 387.621 84.424C385.829 85.256 383.733 85.672 381.333 85.672C378.965 85.672 376.869 85.256 375.045 84.424C373.253 83.56 371.845 82.168 370.821 80.248C369.797 78.328 369.285 75.768 369.285 72.568C369.285 69.368 369.797 66.808 370.821 64.888C371.845 62.968 373.253 61.592 375.045 60.76C376.869 59.896 378.965 59.464 381.333 59.464ZM381.333 60.424C380.213 60.424 379.269 61.384 378.501 63.304C377.765 65.192 377.397 68.28 377.397 72.568C377.397 76.856 377.765 79.96 378.501 81.88C379.269 83.768 380.213 84.712 381.333 84.712C382.485 84.712 383.429 83.768 384.165 81.88C384.901 79.96 385.269 76.856 385.269 72.568C385.269 68.28 384.901 65.192 384.165 63.304C383.429 61.384 382.485 60.424 381.333 60.424ZM410.244 59.464C411.332 59.464 412.196 59.704 412.836 60.184C413.476 60.632 413.94 61.224 414.228 61.96C414.516 62.664 414.66 63.368 414.66 64.072C414.66 65.384 414.276 66.44 413.508 67.24C412.772 68.04 411.796 68.44 410.58 68.44C409.3 68.44 408.324 68.152 407.652 67.576C406.98 66.968 406.644 66.168 406.644 65.176C406.644 64.184 406.852 63.368 407.268 62.728C407.716 62.088 408.26 61.544 408.9 61.096C408.42 61.032 407.956 61.096 407.508 61.288C406.996 61.416 406.516 61.656 406.068 62.008C405.62 62.36 405.236 62.776 404.916 63.256C404.596 63.736 404.34 64.264 404.148 64.84C403.988 65.384 403.908 65.944 403.908 66.52V80.056C403.908 81.592 404.244 82.632 404.916 83.176C405.62 83.72 406.724 83.992 408.228 83.992V85C407.492 84.968 406.404 84.936 404.964 84.904C403.524 84.84 402.036 84.808 400.5 84.808C399.124 84.808 397.732 84.84 396.324 84.904C394.948 84.936 393.924 84.968 393.252 85V83.992C394.308 83.992 395.044 83.752 395.46 83.272C395.908 82.792 396.132 81.88 396.132 80.536V65.368C396.132 63.928 395.924 62.872 395.508 62.2C395.092 61.496 394.34 61.144 393.252 61.144V60.136C394.276 60.232 395.268 60.28 396.228 60.28C397.668 60.28 399.028 60.232 400.308 60.136C401.62 60.008 402.82 59.832 403.908 59.608V63.544C404.292 62.712 404.788 61.992 405.396 61.384C406.036 60.776 406.756 60.312 407.556 59.992C408.388 59.64 409.284 59.464 410.244 59.464ZM419.539 47.608C421.043 47.608 422.211 47.944 423.043 48.616C423.907 49.288 424.339 50.264 424.339 51.544C424.339 52.824 423.907 53.8 423.043 54.472C422.211 55.144 421.043 55.48 419.539 55.48C418.035 55.48 416.851 55.144 415.987 54.472C415.155 53.8 414.739 52.824 414.739 51.544C414.739 50.264 415.155 49.288 415.987 48.616C416.851 47.944 418.035 47.608 419.539 47.608ZM423.763 59.608V80.536C423.763 81.88 423.971 82.792 424.387 83.272C424.835 83.752 425.587 83.992 426.643 83.992V85C426.003 84.968 425.059 84.936 423.811 84.904C422.563 84.84 421.299 84.808 420.019 84.808C418.739 84.808 417.427 84.84 416.083 84.904C414.771 84.936 413.779 84.968 413.107 85V83.992C414.163 83.992 414.899 83.752 415.315 83.272C415.763 82.792 415.987 81.88 415.987 80.536V65.368C415.987 63.928 415.779 62.872 415.363 62.2C414.947 61.496 414.195 61.144 413.107 61.144V60.136C414.131 60.232 415.123 60.28 416.083 60.28C417.523 60.28 418.883 60.232 420.163 60.136C421.475 60.008 422.675 59.832 423.763 59.608ZM444.126 59.464C445.534 59.464 446.654 59.64 447.486 59.992C448.35 60.344 449.006 60.792 449.454 61.336C449.966 61.944 450.334 62.728 450.558 63.688C450.814 64.648 450.942 65.944 450.942 67.576V80.536C450.942 81.88 451.15 82.792 451.566 83.272C452.014 83.752 452.766 83.992 453.822 83.992V85C453.182 84.968 452.222 84.936 450.942 84.904C449.694 84.84 448.478 84.808 447.294 84.808C445.982 84.808 444.718 84.84 443.502 84.904C442.286 84.936 441.374 84.968 440.766 85V83.992C441.662 83.992 442.286 83.752 442.638 83.272C442.99 82.792 443.166 81.88 443.166 80.536V65.272C443.166 64.536 443.086 63.912 442.926 63.4C442.766 62.856 442.494 62.456 442.11 62.2C441.726 61.912 441.182 61.768 440.478 61.768C439.742 61.768 439.054 61.96 438.414 62.344C437.806 62.728 437.31 63.272 436.926 63.976C436.574 64.648 436.398 65.416 436.398 66.28V80.536C436.398 81.88 436.574 82.792 436.926 83.272C437.278 83.752 437.902 83.992 438.798 83.992V85C438.19 84.968 437.31 84.936 436.158 84.904C435.006 84.84 433.838 84.808 432.654 84.808C431.342 84.808 430.03 84.84 428.718 84.904C427.406 84.936 426.414 84.968 425.742 85V83.992C426.798 83.992 427.534 83.752 427.95 83.272C428.398 82.792 428.622 81.88 428.622 80.536V65.368C428.622 63.928 428.414 62.872 427.998 62.2C427.582 61.496 426.83 61.144 425.742 61.144V60.136C426.766 60.232 427.758 60.28 428.718 60.28C430.158 60.28 431.518 60.232 432.798 60.136C434.11 60.008 435.31 59.832 436.398 59.608V63.496C437.166 62.024 438.206 60.984 439.518 60.376C440.862 59.768 442.398 59.464 444.126 59.464ZM461.708 94.024C459.628 94.024 457.804 93.848 456.236 93.496C454.668 93.176 453.452 92.68 452.588 92.008C451.724 91.368 451.292 90.584 451.292 89.656C451.292 88.696 451.74 87.816 452.636 87.016C453.532 86.248 454.908 85.64 456.764 85.192L457.196 85.96C456.652 86.504 456.268 87.032 456.044 87.544C455.82 88.088 455.708 88.616 455.708 89.128C455.708 90.44 456.3 91.448 457.484 92.152C458.668 92.856 460.3 93.208 462.38 93.208C463.82 93.208 465.068 93 466.124 92.584C467.18 92.2 467.996 91.64 468.572 90.904C469.148 90.168 469.436 89.304 469.436 88.312C469.436 87.384 469.084 86.6 468.38 85.96C467.708 85.32 466.332 85 464.252 85H461.468C460.092 85 458.908 84.824 457.916 84.472C456.924 84.12 456.156 83.624 455.612 82.984C455.1 82.344 454.844 81.544 454.844 80.584C454.844 79.144 455.404 77.928 456.524 76.936C457.644 75.912 459.196 74.968 461.18 74.104L461.612 74.488C461.132 74.776 460.668 75.112 460.22 75.496C459.804 75.88 459.596 76.392 459.596 77.032C459.596 78.056 460.204 78.568 461.42 78.568H466.364C468.284 78.568 469.98 78.792 471.452 79.24C472.924 79.656 474.076 80.36 474.908 81.352C475.772 82.312 476.204 83.576 476.204 85.144C476.204 86.744 475.692 88.216 474.668 89.56C473.644 90.904 472.06 91.976 469.916 92.776C467.804 93.608 465.068 94.024 461.708 94.024ZM462.332 74.776C460.412 74.776 458.7 74.504 457.196 73.96C455.724 73.416 454.556 72.584 453.692 71.464C452.828 70.312 452.396 68.856 452.396 67.096C452.396 65.336 452.828 63.896 453.692 62.776C454.556 61.656 455.724 60.824 457.196 60.28C458.7 59.736 460.412 59.464 462.332 59.464C464.22 59.464 465.916 59.736 467.42 60.28C468.924 60.824 470.108 61.656 470.972 62.776C471.836 63.896 472.268 65.336 472.268 67.096C472.268 68.856 471.836 70.312 470.972 71.464C470.108 72.584 468.924 73.416 467.42 73.96C465.916 74.504 464.22 74.776 462.332 74.776ZM462.332 73.912C463.036 73.912 463.596 73.416 464.012 72.424C464.46 71.432 464.684 69.656 464.684 67.096C464.684 64.536 464.46 62.776 464.012 61.816C463.596 60.824 463.036 60.328 462.332 60.328C461.596 60.328 461.02 60.824 460.604 61.816C460.188 62.776 459.98 64.536 459.98 67.096C459.98 69.656 460.188 71.432 460.604 72.424C461.02 73.416 461.596 73.912 462.332 73.912ZM469.964 63.64L468.956 63.304C469.468 61.992 470.252 60.936 471.308 60.136C472.396 59.304 473.58 58.888 474.86 58.888C475.916 58.888 476.7 59.176 477.212 59.752C477.756 60.328 478.028 61.08 478.028 62.008C478.028 62.936 477.772 63.656 477.26 64.168C476.78 64.648 476.204 64.888 475.532 64.888C474.956 64.888 474.428 64.696 473.948 64.312C473.468 63.896 473.196 63.288 473.132 62.488C473.068 61.656 473.356 60.616 473.996 59.368L474.284 59.656C473.1 60.072 472.188 60.584 471.548 61.192C470.94 61.8 470.412 62.616 469.964 63.64ZM494.315 52.312V60.136H499.499V61.096H494.315V80.728C494.315 81.528 494.459 82.104 494.747 82.456C495.035 82.776 495.467 82.936 496.043 82.936C496.523 82.936 497.019 82.776 497.531 82.456C498.075 82.136 498.571 81.592 499.019 80.824L499.787 81.304C499.179 82.616 498.331 83.672 497.243 84.472C496.187 85.272 494.795 85.672 493.067 85.672C492.011 85.672 491.067 85.528 490.235 85.24C489.435 84.984 488.763 84.584 488.219 84.04C487.515 83.336 487.051 82.472 486.827 81.448C486.635 80.392 486.539 79.032 486.539 77.368V61.096H482.699V60.136H486.539V54.136C488.043 54.136 489.419 53.992 490.667 53.704C491.947 53.416 493.163 52.952 494.315 52.312ZM508.263 47.464V63.496C509.063 62.024 510.119 60.984 511.431 60.376C512.775 59.768 514.311 59.464 516.039 59.464C517.447 59.464 518.567 59.64 519.399 59.992C520.263 60.344 520.919 60.792 521.367 61.336C521.879 61.944 522.247 62.728 522.471 63.688C522.695 64.648 522.807 65.944 522.807 67.576V80.536C522.807 81.88 523.015 82.792 523.431 83.272C523.879 83.752 524.631 83.992 525.687 83.992V85C525.079 84.968 524.135 84.936 522.855 84.904C521.607 84.84 520.375 84.808 519.159 84.808C517.879 84.808 516.631 84.84 515.415 84.904C514.199 84.936 513.271 84.968 512.631 85V83.992C513.527 83.992 514.151 83.752 514.503 83.272C514.855 82.792 515.031 81.88 515.031 80.536V65.272C515.031 64.536 514.951 63.912 514.791 63.4C514.631 62.856 514.359 62.456 513.975 62.2C513.623 61.912 513.095 61.768 512.391 61.768C511.655 61.768 510.967 61.96 510.327 62.344C509.719 62.696 509.223 63.224 508.839 63.928C508.455 64.6 508.263 65.384 508.263 66.28V80.536C508.263 81.88 508.439 82.792 508.791 83.272C509.175 83.752 509.799 83.992 510.663 83.992V85C510.087 84.968 509.223 84.936 508.071 84.904C506.919 84.84 505.735 84.808 504.519 84.808C503.239 84.808 501.927 84.84 500.583 84.904C499.271 84.936 498.279 84.968 497.607 85V83.992C498.663 83.992 499.399 83.752 499.815 83.272C500.263 82.792 500.487 81.88 500.487 80.536V53.224C500.487 51.784 500.279 50.728 499.863 50.056C499.479 49.352 498.727 49 497.607 49V47.992C498.631 48.088 499.623 48.136 500.583 48.136C502.055 48.136 503.431 48.088 504.711 47.992C505.991 47.864 507.175 47.688 508.263 47.464ZM537.074 59.464C539.89 59.464 542.098 60.296 543.698 61.96C545.298 63.624 546.098 66.36 546.098 70.168H530.69L530.642 69.256H539.57C539.634 67.688 539.57 66.248 539.378 64.936C539.186 63.592 538.866 62.52 538.418 61.72C538.002 60.92 537.442 60.52 536.738 60.52C535.778 60.52 534.962 61.208 534.29 62.584C533.618 63.96 533.202 66.296 533.042 69.592L533.234 69.928C533.17 70.28 533.138 70.648 533.138 71.032C533.138 71.384 533.138 71.768 533.138 72.184C533.138 74.392 533.426 76.152 534.002 77.464C534.61 78.776 535.362 79.704 536.258 80.248C537.154 80.792 538.082 81.064 539.042 81.064C539.586 81.064 540.194 80.984 540.866 80.824C541.538 80.664 542.242 80.328 542.978 79.816C543.714 79.304 544.418 78.552 545.09 77.56L545.906 77.848C545.554 79.096 544.946 80.328 544.082 81.544C543.25 82.728 542.178 83.72 540.866 84.52C539.554 85.288 537.97 85.672 536.114 85.672C534.002 85.672 532.114 85.24 530.45 84.376C528.786 83.48 527.458 82.088 526.466 80.2C525.506 78.28 525.026 75.784 525.026 72.712C525.026 69.672 525.554 67.176 526.61 65.224C527.666 63.272 529.106 61.832 530.93 60.904C532.754 59.944 534.802 59.464 537.074 59.464ZM566.424 59.464C567.768 59.464 568.968 59.608 570.024 59.896C571.08 60.152 571.944 60.488 572.616 60.904C573.448 61.416 574.12 62.072 574.632 62.872C575.144 63.672 575.4 64.6 575.4 65.656C575.4 66.872 575 67.896 574.2 68.728C573.4 69.528 572.392 69.928 571.176 69.928C569.928 69.928 568.936 69.56 568.2 68.824C567.496 68.088 567.144 67.144 567.144 65.992C567.144 64.872 567.496 63.928 568.2 63.16C568.904 62.392 569.736 61.88 570.696 61.624C570.44 61.368 570.104 61.16 569.688 61C569.304 60.84 568.84 60.76 568.296 60.76C567.208 60.76 566.296 61.08 565.56 61.72C564.824 62.328 564.216 63.176 563.736 64.264C563.288 65.32 562.952 66.52 562.728 67.864C562.536 69.176 562.44 70.536 562.44 71.944C562.44 74.312 562.744 76.168 563.352 77.512C563.992 78.824 564.776 79.752 565.704 80.296C566.664 80.808 567.64 81.064 568.632 81.064C569.144 81.064 569.736 80.984 570.408 80.824C571.08 80.664 571.784 80.328 572.52 79.816C573.288 79.304 574.008 78.536 574.68 77.512L575.496 77.8C575.144 79.048 574.552 80.28 573.72 81.496C572.888 82.712 571.816 83.72 570.504 84.52C569.192 85.288 567.592 85.672 565.704 85.672C563.592 85.672 561.672 85.24 559.944 84.376C558.248 83.512 556.888 82.12 555.864 80.2C554.84 78.28 554.328 75.768 554.328 72.664C554.328 69.656 554.856 67.192 555.912 65.272C556.968 63.32 558.408 61.864 560.232 60.904C562.088 59.944 564.152 59.464 566.424 59.464ZM599.544 59.608V79.768C599.544 81.208 599.752 82.28 600.168 82.984C600.616 83.656 601.368 83.992 602.424 83.992V85C601.432 84.904 600.44 84.856 599.448 84.856C597.976 84.856 596.6 84.904 595.32 85C594.072 85.096 592.888 85.272 591.768 85.528V81.64C591 83.08 589.944 84.12 588.6 84.76C587.288 85.368 585.784 85.672 584.088 85.672C582.68 85.672 581.544 85.496 580.68 85.144C579.848 84.792 579.208 84.328 578.76 83.752C578.248 83.176 577.88 82.408 577.656 81.448C577.432 80.456 577.32 79.16 577.32 77.56V65.368C577.32 63.928 577.112 62.872 576.696 62.2C576.28 61.496 575.528 61.144 574.44 61.144V60.136C575.464 60.232 576.456 60.28 577.416 60.28C578.888 60.28 580.264 60.232 581.544 60.136C582.824 60.008 584.008 59.832 585.096 59.608V79.864C585.096 80.6 585.176 81.224 585.336 81.736C585.496 82.248 585.768 82.648 586.152 82.936C586.536 83.224 587.048 83.368 587.688 83.368C588.424 83.368 589.096 83.176 589.704 82.792C590.312 82.408 590.808 81.88 591.192 81.208C591.576 80.504 591.768 79.72 591.768 78.856V65.368C591.768 63.928 591.56 62.872 591.144 62.2C590.728 61.496 589.976 61.144 588.888 61.144V60.136C589.912 60.232 590.904 60.28 591.864 60.28C593.336 60.28 594.712 60.232 595.992 60.136C597.272 60.008 598.456 59.832 599.544 59.608ZM612.036 47.464V80.536C612.036 81.88 612.244 82.792 612.66 83.272C613.108 83.752 613.86 83.992 614.916 83.992V85C614.308 84.968 613.38 84.936 612.132 84.904C610.884 84.84 609.604 84.808 608.292 84.808C607.012 84.808 605.7 84.84 604.356 84.904C603.044 84.936 602.052 84.968 601.38 85V83.992C602.436 83.992 603.172 83.752 603.588 83.272C604.036 82.792 604.26 81.88 604.26 80.536V53.176C604.26 51.768 604.052 50.728 603.636 50.056C603.252 49.352 602.5 49 601.38 49V47.992C602.404 48.088 603.396 48.136 604.356 48.136C605.828 48.136 607.204 48.088 608.484 47.992C609.764 47.864 610.948 47.688 612.036 47.464ZM620.499 47.608C622.003 47.608 623.171 47.944 624.003 48.616C624.867 49.288 625.299 50.264 625.299 51.544C625.299 52.824 624.867 53.8 624.003 54.472C623.171 55.144 622.003 55.48 620.499 55.48C618.995 55.48 617.811 55.144 616.947 54.472C616.115 53.8 615.699 52.824 615.699 51.544C615.699 50.264 616.115 49.288 616.947 48.616C617.811 47.944 618.995 47.608 620.499 47.608ZM624.723 59.608V80.536C624.723 81.88 624.931 82.792 625.347 83.272C625.795 83.752 626.547 83.992 627.603 83.992V85C626.963 84.968 626.019 84.936 624.771 84.904C623.523 84.84 622.259 84.808 620.979 84.808C619.699 84.808 618.387 84.84 617.043 84.904C615.731 84.936 614.739 84.968 614.067 85V83.992C615.123 83.992 615.859 83.752 616.275 83.272C616.723 82.792 616.947 81.88 616.947 80.536V65.368C616.947 63.928 616.739 62.872 616.323 62.2C615.907 61.496 615.155 61.144 614.067 61.144V60.136C615.091 60.232 616.083 60.28 617.043 60.28C618.483 60.28 619.843 60.232 621.123 60.136C622.435 60.008 623.635 59.832 624.723 59.608ZM645.087 59.464C646.495 59.464 647.615 59.64 648.447 59.992C649.311 60.344 649.967 60.792 650.415 61.336C650.927 61.944 651.295 62.728 651.519 63.688C651.775 64.648 651.903 65.944 651.903 67.576V80.536C651.903 81.88 652.111 82.792 652.527 83.272C652.975 83.752 653.727 83.992 654.783 83.992V85C654.143 84.968 653.183 84.936 651.903 84.904C650.655 84.84 649.439 84.808 648.255 84.808C646.943 84.808 645.679 84.84 644.463 84.904C643.247 84.936 642.335 84.968 641.727 85V83.992C642.623 83.992 643.247 83.752 643.599 83.272C643.951 82.792 644.127 81.88 644.127 80.536V65.272C644.127 64.536 644.047 63.912 643.887 63.4C643.727 62.856 643.455 62.456 643.071 62.2C642.687 61.912 642.143 61.768 641.439 61.768C640.703 61.768 640.015 61.96 639.375 62.344C638.767 62.728 638.271 63.272 637.887 63.976C637.535 64.648 637.359 65.416 637.359 66.28V80.536C637.359 81.88 637.535 82.792 637.887 83.272C638.239 83.752 638.863 83.992 639.759 83.992V85C639.151 84.968 638.271 84.936 637.119 84.904C635.967 84.84 634.799 84.808 633.615 84.808C632.303 84.808 630.991 84.84 629.679 84.904C628.367 84.936 627.375 84.968 626.703 85V83.992C627.759 83.992 628.495 83.752 628.911 83.272C629.359 82.792 629.583 81.88 629.583 80.536V65.368C629.583 63.928 629.375 62.872 628.959 62.2C628.543 61.496 627.791 61.144 626.703 61.144V60.136C627.727 60.232 628.719 60.28 629.679 60.28C631.119 60.28 632.479 60.232 633.759 60.136C635.071 60.008 636.271 59.832 637.359 59.608V63.496C638.127 62.024 639.167 60.984 640.479 60.376C641.823 59.768 643.359 59.464 645.087 59.464ZM660.07 85.336C658.598 85.336 657.382 85.064 656.422 84.52C655.462 83.944 654.758 83.192 654.31 82.264C653.862 81.336 653.638 80.344 653.638 79.288C653.638 77.944 653.942 76.84 654.55 75.976C655.19 75.112 656.006 74.424 656.998 73.912C657.99 73.368 659.03 72.92 660.118 72.568C661.206 72.216 662.246 71.88 663.238 71.56C664.23 71.208 665.03 70.808 665.638 70.36C666.246 69.88 666.549 69.272 666.549 68.536V64.552C666.549 63.848 666.438 63.192 666.214 62.584C666.022 61.944 665.654 61.432 665.109 61.048C664.598 60.632 663.878 60.424 662.95 60.424C662.374 60.424 661.814 60.504 661.27 60.664C660.726 60.824 660.246 61.08 659.83 61.432C660.854 61.784 661.606 62.312 662.086 63.016C662.598 63.72 662.854 64.504 662.854 65.368C662.854 66.552 662.438 67.496 661.606 68.2C660.806 68.872 659.846 69.208 658.726 69.208C657.51 69.208 656.566 68.824 655.894 68.056C655.254 67.288 654.934 66.36 654.934 65.272C654.934 64.312 655.174 63.512 655.654 62.872C656.134 62.2 656.838 61.592 657.766 61.048C658.694 60.504 659.814 60.104 661.126 59.848C662.438 59.592 663.83 59.464 665.302 59.464C666.806 59.464 668.182 59.624 669.43 59.944C670.71 60.232 671.798 60.824 672.694 61.72C673.398 62.456 673.846 63.352 674.038 64.408C674.23 65.464 674.326 66.808 674.326 68.44V81.4C674.326 82.2 674.39 82.76 674.518 83.08C674.678 83.368 674.918 83.512 675.238 83.512C675.526 83.512 675.798 83.432 676.054 83.272C676.31 83.112 676.566 82.936 676.822 82.744L677.35 83.56C676.646 84.136 675.814 84.584 674.854 84.904C673.894 85.192 672.854 85.336 671.734 85.336C670.454 85.336 669.446 85.176 668.71 84.856C668.006 84.504 667.494 84.04 667.174 83.464C666.886 82.888 666.726 82.248 666.694 81.544C665.99 82.696 665.11 83.624 664.054 84.328C662.998 85 661.67 85.336 660.07 85.336ZM664.054 81.88C664.566 81.88 665.014 81.784 665.398 81.592C665.814 81.368 666.198 81 666.549 80.488V70.504C666.294 70.952 665.942 71.384 665.494 71.8C665.078 72.184 664.63 72.584 664.15 73C663.67 73.384 663.206 73.816 662.758 74.296C662.342 74.776 661.99 75.352 661.702 76.024C661.446 76.664 661.318 77.448 661.318 78.376C661.318 79.624 661.574 80.52 662.086 81.064C662.598 81.608 663.254 81.88 664.054 81.88ZM692.825 59.464C693.913 59.464 694.777 59.704 695.417 60.184C696.057 60.632 696.521 61.224 696.809 61.96C697.097 62.664 697.241 63.368 697.241 64.072C697.241 65.384 696.857 66.44 696.089 67.24C695.353 68.04 694.377 68.44 693.161 68.44C691.881 68.44 690.905 68.152 690.233 67.576C689.561 66.968 689.225 66.168 689.225 65.176C689.225 64.184 689.433 63.368 689.849 62.728C690.297 62.088 690.841 61.544 691.481 61.096C691.001 61.032 690.537 61.096 690.089 61.288C689.577 61.416 689.097 61.656 688.649 62.008C688.201 62.36 687.817 62.776 687.497 63.256C687.177 63.736 686.921 64.264 686.729 64.84C686.569 65.384 686.489 65.944 686.489 66.52V80.056C686.489 81.592 686.825 82.632 687.497 83.176C688.201 83.72 689.305 83.992 690.809 83.992V85C690.073 84.968 688.985 84.936 687.545 84.904C686.105 84.84 684.617 84.808 683.081 84.808C681.705 84.808 680.313 84.84 678.905 84.904C677.529 84.936 676.505 84.968 675.833 85V83.992C676.889 83.992 677.625 83.752 678.041 83.272C678.489 82.792 678.713 81.88 678.713 80.536V65.368C678.713 63.928 678.505 62.872 678.089 62.2C677.673 61.496 676.921 61.144 675.833 61.144V60.136C676.857 60.232 677.849 60.28 678.809 60.28C680.249 60.28 681.609 60.232 682.889 60.136C684.201 60.008 685.401 59.832 686.489 59.608V63.544C686.873 62.712 687.369 61.992 687.977 61.384C688.617 60.776 689.337 60.312 690.137 59.992C690.969 59.64 691.865 59.464 692.825 59.464ZM719.496 60.136V61.144C718.888 61.336 718.296 61.736 717.72 62.344C717.176 62.952 716.648 64.008 716.136 65.512L709.752 83.944L707.64 88.408L696.648 63.832C696.104 62.616 695.576 61.864 695.064 61.576C694.552 61.288 694.12 61.144 693.768 61.144V60.136C694.952 60.232 696.168 60.312 697.416 60.376C698.664 60.408 699.848 60.424 700.968 60.424C702.376 60.424 703.624 60.392 704.712 60.328C705.8 60.264 706.824 60.2 707.784 60.136V61.144C707.176 61.144 706.6 61.176 706.056 61.24C705.512 61.304 705.128 61.496 704.904 61.816C704.712 62.104 704.776 62.632 705.096 63.4L711.192 77.992L710.712 78.328L713.64 69.832C714.312 67.88 714.6 66.28 714.504 65.032C714.408 63.784 714.04 62.84 713.4 62.2C712.76 61.56 711.944 61.208 710.952 61.144V60.136C711.432 60.168 711.96 60.2 712.536 60.232C713.144 60.264 713.736 60.296 714.312 60.328C714.888 60.328 715.384 60.328 715.8 60.328C716.408 60.328 717.08 60.312 717.816 60.28C718.552 60.248 719.112 60.2 719.496 60.136ZM709.752 83.944L707.832 89.416C707.544 90.216 707.224 90.904 706.872 91.48C706.552 92.056 706.168 92.52 705.72 92.872C705.272 93.224 704.696 93.496 703.992 93.688C703.32 93.912 702.456 94.024 701.4 94.024C700.568 94.024 699.688 93.88 698.76 93.592C697.864 93.336 697.096 92.904 696.456 92.296C695.848 91.688 695.544 90.872 695.544 89.848C695.544 88.792 695.928 87.944 696.696 87.304C697.464 86.696 698.504 86.392 699.816 86.392C701 86.392 701.944 86.664 702.648 87.208C703.384 87.752 703.752 88.568 703.752 89.656C703.752 90.328 703.528 90.984 703.08 91.624C702.632 92.264 701.928 92.744 700.968 93.064C701.192 93.096 701.432 93.112 701.688 93.112C701.976 93.144 702.2 93.16 702.36 93.16C703.352 93.16 704.232 92.84 705 92.2C705.768 91.592 706.376 90.632 706.824 89.32L708.504 84.232L709.752 83.944ZM195.488 124.136V125.144C194.784 125.144 194.192 125.192 193.712 125.288C193.232 125.352 192.896 125.544 192.704 125.864C192.544 126.184 192.56 126.696 192.752 127.4L197.168 141.656L196.448 142.52L201.584 124.136L202.592 124.616L195.728 149.048C195.088 148.984 194.432 148.952 193.76 148.952C193.12 148.952 192.48 148.984 191.84 149.048L184.352 127.832C183.904 126.552 183.408 125.784 182.864 125.528C182.352 125.272 181.92 125.144 181.568 125.144V124.136C182.72 124.232 183.92 124.312 185.168 124.376C186.416 124.408 187.776 124.424 189.248 124.424C190.24 124.424 191.28 124.392 192.368 124.328C193.488 124.264 194.528 124.2 195.488 124.136ZM220.112 124.136V125.144C219.504 125.336 218.912 125.736 218.336 126.344C217.792 126.92 217.264 127.976 216.752 129.512L210.56 149.048C209.92 148.984 209.28 148.952 208.64 148.952C208 148.952 207.344 148.984 206.672 149.048L200.288 130.952L201.632 124.136C202.336 124.168 203.056 124.184 203.792 124.184C204.528 124.184 205.248 124.168 205.952 124.136L212.192 143.384L211.616 142.568L214.352 133.832C214.96 131.848 215.184 130.232 215.024 128.984C214.896 127.736 214.48 126.808 213.776 126.2C213.104 125.56 212.256 125.208 211.232 125.144V124.136C211.68 124.168 212.24 124.2 212.912 124.232C213.584 124.264 214.24 124.296 214.88 124.328C215.52 124.328 216.032 124.328 216.416 124.328C217.024 124.328 217.696 124.312 218.432 124.28C219.168 124.248 219.728 124.2 220.112 124.136ZM230.019 123.464C232.419 123.464 234.515 123.896 236.307 124.76C238.131 125.592 239.539 126.968 240.531 128.888C241.555 130.808 242.067 133.368 242.067 136.568C242.067 139.768 241.555 142.328 240.531 144.248C239.539 146.168 238.131 147.56 236.307 148.424C234.515 149.256 232.419 149.672 230.019 149.672C227.651 149.672 225.555 149.256 223.731 148.424C221.939 147.56 220.531 146.168 219.507 144.248C218.483 142.328 217.971 139.768 217.971 136.568C217.971 133.368 218.483 130.808 219.507 128.888C220.531 126.968 221.939 125.592 223.731 124.76C225.555 123.896 227.651 123.464 230.019 123.464ZM230.019 124.424C228.899 124.424 227.955 125.384 227.187 127.304C226.451 129.192 226.083 132.28 226.083 136.568C226.083 140.856 226.451 143.96 227.187 145.88C227.955 147.768 228.899 148.712 230.019 148.712C231.171 148.712 232.115 147.768 232.851 145.88C233.587 143.96 233.955 140.856 233.955 136.568C233.955 132.28 233.587 129.192 232.851 127.304C232.115 125.384 231.171 124.424 230.019 124.424ZM258.93 123.464C260.018 123.464 260.882 123.704 261.522 124.184C262.162 124.632 262.626 125.224 262.914 125.96C263.202 126.664 263.346 127.368 263.346 128.072C263.346 129.384 262.962 130.44 262.194 131.24C261.458 132.04 260.482 132.44 259.266 132.44C257.986 132.44 257.01 132.152 256.338 131.576C255.666 130.968 255.33 130.168 255.33 129.176C255.33 128.184 255.538 127.368 255.954 126.728C256.402 126.088 256.946 125.544 257.586 125.096C257.106 125.032 256.642 125.096 256.194 125.288C255.682 125.416 255.202 125.656 254.754 126.008C254.306 126.36 253.922 126.776 253.602 127.256C253.282 127.736 253.026 128.264 252.834 128.84C252.674 129.384 252.594 129.944 252.594 130.52V144.056C252.594 145.592 252.93 146.632 253.602 147.176C254.306 147.72 255.41 147.992 256.914 147.992V149C256.178 148.968 255.09 148.936 253.65 148.904C252.21 148.84 250.722 148.808 249.186 148.808C247.81 148.808 246.418 148.84 245.01 148.904C243.634 148.936 242.61 148.968 241.938 149V147.992C242.994 147.992 243.73 147.752 244.146 147.272C244.594 146.792 244.818 145.88 244.818 144.536V129.368C244.818 127.928 244.61 126.872 244.194 126.2C243.778 125.496 243.026 125.144 241.938 125.144V124.136C242.962 124.232 243.954 124.28 244.914 124.28C246.354 124.28 247.714 124.232 248.994 124.136C250.306 124.008 251.506 123.832 252.594 123.608V127.544C252.978 126.712 253.474 125.992 254.082 125.384C254.722 124.776 255.442 124.312 256.242 123.992C257.074 123.64 257.97 123.464 258.93 123.464ZM270.944 111.464V144.536C270.944 145.88 271.152 146.792 271.568 147.272C272.016 147.752 272.768 147.992 273.824 147.992V149C273.216 148.968 272.288 148.936 271.04 148.904C269.792 148.84 268.512 148.808 267.2 148.808C265.92 148.808 264.608 148.84 263.264 148.904C261.952 148.936 260.96 148.968 260.288 149V147.992C261.344 147.992 262.08 147.752 262.496 147.272C262.944 146.792 263.168 145.88 263.168 144.536V117.176C263.168 115.768 262.96 114.728 262.544 114.056C262.16 113.352 261.408 113 260.288 113V111.992C261.312 112.088 262.304 112.136 263.264 112.136C264.736 112.136 266.112 112.088 267.392 111.992C268.672 111.864 269.856 111.688 270.944 111.464ZM296.65 111.464V143.72C296.65 145.16 296.858 146.232 297.274 146.936C297.722 147.608 298.474 147.944 299.53 147.944V148.952C298.538 148.856 297.546 148.808 296.554 148.808C295.114 148.808 293.754 148.856 292.474 148.952C291.194 149.048 289.994 149.224 288.874 149.48V117.224C288.874 115.784 288.666 114.728 288.25 114.056C287.866 113.352 287.114 113 285.994 113V111.992C287.018 112.088 288.01 112.136 288.97 112.136C290.442 112.136 291.818 112.088 293.098 111.992C294.378 111.864 295.562 111.688 296.65 111.464ZM283.738 123.464C285.146 123.464 286.362 123.672 287.386 124.088C288.41 124.472 289.258 125.128 289.93 126.056L289.354 126.536C288.938 125.992 288.426 125.592 287.818 125.336C287.242 125.08 286.634 124.952 285.994 124.952C284.458 124.952 283.258 125.912 282.394 127.832C281.562 129.72 281.146 132.632 281.146 136.568C281.146 139.32 281.306 141.496 281.626 143.096C281.978 144.664 282.442 145.768 283.018 146.408C283.626 147.048 284.298 147.368 285.034 147.368C286.026 147.368 286.906 147 287.674 146.264C288.474 145.496 288.89 144.488 288.922 143.24L289.066 145.256C288.49 146.728 287.69 147.832 286.666 148.568C285.674 149.304 284.394 149.672 282.826 149.672C280.97 149.672 279.29 149.208 277.786 148.28C276.314 147.352 275.146 145.928 274.282 144.008C273.45 142.056 273.034 139.528 273.034 136.424C273.034 133.512 273.482 131.112 274.378 129.224C275.306 127.304 276.57 125.864 278.17 124.904C279.802 123.944 281.658 123.464 283.738 123.464Z" fill="#1C7C54"/>
</svg>
